<?xml version="1.0" encoding="UTF-8"?>
<svg width="146px" height="122px" viewBox="0 0 146 122" version="1.1" xmlns="http://www.w3.org/2000/svg" xmlns:xlink="http://www.w3.org/1999/xlink">
    <title>9ADD5563-4C05-4FDA-9DF7-ADC2125C2C39</title>
    <defs>
        <path d="M43.9578094,31.875 C40.4151531,40.625 31.8710996,45.8333333 22.910263,45.8333333 C19.9927813,45.8333333 16.8669081,45.2083333 13.9494264,43.9583333 C2.27949972,38.9583333 -3.13868053,25.625 1.86271663,13.9583333 C4.15502366,8.54166667 8.32285463,4.16666667 13.7410349,1.875 C14.7829926,1.45833333 16.0333419,1.875 16.450125,2.91666667 C16.8669081,3.95833333 16.450125,5.20833333 15.4081673,5.625 C11.0319448,7.70833333 7.48928843,11.25 5.6137645,15.625 C1.65432508,25.2083333 6.03054759,36.25 15.6165588,40.2083333 C25.20257,44.1666667 36.2473221,39.7916667 40.2067615,30.2083333 C40.6235446,29.1666667 41.8738939,28.75 42.9158517,29.1666667 C43.9578094,29.5833333 44.3745925,30.8333333 43.9578094,31.875 Z M45.8333333,22.9166667 C45.8333333,24.1666667 44.9997671,25 43.7494178,25 L22.910263,25 C21.6599137,25 20.8263475,24.1666667 20.8263475,22.9166667 L20.8263475,2.08333333 C20.8263475,0.833333333 21.6599137,0 22.910263,0 C35.6221475,0 45.8333333,10.2083333 45.8333333,22.9166667 Z M41.4571108,20.8333333 C40.4151531,12.0833333 33.538232,5.20833333 24.9941785,4.375 L24.9941785,20.8333333 L41.4571108,20.8333333 Z" id="path-1"></path>
    </defs>
    <g id="REX-desktop" stroke="none" stroke-width="1" fill="none" fill-rule="evenodd">
        <g id="01.Landing-A-42-logo" transform="translate(-850.000000, -1106.000000)">
            <g id="accurate" transform="translate(851.000000, 1107.000000)">
                <polygon id="Rectangle-Copy-5" fill="#6DC8C9" transform="translate(72.000000, 60.000000) scale(-1, 1) rotate(90.000000) translate(-72.000000, -60.000000) " points="12 9.44099775 71.3801122 -12 132 28.7869856 132 112.661939 71.3801122 132 12 99.1237548"></polygon>
                <polyline id="Line-Copy-2" stroke="#FFFFFF" opacity="0.200000003" stroke-linecap="square" points="1.09300749e-14 59.3801122 72 56.8 40.7869856 120"></polyline>
                <polyline id="Line-Copy-3" stroke="#FFFFFF" opacity="0.200000003" stroke-linecap="square" points="21.6 6.99246216e-14 72.4 56.8 144 59.3801122"></polyline>
                <g id="icon-/-target" transform="translate(49.083333, 34.083333)">
                    <mask id="mask-2" fill="white">
                        <use xlink:href="#path-1"></use>
                    </mask>
                    <use id="Mask" fill="#FFFE71" fill-rule="nonzero" xlink:href="#path-1"></use>
                    <g id="Icon-Color" mask="url(#mask-2)" fill="#FFFE71">
                        <g transform="translate(-2.083333, -2.083333)" id="Shape">
                            <rect x="0" y="0" width="50" height="50"></rect>
                        </g>
                    </g>
                </g>
            </g>
        </g>
    </g>
</svg>