<?xml version="1.0" encoding="UTF-8"?>
<svg width="42px" height="75px" viewBox="0 0 42 75" version="1.1"
  xmlns="http://www.w3.org/2000/svg"
  xmlns:xlink="http://www.w3.org/1999/xlink">
  <title>ball to top</title>
  <defs>
    <filter x="-40.1%" y="-400.9%" width="180.2%" height="901.8%" filterUnits="objectBoundingBox" id="filter-1">
      <feGaussianBlur stdDeviation="3" in="SourceGraphic"></feGaussianBlur>
    </filter>
    <radialGradient cx="63.9405573%" cy="26.1938917%" fx="63.9405573%" fy="26.1938917%" r="49.053135%" id="radialGradient-2">
      <stop stop-color="#FFF9F9" offset="0%"></stop>
      <stop stop-color="#F3B1B1" offset="100%"></stop>
    </radialGradient>
    <path d="M8,0 L8.0193545,0.000186147798 C8.04268105,0.000634893312 8.06599489,0.00189498016 8.08925007,0.00396640833 L8,0 C8.05062028,0 8.10036209,0.00376118706 8.14896122,0.0110193427 C8.16594901,0.0136280806 8.18337526,0.0167021706 8.20072576,0.020240071 C8.22274608,0.0246397952 8.24443648,0.0298336259 8.26583961,0.0357209664 C8.28146328,0.0400977346 8.29685134,0.0447287157 8.31214252,0.0497380859 C8.33179768,0.0561224864 8.3515792,0.0633157362 8.37105852,0.0711039637 C8.38879565,0.0781964242 8.4060985,0.0856790475 8.42322155,0.0936733617 C8.4438914,0.103376643 8.46429395,0.11379392 8.48427695,0.12487577 C8.49639444,0.131498828 8.50861311,0.138606922 8.52070875,0.145995454 C8.54627495,0.1617187 8.57113069,0.178490093 8.5951593,0.196313506 C8.60260304,0.201753444 8.60984241,0.207284482 8.61702235,0.212927691 C8.61966276,0.215071126 8.62256244,0.217372104 8.62544899,0.219688767 L8.70710678,0.292893219 L8.70710678,0.292893219 L15.7071068,7.29289322 C16.0976311,7.68341751 16.0976311,8.31658249 15.7071068,8.70710678 C15.3165825,9.09763107 14.6834175,9.09763107 14.2928932,8.70710678 L9,3.414 L9,15 C9,15.5522847 8.55228475,16 8,16 C7.44771525,16 7,15.5522847 7,15 L7,3.414 L1.70710678,8.70710678 C1.31658249,9.09763107 0.683417511,9.09763107 0.292893219,8.70710678 C-0.0976310729,8.31658249 -0.0976310729,7.68341751 0.292893219,7.29289322 L7.29289322,0.292893219 L7.37455101,0.219688767 C7.37743756,0.217372104 7.38033724,0.215071126 7.38324992,0.212785965 L7.29289322,0.292893219 C7.32828727,0.257499166 7.36567442,0.225312953 7.40469339,0.196334578 C7.42886931,0.178490093 7.45372505,0.1617187 7.47933981,0.146067433 C7.49138689,0.138606922 7.50360556,0.131498828 7.5159379,0.124671174 C7.53570605,0.11379392 7.5561086,0.103376643 7.57690085,0.0936537803 C7.5939015,0.0856790475 7.61120435,0.0781964242 7.62866398,0.0712254916 C7.6484208,0.0633157362 7.66820232,0.0561224864 7.68826359,0.0495466818 C7.70314866,0.0447287157 7.71853672,0.0400977346 7.73400703,0.0358451423 C7.75556352,0.0298336259 7.77725392,0.0246397952 7.7992059,0.0201651536 C7.81662474,0.0167021706 7.83405099,0.0136280806 7.85153313,0.0110178009 C7.87050421,0.00811222997 7.89015296,0.00576611731 7.90996805,0.00399798209 C7.93433491,0.00186560354 7.95798023,0.000599315847 7.98163795,0.000167545257 C7.9872016,6.02394912e-05 7.99359377,0 8,0 Z" id="path-3"></path>
  </defs>
  <g id="REX-desktop" stroke="none" stroke-width="1" fill="none" fill-rule="evenodd">
    <g id="01.Landing-C---menu-hover" transform="translate(-1245.000000, -3661.000000)">
      <g id="footer" transform="translate(0.000000, 3371.000000)">
        <g id="ball-to-top" transform="translate(1246.000000, 290.000000)">
          <ellipse id="Oval" fill="#000000" opacity="0.8" filter="url(#filter-1)" cx="20.2040816" cy="63.9795918" rx="11.2244898" ry="1.12244898"></ellipse>
          <g id="ball" fill="url(#radialGradient-2)">
            <circle id="Oval" cx="20.2040816" cy="20.2040816" r="20.2040816"></circle>
          </g>
          <g id="arrow-up" transform="translate(13.000000, 13.102041)" stroke="#000000" stroke-linecap="round" stroke-linejoin="round" stroke-width="1.5">
            <line x1="7" y1="14" x2="7" y2="0" id="Path"></line>
            <polyline id="Path" points="0 7 7 0 14 7"></polyline>
          </g>
          <g id="icon-/-arrow-up" transform="translate(12.000000, 12.102041)">
            <mask id="mask-4" fill="white">
              <use xlink:href="#path-3"></use>
            </mask>
            <use id="Mask" fill="#000000" fill-rule="nonzero" xlink:href="#path-3"></use>
            <g id="Icon-Color" mask="url(#mask-4)" fill="#FFFFFF">
              <g transform="translate(-4.000000, -4.000000)" id="Shape">
                <rect x="0" y="0" width="24" height="24"></rect>
              </g>
            </g>
          </g>
        </g>
      </g>
    </g>
  </g>
</svg>