<?xml version="1.0" encoding="UTF-8"?>
<svg width="44px" height="66px" viewBox="0 0 44 66" version="1.1" xmlns="http://www.w3.org/2000/svg" xmlns:xlink="http://www.w3.org/1999/xlink">
    <title>menu box</title>
    <defs>
        <filter x="-28.1%" y="-450.0%" width="156.2%" height="1000.0%" filterUnits="objectBoundingBox" id="filter-1">
            <feGaussianBlur stdDeviation="3" in="SourceGraphic"></feGaussianBlur>
        </filter>
    </defs>
    <g id="REX-desktop" stroke="none" stroke-width="1" fill="none" fill-rule="evenodd">
        <g id="01.Landing-B---bouncing-ball-path" transform="translate(-1126.000000, -49.000000)">
            <g id="menu-box" transform="translate(1128.000000, 50.000000)">
                <ellipse id="Oval" fill="#000000" opacity="0.8" filter="url(#filter-1)" cx="20" cy="57" rx="16" ry="1"></ellipse>
                <g id="box" stroke="#FFFFFF" stroke-linejoin="round" stroke-width="0.5">
                    <polygon id="Fill-7" fill="#F2EA61" points="39.9598948 11 39.8714363 32.8086187 19 44.9370032 19.0884585 23.1283844"></polygon>
                    <polygon id="Fill-10" fill="#E6DD5C" points="19.0401052 44.9297711 3.28509409e-15 33.9393939 0.08845855 12.1283844 19.1285637 23.1211524"></polygon>
                    <polygon id="Fill-9" fill="#FEF566" points="20.9598948 0 40 10.9927679 19.1285637 23.1211524 0.08845855 12.1283844"></polygon>
                </g>
                <g id="box" stroke="#6DC8C9" stroke-linejoin="round" stroke-width="0.5">
                    <polygon id="Fill-7" points="39.9598948 11 39.8714363 32.8086187 19 44.9370032 19.0884585 23.1283844"></polygon>
                    <polygon id="Fill-10" points="19.0401052 44.9297711 3.28509409e-15 33.9393939 0.08845855 12.1283844 19.1285637 23.1211524"></polygon>
                    <polygon id="Fill-9" points="20.9598948 0 40 10.9927679 19.1285637 23.1211524 0.08845855 12.1283844"></polygon>
                </g>
            </g>
        </g>
    </g>
</svg>