<?xml version="1.0" encoding="UTF-8"?>
<svg width="234px" height="139px" viewBox="0 0 234 139" version="1.1" xmlns="http://www.w3.org/2000/svg" xmlns:xlink="http://www.w3.org/1999/xlink">
    <title>stairs</title>
    <g id="REX-desktop" stroke="none" stroke-width="1" fill="none" fill-rule="evenodd">
        <g id="01.Landing-A" transform="translate(-840.000000, -633.000000)">
            <g id="stairs" transform="translate(841.296407, 633.850384)">
                <g id="stair" opacity="0.100000001" transform="translate(116.000000, 0.000000)">
                    <path d="M92.4159341,24.8521679 L92.6340132,29.6071387 C92.4615981,29.6589203 92.2775446,29.7063875 92.0832424,29.7488519 L91.8860487,29.7904111 C91.68149,29.8289305 91.4699483,29.8634318 91.2513475,29.8924575 C91.1103857,29.9102417 90.9690023,29.9264402 90.8274666,29.9397235 L90.6440168,29.9564344 L90.460634,29.9705449 L90.1219358,29.9889258 C90.0110025,29.9933006 89.9033353,29.9960576 89.7956105,29.9973713 L89.7953139,29.998633 L89.4716426,30 L89.139386,29.9926097 L88.9213069,25.2376389 C89.0299093,25.2421642 89.1417364,25.2435967 89.2535635,25.2450292 C89.3606397,25.2462729 89.4689373,25.2449675 89.5772349,25.2436622 L89.9038567,25.233955 L89.9038567,25.233955 L89.9397014,26.0200868 L89.9048394,25.2333187 L90.0737543,25.2255396 L90.2415189,25.2151901 C90.3663975,25.207167 90.4878227,25.1978637 90.6090955,25.1856451 C90.7509233,25.1714694 90.8956838,25.1550934 91.0336138,25.1376147 C91.1791174,25.1181789 91.321671,25.0970142 91.4611271,25.0732189 L91.6674647,25.0359708 L91.8652942,24.9953826 C92.0605388,24.952785 92.2459851,24.9049469 92.4159341,24.8521679 Z M88.5674186,25.2180842 C88.6830039,25.2266275 88.8018901,25.2335357 88.9206239,25.2375286 L89.1387029,29.9924994 C89.0165158,29.9872263 88.9010829,29.9815983 88.7854977,29.973055 L88.5674186,25.2180842 Z M1.03866695,8.29010897 L87.645034,25.1029907 C87.7496263,25.1236586 87.8604323,25.1415477 87.9751506,25.1574989 L88.1499068,25.1805011 L88.3550694,25.2015069 L88.5667737,25.2187028 L88.7848527,29.9736736 L88.5737236,29.9563505 L88.3679967,29.9350642 C88.1907845,29.9136809 88.020098,29.8875697 87.8627678,29.8578335 L1.25674601,13.0450798 L1.03866695,8.29010897 Z M114.27426,18.1327501 L114.492339,22.8877209 L92.6343357,29.6068294 L92.4162566,24.8518586 L114.27426,18.1327501 Z M115.186371,17.5136137 L115.404451,22.2685845 L115.398917,22.3090857 L115.398917,22.3090857 L115.386512,22.352987 C115.374375,22.3799344 115.358937,22.4085168 115.336745,22.4374542 C115.314465,22.4662388 115.285907,22.495207 115.250669,22.5231121 L115.250902,22.5249861 C115.212485,22.5557996 115.17079,22.5867854 115.119364,22.6182824 L115.119367,22.6194499 C115.08001,22.6439298 115.036115,22.6679984 114.988685,22.6916032 L114.914736,22.7278398 C114.795672,22.7823301 114.652893,22.8366048 114.492999,22.8873938 L114.27492,18.132423 C114.438191,18.0814566 114.577593,18.0273593 114.696657,17.972869 C114.773008,17.9369934 114.842252,17.9011989 114.901288,17.8644791 L114.973584,19.4489789 L114.902309,17.8645717 L114.992897,17.8021695 L115.031495,17.7705236 C115.067196,17.7408764 115.096143,17.7115842 115.118335,17.6826469 C115.140315,17.655767 115.155509,17.6280083 115.16742,17.6003837 C115.179135,17.5695365 115.184442,17.5414863 115.186371,17.5136137 Z M0.000221853615,7.74276578 C0.00812162907,7.95867439 0.357190315,8.15811866 1.03800676,8.29043599 L1.25608582,13.0454068 C0.575269376,12.9130895 0.226200689,12.7136452 0.218300914,12.4977366 L0.000221853615,7.74276578 Z" id="Shape" fill="#E3DA49"></path>
                    <path d="M114.155722,16.9534369 C115.474871,17.2100338 115.519872,17.7206516 114.3338,18.1133288 L92.4146214,24.8529677 C91.1047718,25.2550463 88.9974267,25.3657722 87.6460777,25.1035205 L1.03633342,8.29081624 C-0.243964162,8.04098633 -0.342097622,7.55587958 0.764779719,7.1623931 L0.9604207,7.09771641 L0.9604207,7.09771641 L22.7774336,0.391285431 C24.0672489,-0.00535557955 26.1946283,-0.121519059 27.5493545,0.140555197 L114.155722,16.9534369 Z" id="Fill-33" fill="#FEF566"></path>
                </g>
                <g id="stair-copy" opacity="0.300000012" transform="translate(87.000000, 27.000000)">
                    <path d="M92.4159341,24.8521679 L92.6340132,29.6071387 C92.4615981,29.6589203 92.2775446,29.7063875 92.0832424,29.7488519 L91.8860487,29.7904111 C91.68149,29.8289305 91.4699483,29.8634318 91.2513475,29.8924575 C91.1103857,29.9102417 90.9690023,29.9264402 90.8274666,29.9397235 L90.6440168,29.9564344 L90.460634,29.9705449 L90.1219358,29.9889258 C90.0110025,29.9933006 89.9033353,29.9960576 89.7956105,29.9973713 L89.7953139,29.998633 L89.4716426,30 L89.139386,29.9926097 L88.9213069,25.2376389 C89.0299093,25.2421642 89.1417364,25.2435967 89.2535635,25.2450292 C89.3606397,25.2462729 89.4689373,25.2449675 89.5772349,25.2436622 L89.9038567,25.233955 L89.9038567,25.233955 L89.9397014,26.0200868 L89.9048394,25.2333187 L90.0737543,25.2255396 L90.2415189,25.2151901 C90.3663975,25.207167 90.4878227,25.1978637 90.6090955,25.1856451 C90.7509233,25.1714694 90.8956838,25.1550934 91.0336138,25.1376147 C91.1791174,25.1181789 91.321671,25.0970142 91.4611271,25.0732189 L91.6674647,25.0359708 L91.8652942,24.9953826 C92.0605388,24.952785 92.2459851,24.9049469 92.4159341,24.8521679 Z M88.5674186,25.2180842 C88.6830039,25.2266275 88.8018901,25.2335357 88.9206239,25.2375286 L89.1387029,29.9924994 C89.0165158,29.9872263 88.9010829,29.9815983 88.7854977,29.973055 L88.5674186,25.2180842 Z M1.03866695,8.29010897 L87.645034,25.1029907 C87.7496263,25.1236586 87.8604323,25.1415477 87.9751506,25.1574989 L88.1499068,25.1805011 L88.3550694,25.2015069 L88.5667737,25.2187028 L88.7848527,29.9736736 L88.5737236,29.9563505 L88.3679967,29.9350642 C88.1907845,29.9136809 88.020098,29.8875697 87.8627678,29.8578335 L1.25674601,13.0450798 L1.03866695,8.29010897 Z M114.27426,18.1327501 L114.492339,22.8877209 L92.6343357,29.6068294 L92.4162566,24.8518586 L114.27426,18.1327501 Z M115.186371,17.5136137 L115.404451,22.2685845 L115.398917,22.3090857 L115.398917,22.3090857 L115.386512,22.352987 C115.374375,22.3799344 115.358937,22.4085168 115.336745,22.4374542 C115.314465,22.4662388 115.285907,22.495207 115.250669,22.5231121 L115.250902,22.5249861 C115.212485,22.5557996 115.17079,22.5867854 115.119364,22.6182824 L115.119367,22.6194499 C115.08001,22.6439298 115.036115,22.6679984 114.988685,22.6916032 L114.914736,22.7278398 C114.795672,22.7823301 114.652893,22.8366048 114.492999,22.8873938 L114.27492,18.132423 C114.438191,18.0814566 114.577593,18.0273593 114.696657,17.972869 C114.773008,17.9369934 114.842252,17.9011989 114.901288,17.8644791 L114.973584,19.4489789 L114.902309,17.8645717 L114.992897,17.8021695 L115.031495,17.7705236 C115.067196,17.7408764 115.096143,17.7115842 115.118335,17.6826469 C115.140315,17.655767 115.155509,17.6280083 115.16742,17.6003837 C115.179135,17.5695365 115.184442,17.5414863 115.186371,17.5136137 Z M0.000221853615,7.74276578 C0.00812162907,7.95867439 0.357190315,8.15811866 1.03800676,8.29043599 L1.25608582,13.0454068 C0.575269376,12.9130895 0.226200689,12.7136452 0.218300914,12.4977366 L0.000221853615,7.74276578 Z" id="Shape" fill="#E3DA49"></path>
                    <path d="M114.155722,16.9534369 C115.474871,17.2100338 115.519872,17.7206516 114.3338,18.1133288 L92.4146214,24.8529677 C91.1047718,25.2550463 88.9974267,25.3657722 87.6460777,25.1035205 L1.03633342,8.29081624 C-0.243964162,8.04098633 -0.342097622,7.55587958 0.764779719,7.1623931 L0.9604207,7.09771641 L0.9604207,7.09771641 L22.7774336,0.391285431 C24.0672489,-0.00535557955 26.1946283,-0.121519059 27.5493545,0.140555197 L114.155722,16.9534369 Z" id="Fill-33" fill="#FEF566"></path>
                </g>
                <g id="stair-copy-2" opacity="0.5" transform="translate(58.000000, 54.000000)">
                    <path d="M92.4159341,24.8521679 L92.6340132,29.6071387 C92.4615981,29.6589203 92.2775446,29.7063875 92.0832424,29.7488519 L91.8860487,29.7904111 C91.68149,29.8289305 91.4699483,29.8634318 91.2513475,29.8924575 C91.1103857,29.9102417 90.9690023,29.9264402 90.8274666,29.9397235 L90.6440168,29.9564344 L90.460634,29.9705449 L90.1219358,29.9889258 C90.0110025,29.9933006 89.9033353,29.9960576 89.7956105,29.9973713 L89.7953139,29.998633 L89.4716426,30 L89.139386,29.9926097 L88.9213069,25.2376389 C89.0299093,25.2421642 89.1417364,25.2435967 89.2535635,25.2450292 C89.3606397,25.2462729 89.4689373,25.2449675 89.5772349,25.2436622 L89.9038567,25.233955 L89.9038567,25.233955 L89.9397014,26.0200868 L89.9048394,25.2333187 L90.0737543,25.2255396 L90.2415189,25.2151901 C90.3663975,25.207167 90.4878227,25.1978637 90.6090955,25.1856451 C90.7509233,25.1714694 90.8956838,25.1550934 91.0336138,25.1376147 C91.1791174,25.1181789 91.321671,25.0970142 91.4611271,25.0732189 L91.6674647,25.0359708 L91.8652942,24.9953826 C92.0605388,24.952785 92.2459851,24.9049469 92.4159341,24.8521679 Z M88.5674186,25.2180842 C88.6830039,25.2266275 88.8018901,25.2335357 88.9206239,25.2375286 L89.1387029,29.9924994 C89.0165158,29.9872263 88.9010829,29.9815983 88.7854977,29.973055 L88.5674186,25.2180842 Z M1.03866695,8.29010897 L87.645034,25.1029907 C87.7496263,25.1236586 87.8604323,25.1415477 87.9751506,25.1574989 L88.1499068,25.1805011 L88.3550694,25.2015069 L88.5667737,25.2187028 L88.7848527,29.9736736 L88.5737236,29.9563505 L88.3679967,29.9350642 C88.1907845,29.9136809 88.020098,29.8875697 87.8627678,29.8578335 L1.25674601,13.0450798 L1.03866695,8.29010897 Z M114.27426,18.1327501 L114.492339,22.8877209 L92.6343357,29.6068294 L92.4162566,24.8518586 L114.27426,18.1327501 Z M115.186371,17.5136137 L115.404451,22.2685845 L115.398917,22.3090857 L115.398917,22.3090857 L115.386512,22.352987 C115.374375,22.3799344 115.358937,22.4085168 115.336745,22.4374542 C115.314465,22.4662388 115.285907,22.495207 115.250669,22.5231121 L115.250902,22.5249861 C115.212485,22.5557996 115.17079,22.5867854 115.119364,22.6182824 L115.119367,22.6194499 C115.08001,22.6439298 115.036115,22.6679984 114.988685,22.6916032 L114.914736,22.7278398 C114.795672,22.7823301 114.652893,22.8366048 114.492999,22.8873938 L114.27492,18.132423 C114.438191,18.0814566 114.577593,18.0273593 114.696657,17.972869 C114.773008,17.9369934 114.842252,17.9011989 114.901288,17.8644791 L114.973584,19.4489789 L114.902309,17.8645717 L114.992897,17.8021695 L115.031495,17.7705236 C115.067196,17.7408764 115.096143,17.7115842 115.118335,17.6826469 C115.140315,17.655767 115.155509,17.6280083 115.16742,17.6003837 C115.179135,17.5695365 115.184442,17.5414863 115.186371,17.5136137 Z M0.000221853615,7.74276578 C0.00812162907,7.95867439 0.357190315,8.15811866 1.03800676,8.29043599 L1.25608582,13.0454068 C0.575269376,12.9130895 0.226200689,12.7136452 0.218300914,12.4977366 L0.000221853615,7.74276578 Z" id="Shape" fill="#E3DA49"></path>
                    <path d="M114.155722,16.9534369 C115.474871,17.2100338 115.519872,17.7206516 114.3338,18.1133288 L92.4146214,24.8529677 C91.1047718,25.2550463 88.9974267,25.3657722 87.6460777,25.1035205 L1.03633342,8.29081624 C-0.243964162,8.04098633 -0.342097622,7.55587958 0.764779719,7.1623931 L0.9604207,7.09771641 L0.9604207,7.09771641 L22.7774336,0.391285431 C24.0672489,-0.00535557955 26.1946283,-0.121519059 27.5493545,0.140555197 L114.155722,16.9534369 Z" id="Fill-33" fill="#FEF566"></path>
                </g>
                <g id="stair-copy-3" opacity="0.699999988" transform="translate(29.000000, 81.000000)">
                    <path d="M92.4159341,24.8521679 L92.6340132,29.6071387 C92.4615981,29.6589203 92.2775446,29.7063875 92.0832424,29.7488519 L91.8860487,29.7904111 C91.68149,29.8289305 91.4699483,29.8634318 91.2513475,29.8924575 C91.1103857,29.9102417 90.9690023,29.9264402 90.8274666,29.9397235 L90.6440168,29.9564344 L90.460634,29.9705449 L90.1219358,29.9889258 C90.0110025,29.9933006 89.9033353,29.9960576 89.7956105,29.9973713 L89.7953139,29.998633 L89.4716426,30 L89.139386,29.9926097 L88.9213069,25.2376389 C89.0299093,25.2421642 89.1417364,25.2435967 89.2535635,25.2450292 C89.3606397,25.2462729 89.4689373,25.2449675 89.5772349,25.2436622 L89.9038567,25.233955 L89.9038567,25.233955 L89.9397014,26.0200868 L89.9048394,25.2333187 L90.0737543,25.2255396 L90.2415189,25.2151901 C90.3663975,25.207167 90.4878227,25.1978637 90.6090955,25.1856451 C90.7509233,25.1714694 90.8956838,25.1550934 91.0336138,25.1376147 C91.1791174,25.1181789 91.321671,25.0970142 91.4611271,25.0732189 L91.6674647,25.0359708 L91.8652942,24.9953826 C92.0605388,24.952785 92.2459851,24.9049469 92.4159341,24.8521679 Z M88.5674186,25.2180842 C88.6830039,25.2266275 88.8018901,25.2335357 88.9206239,25.2375286 L89.1387029,29.9924994 C89.0165158,29.9872263 88.9010829,29.9815983 88.7854977,29.973055 L88.5674186,25.2180842 Z M1.03866695,8.29010897 L87.645034,25.1029907 C87.7496263,25.1236586 87.8604323,25.1415477 87.9751506,25.1574989 L88.1499068,25.1805011 L88.3550694,25.2015069 L88.5667737,25.2187028 L88.7848527,29.9736736 L88.5737236,29.9563505 L88.3679967,29.9350642 C88.1907845,29.9136809 88.020098,29.8875697 87.8627678,29.8578335 L1.25674601,13.0450798 L1.03866695,8.29010897 Z M114.27426,18.1327501 L114.492339,22.8877209 L92.6343357,29.6068294 L92.4162566,24.8518586 L114.27426,18.1327501 Z M115.186371,17.5136137 L115.404451,22.2685845 L115.398917,22.3090857 L115.398917,22.3090857 L115.386512,22.352987 C115.374375,22.3799344 115.358937,22.4085168 115.336745,22.4374542 C115.314465,22.4662388 115.285907,22.495207 115.250669,22.5231121 L115.250902,22.5249861 C115.212485,22.5557996 115.17079,22.5867854 115.119364,22.6182824 L115.119367,22.6194499 C115.08001,22.6439298 115.036115,22.6679984 114.988685,22.6916032 L114.914736,22.7278398 C114.795672,22.7823301 114.652893,22.8366048 114.492999,22.8873938 L114.27492,18.132423 C114.438191,18.0814566 114.577593,18.0273593 114.696657,17.972869 C114.773008,17.9369934 114.842252,17.9011989 114.901288,17.8644791 L114.973584,19.4489789 L114.902309,17.8645717 L114.992897,17.8021695 L115.031495,17.7705236 C115.067196,17.7408764 115.096143,17.7115842 115.118335,17.6826469 C115.140315,17.655767 115.155509,17.6280083 115.16742,17.6003837 C115.179135,17.5695365 115.184442,17.5414863 115.186371,17.5136137 Z M0.000221853615,7.74276578 C0.00812162907,7.95867439 0.357190315,8.15811866 1.03800676,8.29043599 L1.25608582,13.0454068 C0.575269376,12.9130895 0.226200689,12.7136452 0.218300914,12.4977366 L0.000221853615,7.74276578 Z" id="Shape" fill="#E3DA49"></path>
                    <path d="M114.155722,16.9534369 C115.474871,17.2100338 115.519872,17.7206516 114.3338,18.1133288 L92.4146214,24.8529677 C91.1047718,25.2550463 88.9974267,25.3657722 87.6460777,25.1035205 L1.03633342,8.29081624 C-0.243964162,8.04098633 -0.342097622,7.55587958 0.764779719,7.1623931 L0.9604207,7.09771641 L0.9604207,7.09771641 L22.7774336,0.391285431 C24.0672489,-0.00535557955 26.1946283,-0.121519059 27.5493545,0.140555197 L114.155722,16.9534369 Z" id="Fill-33" fill="#FEF566"></path>
                </g>
                <g id="stair-copy-4" transform="translate(0.000000, 108.000000)">
                    <path d="M92.4159341,24.8521679 L92.6340132,29.6071387 C92.4615981,29.6589203 92.2775446,29.7063875 92.0832424,29.7488519 L91.8860487,29.7904111 C91.68149,29.8289305 91.4699483,29.8634318 91.2513475,29.8924575 C91.1103857,29.9102417 90.9690023,29.9264402 90.8274666,29.9397235 L90.6440168,29.9564344 L90.460634,29.9705449 L90.1219358,29.9889258 C90.0110025,29.9933006 89.9033353,29.9960576 89.7956105,29.9973713 L89.7953139,29.998633 L89.4716426,30 L89.139386,29.9926097 L88.9213069,25.2376389 C89.0299093,25.2421642 89.1417364,25.2435967 89.2535635,25.2450292 C89.3606397,25.2462729 89.4689373,25.2449675 89.5772349,25.2436622 L89.9038567,25.233955 L89.9038567,25.233955 L89.9397014,26.0200868 L89.9048394,25.2333187 L90.0737543,25.2255396 L90.2415189,25.2151901 C90.3663975,25.207167 90.4878227,25.1978637 90.6090955,25.1856451 C90.7509233,25.1714694 90.8956838,25.1550934 91.0336138,25.1376147 C91.1791174,25.1181789 91.321671,25.0970142 91.4611271,25.0732189 L91.6674647,25.0359708 L91.8652942,24.9953826 C92.0605388,24.952785 92.2459851,24.9049469 92.4159341,24.8521679 Z M88.5674186,25.2180842 C88.6830039,25.2266275 88.8018901,25.2335357 88.9206239,25.2375286 L89.1387029,29.9924994 C89.0165158,29.9872263 88.9010829,29.9815983 88.7854977,29.973055 L88.5674186,25.2180842 Z M1.03866695,8.29010897 L87.645034,25.1029907 C87.7496263,25.1236586 87.8604323,25.1415477 87.9751506,25.1574989 L88.1499068,25.1805011 L88.3550694,25.2015069 L88.5667737,25.2187028 L88.7848527,29.9736736 L88.5737236,29.9563505 L88.3679967,29.9350642 C88.1907845,29.9136809 88.020098,29.8875697 87.8627678,29.8578335 L1.25674601,13.0450798 L1.03866695,8.29010897 Z M114.27426,18.1327501 L114.492339,22.8877209 L92.6343357,29.6068294 L92.4162566,24.8518586 L114.27426,18.1327501 Z M115.186371,17.5136137 L115.404451,22.2685845 L115.398917,22.3090857 L115.398917,22.3090857 L115.386512,22.352987 C115.374375,22.3799344 115.358937,22.4085168 115.336745,22.4374542 C115.314465,22.4662388 115.285907,22.495207 115.250669,22.5231121 L115.250902,22.5249861 C115.212485,22.5557996 115.17079,22.5867854 115.119364,22.6182824 L115.119367,22.6194499 C115.08001,22.6439298 115.036115,22.6679984 114.988685,22.6916032 L114.914736,22.7278398 C114.795672,22.7823301 114.652893,22.8366048 114.492999,22.8873938 L114.27492,18.132423 C114.438191,18.0814566 114.577593,18.0273593 114.696657,17.972869 C114.773008,17.9369934 114.842252,17.9011989 114.901288,17.8644791 L114.973584,19.4489789 L114.902309,17.8645717 L114.992897,17.8021695 L115.031495,17.7705236 C115.067196,17.7408764 115.096143,17.7115842 115.118335,17.6826469 C115.140315,17.655767 115.155509,17.6280083 115.16742,17.6003837 C115.179135,17.5695365 115.184442,17.5414863 115.186371,17.5136137 Z M0.000221853615,7.74276578 C0.00812162907,7.95867439 0.357190315,8.15811866 1.03800676,8.29043599 L1.25608582,13.0454068 C0.575269376,12.9130895 0.226200689,12.7136452 0.218300914,12.4977366 L0.000221853615,7.74276578 Z" id="Shape" fill="#E3DA49"></path>
                    <path d="M114.155722,16.9534369 C115.474871,17.2100338 115.519872,17.7206516 114.3338,18.1133288 L92.4146214,24.8529677 C91.1047718,25.2550463 88.9974267,25.3657722 87.6460777,25.1035205 L1.03633342,8.29081624 C-0.243964162,8.04098633 -0.342097622,7.55587958 0.764779719,7.1623931 L0.9604207,7.09771641 L0.9604207,7.09771641 L22.7774336,0.391285431 C24.0672489,-0.00535557955 26.1946283,-0.121519059 27.5493545,0.140555197 L114.155722,16.9534369 Z" id="Fill-33" fill="#FEF566"></path>
                </g>
                <g id="wf" stroke="#6DC8C9">
                    <g id="stair" transform="translate(115.990094, 0.000000)">
                        <path d="M114.459801,16.9534369 C115.78235,17.2100338 115.827467,17.7206516 114.638339,18.1133288 L92.6626754,24.8529677 C91.3494504,25.2550463 89.2366748,25.3657722 87.8818434,25.1035205 L1.04891014,8.29081624 C-0.234686702,8.04098633 -0.333073047,7.55587958 0.776656662,7.1623931 L0.9728018,7.09771641 L0.9728018,7.09771641 L22.8460361,0.391285431 C24.1391751,-0.00535557955 26.2720367,-0.121519059 27.630254,0.140555197 L114.459801,16.9534369 Z" id="Fill-33"></path>
                        <path d="M115.491209,17.463501 C115.519356,18.3314209 115.519356,21.3069466 115.491209,21.5364903 C115.467514,21.7297308 115.181849,21.9338492 114.638339,22.1133288 L92.6626754,28.8529677 C91.3494504,29.2550463 89.2366748,29.3657722 87.8818434,29.1035205 L1.04891014,12.2908162 C0.386792087,12.1619464 0.04003582,11.9704739 0.0117851883,11.7612663 C-0.0147314853,11.5648993 0.0117851883,8.6046317 0.0117851883,7.69759115" id="Fill-33-Copy" stroke-linejoin="round"></path>
                    </g>
                    <g id="stair-copy" opacity="0.699999988" transform="translate(86.990094, 27.000000)">
                        <path d="M114.459801,16.9534369 C115.78235,17.2100338 115.827467,17.7206516 114.638339,18.1133288 L92.6626754,24.8529677 C91.3494504,25.2550463 89.2366748,25.3657722 87.8818434,25.1035205 L1.04891014,8.29081624 C-0.234686702,8.04098633 -0.333073047,7.55587958 0.776656662,7.1623931 L0.9728018,7.09771641 L0.9728018,7.09771641 L22.8460361,0.391285431 C24.1391751,-0.00535557955 26.2720367,-0.121519059 27.630254,0.140555197 L114.459801,16.9534369 Z" id="Fill-33"></path>
                        <path d="M115.491209,17.463501 C115.519356,18.3314209 115.519356,21.3069466 115.491209,21.5364903 C115.467514,21.7297308 115.181849,21.9338492 114.638339,22.1133288 L92.6626754,28.8529677 C91.3494504,29.2550463 89.2366748,29.3657722 87.8818434,29.1035205 L1.04891014,12.2908162 C0.386792087,12.1619464 0.04003582,11.9704739 0.0117851883,11.7612663 C-0.0147314853,11.5648993 0.0117851883,8.6046317 0.0117851883,7.69759115" id="Fill-33-Copy" stroke-linejoin="round"></path>
                    </g>
                    <g id="stair-copy-2" opacity="0.5" transform="translate(57.990094, 54.000000)">
                        <path d="M114.459801,16.9534369 C115.78235,17.2100338 115.827467,17.7206516 114.638339,18.1133288 L92.6626754,24.8529677 C91.3494504,25.2550463 89.2366748,25.3657722 87.8818434,25.1035205 L1.04891014,8.29081624 C-0.234686702,8.04098633 -0.333073047,7.55587958 0.776656662,7.1623931 L0.9728018,7.09771641 L0.9728018,7.09771641 L22.8460361,0.391285431 C24.1391751,-0.00535557955 26.2720367,-0.121519059 27.630254,0.140555197 L114.459801,16.9534369 Z" id="Fill-33"></path>
                        <path d="M115.491209,17.463501 C115.519356,18.3314209 115.519356,21.3069466 115.491209,21.5364903 C115.467514,21.7297308 115.181849,21.9338492 114.638339,22.1133288 L92.6626754,28.8529677 C91.3494504,29.2550463 89.2366748,29.3657722 87.8818434,29.1035205 L1.04891014,12.2908162 C0.386792087,12.1619464 0.04003582,11.9704739 0.0117851883,11.7612663 C-0.0147314853,11.5648993 0.0117851883,8.6046317 0.0117851883,7.69759115" id="Fill-33-Copy" stroke-linejoin="round"></path>
                    </g>
                    <g id="stair-copy-3" opacity="0.300000012" transform="translate(28.990094, 81.000000)">
                        <path d="M114.459801,16.9534369 C115.78235,17.2100338 115.827467,17.7206516 114.638339,18.1133288 L92.6626754,24.8529677 C91.3494504,25.2550463 89.2366748,25.3657722 87.8818434,25.1035205 L1.04891014,8.29081624 C-0.234686702,8.04098633 -0.333073047,7.55587958 0.776656662,7.1623931 L0.9728018,7.09771641 L0.9728018,7.09771641 L22.8460361,0.391285431 C24.1391751,-0.00535557955 26.2720367,-0.121519059 27.630254,0.140555197 L114.459801,16.9534369 Z" id="Fill-33"></path>
                        <path d="M115.491209,17.463501 C115.519356,18.3314209 115.519356,21.3069466 115.491209,21.5364903 C115.467514,21.7297308 115.181849,21.9338492 114.638339,22.1133288 L92.6626754,28.8529677 C91.3494504,29.2550463 89.2366748,29.3657722 87.8818434,29.1035205 L1.04891014,12.2908162 C0.386792087,12.1619464 0.04003582,11.9704739 0.0117851883,11.7612663 C-0.0147314853,11.5648993 0.0117851883,8.6046317 0.0117851883,7.69759115" id="Fill-33-Copy" stroke-linejoin="round"></path>
                    </g>
                    <g id="stair-copy-4" opacity="0.100000001" transform="translate(-0.009906, 108.000000)">
                        <path d="M114.459801,16.9534369 C115.78235,17.2100338 115.827467,17.7206516 114.638339,18.1133288 L92.6626754,24.8529677 C91.3494504,25.2550463 89.2366748,25.3657722 87.8818434,25.1035205 L1.04891014,8.29081624 C-0.234686702,8.04098633 -0.333073047,7.55587958 0.776656662,7.1623931 L0.9728018,7.09771641 L0.9728018,7.09771641 L22.8460361,0.391285431 C24.1391751,-0.00535557955 26.2720367,-0.121519059 27.630254,0.140555197 L114.459801,16.9534369 Z" id="Fill-33"></path>
                        <path d="M115.491209,17.463501 C115.519356,18.3314209 115.519356,21.3069466 115.491209,21.5364903 C115.467514,21.7297308 115.181849,21.9338492 114.638339,22.1133288 L92.6626754,28.8529677 C91.3494504,29.2550463 89.2366748,29.3657722 87.8818434,29.1035205 L1.04891014,12.2908162 C0.386792087,12.1619464 0.04003582,11.9704739 0.0117851883,11.7612663 C-0.0147314853,11.5648993 0.0117851883,8.6046317 0.0117851883,7.69759115" id="Fill-33-Copy" stroke-linejoin="round"></path>
                    </g>
                </g>
            </g>
        </g>
    </g>
</svg>