<?xml version="1.0" encoding="UTF-8"?><svg version="1.1" width="1207px" height="337px" viewBox="0 0 1207.0 337.0" xmlns="http://www.w3.org/2000/svg" xmlns:xlink="http://www.w3.org/1999/xlink"><defs><clipPath id="i0"><path d="M1920,0 L1920,3806 L0,3806 L0,0 L1920,0 Z"></path></clipPath><clipPath id="i1"><path d="M1118.26353,0 L1207.01074,14.7164633 L277,265.5 L0,337 L0,182 L275.831042,136.929343 L1118.26353,0 Z M404,147.084363 C390.192881,147.925808 379,154.838176 379,162.52357 C379,170.208964 390.192881,175.757081 404,174.915637 C417.807119,174.074192 429,167.161824 429,159.47643 C429,151.791036 417.807119,146.242919 404,147.084363 Z"></path></clipPath><linearGradient id="i2" x1="-4.039783e-13px" y1="337px" x2="1143.45973px" y2="23.2459484px" gradientUnits="userSpaceOnUse"><stop stop-color="#FFFCE7" offset="0%"></stop><stop stop-color="#FEF566" offset="100%"></stop></linearGradient></defs><g transform="translate(0.0 -770.0)"><g clip-path="url(#i0)"><g transform="translate(0.0 770.0)"><g clip-path="url(#i1)"><polygon points="0,0 1207.01074,0 1207.01074,337 0,337 0,0" stroke="none" fill="url(#i2)"></polygon></g></g></g></g></svg>