<?xml version="1.0" encoding="UTF-8"?>
<svg width="191px" height="114px" viewBox="0 0 191 114" version="1.1" xmlns="http://www.w3.org/2000/svg" xmlns:xlink="http://www.w3.org/1999/xlink">
    <title>stairs</title>
    <g id="REX-general-user" stroke="none" stroke-width="1" fill="none" fill-rule="evenodd">
        <g id="t01.Landing-A" transform="translate(-529.000000, -604.000000)">
            <g id="stairs" transform="translate(529.670351, 604.850384)">
                <g id="stair" opacity="0.100000001" transform="translate(94.329649, 0.149616)">
                    <path d="M75.880501,20.7101399 L76.0595605,24.6726156 C75.9179945,24.715767 75.7668727,24.7553229 75.6073358,24.7907099 L75.4454248,24.8253426 C75.2774666,24.857442 75.1037748,24.8861932 74.9242869,24.9103812 C74.8085466,24.9252014 74.6924601,24.9387002 74.5762485,24.9497696 L74.4256223,24.9636954 L74.2750511,24.9754541 L73.9969541,24.9907715 C73.9058694,24.9944172 73.8174665,24.9967146 73.7290163,24.9978094 L73.7287728,24.9988608 L73.463014,25 L73.1902061,24.9938414 L73.0111466,21.0313658 C73.1003174,21.0351368 73.192136,21.0363306 73.2839545,21.0375243 C73.3718722,21.0385607 73.4607928,21.0374729 73.5497133,21.0363852 L73.8178946,21.0282958 L73.8178946,21.0282958 L73.8473259,21.6834057 L73.8187015,21.0277656 L73.9573935,21.021283 L74.095141,21.0126584 C74.1976757,21.0059725 74.2973751,20.9982197 74.3969493,20.9880375 C74.5134006,20.9762245 74.63226,20.9625779 74.745511,20.9480122 C74.8649805,20.9318157 74.9820279,20.9141785 75.0965319,20.8943491 L75.2659507,20.863309 L75.4283838,20.8294855 C75.5886944,20.7939875 75.7409599,20.7541224 75.880501,20.7101399 Z M72.7205775,21.0150702 C72.8154817,21.0221896 72.9130963,21.0279464 73.0105858,21.0312739 L73.1896453,24.9937495 C73.0893203,24.9893553 72.9945412,24.9846653 72.8996369,24.9775459 L72.7205775,21.0150702 Z M0.852824455,6.90842414 L71.9632297,20.9191589 C72.0491079,20.9363822 72.140088,20.9512897 72.2342804,20.9645824 L72.3777685,20.9837509 L72.5462227,21.0012558 L72.7200479,21.0155857 L72.8991074,24.9780613 L72.7257543,24.9636254 L72.5568369,24.9458868 C72.4113322,24.9280674 72.2711857,24.9063081 72.1420056,24.8815279 L1.03188393,10.8708998 L0.852824455,6.90842414 Z M93.8278467,15.1106251 L94.0069061,19.0731007 L76.0598252,24.6723579 L75.8807658,20.7098822 L93.8278467,15.1106251 Z M94.5767595,14.5946781 L94.7558189,18.5571537 L94.7512756,18.5909048 L94.7512756,18.5909048 L94.7410901,18.6274892 C94.7311246,18.6499453 94.7184488,18.673764 94.7002272,18.6978785 C94.6819337,18.7218656 94.6584859,18.7460058 94.6295524,18.7692601 L94.6297442,18.7708217 C94.5982004,18.7964997 94.5639662,18.8223211 94.5217412,18.8485687 L94.5217438,18.8495416 C94.4894283,18.8699415 94.4533877,18.8899987 94.4144438,18.9096694 L94.3537258,18.9398665 C94.2559659,18.9852751 94.1387331,19.030504 94.0074482,19.0728282 L93.8283887,15.1103525 C93.9624466,15.0678805 94.0769064,15.0227994 94.1746663,14.9773909 C94.2373565,14.9474945 94.294211,14.9176658 94.3426843,14.887066 L94.4020451,16.2074824 L94.3435225,14.8871431 L94.4179021,14.8351413 L94.4495944,14.8087696 C94.4789076,14.7840637 94.502675,14.7596535 94.5208967,14.7355391 C94.538944,14.7131392 94.5514192,14.6900069 94.5611989,14.6669864 C94.5708181,14.6412804 94.5751753,14.6179053 94.5767595,14.5946781 Z M0.000182158668,6.45230482 C0.00666847431,6.63222866 0.293280378,6.79843222 0.852282387,6.90869666 L1.03134186,10.8711723 C0.47233985,10.7609079 0.185727946,10.5947043 0.17924163,10.4147805 L0.000182158668,6.45230482 Z" id="Shape" fill="#E3DA49"></path>
                    <path d="M93.7305176,14.1278641 C94.8136397,14.3416948 94.8505884,14.7672096 93.8767337,15.0944406 L75.8794231,20.7108064 C74.8039371,21.0458719 73.0736468,21.1381435 71.9640866,20.9196004 L0.850908449,6.90901353 C-0.200313106,6.70082194 -0.28088813,6.29656632 0.627942235,5.96866092 L0.78857834,5.91476368 L0.78857834,5.91476368 L18.702003,0.326071192 C19.7610393,-0.00446298296 21.5077793,-0.101265882 22.6201124,0.117129331 L93.7305176,14.1278641 Z" id="Fill-33" fill="#FEF566"></path>
                </g>
                <g id="stair-copy" opacity="0.300000012" transform="translate(70.329649, 22.149616)">
                    <path d="M75.880501,20.7101399 L76.0595605,24.6726156 C75.9179945,24.715767 75.7668727,24.7553229 75.6073358,24.7907099 L75.4454248,24.8253426 C75.2774666,24.857442 75.1037748,24.8861932 74.9242869,24.9103812 C74.8085466,24.9252014 74.6924601,24.9387002 74.5762485,24.9497696 L74.4256223,24.9636954 L74.2750511,24.9754541 L73.9969541,24.9907715 C73.9058694,24.9944172 73.8174665,24.9967146 73.7290163,24.9978094 L73.7287728,24.9988608 L73.463014,25 L73.1902061,24.9938414 L73.0111466,21.0313658 C73.1003174,21.0351368 73.192136,21.0363306 73.2839545,21.0375243 C73.3718722,21.0385607 73.4607928,21.0374729 73.5497133,21.0363852 L73.8178946,21.0282958 L73.8178946,21.0282958 L73.8473259,21.6834057 L73.8187015,21.0277656 L73.9573935,21.021283 L74.095141,21.0126584 C74.1976757,21.0059725 74.2973751,20.9982197 74.3969493,20.9880375 C74.5134006,20.9762245 74.63226,20.9625779 74.745511,20.9480122 C74.8649805,20.9318157 74.9820279,20.9141785 75.0965319,20.8943491 L75.2659507,20.863309 L75.4283838,20.8294855 C75.5886944,20.7939875 75.7409599,20.7541224 75.880501,20.7101399 Z M72.7205775,21.0150702 C72.8154817,21.0221896 72.9130963,21.0279464 73.0105858,21.0312739 L73.1896453,24.9937495 C73.0893203,24.9893553 72.9945412,24.9846653 72.8996369,24.9775459 L72.7205775,21.0150702 Z M0.852824455,6.90842414 L71.9632297,20.9191589 C72.0491079,20.9363822 72.140088,20.9512897 72.2342804,20.9645824 L72.3777685,20.9837509 L72.5462227,21.0012558 L72.7200479,21.0155857 L72.8991074,24.9780613 L72.7257543,24.9636254 L72.5568369,24.9458868 C72.4113322,24.9280674 72.2711857,24.9063081 72.1420056,24.8815279 L1.03188393,10.8708998 L0.852824455,6.90842414 Z M93.8278467,15.1106251 L94.0069061,19.0731007 L76.0598252,24.6723579 L75.8807658,20.7098822 L93.8278467,15.1106251 Z M94.5767595,14.5946781 L94.7558189,18.5571537 L94.7512756,18.5909048 L94.7512756,18.5909048 L94.7410901,18.6274892 C94.7311246,18.6499453 94.7184488,18.673764 94.7002272,18.6978785 C94.6819337,18.7218656 94.6584859,18.7460058 94.6295524,18.7692601 L94.6297442,18.7708217 C94.5982004,18.7964997 94.5639662,18.8223211 94.5217412,18.8485687 L94.5217438,18.8495416 C94.4894283,18.8699415 94.4533877,18.8899987 94.4144438,18.9096694 L94.3537258,18.9398665 C94.2559659,18.9852751 94.1387331,19.030504 94.0074482,19.0728282 L93.8283887,15.1103525 C93.9624466,15.0678805 94.0769064,15.0227994 94.1746663,14.9773909 C94.2373565,14.9474945 94.294211,14.9176658 94.3426843,14.887066 L94.4020451,16.2074824 L94.3435225,14.8871431 L94.4179021,14.8351413 L94.4495944,14.8087696 C94.4789076,14.7840637 94.502675,14.7596535 94.5208967,14.7355391 C94.538944,14.7131392 94.5514192,14.6900069 94.5611989,14.6669864 C94.5708181,14.6412804 94.5751753,14.6179053 94.5767595,14.5946781 Z M0.000182158668,6.45230482 C0.00666847431,6.63222866 0.293280378,6.79843222 0.852282387,6.90869666 L1.03134186,10.8711723 C0.47233985,10.7609079 0.185727946,10.5947043 0.17924163,10.4147805 L0.000182158668,6.45230482 Z" id="Shape" fill="#E3DA49"></path>
                    <path d="M93.7305176,14.1278641 C94.8136397,14.3416948 94.8505884,14.7672096 93.8767337,15.0944406 L75.8794231,20.7108064 C74.8039371,21.0458719 73.0736468,21.1381435 71.9640866,20.9196004 L0.850908449,6.90901353 C-0.200313106,6.70082194 -0.28088813,6.29656632 0.627942235,5.96866092 L0.78857834,5.91476368 L0.78857834,5.91476368 L18.702003,0.326071192 C19.7610393,-0.00446298296 21.5077793,-0.101265882 22.6201124,0.117129331 L93.7305176,14.1278641 Z" id="Fill-33" fill="#FEF566"></path>
                </g>
                <g id="stair-copy-2" opacity="0.5" transform="translate(47.329649, 44.149616)">
                    <path d="M75.880501,20.7101399 L76.0595605,24.6726156 C75.9179945,24.715767 75.7668727,24.7553229 75.6073358,24.7907099 L75.4454248,24.8253426 C75.2774666,24.857442 75.1037748,24.8861932 74.9242869,24.9103812 C74.8085466,24.9252014 74.6924601,24.9387002 74.5762485,24.9497696 L74.4256223,24.9636954 L74.2750511,24.9754541 L73.9969541,24.9907715 C73.9058694,24.9944172 73.8174665,24.9967146 73.7290163,24.9978094 L73.7287728,24.9988608 L73.463014,25 L73.1902061,24.9938414 L73.0111466,21.0313658 C73.1003174,21.0351368 73.192136,21.0363306 73.2839545,21.0375243 C73.3718722,21.0385607 73.4607928,21.0374729 73.5497133,21.0363852 L73.8178946,21.0282958 L73.8178946,21.0282958 L73.8473259,21.6834057 L73.8187015,21.0277656 L73.9573935,21.021283 L74.095141,21.0126584 C74.1976757,21.0059725 74.2973751,20.9982197 74.3969493,20.9880375 C74.5134006,20.9762245 74.63226,20.9625779 74.745511,20.9480122 C74.8649805,20.9318157 74.9820279,20.9141785 75.0965319,20.8943491 L75.2659507,20.863309 L75.4283838,20.8294855 C75.5886944,20.7939875 75.7409599,20.7541224 75.880501,20.7101399 Z M72.7205775,21.0150702 C72.8154817,21.0221896 72.9130963,21.0279464 73.0105858,21.0312739 L73.1896453,24.9937495 C73.0893203,24.9893553 72.9945412,24.9846653 72.8996369,24.9775459 L72.7205775,21.0150702 Z M0.852824455,6.90842414 L71.9632297,20.9191589 C72.0491079,20.9363822 72.140088,20.9512897 72.2342804,20.9645824 L72.3777685,20.9837509 L72.5462227,21.0012558 L72.7200479,21.0155857 L72.8991074,24.9780613 L72.7257543,24.9636254 L72.5568369,24.9458868 C72.4113322,24.9280674 72.2711857,24.9063081 72.1420056,24.8815279 L1.03188393,10.8708998 L0.852824455,6.90842414 Z M93.8278467,15.1106251 L94.0069061,19.0731007 L76.0598252,24.6723579 L75.8807658,20.7098822 L93.8278467,15.1106251 Z M94.5767595,14.5946781 L94.7558189,18.5571537 L94.7512756,18.5909048 L94.7512756,18.5909048 L94.7410901,18.6274892 C94.7311246,18.6499453 94.7184488,18.673764 94.7002272,18.6978785 C94.6819337,18.7218656 94.6584859,18.7460058 94.6295524,18.7692601 L94.6297442,18.7708217 C94.5982004,18.7964997 94.5639662,18.8223211 94.5217412,18.8485687 L94.5217438,18.8495416 C94.4894283,18.8699415 94.4533877,18.8899987 94.4144438,18.9096694 L94.3537258,18.9398665 C94.2559659,18.9852751 94.1387331,19.030504 94.0074482,19.0728282 L93.8283887,15.1103525 C93.9624466,15.0678805 94.0769064,15.0227994 94.1746663,14.9773909 C94.2373565,14.9474945 94.294211,14.9176658 94.3426843,14.887066 L94.4020451,16.2074824 L94.3435225,14.8871431 L94.4179021,14.8351413 L94.4495944,14.8087696 C94.4789076,14.7840637 94.502675,14.7596535 94.5208967,14.7355391 C94.538944,14.7131392 94.5514192,14.6900069 94.5611989,14.6669864 C94.5708181,14.6412804 94.5751753,14.6179053 94.5767595,14.5946781 Z M0.000182158668,6.45230482 C0.00666847431,6.63222866 0.293280378,6.79843222 0.852282387,6.90869666 L1.03134186,10.8711723 C0.47233985,10.7609079 0.185727946,10.5947043 0.17924163,10.4147805 L0.000182158668,6.45230482 Z" id="Shape" fill="#E3DA49"></path>
                    <path d="M93.7305176,14.1278641 C94.8136397,14.3416948 94.8505884,14.7672096 93.8767337,15.0944406 L75.8794231,20.7108064 C74.8039371,21.0458719 73.0736468,21.1381435 71.9640866,20.9196004 L0.850908449,6.90901353 C-0.200313106,6.70082194 -0.28088813,6.29656632 0.627942235,5.96866092 L0.78857834,5.91476368 L0.78857834,5.91476368 L18.702003,0.326071192 C19.7610393,-0.00446298296 21.5077793,-0.101265882 22.6201124,0.117129331 L93.7305176,14.1278641 Z" id="Fill-33" fill="#FEF566"></path>
                </g>
                <g id="stair-copy-3" opacity="0.699999988" transform="translate(24.329649, 66.149616)">
                    <path d="M75.880501,20.7101399 L76.0595605,24.6726156 C75.9179945,24.715767 75.7668727,24.7553229 75.6073358,24.7907099 L75.4454248,24.8253426 C75.2774666,24.857442 75.1037748,24.8861932 74.9242869,24.9103812 C74.8085466,24.9252014 74.6924601,24.9387002 74.5762485,24.9497696 L74.4256223,24.9636954 L74.2750511,24.9754541 L73.9969541,24.9907715 C73.9058694,24.9944172 73.8174665,24.9967146 73.7290163,24.9978094 L73.7287728,24.9988608 L73.463014,25 L73.1902061,24.9938414 L73.0111466,21.0313658 C73.1003174,21.0351368 73.192136,21.0363306 73.2839545,21.0375243 C73.3718722,21.0385607 73.4607928,21.0374729 73.5497133,21.0363852 L73.8178946,21.0282958 L73.8178946,21.0282958 L73.8473259,21.6834057 L73.8187015,21.0277656 L73.9573935,21.021283 L74.095141,21.0126584 C74.1976757,21.0059725 74.2973751,20.9982197 74.3969493,20.9880375 C74.5134006,20.9762245 74.63226,20.9625779 74.745511,20.9480122 C74.8649805,20.9318157 74.9820279,20.9141785 75.0965319,20.8943491 L75.2659507,20.863309 L75.4283838,20.8294855 C75.5886944,20.7939875 75.7409599,20.7541224 75.880501,20.7101399 Z M72.7205775,21.0150702 C72.8154817,21.0221896 72.9130963,21.0279464 73.0105858,21.0312739 L73.1896453,24.9937495 C73.0893203,24.9893553 72.9945412,24.9846653 72.8996369,24.9775459 L72.7205775,21.0150702 Z M0.852824455,6.90842414 L71.9632297,20.9191589 C72.0491079,20.9363822 72.140088,20.9512897 72.2342804,20.9645824 L72.3777685,20.9837509 L72.5462227,21.0012558 L72.7200479,21.0155857 L72.8991074,24.9780613 L72.7257543,24.9636254 L72.5568369,24.9458868 C72.4113322,24.9280674 72.2711857,24.9063081 72.1420056,24.8815279 L1.03188393,10.8708998 L0.852824455,6.90842414 Z M93.8278467,15.1106251 L94.0069061,19.0731007 L76.0598252,24.6723579 L75.8807658,20.7098822 L93.8278467,15.1106251 Z M94.5767595,14.5946781 L94.7558189,18.5571537 L94.7512756,18.5909048 L94.7512756,18.5909048 L94.7410901,18.6274892 C94.7311246,18.6499453 94.7184488,18.673764 94.7002272,18.6978785 C94.6819337,18.7218656 94.6584859,18.7460058 94.6295524,18.7692601 L94.6297442,18.7708217 C94.5982004,18.7964997 94.5639662,18.8223211 94.5217412,18.8485687 L94.5217438,18.8495416 C94.4894283,18.8699415 94.4533877,18.8899987 94.4144438,18.9096694 L94.3537258,18.9398665 C94.2559659,18.9852751 94.1387331,19.030504 94.0074482,19.0728282 L93.8283887,15.1103525 C93.9624466,15.0678805 94.0769064,15.0227994 94.1746663,14.9773909 C94.2373565,14.9474945 94.294211,14.9176658 94.3426843,14.887066 L94.4020451,16.2074824 L94.3435225,14.8871431 L94.4179021,14.8351413 L94.4495944,14.8087696 C94.4789076,14.7840637 94.502675,14.7596535 94.5208967,14.7355391 C94.538944,14.7131392 94.5514192,14.6900069 94.5611989,14.6669864 C94.5708181,14.6412804 94.5751753,14.6179053 94.5767595,14.5946781 Z M0.000182158668,6.45230482 C0.00666847431,6.63222866 0.293280378,6.79843222 0.852282387,6.90869666 L1.03134186,10.8711723 C0.47233985,10.7609079 0.185727946,10.5947043 0.17924163,10.4147805 L0.000182158668,6.45230482 Z" id="Shape" fill="#E3DA49"></path>
                    <path d="M93.7305176,14.1278641 C94.8136397,14.3416948 94.8505884,14.7672096 93.8767337,15.0944406 L75.8794231,20.7108064 C74.8039371,21.0458719 73.0736468,21.1381435 71.9640866,20.9196004 L0.850908449,6.90901353 C-0.200313106,6.70082194 -0.28088813,6.29656632 0.627942235,5.96866092 L0.78857834,5.91476368 L0.78857834,5.91476368 L18.702003,0.326071192 C19.7610393,-0.00446298296 21.5077793,-0.101265882 22.6201124,0.117129331 L93.7305176,14.1278641 Z" id="Fill-33" fill="#FEF566"></path>
                </g>
                <g id="stair-copy-4" transform="translate(0.329649, 88.149616)">
                    <path d="M75.880501,20.7101399 L76.0595605,24.6726156 C75.9179945,24.715767 75.7668727,24.7553229 75.6073358,24.7907099 L75.4454248,24.8253426 C75.2774666,24.857442 75.1037748,24.8861932 74.9242869,24.9103812 C74.8085466,24.9252014 74.6924601,24.9387002 74.5762485,24.9497696 L74.4256223,24.9636954 L74.2750511,24.9754541 L73.9969541,24.9907715 C73.9058694,24.9944172 73.8174665,24.9967146 73.7290163,24.9978094 L73.7287728,24.9988608 L73.463014,25 L73.1902061,24.9938414 L73.0111466,21.0313658 C73.1003174,21.0351368 73.192136,21.0363306 73.2839545,21.0375243 C73.3718722,21.0385607 73.4607928,21.0374729 73.5497133,21.0363852 L73.8178946,21.0282958 L73.8178946,21.0282958 L73.8473259,21.6834057 L73.8187015,21.0277656 L73.9573935,21.021283 L74.095141,21.0126584 C74.1976757,21.0059725 74.2973751,20.9982197 74.3969493,20.9880375 C74.5134006,20.9762245 74.63226,20.9625779 74.745511,20.9480122 C74.8649805,20.9318157 74.9820279,20.9141785 75.0965319,20.8943491 L75.2659507,20.863309 L75.4283838,20.8294855 C75.5886944,20.7939875 75.7409599,20.7541224 75.880501,20.7101399 Z M72.7205775,21.0150702 C72.8154817,21.0221896 72.9130963,21.0279464 73.0105858,21.0312739 L73.1896453,24.9937495 C73.0893203,24.9893553 72.9945412,24.9846653 72.8996369,24.9775459 L72.7205775,21.0150702 Z M0.852824455,6.90842414 L71.9632297,20.9191589 C72.0491079,20.9363822 72.140088,20.9512897 72.2342804,20.9645824 L72.3777685,20.9837509 L72.5462227,21.0012558 L72.7200479,21.0155857 L72.8991074,24.9780613 L72.7257543,24.9636254 L72.5568369,24.9458868 C72.4113322,24.9280674 72.2711857,24.9063081 72.1420056,24.8815279 L1.03188393,10.8708998 L0.852824455,6.90842414 Z M93.8278467,15.1106251 L94.0069061,19.0731007 L76.0598252,24.6723579 L75.8807658,20.7098822 L93.8278467,15.1106251 Z M94.5767595,14.5946781 L94.7558189,18.5571537 L94.7512756,18.5909048 L94.7512756,18.5909048 L94.7410901,18.6274892 C94.7311246,18.6499453 94.7184488,18.673764 94.7002272,18.6978785 C94.6819337,18.7218656 94.6584859,18.7460058 94.6295524,18.7692601 L94.6297442,18.7708217 C94.5982004,18.7964997 94.5639662,18.8223211 94.5217412,18.8485687 L94.5217438,18.8495416 C94.4894283,18.8699415 94.4533877,18.8899987 94.4144438,18.9096694 L94.3537258,18.9398665 C94.2559659,18.9852751 94.1387331,19.030504 94.0074482,19.0728282 L93.8283887,15.1103525 C93.9624466,15.0678805 94.0769064,15.0227994 94.1746663,14.9773909 C94.2373565,14.9474945 94.294211,14.9176658 94.3426843,14.887066 L94.4020451,16.2074824 L94.3435225,14.8871431 L94.4179021,14.8351413 L94.4495944,14.8087696 C94.4789076,14.7840637 94.502675,14.7596535 94.5208967,14.7355391 C94.538944,14.7131392 94.5514192,14.6900069 94.5611989,14.6669864 C94.5708181,14.6412804 94.5751753,14.6179053 94.5767595,14.5946781 Z M0.000182158668,6.45230482 C0.00666847431,6.63222866 0.293280378,6.79843222 0.852282387,6.90869666 L1.03134186,10.8711723 C0.47233985,10.7609079 0.185727946,10.5947043 0.17924163,10.4147805 L0.000182158668,6.45230482 Z" id="Shape" fill="#E3DA49"></path>
                    <path d="M93.7305176,14.1278641 C94.8136397,14.3416948 94.8505884,14.7672096 93.8767337,15.0944406 L75.8794231,20.7108064 C74.8039371,21.0458719 73.0736468,21.1381435 71.9640866,20.9196004 L0.850908449,6.90901353 C-0.200313106,6.70082194 -0.28088813,6.29656632 0.627942235,5.96866092 L0.78857834,5.91476368 L0.78857834,5.91476368 L18.702003,0.326071192 C19.7610393,-0.00446298296 21.5077793,-0.101265882 22.6201124,0.117129331 L93.7305176,14.1278641 Z" id="Fill-33" fill="#FEF566"></path>
                </g>
                <g id="wf" transform="translate(-0.670351, 0.149616)" stroke="#6DC8C9">
                    <g id="stair" transform="translate(94.991887, 0.000000)">
                        <path d="M93.7386304,13.8821621 C94.8217525,14.092274 94.8587012,14.5103886 93.8848464,14.8319286 L75.8875359,20.3506185 C74.8120499,20.6798568 73.0817595,20.7705236 71.9721994,20.5557813 L0.859021239,6.78885678 C-0.192200316,6.58428591 -0.27277534,6.18706082 0.636055025,5.86485812 L0.79669113,5.81189822 L0.79669113,5.81189822 L18.7101158,0.320400389 C19.769152,-0.00438536587 21.5158921,-0.0995047364 22.6282252,0.115092299 L93.7386304,13.8821621 Z" id="Fill-33"></path>
                        <path d="M94.5833181,14.2998233 C94.6063695,15.0105113 94.6063695,17.4469925 94.5833181,17.6349522 C94.5639123,17.7931853 94.3299627,17.9603258 93.8848464,18.1072909 L75.8875359,23.6259808 C74.8120499,23.9552191 73.0817595,24.0458859 71.9721994,23.8311436 L0.859021239,10.0642191 C0.316769382,9.95869526 0.032787956,9.80190982 0.0096516628,9.63060209 C-0.0120645785,9.46980883 0.0096516628,7.04582161 0.0096516628,6.3031" id="Fill-33-Copy" stroke-linejoin="round"></path>
                    </g>
                    <g id="stair-copy" opacity="0.699999988" transform="translate(71.241887, 22.108696)">
                        <path d="M93.7386304,13.8821621 C94.8217525,14.092274 94.8587012,14.5103886 93.8848464,14.8319286 L75.8875359,20.3506185 C74.8120499,20.6798568 73.0817595,20.7705236 71.9721994,20.5557813 L0.859021239,6.78885678 C-0.192200316,6.58428591 -0.27277534,6.18706082 0.636055025,5.86485812 L0.79669113,5.81189822 L0.79669113,5.81189822 L18.7101158,0.320400389 C19.769152,-0.00438536587 21.5158921,-0.0995047364 22.6282252,0.115092299 L93.7386304,13.8821621 Z" id="Fill-33"></path>
                        <path d="M94.5833181,14.2998233 C94.6063695,15.0105113 94.6063695,17.4469925 94.5833181,17.6349522 C94.5639123,17.7931853 94.3299627,17.9603258 93.8848464,18.1072909 L75.8875359,23.6259808 C74.8120499,23.9552191 73.0817595,24.0458859 71.9721994,23.8311436 L0.859021239,10.0642191 C0.316769382,9.95869526 0.032787956,9.80190982 0.0096516628,9.63060209 C-0.0120645785,9.46980883 0.0096516628,7.04582161 0.0096516628,6.3031" id="Fill-33-Copy" stroke-linejoin="round"></path>
                    </g>
                    <g id="stair-copy-2" opacity="0.5" transform="translate(47.491887, 44.217391)">
                        <path d="M93.7386304,13.8821621 C94.8217525,14.092274 94.8587012,14.5103886 93.8848464,14.8319286 L75.8875359,20.3506185 C74.8120499,20.6798568 73.0817595,20.7705236 71.9721994,20.5557813 L0.859021239,6.78885678 C-0.192200316,6.58428591 -0.27277534,6.18706082 0.636055025,5.86485812 L0.79669113,5.81189822 L0.79669113,5.81189822 L18.7101158,0.320400389 C19.769152,-0.00438536587 21.5158921,-0.0995047364 22.6282252,0.115092299 L93.7386304,13.8821621 Z" id="Fill-33"></path>
                        <path d="M94.5833181,14.2998233 C94.6063695,15.0105113 94.6063695,17.4469925 94.5833181,17.6349522 C94.5639123,17.7931853 94.3299627,17.9603258 93.8848464,18.1072909 L75.8875359,23.6259808 C74.8120499,23.9552191 73.0817595,24.0458859 71.9721994,23.8311436 L0.859021239,10.0642191 C0.316769382,9.95869526 0.032787956,9.80190982 0.0096516628,9.63060209 C-0.0120645785,9.46980883 0.0096516628,7.04582161 0.0096516628,6.3031" id="Fill-33-Copy" stroke-linejoin="round"></path>
                    </g>
                    <g id="stair-copy-3" opacity="0.300000012" transform="translate(23.741887, 66.326087)">
                        <path d="M93.7386304,13.8821621 C94.8217525,14.092274 94.8587012,14.5103886 93.8848464,14.8319286 L75.8875359,20.3506185 C74.8120499,20.6798568 73.0817595,20.7705236 71.9721994,20.5557813 L0.859021239,6.78885678 C-0.192200316,6.58428591 -0.27277534,6.18706082 0.636055025,5.86485812 L0.79669113,5.81189822 L0.79669113,5.81189822 L18.7101158,0.320400389 C19.769152,-0.00438536587 21.5158921,-0.0995047364 22.6282252,0.115092299 L93.7386304,13.8821621 Z" id="Fill-33"></path>
                        <path d="M94.5833181,14.2998233 C94.6063695,15.0105113 94.6063695,17.4469925 94.5833181,17.6349522 C94.5639123,17.7931853 94.3299627,17.9603258 93.8848464,18.1072909 L75.8875359,23.6259808 C74.8120499,23.9552191 73.0817595,24.0458859 71.9721994,23.8311436 L0.859021239,10.0642191 C0.316769382,9.95869526 0.032787956,9.80190982 0.0096516628,9.63060209 C-0.0120645785,9.46980883 0.0096516628,7.04582161 0.0096516628,6.3031" id="Fill-33-Copy" stroke-linejoin="round"></path>
                    </g>
                    <g id="stair-copy-4" opacity="0.100000001" transform="translate(-0.008113, 88.434783)">
                        <path d="M93.7386304,13.8821621 C94.8217525,14.092274 94.8587012,14.5103886 93.8848464,14.8319286 L75.8875359,20.3506185 C74.8120499,20.6798568 73.0817595,20.7705236 71.9721994,20.5557813 L0.859021239,6.78885678 C-0.192200316,6.58428591 -0.27277534,6.18706082 0.636055025,5.86485812 L0.79669113,5.81189822 L0.79669113,5.81189822 L18.7101158,0.320400389 C19.769152,-0.00438536587 21.5158921,-0.0995047364 22.6282252,0.115092299 L93.7386304,13.8821621 Z" id="Fill-33"></path>
                        <path d="M94.5833181,14.2998233 C94.6063695,15.0105113 94.6063695,17.4469925 94.5833181,17.6349522 C94.5639123,17.7931853 94.3299627,17.9603258 93.8848464,18.1072909 L75.8875359,23.6259808 C74.8120499,23.9552191 73.0817595,24.0458859 71.9721994,23.8311436 L0.859021239,10.0642191 C0.316769382,9.95869526 0.032787956,9.80190982 0.0096516628,9.63060209 C-0.0120645785,9.46980883 0.0096516628,7.04582161 0.0096516628,6.3031" id="Fill-33-Copy" stroke-linejoin="round"></path>
                    </g>
                </g>
            </g>
        </g>
    </g>
</svg>