<?xml version="1.0" encoding="UTF-8"?>
<svg width="457px" height="414px" viewBox="0 0 457 414" version="1.1" xmlns="http://www.w3.org/2000/svg" xmlns:xlink="http://www.w3.org/1999/xlink">
    <title>house</title>
    <g id="REX-general-user" stroke="none" stroke-width="1" fill="none" fill-rule="evenodd">
        <g id="t01.Landing-A" transform="translate(-377.000000, -227.000000)" stroke="#00B3B0">
            <g id="house" transform="translate(377.287658, 227.752108)">
                <g transform="translate(0.000000, 0.000000)">
                    <g id="base" transform="translate(0.000000, 59.792580)">
                        <polyline id="Path-9" stroke-linejoin="round" points="580.853992 159.635459 434.247784 346.408865 4.45429515e-14 236.109394 82.1368629 199.999402"></polyline>
                        <line x1="293.335522" y1="310.620573" x2="589.782051" y2="385.831366" id="Line-7" stroke-linecap="square"></line>
                        <line x1="508.792991" y1="199.3086" x2="601.820488" y2="215.854975" id="Line-7-Copy" stroke-linecap="square"></line>
                        <line x1="411.304527" y1="68.6325541" x2="584.785629" y2="-1.12023016e-13" id="Line-8" stroke-linecap="square"></line>
                    </g>
                    <polygon id="Stroke-1" points="121.627391 314.190451 52.4609605 296.348034 52.4609605 291.44137 121.627391 309.283786"></polygon>
                    <polygon id="Stroke-3" points="218.014158 315.082571 155.095018 300.808638 155.095018 295.901974 218.014158 310.175907"></polygon>
                    <polygon id="Stroke-4" points="154.648783 300.808638 121.181155 314.190451 121.181155 309.283786 154.648783 295.901974"></polygon>
                    <polyline id="Stroke-5" points="116.045793 157.027578 73.8801528 193.308347 450.50252 240.590751 494.233553 138.888977 380.228535 135.185783"></polyline>
                    <polygon id="Stroke-6" stroke-linejoin="round" points="427.744623 360.580733 427.67501 237.724991 250.832067 215.52278 253.71296 322.219538"></polygon>
                    <polyline id="Stroke-7" points="454.394761 231.538847 511.636898 193.753961 491.335881 145.627612"></polyline>
                    <polyline id="Stroke-8" points="507.172495 196.700993 518.950422 196.700993 494.233464 138.888888"></polyline>
                    <polyline id="Stroke-10" points="501.819638 200.445046 501.819638 273.152893 442.190143 343.69467"></polyline>
                    <polyline id="Stroke-11" points="346.805799 27.9158378 388.476118 25.1431263 417.172601 93.8364295 347.422495 92.0521878 225.154097 92.0521878 183.717604 59.4897779 150.654265 93.8364295 103.778168 93.8364295 164.466132 26.9273679 220.691746 35.8485761 325.314227 29.1371512"></polyline>
                    <line x1="220.691568" y1="35.8487546" x2="241.218379" y2="92.0523663" id="Stroke-12"></line>
                    <line x1="388.47594" y1="25.1433047" x2="347.422317" y2="92.0523663" id="Stroke-13"></line>
                    <polyline id="Stroke-14" points="164.465954 26.9275464 202.842166 59.0438959 183.717425 59.4899563"></polyline>
                    <polyline id="Stroke-15" points="154.648783 175.019603 117.16504 171.451119 111.265813 93.8366079"></polyline>
                    <polyline id="Stroke-16" points="341.558789 92.079557 341.175026 192.862019 245.819062 184.236493 243.806542 92.079557"></polyline>
                    <polyline id="Stroke-17" stroke-linejoin="round" points="150.654444 93.8366079 155.936974 196.79538 158.992078 194.245074 226.448357 201.322001 225.154275 92.0523663"></polyline>
                    <line x1="156.398292" y1="196.676223" x2="226.371712" y2="205.701518" id="Line-3" stroke-linecap="square"></line>
                    <line x1="410.787691" y1="136.658407" x2="410.787691" y2="93.8366079" id="Stroke-18"></line>
                    <polyline id="Stroke-19" stroke-linejoin="round" points="52.4609605 291.44137 101.490588 275.290414 229.616268 304.377122 218.014158 310.175907"></polyline>
                    <line x1="101.634544" y1="275.290236" x2="98.4234366" y2="196.430324" id="Stroke-21"></line>
                    <line x1="158.84839" y1="288.222955" x2="154.648426" y2="203.567826" id="Stroke-22"></line>
                    <line x1="229.617607" y1="304.377122" x2="226.940197" y2="212.488677" id="Stroke-23"></line>
                    <polyline id="Stroke-24" stroke-linejoin="round" points="245.68073 183.940811 226.412301 205.812937 226.448 201.322001"></polyline>
                    <polyline id="Stroke-25" points="197.230493 58.5978355 164.466132 31.7958497 111.265992 90.8551401 153.37509 90.8551401"></polyline>
                    <line x1="112.006553" y1="90.6290051" x2="104.48253" y2="93.6374368" id="Line"></line>
                    <g id="Group-206" transform="translate(80.585191, 0.000000)">
                        <path d="M361.277416,351.314899 C362.436734,351.637847 363.335451,352.495175 363.335451,353.443499 C363.335451,354.921743 360.738364,356.119862 357.534396,356.119862 C354.330429,356.119862 351.733341,354.921743 351.733341,353.443499 C351.733341,352.541565 352.517822,351.907267 353.703022,351.449609" id="Stroke-26"></path>
                        <path d="M357.534396,356.120129 C354.330429,356.120129 351.733341,354.922011 351.733341,353.443767 L351.733341,359.688613 C351.733341,361.166857 354.330429,362.364975 357.534396,362.364975 C360.738364,362.364975 363.335451,361.166857 363.335451,359.688613 L363.335451,353.443767 C363.335451,354.922011 360.738364,356.120129 357.534396,356.120129 Z" id="Stroke-28"></path>
                        <path d="M353.662593,238.360181 L353.662593,352.549862 C353.662593,353.536547 355.39577,354.335888 357.534128,354.335888 C359.672487,354.335888 361.405663,353.536547 361.405663,352.549862 L361.438685,239.252302" id="Stroke-30"></path>
                        <path d="M427.574108,275.962181 C428.675416,276.377018 429.378683,277.008639 429.378683,277.716091 C429.378683,278.966844 427.180529,279.981186 424.470097,279.981186 C421.758773,279.981186 419.561512,278.966844 419.561512,277.716091 C419.561512,276.991689 420.298692,276.346685 421.446409,275.931849" id="Stroke-32"></path>
                        <path d="M424.469651,279.981007 C421.758327,279.981007 419.561066,278.966666 419.561066,277.716805 L419.561066,283.000836 C419.561066,284.25159 421.758327,285.265039 424.469651,285.265039 C427.180975,285.265039 429.378236,284.25159 429.378236,283.000836 L429.378236,277.716805 C429.378236,278.966666 427.180975,279.981007 424.469651,279.981007 Z" id="Stroke-34"></path>
                        <path d="M421.193572,200.445046 L421.193572,276.959572 C421.193572,277.794598 422.6599,278.471717 424.469829,278.471717 C426.278866,278.471717 427.746087,277.794598 427.746087,276.959572 L427.746087,196.08882" id="Stroke-36"></path>
                        <path d="M8.09265081,273.260037 C9.16450735,273.661491 9.84992436,274.274378 9.85893709,274.96934 C9.87491352,276.219201 7.69014681,277.261198 4.97882275,277.295991 C2.26839116,277.329892 0.0577428132,276.344098 0.0424731465,275.093345 C0.0327536514,274.368051 0.763686634,273.713234 1.90872573,273.284124" id="Stroke-38"></path>
                        <path d="M9.92578432,278.999407 L9.85884906,274.968805 C9.87491352,276.219558 7.69014681,277.261555 4.97882275,277.295456 C2.26839116,277.330249 0.0577428132,276.344455 0.0425708221,275.093702 L0.109506077,280.377733 C0.116645837,280.93174 0.554848639,281.434004 1.27596445,281.818508" id="Stroke-40"></path>
                        <path d="M0,193.582496 L1.70461782,274.052686 C1.71532746,274.886819 3.19058048,275.545204 4.9996173,275.522603 C6.80954659,275.498814 8.26695021,274.803852 8.25629922,273.968827 L6.51860135,194.886776" id="Stroke-42"></path>
                        <line x1="260.589835" y1="192.862019" x2="300.074496" y2="135.041884" id="Stroke-44"></line>
                        <polygon id="Stroke-46" points="84.7732325 167.882636 82.0958223 109.894783 135.333447 110.786904 136.536496 172.34324"></polygon>
                        <polygon id="Stroke-48" fill-opacity="0.2" fill="#00B3B0" points="95.4828733 111.679024 97.9365963 166.942876 123.149445 168.774757 121.364505 112.571145"></polygon>
                        <path d="M86.7271172,108.290571 C86.0988183,94.1299372 91.26622,77.6319469 106.192782,77.7782547 C125.197932,77.964708 129.654927,100.985886 129.397004,109.002483 L118.514224,109.002483 C118.298246,107.092453 118.561524,92.8042457 106.870167,92.0521878 C94.3996824,91.2501712 95.6928715,104.830034 95.5857751,108.314658 L86.7271172,108.290571 Z" id="Stroke-50"></path>
                        <path d="M183.78284,241.092456 L332.006104,261.191618 L332.006104,352.281036 L183.78284,319.572883 L183.78284,241.092456 Z M187.16865,316.69733 L328.620294,347.366394 L187.16865,316.69733 Z M187.16865,312.719082 L328.620294,342.780374 L187.16865,312.719082 Z M187.16865,308.740834 L328.620294,338.194354 L187.16865,308.740834 Z M187.16865,304.762586 L328.620294,333.608334 L187.16865,304.762586 Z M187.16865,300.784338 L328.620294,329.022314 L187.16865,300.784338 Z M187.16865,296.80609 L328.620294,324.436294 L187.16865,296.80609 Z M187.16865,292.827842 L328.620294,319.850274 L187.16865,292.827842 Z M187.16865,288.849594 L328.620294,315.264254 L187.16865,288.849594 Z M187.16865,284.871346 L328.620294,310.678234 L187.16865,284.871346 Z M187.16865,280.893098 L328.620294,306.092214 L187.16865,280.893098 Z M187.16865,276.914849 L328.620294,301.506194 L187.16865,276.914849 Z M187.16865,272.936601 L328.620294,296.920174 L187.16865,272.936601 Z M187.16865,268.958353 L328.620294,292.334154 L187.16865,268.958353 Z M187.16865,264.980105 L328.620294,287.748134 L187.16865,264.980105 Z M187.16865,261.001857 L328.620294,283.162114 L187.16865,261.001857 Z M187.16865,257.023609 L328.620294,278.576094 L187.16865,257.023609 Z M187.16865,253.045361 L328.620294,273.990074 L187.16865,253.045361 Z M187.16865,249.067113 L328.620294,269.404054 L187.16865,249.067113 Z M187.16865,245.088865 L328.620294,264.818034 L187.16865,245.088865 Z" id="rolling" stroke-linecap="square"></path>
                        <polygon id="Stroke-90" points="183.182534 324.41742 326.63262 356.120129 339.286185 358.920004 298.073578 380.207391 170.450359 349.875283"></polygon>
                        <line x1="330.813392" y1="356.929746" x2="298.073578" y2="380.207391" id="Stroke-92"></line>
                        <polygon id="Stroke-94" points="167.318324 109.894783 257.451554 111.679024 257.451554 177.720052 168.665062 170.558999"></polygon>
                        <line x1="210.611512" y1="110.786904" x2="210.611512" y2="174.127482" id="Stroke-96"></line>
                        <line x1="224.891033" y1="110.786904" x2="225.783503" y2="175.019603" id="Stroke-98"></line>
                        <line x1="180.258337" y1="110.150911" x2="181.149022" y2="171.5654" id="Stroke-100"></line>
                        <path d="M182.915577,112.984465 C184.700518,112.984465 195.062363,113.294703 195.062363,113.294703 L195.43961,169.667145 L183.776811,168.833904 L182.915577,112.984465 Z" id="Stroke-102" fill-opacity="0.2" fill="#00B3B0"></path>
                        <line x1="188.94385" y1="113.192243" x2="189.456044" y2="168.954162" id="Stroke-104"></line>
                        <line x1="183.634284" y1="140.861635" x2="195.062363" y2="141.723423" id="Stroke-106"></line>
                        <line x1="195.350184" y1="110.577523" x2="196.105214" y2="172.654858" id="Stroke-108"></line>
                        <path d="M227.982192,113.614391 C229.854594,113.614391 240.72479,114.292671 240.72479,114.292671 L241.120244,173.07692 L228.885372,172.203534 L227.982192,113.614391 Z" id="Stroke-110" fill-opacity="0.2" fill="#00B3B0"></path>
                        <line x1="234.240549" y1="114.292671" x2="234.843859" y2="172.329591" id="Stroke-112"></line>
                        <line x1="228.73624" y1="142.858825" x2="240.72479" y2="143.763436" id="Stroke-114"></line>
                        <line x1="241.026713" y1="111.089332" x2="241.818334" y2="176.211476" id="Stroke-116"></line>
                        <line x1="123.672578" y1="170.900735" x2="121.49668" y2="110.362076" id="Stroke-118"></line>
                        <line x1="93.1416566" y1="110.038682" x2="95.6218309" y2="168.990026" id="Stroke-120"></line>
                        <line x1="108.990408" y1="112.194135" x2="110.985168" y2="168.02047" id="Stroke-122"></line>
                        <line x1="98.4245439" y1="112.086367" x2="100.68874" y2="166.942876" id="Stroke-124"></line>
                        <line x1="99.8261681" y1="140.322794" x2="122.144167" y2="140.969581" id="Stroke-126"></line>
                        <polygon id="Stroke-128" points="71.7423033 163.406648 39.6257809 161.298322 35.4605131 108.637606 69.0986023 109.607341"></polygon>
                        <polyline id="Stroke-130" points="78.4068866 194.245074 73.518828 93.3694042 105.576353 61.7562108"></polyline>
                        <line x1="44.4991292" y1="109.002483" x2="48.0752205" y2="161.626193" id="Stroke-132"></line>
                        <polygon id="Stroke-134" fill-opacity="0.2" fill="#00B3B0" points="71.4707877 160.685214 49.7997404 159.039132 46.8985138 109.002483 69.0986023 109.60752"></polygon>
                        <line x1="59.8627866" y1="109.60752" x2="62.8820128" y2="159.901723" id="Stroke-136"></line>
                        <line x1="48.7937481" y1="135.185605" x2="69.9256543" y2="136.191917" id="Stroke-138"></line>
                        <path d="M101.601826,110.038682 C101.601826,110.038682 101.578712,107.009203 101.578712,103.919893 C101.578712,100.830582 103.991058,97.9658783 107.911679,98.0408165 C111.8323,98.1166468 114.471334,102.33727 114.547194,104.522966 C114.622162,106.708662 114.847957,110.326212 114.847957,110.326212" id="Stroke-140"></path>
                        <path d="M103.415058,109.975698 C103.415058,109.975698 103.349908,107.98239 103.349908,104.937 C103.349908,101.89161 105.444535,99.7662674 108.849308,99.8322843 C112.253189,99.8974091 114.545052,103.562241 114.610202,105.459782 C114.675353,107.358216 114.871696,110.499373 114.871696,110.499373" id="Stroke-142" fill-opacity="0.2" fill="#00B3B0"></path>
                        <path d="M97.1666966,109.894961 C97.1666966,109.894961 97.0587077,106.557833 97.0587077,104.506551 C97.0587077,101.721862 98.056639,92.4211372 105.576353,92.0523663" id="Stroke-144" stroke-linecap="round"></path>
                        <path d="M131.458163,110.732038 C131.042272,106.547991 131.597388,80.3883326 107.660449,77.7066174" id="Stroke-146"></path>
                        <line x1="144.0303" y1="306.831703" x2="172.873006" y2="313.252951" id="Stroke-148"></line>
                        <polygon id="Stroke-150" points="71.6505312 261.926444 25.6277171 252.395374 22.9180958 202.867154 68.7758851 208.471457"></polygon>
                        <polygon id="Stroke-152" fill-opacity="0.2" fill="#00B3B0" points="64.0316035 258.190332 37.436888 252.72966 34.4185543 206.890708 61.5880205 210.195124"></polygon>
                        <line x1="61.4559197" y1="207.588031" x2="64.2704483" y2="260.355489" id="Stroke-154"></line>
                        <line x1="32.1183912" y1="204.016473" x2="35.183374" y2="254.588533" id="Stroke-156"></line>
                        <line x1="35.8559666" y1="230.744145" x2="63.0222612" y2="234.281619" id="Stroke-158"></line>
                        <line x1="46.9249158" y1="208.614821" x2="49.6558742" y2="254.885559" id="Stroke-160"></line>
                        <path d="M98.9635958,285.636429 C101.407179,285.636429 142.233222,294.114253 142.233222,294.114253 L140.93914,219.822892 L95.8006819,214.218589 L98.9635958,285.636429 Z" id="Stroke-162"></path>
                        <line x1="140.652122" y1="211.919861" x2="142.776911" y2="302.72344" id="Stroke-164"></line>
                        <polyline id="Stroke-166" points="81.2937353 288.904559 87.8944681 285.780506 95.513485 287.504084 98.9637743 285.635983"></polyline>
                        <polyline id="Stroke-168" points="91.7531568 286.664394 89.0450405 213.356889 95.8010389 214.218678"></polyline>
                        <polygon id="Stroke-170" fill-opacity="0.2" fill="#00B3B0" stroke-linejoin="round" points="110.248255 283.380105 109.769023 265.55304 120.526833 267.860771 121.173874 285.391837"></polygon>
                        <polygon id="Stroke-170-Copy" stroke-linejoin="round" points="109.661288 262.894588 109.457527 257.216327 134.901848 262.776979 134.901848 268.452034"></polygon>
                        <polygon id="Stroke-172" fill-opacity="0.2" fill="#00B3B0" stroke-linejoin="round" points="124.192297 286.325888 123.545256 268.723452 135.189313 270.878816 135.764063 288.840777"></polygon>
                        <polygon id="Stroke-174" fill-opacity="0.2" fill="#00B3B0" stroke-linejoin="round" points="109.313839 254.698721 108.092047 219.852482 119.448729 221.648321 120.814208 256.854085"></polygon>
                        <polygon id="Stroke-176" fill-opacity="0.2" fill="#00B3B0" stroke-linejoin="round" points="123.904832 257.716409 122.754438 222.15112 134.254807 223.731958 134.901848 260.302667"></polygon>
                        <line x1="105.288799" y1="215.655974" x2="107.588694" y2="286.92929" id="Stroke-178"></line>
                        <line x1="136.914547" y1="219.428039" x2="139.286732" y2="293.252821" id="Stroke-180"></line>
                        <polyline id="Stroke-182" points="137.345788 315.237979 144.281716 311.303824 172.817011 318.471025"></polyline>
                        <line x1="144.281716" y1="307.236088" x2="144.281716" y2="310.996627" id="Line-2" stroke-linecap="square"></line>
                        <polygon id="Stroke-184" points="242.69706 22.6232418 259.10423 22.3814771 268.825014 21.2422388 268.900874 16.1410919 258.961077 15.6726393 242.774705 17.0912006"></polygon>
                        <polygon id="Stroke-188" points="245.086559 47.9881102 260.111293 48.104978 266.143498 40.3613693 266.076563 21.5929315 259.103694 22.3815663 244.892001 22.5385796"></polygon>
                        <line x1="245.279154" y1="16.8709017" x2="245.279154" y2="12.9510964" id="Stroke-190"></line>
                        <line x1="266.499237" y1="16.4247472" x2="266.55457" y2="11.9069582" id="Stroke-192"></line>
                        <line x1="256.389667" y1="13.1618887" x2="256.426909" y2="15.5154977" id="Stroke-194"></line>
                        <line x1="250.236558" y1="13.0846469" x2="250.146418" y2="16.4247472" id="Stroke-196"></line>
                        <line x1="262.569691" y1="12.3507873" x2="262.569691" y2="15.6813429" id="Stroke-198"></line>
                        <line x1="258.942336" y1="15.5472572" x2="258.951706" y2="22.6232418" id="Stroke-200"></line>
                        <line x1="347.225564" y1="360.430679" x2="351.753957" y2="354.970007" id="Stroke-204"></line>
                        <polygon id="Stroke-186" points="239.442757 12.7894441 257.9035 12.7733859 273.525296 11.2728387 264.318575 0 245.106372 2.14019785"></polygon>
                        <line x1="258.177399" y1="12.6122689" x2="264.317593" y2="0.0342574395" id="Stroke-202"></line>
                    </g>
                    <g id="Group" transform="translate(379.369837, 57.160202)">
                        <ellipse id="Oval" fill-opacity="0.2" fill="#00B3B0" cx="6.88737543" cy="12.0337268" rx="6.01921886" ry="9.77740304"></ellipse>
                        <ellipse id="Oval-Copy" cx="7.52402358" cy="12.0337268" rx="7.52402358" ry="12.0337268"></ellipse>
                    </g>
                    <g id="Group-2" transform="translate(487.831531, 187.124452) rotate(5.000000) translate(-487.831531, -187.124452) translate(481.812312, 177.497470)">
                        <ellipse id="Oval" fill-opacity="0.2" fill="#00B3B0" cx="5.50990034" cy="9.62698145" rx="4.81537509" ry="7.82192243"></ellipse>
                        <ellipse id="Oval-Copy" cx="6.01921886" cy="9.62698145" rx="6.01921886" ry="9.62698145"></ellipse>
                    </g>
                </g>
            </g>
        </g>
    </g>
</svg>