<?xml version="1.0" encoding="UTF-8"?>
<svg width="374px" height="375px" viewBox="0 0 374 375" version="1.1" xmlns="http://www.w3.org/2000/svg" xmlns:xlink="http://www.w3.org/1999/xlink">
    <title>house</title>
    <g id="REX-mobile" stroke="none" stroke-width="1" fill="none" fill-rule="evenodd">
        <g id="m01.Landing-A" transform="translate(-1.000000, -391.000000)" stroke="#00B3B0">
            <g id="house" transform="translate(1.163265, 391.708263)">
                <g transform="translate(-0.000000, -0.000000)">
                    <g id="base" transform="translate(0.000000, 56.306914)">
                        <polyline id="Path-9" stroke-linejoin="round" points="546.992548 150.329356 408.932891 326.214626 4.19462772e-14 222.345169 77.3486153 188.340244"></polyline>
                        <line x1="276.235245" y1="292.512648" x2="555.400137" y2="363.338954" id="Line-7" stroke-linecap="square"></line>
                        <line x1="479.132413" y1="187.689713" x2="566.736783" y2="203.271501" id="Line-7-Copy" stroke-linecap="square"></line>
                        <line x1="387.327133" y1="64.6315532" x2="550.694987" y2="-1.05492526e-13" id="Line-8" stroke-linecap="square"></line>
                    </g>
                    <polygon id="Stroke-1" points="114.537005 295.874415 49.4026982 279.07214 49.4026982 274.451514 114.537005 291.25379"></polygon>
                    <polygon id="Stroke-3" points="205.304812 296.714529 146.053604 283.272709 146.053604 278.652083 205.304812 292.093903"></polygon>
                    <polygon id="Stroke-4" points="145.633383 283.272709 114.116783 295.874415 114.116783 291.25379 145.633383 278.652083"></polygon>
                    <polyline id="Stroke-5" points="109.280792 147.873504 69.5732381 182.039251 424.240041 226.565281 465.421732 130.79231 358.062746 127.304998"></polyline>
                    <polygon id="Stroke-6" stroke-linejoin="round" points="402.808838 339.560332 402.743283 223.866583 236.20957 202.958672 238.922518 303.435439"></polygon>
                    <polyline id="Stroke-7" points="427.90538 218.041066 481.810532 182.458887 462.692983 137.13811"></polyline>
                    <polyline id="Stroke-8" points="477.606385 185.234119 488.697707 185.234119 465.421648 130.792226"></polyline>
                    <polyline id="Stroke-10" points="472.565578 188.759909 472.565578 257.229182 416.412242 323.658658"></polyline>
                    <polyline id="Stroke-11" points="326.58842 26.2884571 365.829529 23.6773835 392.853122 88.3661444 327.169166 86.6859168 212.028521 86.6859168 173.007609 56.0217639 141.87173 88.3661444 97.7283194 88.3661444 154.87842 25.3576111 207.826308 33.7587488 306.34972 27.4385729"></polyline>
                    <line x1="207.82614" y1="33.7589169" x2="227.156321" y2="86.6860848" id="Stroke-12"></line>
                    <line x1="365.82936" y1="23.6775515" x2="327.168998" y2="86.6860848" id="Stroke-13"></line>
                    <polyline id="Stroke-14" points="154.878252 25.3577791 191.017287 55.6018751 173.007441 56.021932"></polyline>
                    <polyline id="Stroke-15" points="145.633383 164.816666 110.334791 161.456211 104.779465 88.3663124"></polyline>
                    <polyline id="Stroke-16" points="321.64729 86.7116904 321.285899 181.618942 231.488803 173.496249 229.593605 86.7116904"></polyline>
                    <polyline id="Stroke-17" stroke-linejoin="round" points="141.871898 88.3663124 146.846478 185.323003 149.723481 182.92137 213.247331 189.585741 212.028689 86.6860848"></polyline>
                    <line x1="147.280903" y1="185.210793" x2="213.175155" y2="193.709949" id="Line-3" stroke-linecap="square"></line>
                    <line x1="386.840427" y1="128.691774" x2="386.840427" y2="88.3663124" id="Stroke-18"></line>
                    <polyline id="Stroke-19" stroke-linejoin="round" points="49.4026982 274.451514 95.5740967 259.242094 216.230567 286.633164 205.304812 292.093903"></polyline>
                    <line x1="95.7096601" y1="259.241926" x2="92.6857475" y2="184.979229" id="Stroke-21"></line>
                    <line x1="149.58817" y1="271.42072" x2="145.633047" y2="191.700643" id="Stroke-22"></line>
                    <line x1="216.231827" y1="286.633164" x2="213.710499" y2="200.101445" id="Stroke-23"></line>
                    <polyline id="Stroke-24" stroke-linejoin="round" points="231.358535 173.217804 213.213377 193.814873 213.246995 189.585741"></polyline>
                    <polyline id="Stroke-25" points="185.732751 55.1818182 154.87842 29.94228 104.779633 85.5586521 144.433941 85.5586521"></polyline>
                    <line x1="105.477023" y1="85.3456998" x2="98.39162" y2="88.1787521" id="Line"></line>
                    <g id="Group-206" transform="translate(75.887400, 0.000000)">
                        <path d="M340.2164,330.834658 C341.308135,331.138779 342.154461,331.946129 342.154461,332.83917 C342.154461,334.231238 339.708773,335.359511 336.691584,335.359511 C333.674395,335.359511 331.228706,334.231238 331.228706,332.83917 C331.228706,331.989815 331.967456,331.392494 333.083563,330.961515" id="Stroke-26"></path>
                        <path d="M336.691584,335.359763 C333.674395,335.359763 331.228706,334.23149 331.228706,332.839422 L331.228706,338.720218 C331.228706,340.112287 333.674395,341.240559 336.691584,341.240559 C339.708773,341.240559 342.154461,340.112287 342.154461,338.720218 L342.154461,332.839422 C342.154461,334.23149 339.708773,335.359763 336.691584,335.359763 Z" id="Stroke-28"></path>
                        <path d="M333.045491,224.464744 L333.045491,331.997628 C333.045491,332.926793 334.677631,333.679535 336.691332,333.679535 C338.705032,333.679535 340.337172,332.926793 340.337172,331.997628 L340.368268,225.304858" id="Stroke-30"></path>
                        <path d="M402.648263,259.8747 C403.685369,260.265353 404.347638,260.860153 404.347638,261.526364 C404.347638,262.704203 402.277628,263.659413 399.725204,263.659413 C397.171939,263.659413 395.102769,262.704203 395.102769,261.526364 C395.102769,260.844191 395.796975,260.236789 396.877784,259.846136" id="Stroke-32"></path>
                        <path d="M399.724783,263.659244 C397.171519,263.659244 395.102349,262.704035 395.102349,261.527036 L395.102349,266.50303 C395.102349,267.680869 397.171519,268.635238 399.724783,268.635238 C402.278048,268.635238 404.347218,267.680869 404.347218,266.50303 L404.347218,261.527036 C404.347218,262.704035 402.278048,263.659244 399.724783,263.659244 Z" id="Stroke-34"></path>
                        <path d="M396.639686,188.759909 L396.639686,260.813947 C396.639686,261.600294 398.020534,262.23794 399.724951,262.23794 C401.428529,262.23794 402.810216,261.600294 402.810216,260.813947 L402.810216,184.657633" id="Stroke-36"></path>
                        <path d="M7.62088192,257.330079 C8.63025356,257.708131 9.27571353,258.285289 9.28420085,258.939737 C9.29924592,260.116737 7.24184228,261.09799 4.68857748,261.130754 C2.13615311,261.162678 0.0543766402,260.234353 0.0399971335,259.056513 C0.0308442457,258.373501 0.719166786,257.756857 1.79745472,257.352762" id="Stroke-38"></path>
                        <path d="M9.34715115,262.734867 L9.28411795,258.939233 C9.29924592,260.117073 7.24184228,261.098326 4.68857748,261.13025 C2.13615311,261.163014 0.0543766402,260.234689 0.040089115,259.056849 L0.103122315,264.032843 C0.109845856,264.554554 0.522503203,265.027538 1.20158087,265.389627" id="Stroke-40"></path>
                        <path d="M0,182.297418 L1.60524548,258.07652 C1.6153308,258.862027 3.00458252,259.482031 4.70815979,259.460748 C6.41257751,259.438345 7.78502038,258.783896 7.77499029,257.99755 L6.1385932,183.525664" id="Stroke-42"></path>
                        <line x1="245.3985" y1="181.618942" x2="282.581364" y2="127.169488" id="Stroke-44"></line>
                        <polygon id="Stroke-46" points="79.8312952 158.095756 77.3099672 103.48836 127.444053 104.328474 128.57697 162.296325"></polygon>
                        <polygon id="Stroke-48" fill-opacity="0.2" fill="#00B3B0" points="89.9166071 105.168588 92.227288 157.21078 115.97033 158.93587 114.289444 106.008702"></polygon>
                        <path d="M81.6712763,101.977668 C81.0796047,88.6425418 85.9457677,73.1063177 100.002171,73.2440964 C117.899398,73.4196801 122.096568,95.0988162 121.85368,102.648079 L111.605323,102.648079 C111.401935,100.849395 111.649866,87.3941327 100.640067,86.6859168 C88.8965619,85.9306545 90.1143633,98.7188664 90.0135102,102.000351 L81.6712763,101.977668 Z" id="Stroke-50"></path>
                        <path d="M173.069042,227.037738 L312.651488,245.965201 L312.651488,331.744473 L173.069042,300.943074 L173.069042,227.037738 Z M176.257473,298.235154 L309.463057,327.116336 L176.257473,298.235154 Z M176.257473,294.488822 L309.463057,322.797662 L176.257473,294.488822 Z M176.257473,290.742489 L309.463057,318.478988 L176.257473,290.742489 Z M176.257473,286.996157 L309.463057,314.160315 L176.257473,286.996157 Z M176.257473,283.249825 L309.463057,309.841641 L176.257473,283.249825 Z M176.257473,279.503493 L309.463057,305.522968 L176.257473,279.503493 Z M176.257473,275.75716 L309.463057,301.204294 L176.257473,275.75716 Z M176.257473,272.010828 L309.463057,296.885621 L176.257473,272.010828 Z M176.257473,268.264496 L309.463057,292.566947 L176.257473,268.264496 Z M176.257473,264.518164 L309.463057,288.248274 L176.257473,264.518164 Z M176.257473,260.771831 L309.463057,283.9296 L176.257473,260.771831 Z M176.257473,257.025499 L309.463057,279.610926 L176.257473,257.025499 Z M176.257473,253.279167 L309.463057,275.292253 L176.257473,253.279167 Z M176.257473,249.532834 L309.463057,270.973579 L176.257473,249.532834 Z M176.257473,245.786502 L309.463057,266.654906 L176.257473,245.786502 Z M176.257473,242.04017 L309.463057,262.336232 L176.257473,242.04017 Z M176.257473,238.293838 L309.463057,258.017559 L176.257473,238.293838 Z M176.257473,234.547505 L309.463057,253.698885 L176.257473,234.547505 Z M176.257473,230.801173 L309.463057,249.380212 L176.257473,230.801173 Z" id="rolling" stroke-linecap="square"></path>
                        <polygon id="Stroke-90" points="172.503732 305.505194 307.591257 335.359763 319.50717 337.996417 280.697091 358.042835 160.513791 329.478967"></polygon>
                        <line x1="311.528307" y1="336.122182" x2="280.697091" y2="358.042835" id="Stroke-92"></line>
                        <polygon id="Stroke-94" points="157.564341 103.48836 242.443167 105.168588 242.443167 167.359691 158.832569 160.616097"></polygon>
                        <line x1="198.333711" y1="104.328474" x2="198.333711" y2="163.976552" id="Stroke-96"></line>
                        <line x1="211.780793" y1="104.328474" x2="212.621236" y2="164.816666" id="Stroke-98"></line>
                        <line x1="169.750003" y1="103.729557" x2="170.588765" y2="161.56383" id="Stroke-100"></line>
                        <path d="M172.252337,106.397926 C173.933223,106.397926 183.691014,106.690079 183.691014,106.690079 L184.046269,159.776236 L173.063365,158.991569 L172.252337,106.397926 Z" id="Stroke-102" fill-opacity="0.2" fill="#00B3B0"></path>
                        <line x1="177.929186" y1="106.593592" x2="178.411521" y2="159.104817" id="Stroke-104"></line>
                        <line x1="172.929146" y1="132.64997" x2="183.691014" y2="133.46152" id="Stroke-106"></line>
                        <line x1="183.962057" y1="104.131299" x2="184.673071" y2="162.589777" id="Stroke-108"></line>
                        <path d="M214.69175,106.991131 C216.454999,106.991131 226.691507,107.629869 226.691507,107.629869 L227.063907,162.987234 L215.542278,162.164763 L214.69175,106.991131 Z" id="Stroke-110" fill-opacity="0.2" fill="#00B3B0"></path>
                        <line x1="220.58527" y1="107.629869" x2="221.15341" y2="162.283471" id="Stroke-112"></line>
                        <line x1="215.40184" y1="134.530732" x2="226.691507" y2="135.382608" id="Stroke-114"></line>
                        <line x1="226.975828" y1="104.613273" x2="227.721301" y2="165.939058" id="Stroke-116"></line>
                        <line x1="116.462966" y1="160.937912" x2="114.413914" y2="103.928412" id="Stroke-118"></line>
                        <line x1="87.7118739" y1="103.623871" x2="90.0474641" y2="159.138589" id="Stroke-120"></line>
                        <line x1="102.636707" y1="105.65367" x2="104.51518" y2="158.225555" id="Stroke-122"></line>
                        <line x1="92.6867902" y1="105.552184" x2="94.8189932" y2="157.21078" id="Stroke-124"></line>
                        <line x1="94.0067054" y1="132.142541" x2="115.023655" y2="132.751624" id="Stroke-126"></line>
                        <polygon id="Stroke-128" points="67.5600166 153.8807 37.3157578 151.895281 33.3933083 102.304472 65.0704326 103.217676"></polygon>
                        <polyline id="Stroke-130" points="73.8360815 182.92137 69.2329771 87.9263448 99.4216775 58.156073"></polyline>
                        <line x1="41.9050095" y1="102.648079" x2="45.2726291" y2="152.204038" id="Stroke-132"></line>
                        <polygon id="Stroke-134" fill-opacity="0.2" fill="#00B3B0" points="67.3043292 151.317915 46.8966165 149.767792 44.1645198 102.648079 65.0704326 103.217844"></polygon>
                        <line x1="56.3730277" y1="103.217844" x2="59.2162452" y2="150.580098" id="Stroke-136"></line>
                        <line x1="45.9492695" y1="127.30483" x2="65.8492709" y2="128.252478" id="Stroke-138"></line>
                        <path d="M95.6788493,103.623871 C95.6788493,103.623871 95.6570827,100.770999 95.6570827,97.8617824 C95.6570827,94.9525662 97.9287992,92.254863 101.620864,92.3254326 C105.312928,92.3968422 107.798117,96.3714205 107.869555,98.4296993 C107.940152,100.487978 108.152784,103.894639 108.152784,103.894639" id="Stroke-140"></path>
                        <path d="M97.3863775,103.564559 C97.3863775,103.564559 97.3250252,101.687452 97.3250252,98.8195961 C97.3250252,95.9517399 99.2975441,93.9502966 102.503833,94.0124651 C105.709281,94.0737934 107.867538,97.5249808 107.92889,99.3119028 C107.990243,101.099665 108.17514,104.057705 108.17514,104.057705" id="Stroke-142" fill-opacity="0.2" fill="#00B3B0"></path>
                        <path d="M91.5022703,103.488528 C91.5022703,103.488528 91.4005768,100.345941 91.4005768,98.4142412 C91.4005768,95.7918884 92.3403327,87.0333579 99.4216775,86.6860848" id="Stroke-144" stroke-linecap="round"></path>
                        <path d="M123.794683,104.276807 C123.403036,100.336674 123.925792,75.7020172 101.384279,73.1766352" id="Stroke-146"></path>
                        <line x1="135.633914" y1="288.944653" x2="162.795207" y2="294.991568" id="Stroke-148"></line>
                        <polygon id="Stroke-150" points="67.4735944 246.65719 24.1337246 237.681743 21.5820633 191.040818 64.7665286 196.318412"></polygon>
                        <polygon id="Stroke-152" fill-opacity="0.2" fill="#00B3B0" points="60.2988194 243.138877 35.2544686 237.996541 32.4120915 194.829815 57.9976874 197.941596"></polygon>
                        <line x1="57.8732876" y1="195.486486" x2="60.5237405" y2="245.177815" id="Stroke-154"></line>
                        <line x1="30.2460186" y1="192.123136" x2="33.1323253" y2="239.747049" id="Stroke-156"></line>
                        <line x1="33.7657084" y1="217.292693" x2="59.3483178" y2="220.623946" id="Stroke-158"></line>
                        <line x1="44.1893826" y1="196.453419" x2="46.7611371" y2="240.02676" id="Stroke-160"></line>
                        <path d="M93.1944176,268.984978 C95.4955496,268.984978 133.941599,276.968579 133.941599,276.968579 L132.722957,207.008104 L90.2158888,201.730509 L93.1944176,268.984978 Z" id="Stroke-162"></path>
                        <line x1="132.452671" y1="199.565788" x2="134.453594" y2="285.075885" id="Stroke-164"></line>
                        <polyline id="Stroke-166" points="76.5546386 272.062589 82.7705753 269.120656 89.9454343 270.743756 93.1945857 268.984558"></polyline>
                        <polyline id="Stroke-168" points="86.404318 269.953016 83.854074 200.919044 90.216225 201.730593"></polyline>
                        <polygon id="Stroke-170" fill-opacity="0.2" fill="#00B3B0" stroke-linejoin="round" points="103.821227 266.860189 103.369932 250.072369 113.500605 252.245569 114.109926 268.754645"></polygon>
                        <polygon id="Stroke-170-Copy" stroke-linejoin="round" points="103.268478 247.568895 103.076595 242.221653 127.037615 247.458142 127.037615 252.802364"></polygon>
                        <polygon id="Stroke-172" fill-opacity="0.2" fill="#00B3B0" stroke-linejoin="round" points="116.952387 269.634244 116.343066 253.057959 127.308321 255.087674 127.849566 272.002525"></polygon>
                        <polygon id="Stroke-174" fill-opacity="0.2" fill="#00B3B0" stroke-linejoin="round" points="102.941283 239.850814 101.790717 207.035969 112.48535 208.727118 113.771227 241.880528"></polygon>
                        <polygon id="Stroke-176" fill-opacity="0.2" fill="#00B3B0" stroke-linejoin="round" points="116.68168 242.692582 115.59835 209.200607 126.428294 210.689288 127.037615 245.128072"></polygon>
                        <line x1="99.1508869" y1="203.084101" x2="101.316708" y2="270.202471" id="Stroke-178"></line>
                        <line x1="128.932981" y1="206.63627" x2="131.166878" y2="276.157365" id="Stroke-180"></line>
                        <polyline id="Stroke-182" points="129.339083 296.860877 135.870674 293.156067 162.742477 299.905449"></polyline>
                        <line x1="135.870674" y1="289.325464" x2="135.870674" y2="292.866779" id="Line-2" stroke-linecap="square"></line>
                        <polygon id="Stroke-184" points="228.548801 21.3043981 243.999499 21.0767273 253.1536 20.003902 253.225038 15.2001314 243.864692 14.7589877 228.621919 16.0948526"></polygon>
                        <polygon id="Stroke-188" points="230.799002 45.1905971 244.947854 45.300652 250.628406 38.0084644 250.565373 20.3341507 243.998994 21.0768113 230.615786 21.2246713"></polygon>
                        <line x1="230.98037" y1="15.8873962" x2="230.98037" y2="12.1960997" id="Stroke-190"></line>
                        <line x1="250.963407" y1="15.4672507" x2="251.015514" y2="11.2128306" id="Stroke-192"></line>
                        <line x1="241.443184" y1="12.3946037" x2="241.478255" y2="14.6110068" id="Stroke-194"></line>
                        <line x1="235.648776" y1="12.3218648" x2="235.563892" y2="15.4672507" id="Stroke-196"></line>
                        <line x1="247.262938" y1="11.6307863" x2="247.262938" y2="14.7671839" id="Stroke-198"></line>
                        <line x1="243.847042" y1="14.6409148" x2="243.855867" y2="21.3043981" id="Stroke-200"></line>
                        <line x1="326.983715" y1="339.419025" x2="331.248121" y2="334.276688" id="Stroke-204"></line>
                        <polygon id="Stroke-186" points="225.484211 12.0438711 242.868767 12.0287491 257.579876 10.6156777 248.909869 0 230.81766 2.01543295"></polygon>
                        <line x1="243.126699" y1="11.8770245" x2="248.908945" y2="0.0322603691" id="Stroke-202"></line>
                    </g>
                    <g id="Group" transform="translate(357.254107, 53.827993)">
                        <ellipse id="Oval" fill-opacity="0.2" fill="#00B3B0" cx="6.48586924" cy="11.3322091" rx="5.6683227" ry="9.2074199"></ellipse>
                        <ellipse id="Oval-Copy" cx="7.08540337" cy="11.3322091" rx="7.08540337" ry="11.3322091"></ellipse>
                    </g>
                    <g id="Group-2" transform="translate(459.392922, 176.215852) rotate(5.000000) translate(-459.392922, -176.215852) translate(453.724599, 167.150084)">
                        <ellipse id="Oval" fill-opacity="0.2" fill="#00B3B0" cx="5.18869539" cy="9.06576728" rx="4.53465816" ry="7.36593592"></ellipse>
                        <ellipse id="Oval-Copy" cx="5.6683227" cy="9.06576728" rx="5.6683227" ry="9.06576728"></ellipse>
                    </g>
                </g>
            </g>
        </g>
    </g>
</svg>