<?xml version="1.0" encoding="UTF-8"?>
<svg width="930px" height="375px" viewBox="0 0 930 375" version="1.1" xmlns="http://www.w3.org/2000/svg" xmlns:xlink="http://www.w3.org/1999/xlink">
    <title>path</title>
    <defs>
        <filter x="-4.0%" y="-13.2%" width="108.1%" height="126.4%" filterUnits="objectBoundingBox" id="filter-1">
            <feGaussianBlur stdDeviation="11" in="SourceGraphic"></feGaussianBlur>
        </filter>
        <linearGradient x1="30.0205068%" y1="51.7744959%" x2="94.7348434%" y2="46.4960298%" id="linearGradient-2">
            <stop stop-color="#FFFDE7" offset="0%"></stop>
            <stop stop-color="#FEF566" offset="100%"></stop>
        </linearGradient>
    </defs>
    <g id="REX-mobile" stroke="none" stroke-width="1" fill="none" fill-rule="evenodd">
        <g id="m01.Landing-A" transform="translate(481.000000, -682.000000)">
            <g id="path" transform="translate(-448.000000, 682.000000)">
                <g id="floor" transform="translate(0.000000, 84.722207)">
                    <polygon id="shadow" fill="#000000" opacity="0.08" filter="url(#filter-1)" points="818.722315 18.6840105 -3.53065865e-14 257.277793 -3.53065865e-14 168.987587 751.753728 7.59785804"></polygon>
                    <path d="M753.1702,0 L820.128223,11.1032821 L118.453412,200.314528 L117.571456,103.310496 L753.1702,0 Z M257.277793,120.321829 C257.277793,114.523351 248.832984,110.337406 238.415784,110.972259 C227.998585,111.607113 219.553776,116.822359 219.553776,122.620837 C219.553776,128.419316 227.998585,132.605261 238.415784,131.970407 C248.832984,131.335554 257.277793,126.120308 257.277793,120.321829 Z" id="floor1-w-hole" fill="url(#linearGradient-2)"></path>
                </g>
                <g id="stairs" transform="translate(753.195003, 0.000000)">
                    <g id="solid">
                        <g id="stair" opacity="0.100000001" transform="translate(55.804997, 0.000000)">
                            <path d="M69.7260045,18.7504719 L69.8905409,22.3380038 C69.7604571,22.377072 69.6215924,22.4128851 69.4749952,22.4449236 L69.3262164,22.4762792 C69.1718809,22.5053413 69.0122768,22.5313719 68.8473468,22.5532712 C68.7409939,22.566689 68.6343229,22.5789105 68.527537,22.5889325 L68.3891277,22.6015406 L68.250769,22.6121867 L67.9952279,22.6260546 C67.9115309,22.6293553 67.8302982,22.6314354 67.7490219,22.6324266 L67.7487981,22.6333785 L67.5045945,22.6344099 L67.2539134,22.6288341 L67.0893771,19.0413022 C67.1713154,19.0447164 67.2556867,19.0457972 67.3400581,19.046878 C67.420845,19.0478163 67.5025534,19.0468314 67.5842618,19.0458466 L67.8306915,19.0385227 L67.8306915,19.0385227 L67.8577357,19.6316437 L67.8314329,19.0380426 L67.9588759,19.0321735 L68.085451,19.024365 C68.1796694,19.0183117 68.2712824,19.0112925 68.3627803,19.0020738 C68.4697866,18.9913786 68.5790056,18.9790232 68.683071,18.9658358 C68.7928507,18.9511719 68.9004045,18.9352036 69.0056214,18.9172505 L69.1612991,18.8891475 L69.3105575,18.8585245 C69.4578657,18.8263854 69.5977813,18.7902926 69.7260045,18.7504719 Z M66.8223753,19.0265485 C66.9095821,19.0329943 66.9992794,19.0382064 67.0888617,19.041219 L67.2533981,22.6287509 C67.1612103,22.6247724 67.0741184,22.6205262 66.9869116,22.6140805 L66.8223753,19.0265485 Z M0.783653785,6.25472416 L66.1264543,18.9397127 C66.2053671,18.9553062 66.288968,18.9688032 66.3755207,18.9808381 L66.5073708,18.9981928 L66.662162,19.0140413 L66.8218887,19.0270152 L66.986425,22.6145471 L66.8271323,22.6014772 L66.6719153,22.5854171 C66.5382122,22.5692838 66.4094326,22.5495835 66.2907301,22.5271481 L0.948190146,9.84225609 L0.783653785,6.25472416 Z M86.2176814,13.6808033 L86.3822178,17.2683352 L69.8907842,22.3377705 L69.7262478,18.7502385 L86.2176814,13.6808033 Z M86.9058516,13.213677 L87.070388,16.801209 L87.0662132,16.8317664 L87.0662132,16.8317664 L87.0568538,16.864889 C87.0476966,16.8852203 87.0360488,16.9067852 87.0193051,16.9286178 C87.0024954,16.9503352 86.9809494,16.9721912 86.9543626,16.993245 L86.9545389,16.9946589 C86.9255535,17.0179072 86.8940959,17.0412853 86.8552958,17.0650492 L86.8552981,17.0659301 C86.8256037,17.0843996 86.7924863,17.1025589 86.756701,17.1203683 L86.7009077,17.1477081 C86.6110769,17.1888199 86.5033526,17.2297692 86.3827159,17.2680885 L86.2181795,13.6805565 C86.3413643,13.6421033 86.4465405,13.601288 86.5363713,13.5601762 C86.5939768,13.5331087 86.6462201,13.5061025 86.6907618,13.4783981 L86.745308,14.673872 L86.6915319,13.4784679 L86.7598788,13.4313867 L86.7890006,13.4075105 C86.8159363,13.3851423 86.837776,13.3630419 86.8545197,13.3412093 C86.8711033,13.3209289 86.8825666,13.2999855 86.8915531,13.2791433 C86.9003922,13.2558697 86.9043959,13.2347064 86.9058516,13.213677 Z M0.000167384189,5.84176449 C0.00612760938,6.00466328 0.269493067,6.15514007 0.783155683,6.25497088 L0.947692044,9.84250282 C0.434029429,9.742672 0.170663971,9.59219522 0.164703746,9.42929642 L0.000167384189,5.84176449 Z" id="Shape" fill="#E3DA49"></path>
                            <path d="M86.1282466,12.7910347 C87.1235191,12.984632 87.1574709,13.3698831 86.2626033,13.6661503 L69.7250141,18.7510753 C68.7367583,19.0544357 67.1468079,19.1379762 66.1272417,18.9401125 L0.781893182,6.25525778 C-0.184066161,6.06676603 -0.258105927,5.70076252 0.577011255,5.40388472 L0.724618527,5.35508742 L0.724618527,5.35508742 L17.1851257,0.295217161 C18.1582659,-0.00404067943 19.7633318,-0.0916837395 20.7854461,0.106046132 L86.1282466,12.7910347 Z" id="Fill-33" fill="#FEF566"></path>
                        </g>
                        <g id="stair-copy" opacity="0.300000012" transform="translate(41.804997, 16.634410)">
                            <path d="M69.7260045,18.7504719 L69.8905409,22.3380038 C69.7604571,22.377072 69.6215924,22.4128851 69.4749952,22.4449236 L69.3262164,22.4762792 C69.1718809,22.5053413 69.0122768,22.5313719 68.8473468,22.5532712 C68.7409939,22.566689 68.6343229,22.5789105 68.527537,22.5889325 L68.3891277,22.6015406 L68.250769,22.6121867 L67.9952279,22.6260546 C67.9115309,22.6293553 67.8302982,22.6314354 67.7490219,22.6324266 L67.7487981,22.6333785 L67.5045945,22.6344099 L67.2539134,22.6288341 L67.0893771,19.0413022 C67.1713154,19.0447164 67.2556867,19.0457972 67.3400581,19.046878 C67.420845,19.0478163 67.5025534,19.0468314 67.5842618,19.0458466 L67.8306915,19.0385227 L67.8306915,19.0385227 L67.8577357,19.6316437 L67.8314329,19.0380426 L67.9588759,19.0321735 L68.085451,19.024365 C68.1796694,19.0183117 68.2712824,19.0112925 68.3627803,19.0020738 C68.4697866,18.9913786 68.5790056,18.9790232 68.683071,18.9658358 C68.7928507,18.9511719 68.9004045,18.9352036 69.0056214,18.9172505 L69.1612991,18.8891475 L69.3105575,18.8585245 C69.4578657,18.8263854 69.5977813,18.7902926 69.7260045,18.7504719 Z M66.8223753,19.0265485 C66.9095821,19.0329943 66.9992794,19.0382064 67.0888617,19.041219 L67.2533981,22.6287509 C67.1612103,22.6247724 67.0741184,22.6205262 66.9869116,22.6140805 L66.8223753,19.0265485 Z M0.783653785,6.25472416 L66.1264543,18.9397127 C66.2053671,18.9553062 66.288968,18.9688032 66.3755207,18.9808381 L66.5073708,18.9981928 L66.662162,19.0140413 L66.8218887,19.0270152 L66.986425,22.6145471 L66.8271323,22.6014772 L66.6719153,22.5854171 C66.5382122,22.5692838 66.4094326,22.5495835 66.2907301,22.5271481 L0.948190146,9.84225609 L0.783653785,6.25472416 Z M86.2176814,13.6808033 L86.3822178,17.2683352 L69.8907842,22.3377705 L69.7262478,18.7502385 L86.2176814,13.6808033 Z M86.9058516,13.213677 L87.070388,16.801209 L87.0662132,16.8317664 L87.0662132,16.8317664 L87.0568538,16.864889 C87.0476966,16.8852203 87.0360488,16.9067852 87.0193051,16.9286178 C87.0024954,16.9503352 86.9809494,16.9721912 86.9543626,16.993245 L86.9545389,16.9946589 C86.9255535,17.0179072 86.8940959,17.0412853 86.8552958,17.0650492 L86.8552981,17.0659301 C86.8256037,17.0843996 86.7924863,17.1025589 86.756701,17.1203683 L86.7009077,17.1477081 C86.6110769,17.1888199 86.5033526,17.2297692 86.3827159,17.2680885 L86.2181795,13.6805565 C86.3413643,13.6421033 86.4465405,13.601288 86.5363713,13.5601762 C86.5939768,13.5331087 86.6462201,13.5061025 86.6907618,13.4783981 L86.745308,14.673872 L86.6915319,13.4784679 L86.7598788,13.4313867 L86.7890006,13.4075105 C86.8159363,13.3851423 86.837776,13.3630419 86.8545197,13.3412093 C86.8711033,13.3209289 86.8825666,13.2999855 86.8915531,13.2791433 C86.9003922,13.2558697 86.9043959,13.2347064 86.9058516,13.213677 Z M0.000167384189,5.84176449 C0.00612760938,6.00466328 0.269493067,6.15514007 0.783155683,6.25497088 L0.947692044,9.84250282 C0.434029429,9.742672 0.170663971,9.59219522 0.164703746,9.42929642 L0.000167384189,5.84176449 Z" id="Shape" fill="#E3DA49"></path>
                            <path d="M86.1282466,12.7910347 C87.1235191,12.984632 87.1574709,13.3698831 86.2626033,13.6661503 L69.7250141,18.7510753 C68.7367583,19.0544357 67.1468079,19.1379762 66.1272417,18.9401125 L0.781893182,6.25525778 C-0.184066161,6.06676603 -0.258105927,5.70076252 0.577011255,5.40388472 L0.724618527,5.35508742 L0.724618527,5.35508742 L17.1851257,0.295217161 C18.1582659,-0.00404067943 19.7633318,-0.0916837395 20.7854461,0.106046132 L86.1282466,12.7910347 Z" id="Fill-33" fill="#FEF566"></path>
                        </g>
                        <g id="stair-copy-2" opacity="0.5" transform="translate(27.804997, 33.268820)">
                            <path d="M69.7260045,18.7504719 L69.8905409,22.3380038 C69.7604571,22.377072 69.6215924,22.4128851 69.4749952,22.4449236 L69.3262164,22.4762792 C69.1718809,22.5053413 69.0122768,22.5313719 68.8473468,22.5532712 C68.7409939,22.566689 68.6343229,22.5789105 68.527537,22.5889325 L68.3891277,22.6015406 L68.250769,22.6121867 L67.9952279,22.6260546 C67.9115309,22.6293553 67.8302982,22.6314354 67.7490219,22.6324266 L67.7487981,22.6333785 L67.5045945,22.6344099 L67.2539134,22.6288341 L67.0893771,19.0413022 C67.1713154,19.0447164 67.2556867,19.0457972 67.3400581,19.046878 C67.420845,19.0478163 67.5025534,19.0468314 67.5842618,19.0458466 L67.8306915,19.0385227 L67.8306915,19.0385227 L67.8577357,19.6316437 L67.8314329,19.0380426 L67.9588759,19.0321735 L68.085451,19.024365 C68.1796694,19.0183117 68.2712824,19.0112925 68.3627803,19.0020738 C68.4697866,18.9913786 68.5790056,18.9790232 68.683071,18.9658358 C68.7928507,18.9511719 68.9004045,18.9352036 69.0056214,18.9172505 L69.1612991,18.8891475 L69.3105575,18.8585245 C69.4578657,18.8263854 69.5977813,18.7902926 69.7260045,18.7504719 Z M66.8223753,19.0265485 C66.9095821,19.0329943 66.9992794,19.0382064 67.0888617,19.041219 L67.2533981,22.6287509 C67.1612103,22.6247724 67.0741184,22.6205262 66.9869116,22.6140805 L66.8223753,19.0265485 Z M0.783653785,6.25472416 L66.1264543,18.9397127 C66.2053671,18.9553062 66.288968,18.9688032 66.3755207,18.9808381 L66.5073708,18.9981928 L66.662162,19.0140413 L66.8218887,19.0270152 L66.986425,22.6145471 L66.8271323,22.6014772 L66.6719153,22.5854171 C66.5382122,22.5692838 66.4094326,22.5495835 66.2907301,22.5271481 L0.948190146,9.84225609 L0.783653785,6.25472416 Z M86.2176814,13.6808033 L86.3822178,17.2683352 L69.8907842,22.3377705 L69.7262478,18.7502385 L86.2176814,13.6808033 Z M86.9058516,13.213677 L87.070388,16.801209 L87.0662132,16.8317664 L87.0662132,16.8317664 L87.0568538,16.864889 C87.0476966,16.8852203 87.0360488,16.9067852 87.0193051,16.9286178 C87.0024954,16.9503352 86.9809494,16.9721912 86.9543626,16.993245 L86.9545389,16.9946589 C86.9255535,17.0179072 86.8940959,17.0412853 86.8552958,17.0650492 L86.8552981,17.0659301 C86.8256037,17.0843996 86.7924863,17.1025589 86.756701,17.1203683 L86.7009077,17.1477081 C86.6110769,17.1888199 86.5033526,17.2297692 86.3827159,17.2680885 L86.2181795,13.6805565 C86.3413643,13.6421033 86.4465405,13.601288 86.5363713,13.5601762 C86.5939768,13.5331087 86.6462201,13.5061025 86.6907618,13.4783981 L86.745308,14.673872 L86.6915319,13.4784679 L86.7598788,13.4313867 L86.7890006,13.4075105 C86.8159363,13.3851423 86.837776,13.3630419 86.8545197,13.3412093 C86.8711033,13.3209289 86.8825666,13.2999855 86.8915531,13.2791433 C86.9003922,13.2558697 86.9043959,13.2347064 86.9058516,13.213677 Z M0.000167384189,5.84176449 C0.00612760938,6.00466328 0.269493067,6.15514007 0.783155683,6.25497088 L0.947692044,9.84250282 C0.434029429,9.742672 0.170663971,9.59219522 0.164703746,9.42929642 L0.000167384189,5.84176449 Z" id="Shape" fill="#E3DA49"></path>
                            <path d="M86.1282466,12.7910347 C87.1235191,12.984632 87.1574709,13.3698831 86.2626033,13.6661503 L69.7250141,18.7510753 C68.7367583,19.0544357 67.1468079,19.1379762 66.1272417,18.9401125 L0.781893182,6.25525778 C-0.184066161,6.06676603 -0.258105927,5.70076252 0.577011255,5.40388472 L0.724618527,5.35508742 L0.724618527,5.35508742 L17.1851257,0.295217161 C18.1582659,-0.00404067943 19.7633318,-0.0916837395 20.7854461,0.106046132 L86.1282466,12.7910347 Z" id="Fill-33" fill="#FEF566"></path>
                        </g>
                        <g id="stair-copy-3" opacity="0.699999988" transform="translate(13.804997, 49.903230)">
                            <path d="M69.7260045,18.7504719 L69.8905409,22.3380038 C69.7604571,22.377072 69.6215924,22.4128851 69.4749952,22.4449236 L69.3262164,22.4762792 C69.1718809,22.5053413 69.0122768,22.5313719 68.8473468,22.5532712 C68.7409939,22.566689 68.6343229,22.5789105 68.527537,22.5889325 L68.3891277,22.6015406 L68.250769,22.6121867 L67.9952279,22.6260546 C67.9115309,22.6293553 67.8302982,22.6314354 67.7490219,22.6324266 L67.7487981,22.6333785 L67.5045945,22.6344099 L67.2539134,22.6288341 L67.0893771,19.0413022 C67.1713154,19.0447164 67.2556867,19.0457972 67.3400581,19.046878 C67.420845,19.0478163 67.5025534,19.0468314 67.5842618,19.0458466 L67.8306915,19.0385227 L67.8306915,19.0385227 L67.8577357,19.6316437 L67.8314329,19.0380426 L67.9588759,19.0321735 L68.085451,19.024365 C68.1796694,19.0183117 68.2712824,19.0112925 68.3627803,19.0020738 C68.4697866,18.9913786 68.5790056,18.9790232 68.683071,18.9658358 C68.7928507,18.9511719 68.9004045,18.9352036 69.0056214,18.9172505 L69.1612991,18.8891475 L69.3105575,18.8585245 C69.4578657,18.8263854 69.5977813,18.7902926 69.7260045,18.7504719 Z M66.8223753,19.0265485 C66.9095821,19.0329943 66.9992794,19.0382064 67.0888617,19.041219 L67.2533981,22.6287509 C67.1612103,22.6247724 67.0741184,22.6205262 66.9869116,22.6140805 L66.8223753,19.0265485 Z M0.783653785,6.25472416 L66.1264543,18.9397127 C66.2053671,18.9553062 66.288968,18.9688032 66.3755207,18.9808381 L66.5073708,18.9981928 L66.662162,19.0140413 L66.8218887,19.0270152 L66.986425,22.6145471 L66.8271323,22.6014772 L66.6719153,22.5854171 C66.5382122,22.5692838 66.4094326,22.5495835 66.2907301,22.5271481 L0.948190146,9.84225609 L0.783653785,6.25472416 Z M86.2176814,13.6808033 L86.3822178,17.2683352 L69.8907842,22.3377705 L69.7262478,18.7502385 L86.2176814,13.6808033 Z M86.9058516,13.213677 L87.070388,16.801209 L87.0662132,16.8317664 L87.0662132,16.8317664 L87.0568538,16.864889 C87.0476966,16.8852203 87.0360488,16.9067852 87.0193051,16.9286178 C87.0024954,16.9503352 86.9809494,16.9721912 86.9543626,16.993245 L86.9545389,16.9946589 C86.9255535,17.0179072 86.8940959,17.0412853 86.8552958,17.0650492 L86.8552981,17.0659301 C86.8256037,17.0843996 86.7924863,17.1025589 86.756701,17.1203683 L86.7009077,17.1477081 C86.6110769,17.1888199 86.5033526,17.2297692 86.3827159,17.2680885 L86.2181795,13.6805565 C86.3413643,13.6421033 86.4465405,13.601288 86.5363713,13.5601762 C86.5939768,13.5331087 86.6462201,13.5061025 86.6907618,13.4783981 L86.745308,14.673872 L86.6915319,13.4784679 L86.7598788,13.4313867 L86.7890006,13.4075105 C86.8159363,13.3851423 86.837776,13.3630419 86.8545197,13.3412093 C86.8711033,13.3209289 86.8825666,13.2999855 86.8915531,13.2791433 C86.9003922,13.2558697 86.9043959,13.2347064 86.9058516,13.213677 Z M0.000167384189,5.84176449 C0.00612760938,6.00466328 0.269493067,6.15514007 0.783155683,6.25497088 L0.947692044,9.84250282 C0.434029429,9.742672 0.170663971,9.59219522 0.164703746,9.42929642 L0.000167384189,5.84176449 Z" id="Shape" fill="#E3DA49"></path>
                            <path d="M86.1282466,12.7910347 C87.1235191,12.984632 87.1574709,13.3698831 86.2626033,13.6661503 L69.7250141,18.7510753 C68.7367583,19.0544357 67.1468079,19.1379762 66.1272417,18.9401125 L0.781893182,6.25525778 C-0.184066161,6.06676603 -0.258105927,5.70076252 0.577011255,5.40388472 L0.724618527,5.35508742 L0.724618527,5.35508742 L17.1851257,0.295217161 C18.1582659,-0.00404067943 19.7633318,-0.0916837395 20.7854461,0.106046132 L86.1282466,12.7910347 Z" id="Fill-33" fill="#FEF566"></path>
                        </g>
                        <g id="stair-copy-4" transform="translate(0.000000, 66.537640)">
                            <path d="M69.7260045,18.7504719 L69.8905409,22.3380038 C69.7604571,22.377072 69.6215924,22.4128851 69.4749952,22.4449236 L69.3262164,22.4762792 C69.1718809,22.5053413 69.0122768,22.5313719 68.8473468,22.5532712 C68.7409939,22.566689 68.6343229,22.5789105 68.527537,22.5889325 L68.3891277,22.6015406 L68.250769,22.6121867 L67.9952279,22.6260546 C67.9115309,22.6293553 67.8302982,22.6314354 67.7490219,22.6324266 L67.7487981,22.6333785 L67.5045945,22.6344099 L67.2539134,22.6288341 L67.0893771,19.0413022 C67.1713154,19.0447164 67.2556867,19.0457972 67.3400581,19.046878 C67.420845,19.0478163 67.5025534,19.0468314 67.5842618,19.0458466 L67.8306915,19.0385227 L67.8306915,19.0385227 L67.8577357,19.6316437 L67.8314329,19.0380426 L67.9588759,19.0321735 L68.085451,19.024365 C68.1796694,19.0183117 68.2712824,19.0112925 68.3627803,19.0020738 C68.4697866,18.9913786 68.5790056,18.9790232 68.683071,18.9658358 C68.7928507,18.9511719 68.9004045,18.9352036 69.0056214,18.9172505 L69.1612991,18.8891475 L69.3105575,18.8585245 C69.4578657,18.8263854 69.5977813,18.7902926 69.7260045,18.7504719 Z M66.8223753,19.0265485 C66.9095821,19.0329943 66.9992794,19.0382064 67.0888617,19.041219 L67.2533981,22.6287509 C67.1612103,22.6247724 67.0741184,22.6205262 66.9869116,22.6140805 L66.8223753,19.0265485 Z M0.783653785,6.25472416 L66.1264543,18.9397127 C66.2053671,18.9553062 66.288968,18.9688032 66.3755207,18.9808381 L66.5073708,18.9981928 L66.662162,19.0140413 L66.8218887,19.0270152 L66.986425,22.6145471 L66.8271323,22.6014772 L66.6719153,22.5854171 C66.5382122,22.5692838 66.4094326,22.5495835 66.2907301,22.5271481 L0.948190146,9.84225609 L0.783653785,6.25472416 Z M86.2176814,13.6808033 L86.3822178,17.2683352 L69.8907842,22.3377705 L69.7262478,18.7502385 L86.2176814,13.6808033 Z M86.9058516,13.213677 L87.070388,16.801209 L87.0662132,16.8317664 L87.0662132,16.8317664 L87.0568538,16.864889 C87.0476966,16.8852203 87.0360488,16.9067852 87.0193051,16.9286178 C87.0024954,16.9503352 86.9809494,16.9721912 86.9543626,16.993245 L86.9545389,16.9946589 C86.9255535,17.0179072 86.8940959,17.0412853 86.8552958,17.0650492 L86.8552981,17.0659301 C86.8256037,17.0843996 86.7924863,17.1025589 86.756701,17.1203683 L86.7009077,17.1477081 C86.6110769,17.1888199 86.5033526,17.2297692 86.3827159,17.2680885 L86.2181795,13.6805565 C86.3413643,13.6421033 86.4465405,13.601288 86.5363713,13.5601762 C86.5939768,13.5331087 86.6462201,13.5061025 86.6907618,13.4783981 L86.745308,14.673872 L86.6915319,13.4784679 L86.7598788,13.4313867 L86.7890006,13.4075105 C86.8159363,13.3851423 86.837776,13.3630419 86.8545197,13.3412093 C86.8711033,13.3209289 86.8825666,13.2999855 86.8915531,13.2791433 C86.9003922,13.2558697 86.9043959,13.2347064 86.9058516,13.213677 Z M0.000167384189,5.84176449 C0.00612760938,6.00466328 0.269493067,6.15514007 0.783155683,6.25497088 L0.947692044,9.84250282 C0.434029429,9.742672 0.170663971,9.59219522 0.164703746,9.42929642 L0.000167384189,5.84176449 Z" id="Shape" fill="#E3DA49"></path>
                            <path d="M86.1282466,12.7910347 C87.1235191,12.984632 87.1574709,13.3698831 86.2626033,13.6661503 L69.7250141,18.7510753 C68.7367583,19.0544357 67.1468079,19.1379762 66.1272417,18.9401125 L0.781893182,6.25525778 C-0.184066161,6.06676603 -0.258105927,5.70076252 0.577011255,5.40388472 L0.724618527,5.35508742 L0.724618527,5.35508742 L17.1851257,0.295217161 C18.1582659,-0.00404067943 19.7633318,-0.0916837395 20.7854461,0.106046132 L86.1282466,12.7910347 Z" id="Fill-33" fill="#FEF566"></path>
                        </g>
                    </g>
                    <g id="wf" stroke="#6DC8C9" stroke-width="0.7">
                        <g id="stair" transform="translate(55.797542, 0.000000)">
                            <path d="M86.1357013,12.7910347 C87.1309738,12.984632 87.1649257,13.3698831 86.2700581,13.6661503 L69.7324689,18.7510753 C68.7442131,19.0544357 67.1542627,19.1379762 66.1346964,18.9401125 L0.789347962,6.25525778 C-0.176611382,6.06676603 -0.250651147,5.70076252 0.584466035,5.40388472 L0.732073307,5.35508742 L0.732073307,5.35508742 L17.1925804,0.295217161 C18.1657207,-0.00404067943 19.7707866,-0.0916837395 20.7929009,0.106046132 L86.1357013,12.7910347 Z" id="line"></path>
                            <path d="M86.9118783,13.175868 C86.93306,13.8306965 86.93306,16.0756721 86.9118783,16.2488584 C86.8940465,16.3946545 86.679072,16.5486578 86.2700581,16.6840716 L69.7324689,21.7689966 C68.7442131,22.072357 67.1542627,22.1558975 66.1346964,21.9580338 L0.789347962,9.2731791 C0.291076931,9.17594936 0.0301285988,9.03148714 0.00886883818,8.87364406 C-0.0110860477,8.72548903 0.00886883818,6.49202537 0.00886883818,5.80768111" id="line" stroke-linejoin="round"></path>
                        </g>
                        <g id="stair-copy" opacity="0.699999988" transform="translate(41.797542, 16.634410)">
                            <path d="M86.1357013,12.7910347 C87.1309738,12.984632 87.1649257,13.3698831 86.2700581,13.6661503 L69.7324689,18.7510753 C68.7442131,19.0544357 67.1542627,19.1379762 66.1346964,18.9401125 L0.789347962,6.25525778 C-0.176611382,6.06676603 -0.250651147,5.70076252 0.584466035,5.40388472 L0.732073307,5.35508742 L0.732073307,5.35508742 L17.1925804,0.295217161 C18.1657207,-0.00404067943 19.7707866,-0.0916837395 20.7929009,0.106046132 L86.1357013,12.7910347 Z" id="line"></path>
                            <path d="M86.9118783,13.175868 C86.93306,13.8306965 86.93306,16.0756721 86.9118783,16.2488584 C86.8940465,16.3946545 86.679072,16.5486578 86.2700581,16.6840716 L69.7324689,21.7689966 C68.7442131,22.072357 67.1542627,22.1558975 66.1346964,21.9580338 L0.789347962,9.2731791 C0.291076931,9.17594936 0.0301285988,9.03148714 0.00886883818,8.87364406 C-0.0110860477,8.72548903 0.00886883818,6.49202537 0.00886883818,5.80768111" id="line" stroke-linejoin="round"></path>
                        </g>
                        <g id="stair-copy-2" opacity="0.5" transform="translate(27.797542, 33.268820)">
                            <path d="M86.1357013,12.7910347 C87.1309738,12.984632 87.1649257,13.3698831 86.2700581,13.6661503 L69.7324689,18.7510753 C68.7442131,19.0544357 67.1542627,19.1379762 66.1346964,18.9401125 L0.789347962,6.25525778 C-0.176611382,6.06676603 -0.250651147,5.70076252 0.584466035,5.40388472 L0.732073307,5.35508742 L0.732073307,5.35508742 L17.1925804,0.295217161 C18.1657207,-0.00404067943 19.7707866,-0.0916837395 20.7929009,0.106046132 L86.1357013,12.7910347 Z" id="line"></path>
                            <path d="M86.9118783,13.175868 C86.93306,13.8306965 86.93306,16.0756721 86.9118783,16.2488584 C86.8940465,16.3946545 86.679072,16.5486578 86.2700581,16.6840716 L69.7324689,21.7689966 C68.7442131,22.072357 67.1542627,22.1558975 66.1346964,21.9580338 L0.789347962,9.2731791 C0.291076931,9.17594936 0.0301285988,9.03148714 0.00886883818,8.87364406 C-0.0110860477,8.72548903 0.00886883818,6.49202537 0.00886883818,5.80768111" id="line" stroke-linejoin="round"></path>
                        </g>
                        <g id="stair-copy-3" opacity="0.300000012" transform="translate(13.797542, 49.903230)">
                            <path d="M86.1357013,12.7910347 C87.1309738,12.984632 87.1649257,13.3698831 86.2700581,13.6661503 L69.7324689,18.7510753 C68.7442131,19.0544357 67.1542627,19.1379762 66.1346964,18.9401125 L0.789347962,6.25525778 C-0.176611382,6.06676603 -0.250651147,5.70076252 0.584466035,5.40388472 L0.732073307,5.35508742 L0.732073307,5.35508742 L17.1925804,0.295217161 C18.1657207,-0.00404067943 19.7707866,-0.0916837395 20.7929009,0.106046132 L86.1357013,12.7910347 Z" id="line"></path>
                            <path d="M86.9118783,13.175868 C86.93306,13.8306965 86.93306,16.0756721 86.9118783,16.2488584 C86.8940465,16.3946545 86.679072,16.5486578 86.2700581,16.6840716 L69.7324689,21.7689966 C68.7442131,22.072357 67.1542627,22.1558975 66.1346964,21.9580338 L0.789347962,9.2731791 C0.291076931,9.17594936 0.0301285988,9.03148714 0.00886883818,8.87364406 C-0.0110860477,8.72548903 0.00886883818,6.49202537 0.00886883818,5.80768111" id="line" stroke-linejoin="round"></path>
                        </g>
                        <g id="stair-copy-4" opacity="0.100000001" transform="translate(-0.007455, 66.537640)">
                            <path d="M86.1357013,12.7910347 C87.1309738,12.984632 87.1649257,13.3698831 86.2700581,13.6661503 L69.7324689,18.7510753 C68.7442131,19.0544357 67.1542627,19.1379762 66.1346964,18.9401125 L0.789347962,6.25525778 C-0.176611382,6.06676603 -0.250651147,5.70076252 0.584466035,5.40388472 L0.732073307,5.35508742 L0.732073307,5.35508742 L17.1925804,0.295217161 C18.1657207,-0.00404067943 19.7707866,-0.0916837395 20.7929009,0.106046132 L86.1357013,12.7910347 Z" id="line"></path>
                            <path d="M86.9118783,13.175868 C86.93306,13.8306965 86.93306,16.0756721 86.9118783,16.2488584 C86.8940465,16.3946545 86.679072,16.5486578 86.2700581,16.6840716 L69.7324689,21.7689966 C68.7442131,22.072357 67.1542627,22.1558975 66.1346964,21.9580338 L0.789347962,9.2731791 C0.291076931,9.17594936 0.0301285988,9.03148714 0.00886883818,8.87364406 C-0.0110860477,8.72548903 0.00886883818,6.49202537 0.00886883818,5.80768111" id="line" stroke-linejoin="round"></path>
                        </g>
                    </g>
                </g>
            </g>
        </g>
    </g>
</svg>