<?xml version="1.0" encoding="UTF-8"?>
<svg width="140px" height="140px" viewBox="0 0 140 140" version="1.1" xmlns="http://www.w3.org/2000/svg" xmlns:xlink="http://www.w3.org/1999/xlink">
    <title>Logo</title>
    <defs>
        <filter x="-37.5%" y="-37.5%" width="175.0%" height="175.0%" filterUnits="objectBoundingBox" id="filter-1">
            <feGaussianBlur stdDeviation="10" in="SourceGraphic"></feGaussianBlur>
        </filter>
    </defs>
    <g id="Symbols" stroke="none" stroke-width="1" fill="none" fill-rule="evenodd">
        <g id="Left-Nav" transform="translate(30.000000, 13.000000)">
            <g id="Logo" transform="translate(0.000000, 17.000000)">
                <circle id="Oval" fill="#FFFFFF" filter="url(#filter-1)" cx="40" cy="40" r="40"></circle>
                <g id="Logo_mycanary" transform="translate(16.000000, 16.000000)">
                    <path d="M45.8390109,24.055602 C45.8390109,36.0916338 36.0818134,45.8488313 24.0457816,45.8488313 C12.0097498,45.8488313 2.25255225,36.0916338 2.25255225,24.055602 C2.25255225,12.0195702 12.0097498,2.26237268 24.0457816,2.26237268 C36.0818134,2.26237268 45.8390109,12.0195702 45.8390109,24.055602" id="Fill-403" fill="#FFFFFF"></path>
                    <path d="M34.3503797,12.314501 C33.6569444,11.9859759 32.846229,12.1445864 32.3269473,12.6712864 C32.4739005,12.769844 32.6159082,12.8740536 32.7519105,12.9846217 L32.8320989,13.0397292 C33.3421961,13.4427907 33.8169679,13.8755255 34.2560612,14.3329879 C34.3101089,14.2623374 34.3609773,14.187801 34.4051339,14.1069061 C34.7230615,13.5233324 34.6789049,12.8404946 34.3503797,12.314501" id="Fill-405" fill="#FFFE71"></path>
                    <path d="M29.4157551,17.7820783 C29.3083662,17.7478128 29.2009773,17.7170798 29.0935885,17.688113 C29.0589697,17.6789285 29.0239976,17.6708037 28.9893789,17.6623256 C28.9159023,17.6436032 28.8424257,17.6259405 28.7689491,17.6100442 C28.728325,17.6012128 28.6880542,17.593088 28.6477833,17.5849632 C28.578899,17.5711863 28.5096615,17.5584692 28.4404239,17.5468119 C28.3997998,17.5397468 28.3588225,17.533035 28.3181984,17.5270297 C28.2461348,17.5160789 28.1740712,17.5068943 28.1020077,17.4984162 C28.0656226,17.493824 28.0292376,17.4888784 27.9928525,17.4849926 C27.8932352,17.4747483 27.7939712,17.4666235 27.6947071,17.4606182 C27.6766912,17.4595584 27.6590286,17.4588519 27.6410127,17.4577922 C27.5452811,17.4528466 27.4499029,17.4496674 27.3548778,17.4485355 C27.3142538,17.4482543 27.2739829,17.4493141 27.2333588,17.4493141 C27.1676538,17.4496674 27.1019488,17.4507271 27.036597,17.4528466 C26.9903209,17.4546129 26.9447513,17.4567324 26.8988284,17.4592052 C26.8387754,17.4623845 26.7790757,17.4666235 26.7193759,17.4712158 C26.6716868,17.4751016 26.6243509,17.4789873 26.5773683,17.4839329 C26.518375,17.4895849 26.4600883,17.4970032 26.4014483,17.5044215 C26.354819,17.5100736 26.3078363,17.5157256 26.2612069,17.5224374 C26.1965617,17.5319753 26.1326229,17.5432794 26.0683309,17.5545835 C25.9892022,17.5683603 25.9107801,17.5835502 25.832358,17.6001531 C25.7776038,17.6118104 25.7228496,17.6227613 25.6684486,17.6354784 C25.6136944,17.6485487 25.5592935,17.6630321 25.5048926,17.6771622 C25.4600294,17.6891728 25.4151663,17.7004769 25.3706565,17.713194 C25.3137827,17.7290904 25.2572623,17.7463998 25.2010951,17.7637092 C25.160471,17.7764263 25.1198469,17.7891434 25.0795761,17.802567 C25.0209361,17.8219959 24.9626494,17.841778 24.9047159,17.86262 C24.8697439,17.8749838 24.8354784,17.8880542 24.8008596,17.9011245 C24.7383338,17.9247925 24.6758081,17.9484604 24.6136356,17.9735414 C24.6023315,17.9784869 24.5913806,17.9834324 24.5800765,17.9880247 C24.3444569,18.0858758 24.1144893,18.1967972 23.8908802,18.3197292 C23.8718045,18.3303268 23.8520224,18.3405711 23.8329467,18.3515219 C23.7665352,18.3886135 23.7008301,18.427118 23.6354784,18.4666824 C23.616756,18.4779865 23.5976803,18.4896438 23.5789579,18.5013011 C23.5298558,18.5316809 23.4811069,18.5631204 23.4327112,18.5945599 C23.4150486,18.6062173 23.3970327,18.6168148 23.37937,18.6284722 C23.3684192,18.6358905 23.3578216,18.6433088 23.347224,18.6503739 C23.0444863,18.8538475 22.7572917,19.0809891 22.488113,19.3300324 C22.4859935,19.3321519 22.483874,19.3339182 22.4817545,19.3360377 C22.4160495,19.3971504 22.3514042,19.4596762 22.2878187,19.5232617 C22.2825199,19.5289137 22.2768678,19.5345658 22.2712158,19.5402178 C21.9405711,19.8740418 21.6413659,20.2428378 21.380312,20.6437798 L21.3750132,20.641307 C21.3555843,20.6755726 21.3350957,20.7091316 21.314607,20.7426906 C21.313194,20.7448101 21.3121342,20.7469296 21.3107212,20.7490492 C20.2605004,22.4863468 18.1233206,23.3454578 16.1044804,22.701831 C15.0005652,22.3499912 14.1280306,21.6113394 13.5875537,20.6833441 C13.0223491,22.9522873 13.2357139,25.2544363 14.0722167,27.2884663 C15.2255873,30.0929408 17.5634148,32.3873182 20.6791051,33.380312 C25.9355078,35.0557904 31.5197292,32.4265293 33.6579688,27.4643862 C33.7077775,27.3569974 33.7551133,27.2481955 33.7999764,27.1372741 C33.8141066,27.1026553 33.8285899,27.0676832 33.8423668,27.032358 C33.8579099,26.9920871 33.873453,26.9511098 33.8882897,26.9101325 C33.9225552,26.8175802 33.9554077,26.7239682 33.9857875,26.6289432 C35.1667118,22.9240271 33.1206712,18.9630026 29.4157551,17.7820783" id="Fill-407" fill="#FFFE71"></path>
                    <path d="M29.7177156,36.828272 L29.7177156,39.103927 C29.7177156,39.4564734 30.00597,39.7447277 30.3585163,39.7447277 C30.7110627,39.7447277 30.999317,39.4564734 30.999317,39.103927 L30.999317,36.1835855 C30.5821254,36.4206182 30.1546894,36.6357492 29.7177156,36.828272" id="Fill-409" fill="#000000"></path>
                    <path d="M30.3878363,14.0502443 C30.348272,13.5302561 29.8943421,13.1406182 29.3743538,13.1801825 C28.8540124,13.2197468 28.4647277,13.6736768 28.504292,14.193665 C28.5438563,14.7140065 28.9977863,15.1032911 29.5177745,15.0637268 C30.0377627,15.0241625 30.4274006,14.5702326 30.3878363,14.0502443" id="Fill-411" fill="#000000"></path>
                    <path d="M27.8993465,34.8957315 C27.5468001,34.8957315 27.2585458,35.1839859 27.2585458,35.5365322 L27.2585458,37.6511039 L27.2585458,39.6929055 C27.2585458,40.0450986 27.5468001,40.333353 27.8993465,40.333353 C28.2518928,40.333353 28.5401472,40.0450986 28.5401472,39.6929055 L28.5401472,37.2851339 L28.5401472,35.5365322 C28.5401472,35.1839859 28.2518928,34.8957315 27.8993465,34.8957315" id="Fill-413" fill="#000000"></path>
                    <path d="M29.5177745,15.0637975 C28.9977863,15.1033618 28.5438563,14.7137239 28.504292,14.1937356 C28.4647277,13.6737474 28.8540124,13.2198175 29.3743538,13.1802532 C29.8943421,13.1406888 30.348272,13.5299735 30.3878363,14.050315 C30.4274006,14.5703032 30.0377627,15.0242331 29.5177745,15.0637975 M34.2559553,14.3332705 C33.8168619,13.8754548 33.3420901,13.44272 32.8319929,13.0400118 L32.7518045,12.9845511 C32.6158022,12.8743362 32.4737945,12.7697733 32.3268413,12.6712158 C31.9015249,12.3861407 31.4316986,12.1529938 30.9219547,11.9848455 C27.8885723,10.9826671 24.6170974,12.6295319 23.6152723,15.6629143 C23.2913394,16.6438976 23.2450633,17.6492552 23.4326406,18.5945599 C23.4810362,18.5631204 23.5297851,18.5316809 23.5788873,18.5013011 C23.5979629,18.4896438 23.6166853,18.4779865 23.635761,18.4666824 C23.7007595,18.427118 23.7664645,18.3886135 23.8328761,18.3515219 C23.852305,18.3405711 23.8717339,18.3303268 23.8908095,18.3197292 C24.1144186,18.1967972 24.3443862,18.086229 24.5800059,17.9880247 C24.59131,17.9834324 24.6022608,17.9784869 24.6139182,17.9735414 C24.6757374,17.9484604 24.7382632,17.9247925 24.8007889,17.9011245 C24.8354077,17.8880542 24.8696732,17.8749838 24.9046453,17.86262 C24.9625787,17.841778 25.0208655,17.8219959 25.0795054,17.802567 C25.1201295,17.7891434 25.1604004,17.7764263 25.2010244,17.7637092 C25.2575449,17.7463998 25.3137121,17.7294436 25.3705858,17.713194 C25.4150957,17.7008301 25.4599588,17.6891728 25.5048219,17.6771622 C25.5592228,17.6630321 25.6136238,17.6485487 25.668378,17.6354784 C25.7227789,17.6227613 25.7775331,17.6118104 25.8322873,17.6001531 C25.9107094,17.5835502 25.9891316,17.5683603 26.0682602,17.5545835 C26.1325523,17.5432794 26.1968443,17.5319753 26.2611363,17.5224374 C26.3077657,17.5157256 26.3547483,17.5100736 26.4013777,17.5044215 C26.4600177,17.4970032 26.5183044,17.4895849 26.5772976,17.4839329 C26.6242802,17.4789873 26.6716161,17.4751016 26.7193053,17.4712158 C26.779005,17.4666235 26.8387047,17.4627377 26.8987577,17.4592052 C26.9446806,17.4567324 26.9906035,17.4546129 27.0365263,17.4528466 C27.1018781,17.4507271 27.1675832,17.4500206 27.2336414,17.4493141 C27.2739123,17.4493141 27.3141831,17.4482543 27.3548072,17.4486076 C27.4501855,17.4500206 27.5455637,17.4528466 27.640942,17.4577922 C27.6589579,17.4588519 27.6769738,17.4595584 27.6946364,17.4606182 C27.7939005,17.4666235 27.8931646,17.4751016 27.9927819,17.4853459 C28.0291669,17.4888784 28.065552,17.493824 28.101937,17.4984162 C28.1740006,17.5068943 28.2460642,17.5160789 28.3181278,17.5270297 C28.3587518,17.533035 28.3997292,17.5401001 28.4407065,17.5468119 C28.5095908,17.5584692 28.5788284,17.5711863 28.6477127,17.5849632 C28.6883368,17.593088 28.7286076,17.6012128 28.7688784,17.6100442 C28.842355,17.6259405 28.9158316,17.6436032 28.9893082,17.6623256 C29.0242802,17.6708037 29.058899,17.6789285 29.0935178,17.688113 C29.2009067,17.7170798 29.3086488,17.7478128 29.4156844,17.7820783 C33.1206005,18.9630026 35.1669944,22.9240271 33.9857168,26.6289432 C33.9556903,26.7239682 33.9224845,26.8175802 33.888219,26.9101325 C33.8733824,26.9511098 33.8581925,26.9920871 33.8422961,27.0327112 C33.8285193,27.0676832 33.8140359,27.1026553 33.7999058,27.1372741 C33.7550427,27.2481955 33.7080601,27.3569974 33.6578981,27.4643862 C31.5196585,32.4265293 25.9354372,35.0557904 20.6790344,33.380312 C17.5633441,32.3873182 15.2255166,30.0929408 14.072146,27.2884663 C12.6464174,27.09665 11.3104151,26.6222314 10.1213659,25.9242037 C10.680212,29.8922932 12.9219547,33.5950898 16.5851869,35.8866412 C19.8958728,37.9577627 23.7357315,38.480577 27.2587224,37.6511392 L27.2587224,35.5365676 C27.2587224,35.1840212 27.5469767,34.8957669 27.8991699,34.8957669 C28.2517162,34.8957669 28.5399706,35.1840212 28.5399706,35.5365676 L28.5399706,37.2851693 C28.9387931,37.1505799 29.3316102,36.9983279 29.7177156,36.8284133 C30.1543362,36.6358905 30.5821254,36.4207595 30.999317,36.1833736 C32.9570445,35.0699205 34.6745599,33.4689785 35.952982,31.4254107 C39.4378216,25.8546129 38.5963733,18.8556138 34.2559553,14.3332705" id="Fill-415" fill="#FFE600"></path>
                    <path d="M24,43.6857227 C13.1452458,43.6857227 4.3142773,34.8547542 4.3142773,24 C4.3142773,13.1452458 13.1452458,4.3142773 24,4.3142773 C34.8547542,4.3142773 43.6857227,13.1452458 43.6857227,24 C43.6857227,34.8547542 34.8547542,43.6857227 24,43.6857227 M24,3.55271368e-15 C10.766441,3.55271368e-15 0,10.766441 0,24 C0,37.233559 10.766441,48 24,48 C37.233559,48 48,37.233559 48,24 C48,10.766441 37.233559,3.55271368e-15 24,3.55271368e-15" id="Fill-417" fill="#FFE600"></path>
                </g>
            </g>
        </g>
    </g>
</svg>