<?xml version="1.0" encoding="UTF-8"?>
<svg width="700px" height="453px" viewBox="0 0 700 453" version="1.1" xmlns="http://www.w3.org/2000/svg" xmlns:xlink="http://www.w3.org/1999/xlink">
    <title>Group</title>
    <defs>
        <filter x="-45.0%" y="-450.0%" width="190.0%" height="1000.0%" filterUnits="objectBoundingBox" id="filter-1">
            <feGaussianBlur stdDeviation="3" in="SourceGraphic"></feGaussianBlur>
        </filter>
        <radialGradient cx="63.9405573%" cy="26.1938917%" fx="63.9405573%" fy="26.1938917%" r="49.053135%" id="radialGradient-2">
            <stop stop-color="#FFF9F9" offset="0%"></stop>
            <stop stop-color="#F3B1B1" offset="100%"></stop>
        </radialGradient>
    </defs>
    <g id="REX-desktop" stroke="none" stroke-width="1" fill="none" fill-rule="evenodd">
        <g id="02.Login" transform="translate(93.000000, -312.000000)">
            <g id="Group" transform="translate(-93.000000, 312.000000)">
                <g id="house" transform="translate(375.165633, 226.763080) scale(-1, 1) translate(-375.165633, -226.763080) translate(69.878472, 0.762229)" stroke="#00B3B0">
                    <g transform="translate(0.000000, 0.000000)">
                        <g id="base" transform="translate(0.000000, 60.597193)">
                            <polyline id="Path-9" stroke-linejoin="round" points="588.670387 161.78363 440.091339 351.070396 4.51423539e-14 239.286654 83.2421565 202.69074"></polyline>
                            <line x1="297.282858" y1="314.80051" x2="597.718588" y2="391.023394" id="Line-7" stroke-linecap="square"></line>
                            <line x1="515.63968" y1="201.990642" x2="609.919024" y2="218.759677" id="Line-7-Copy" stroke-linecap="square"></line>
                            <line x1="416.83934" y1="69.5561239" x2="592.654931" y2="-1.13530479e-13" id="Line-8" stroke-linecap="square"></line>
                        </g>
                        <polygon id="Stroke-1" points="123.264097 318.418427 53.1669135 300.33591 53.1669135 295.363217 123.264097 313.445734"></polygon>
                        <polygon id="Stroke-3" points="220.947915 319.322552 157.18209 304.856539 157.18209 299.883847 220.947915 314.34986"></polygon>
                        <polygon id="Stroke-4" points="156.72985 304.856539 122.811858 318.418427 122.811858 313.445734 156.72985 299.883847"></polygon>
                        <polyline id="Stroke-5" points="117.60739 159.140655 74.8743381 195.909645 456.564811 243.828315 500.884321 140.757968 385.345167 137.004942"></polyline>
                        <polygon id="Stroke-6" stroke-linejoin="round" points="433.500666 365.432971 433.430117 240.923992 254.207446 218.423012 257.127107 326.555559"></polygon>
                        <polyline id="Stroke-7" points="460.509428 234.654602 518.521857 196.361256 497.947656 147.587283"></polyline>
                        <polyline id="Stroke-8" points="513.997378 199.347945 525.933798 199.347945 500.88423 140.757878"></polyline>
                        <polyline id="Stroke-10" points="508.572489 203.142381 508.572489 276.828638 448.140576 348.319677"></polyline>
                        <polyline id="Stroke-11" points="351.47267 28.2914937 393.703736 25.4814705 422.78638 95.099161 352.097666 93.2909093 228.183934 93.2909093 186.189842 60.2903157 152.681579 95.099161 105.174682 95.099161 166.679308 27.2897222 223.661535 36.3309807 329.691893 29.529242"></polyline>
                        <line x1="223.661354" y1="36.3311616" x2="244.46439" y2="93.2910901" id="Stroke-12"></line>
                        <line x1="393.703556" y1="25.4816514" x2="352.097485" y2="93.2910901" id="Stroke-13"></line>
                        <polyline id="Stroke-14" points="166.679127 27.2899031 205.571759 59.8384336 186.189661 60.2904966"></polyline>
                        <polyline id="Stroke-15" points="156.72985 177.374794 118.741698 173.758291 112.763087 95.0993418"></polyline>
                        <polyline id="Stroke-16" points="346.155053 93.3186467 345.766127 195.457311 249.126983 186.715714 247.087381 93.3186467"></polyline>
                        <polyline id="Stroke-17" stroke-linejoin="round" points="152.68176 95.0993418 158.035376 199.443602 161.131591 196.858977 229.495611 204.031136 228.184115 93.2910901"></polyline>
                        <line x1="158.502902" y1="199.322841" x2="229.417935" y2="208.469587" id="Line-3" stroke-linecap="square"></line>
                        <line x1="416.31555" y1="138.497383" x2="416.31555" y2="95.0993418" id="Stroke-18"></line>
                        <polyline id="Stroke-19" stroke-linejoin="round" points="53.1669135 295.363217 102.85632 278.994923 232.706152 308.473042 220.947915 314.34986"></polyline>
                        <line x1="103.002212" y1="278.994742" x2="99.7478942" y2="199.073634" id="Stroke-21"></line>
                        <line x1="160.98597" y1="292.101493" x2="156.729488" y2="206.307183" id="Stroke-22"></line>
                        <line x1="232.707509" y1="308.473042" x2="229.99407" y2="215.34808" id="Stroke-23"></line>
                        <polyline id="Stroke-24" stroke-linejoin="round" points="248.986789 186.416053 229.45907 208.582506 229.495249 204.031136"></polyline>
                        <polyline id="Stroke-25" points="199.884571 59.3863707 166.679308 32.2237178 112.763268 92.0777532 155.439017 92.0777532"></polyline>
                        <line x1="113.513795" y1="91.8485751" x2="105.888523" y2="94.8974904" id="Line"></line>
                        <g id="Group-206" transform="translate(81.669604, 0.000000)">
                            <path d="M366.139028,356.042448 C367.313947,356.369742 368.224758,357.238607 368.224758,358.199693 C368.224758,359.697829 365.592722,360.91207 362.34564,360.91207 C359.098557,360.91207 356.466521,359.697829 356.466521,358.199693 C356.466521,357.285621 357.261559,356.642788 358.462708,356.178971" id="Stroke-26"></path>
                            <path d="M362.34564,360.912342 C359.098557,360.912342 356.466521,359.6981 356.466521,358.199964 L356.466521,364.528845 C356.466521,366.026981 359.098557,367.241222 362.34564,367.241222 C365.592722,367.241222 368.224758,366.026981 368.224758,364.528845 L368.224758,358.199964 C368.224758,359.6981 365.592722,360.912342 362.34564,360.912342 Z" id="Stroke-28"></path>
                            <path d="M358.421735,241.567729 L358.421735,357.29403 C358.421735,358.293993 360.178235,359.10409 362.345368,359.10409 C364.512502,359.10409 366.269002,358.293993 366.269002,357.29403 L366.302467,242.471855" id="Stroke-30"></path>
                            <path d="M433.327857,279.67573 C434.443985,280.096148 435.156715,280.736269 435.156715,281.453241 C435.156715,282.720826 432.928982,283.748817 430.182076,283.748817 C427.434267,283.748817 425.207438,282.720826 425.207438,281.453241 C425.207438,280.719091 425.954538,280.065408 427.117699,279.64499" id="Stroke-32"></path>
                            <path d="M430.181624,283.748636 C427.433815,283.748636 425.206985,282.720645 425.206985,281.453965 L425.206985,286.809102 C425.206985,288.076686 427.433815,289.103773 430.181624,289.103773 C432.929434,289.103773 435.156263,288.076686 435.156263,286.809102 L435.156263,281.453965 C435.156263,282.720645 432.929434,283.748636 430.181624,283.748636 Z" id="Stroke-34"></path>
                            <path d="M426.86146,203.142381 L426.86146,280.686543 C426.86146,281.532804 428.34752,282.219036 430.181805,282.219036 C432.015186,282.219036 433.50215,281.532804 433.50215,280.686543 L433.50215,198.727534" id="Stroke-36"></path>
                            <path d="M8.20155142,276.937223 C9.28783165,277.34408 9.98247213,277.965214 9.99160614,278.669528 C10.0077976,279.936208 7.79363103,280.992227 5.04582142,281.027488 C2.29891629,281.061845 0.0585198426,280.062786 0.0430446962,278.795202 C0.0331944084,278.060147 0.773963359,277.396519 1.93441093,276.961634" id="Stroke-38"></path>
                            <path d="M10.0593529,282.753826 L9.99151693,278.668986 C10.0077976,279.93657 7.79363103,280.992589 5.04582142,281.026946 C2.29891629,281.062207 0.0585198426,280.063148 0.0431436861,278.795563 L0.110979671,284.150701 C0.118215509,284.712163 0.562315087,285.221186 1.29313476,285.610864" id="Stroke-40"></path>
                            <path d="M0,196.187483 L1.7275564,277.740539 C1.73841016,278.585897 3.23351526,279.253141 5.0668958,279.230237 C6.90118082,279.206127 8.37819632,278.501813 8.367402,277.655551 L6.60632041,197.509315" id="Stroke-42"></path>
                            <line x1="264.096522" y1="195.457311" x2="304.112517" y2="136.859107" id="Stroke-44"></line>
                            <polygon id="Stroke-46" points="85.914003 170.141787 83.2005636 111.373607 137.154592 112.277733 138.373831 174.662417"></polygon>
                            <polygon id="Stroke-48" fill-opacity="0.2" fill="#00B3B0" points="96.7677605 113.181859 99.2545025 169.189381 124.806634 171.045913 122.997675 114.085985"></polygon>
                            <path d="M87.8941806,109.747808 C87.2574268,95.3966184 92.4943648,78.676619 107.621789,78.8248957 C126.882687,79.013858 131.399659,102.344826 131.138264,110.4693 L120.109037,110.4693 C119.890153,108.533567 120.156975,94.0530873 108.30829,93.2909093 C95.6699934,92.4781001 96.9805846,106.240704 96.872047,109.772219 L87.8941806,109.747808 Z" id="Stroke-50"></path>
                            <path d="M186.255956,244.336772 L336.473821,264.706403 L336.473821,357.021587 L186.255956,323.873289 L186.255956,244.336772 Z M189.687328,320.959041 L333.042448,352.04081 L189.687328,320.959041 Z M189.687328,316.927258 L333.042448,347.393077 L189.687328,316.927258 Z M189.687328,312.895476 L333.042448,342.745344 L189.687328,312.895476 Z M189.687328,308.863694 L333.042448,338.097612 L189.687328,308.863694 Z M189.687328,304.831911 L333.042448,333.449879 L189.687328,304.831911 Z M189.687328,300.800129 L333.042448,328.802146 L189.687328,300.800129 Z M189.687328,296.768347 L333.042448,324.154413 L189.687328,296.768347 Z M189.687328,292.736565 L333.042448,319.50668 L189.687328,292.736565 Z M189.687328,288.704782 L333.042448,314.858947 L189.687328,288.704782 Z M189.687328,284.673 L333.042448,310.211215 L189.687328,284.673 Z M189.687328,280.641218 L333.042448,305.563482 L189.687328,280.641218 Z M189.687328,276.609435 L333.042448,300.915749 L189.687328,276.609435 Z M189.687328,272.577653 L333.042448,296.268016 L189.687328,272.577653 Z M189.687328,268.545871 L333.042448,291.620283 L189.687328,268.545871 Z M189.687328,264.514089 L333.042448,286.97255 L189.687328,264.514089 Z M189.687328,260.482306 L333.042448,282.324817 L189.687328,260.482306 Z M189.687328,256.450524 L333.042448,277.677085 L189.687328,256.450524 Z M189.687328,252.418742 L333.042448,273.029352 L189.687328,252.418742 Z M189.687328,248.386959 L333.042448,268.381619 L189.687328,248.386959 Z" id="rolling" stroke-linecap="square"></path>
                            <polygon id="Stroke-90" points="185.647572 328.783018 331.028027 360.912342 343.851867 363.749894 302.084674 385.323739 172.744063 354.583461"></polygon>
                            <line x1="335.265059" y1="361.732853" x2="302.084674" y2="385.323739" id="Stroke-92"></line>
                            <polygon id="Stroke-94" points="169.569882 111.373607 260.916009 113.181859 260.916009 180.111583 170.934742 172.854165"></polygon>
                            <line x1="213.445654" y1="112.277733" x2="213.445654" y2="176.470668" id="Stroke-96"></line>
                            <line x1="227.917331" y1="112.277733" x2="228.82181" y2="177.374794" id="Stroke-98"></line>
                            <line x1="182.684025" y1="111.633182" x2="183.586696" y2="173.874109" id="Stroke-100"></line>
                            <path d="M185.377023,114.504866 C187.185982,114.504866 197.687264,114.819279 197.687264,114.819279 L198.069588,171.95031 L186.249846,171.105857 L185.377023,114.504866 Z" id="Stroke-102" fill-opacity="0.2" fill="#00B3B0"></path>
                            <line x1="191.486416" y1="114.71544" x2="192.005503" y2="171.227733" id="Stroke-104"></line>
                            <line x1="186.1054" y1="142.757171" x2="197.687264" y2="143.630557" id="Stroke-106"></line>
                            <line x1="197.978959" y1="112.065535" x2="198.744149" y2="174.978228" id="Stroke-108"></line>
                            <path d="M231.050087,115.143269 C232.947685,115.143269 243.964159,115.830676 243.964159,115.830676 L244.364934,175.40597 L231.96542,174.52083 L231.050087,115.143269 Z" id="Stroke-110" fill-opacity="0.2" fill="#00B3B0"></path>
                            <line x1="237.392661" y1="115.830676" x2="238.004089" y2="174.648583" id="Stroke-112"></line>
                            <line x1="231.814282" y1="144.781238" x2="243.964159" y2="145.698022" id="Stroke-114"></line>
                            <line x1="244.270144" y1="112.584232" x2="245.072418" y2="178.582706" id="Stroke-116"></line>
                            <line x1="125.336806" y1="173.2005" x2="123.131628" y2="111.847188" id="Stroke-118"></line>
                            <line x1="94.3950387" y1="111.519443" x2="96.908588" y2="171.264079" id="Stroke-120"></line>
                            <line x1="110.457062" y1="113.703901" x2="112.478665" y2="170.281476" id="Stroke-122"></line>
                            <line x1="99.7490164" y1="113.594683" x2="102.043682" y2="169.189381" id="Stroke-124"></line>
                            <line x1="101.169502" y1="142.211079" x2="123.787828" y2="142.866571" id="Stroke-126"></line>
                            <polygon id="Stroke-128" points="72.7077201 165.605567 40.1590143 163.46887 35.9376956 110.099513 70.0284435 111.082298"></polygon>
                            <polyline id="Stroke-130" points="79.4619868 196.858977 74.508151 94.6258511 106.997065 62.5872475"></polyline>
                            <line x1="45.0979419" y1="110.4693" x2="48.7221557" y2="163.801153" id="Stroke-132"></line>
                            <polygon id="Stroke-134" fill-opacity="0.2" fill="#00B3B0" points="72.4325508 162.847512 50.469882 161.179278 47.5296145 110.4693 70.0284435 111.082479"></polygon>
                            <line x1="60.6683439" y1="111.082479" x2="63.7281991" y2="162.053477" id="Stroke-136"></line>
                            <line x1="49.4503524" y1="137.004761" x2="70.8666249" y2="138.024615" id="Stroke-138"></line>
                            <path d="M102.969054,111.519443 C102.969054,111.519443 102.945629,108.449197 102.945629,105.318315 C102.945629,102.187432 105.390438,99.2841787 109.363817,99.3601253 C113.337197,99.436976 116.011744,103.714395 116.088625,105.929504 C116.164601,108.144612 116.393434,111.810842 116.393434,111.810842" id="Stroke-140"></path>
                            <path d="M104.806686,111.455611 C104.806686,111.455611 104.740659,109.43548 104.740659,106.349108 C104.740659,103.262737 106.863474,101.108795 110.314064,101.1757 C113.76375,101.241702 116.086454,104.955851 116.152481,106.878926 C116.218508,108.802906 116.417494,111.986333 116.417494,111.986333" id="Stroke-142" fill-opacity="0.2" fill="#00B3B0"></path>
                            <path d="M98.4742425,111.373788 C98.4742425,111.373788 98.3648005,107.991752 98.3648005,105.912868 C98.3648005,103.090706 99.3761606,93.6648235 106.997065,93.2910901" id="Stroke-144" stroke-linecap="round"></path>
                            <path d="M133.22716,112.222129 C132.805672,107.981779 133.368259,81.4700967 109.109206,78.7522944" id="Stroke-146"></path>
                            <line x1="145.968476" y1="310.960654" x2="175.199311" y2="317.468311" id="Stroke-148"></line>
                            <polygon id="Stroke-150" points="72.614713 265.451118 25.9725824 255.791791 23.2264984 205.597082 69.7013836 211.276801"></polygon>
                            <polygon id="Stroke-152" fill-opacity="0.2" fill="#00B3B0" points="64.8932595 261.664729 37.9406661 256.130575 34.8817155 209.67478 62.4167938 213.023663"></polygon>
                            <line x1="62.2829154" y1="210.381487" x2="65.1353183" y2="263.859023" id="Stroke-154"></line>
                            <line x1="32.5505997" y1="206.761868" x2="35.6568272" y2="258.014462" id="Stroke-156"></line>
                            <line x1="36.3384706" y1="233.849207" x2="63.8703348" y2="237.434283" id="Stroke-158"></line>
                            <line x1="47.5563717" y1="211.422094" x2="50.3240799" y2="258.315485" id="Stroke-160"></line>
                            <path d="M100.295322,289.480161 C102.771788,289.480161 144.147216,298.072069 144.147216,298.072069 L142.83572,222.780989 L97.0898458,217.10127 L100.295322,289.480161 Z" id="Stroke-162"></path>
                            <line x1="142.54484" y1="214.771609" x2="144.698221" y2="306.797108" id="Stroke-164"></line>
                            <polyline id="Stroke-166" points="82.3876831 292.792269 89.0772402 289.626177 96.7987842 291.372948 100.295503 289.479709"></polyline>
                            <polyline id="Stroke-168" points="92.9878542 290.521959 90.2432955 216.227975 97.0902076 217.101361"></polyline>
                            <polygon id="Stroke-170" fill-opacity="0.2" fill="#00B3B0" stroke-linejoin="round" points="111.731836 287.193474 111.246155 269.126515 122.14873 271.465301 122.804478 289.232278"></polygon>
                            <polygon id="Stroke-170-Copy" stroke-linejoin="round" points="111.13697 266.432289 110.930467 260.677617 136.717186 266.313098 136.717186 272.06452"></polygon>
                            <polygon id="Stroke-172" fill-opacity="0.2" fill="#00B3B0" stroke-linejoin="round" points="125.863519 290.178898 125.207771 272.339591 137.008519 274.523959 137.591004 292.727629"></polygon>
                            <polygon id="Stroke-174" fill-opacity="0.2" fill="#00B3B0" stroke-linejoin="round" points="110.784846 258.126133 109.546613 222.810977 121.056118 224.630983 122.439972 260.310501"></polygon>
                            <polygon id="Stroke-176" fill-opacity="0.2" fill="#00B3B0" stroke-linejoin="round" points="125.572186 261.184429 124.406311 225.140548 136.061438 226.742659 136.717186 263.80549"></polygon>
                            <line x1="106.705642" y1="218.557998" x2="109.036486" y2="290.79042" id="Stroke-178"></line>
                            <line x1="138.756969" y1="222.380823" x2="141.161076" y2="297.199045" id="Stroke-180"></line>
                            <polyline id="Stroke-182" points="139.194013 319.480051 146.223276 315.492955 175.142563 322.756603"></polyline>
                            <line x1="146.223276" y1="311.370481" x2="146.223276" y2="315.181625" id="Line-2" stroke-linecap="square"></line>
                            <polygon id="Stroke-184" points="245.962969 22.9276767 262.590925 22.6826586 272.442519 21.5280899 272.5194 16.3582982 262.445847 15.8835418 246.041658 17.3211923"></polygon>
                            <polygon id="Stroke-188" points="248.384623 48.6338732 263.61154 48.7523137 269.724919 40.9045013 269.657083 21.8835017 262.590382 22.682749 248.187446 22.8418751"></polygon>
                            <line x1="248.57981" y1="17.0979289" x2="248.57981" y2="13.1253758" id="Stroke-190"></line>
                            <line x1="270.085445" y1="16.6457706" x2="270.141522" y2="12.0671869" id="Stroke-192"></line>
                            <line x1="259.839834" y1="13.3390047" x2="259.877576" y2="15.7242855" id="Stroke-194"></line>
                            <line x1="253.603923" y1="13.2607234" x2="253.512571" y2="16.6457706" id="Stroke-196"></line>
                            <line x1="266.10302" y1="12.5169885" x2="266.10302" y2="15.8923625" id="Stroke-198"></line>
                            <line x1="262.426853" y1="15.7564724" x2="262.43635" y2="22.9276767" id="Stroke-200"></line>
                            <line x1="351.898084" y1="365.280897" x2="356.487415" y2="359.746742" id="Stroke-204"></line>
                            <polygon id="Stroke-186" points="242.664874 12.9615482 261.374038 12.9452739 277.206052 11.4245342 267.875439 0 248.404702 2.16899791"></polygon>
                            <line x1="261.651623" y1="12.7819888" x2="267.874444" y2="0.0347184326" id="Stroke-202"></line>
                        </g>
                        <g id="Group" transform="translate(384.474915, 57.929392)">
                            <ellipse id="Oval" fill-opacity="0.2" fill="#00B3B0" cx="6.98005698" cy="12.1956614" rx="6.10021786" ry="9.9089749"></ellipse>
                            <ellipse id="Oval-Copy" cx="7.62527233" cy="12.1956614" rx="7.62527233" ry="12.1956614"></ellipse>
                        </g>
                        <g id="Group-2" transform="translate(494.396148, 189.642535) rotate(5.000000) translate(-494.396148, -189.642535) translate(488.295930, 179.886006)">
                            <ellipse id="Oval" fill-opacity="0.2" fill="#00B3B0" cx="5.58404558" cy="9.75652914" rx="4.88017429" ry="7.92717992"></ellipse>
                            <ellipse id="Oval-Copy" cx="6.10021786" cy="9.75652914" rx="6.10021786" ry="9.75652914"></ellipse>
                        </g>
                    </g>
                </g>
                <g id="ball-4" transform="translate(595.000000, 285.000000)">
                    <ellipse id="Oval" fill="#000000" opacity="0.6" filter="url(#filter-1)" cx="18" cy="67" rx="10" ry="1"></ellipse>
                    <g id="ball" fill="url(#radialGradient-2)">
                        <circle id="Oval" cx="18" cy="18" r="18"></circle>
                    </g>
                </g>
            </g>
        </g>
    </g>
</svg>