<?xml version="1.0" encoding="UTF-8"?>
<svg width="679px" height="541px" viewBox="0 0 679 541" version="1.1" xmlns="http://www.w3.org/2000/svg" xmlns:xlink="http://www.w3.org/1999/xlink">
    <title>image</title>
    <defs>
        <filter x="-67.5%" y="-675.0%" width="235.0%" height="1450.0%" filterUnits="objectBoundingBox" id="filter-1">
            <feGaussianBlur stdDeviation="3" in="SourceGraphic"></feGaussianBlur>
        </filter>
        <radialGradient cx="63.9405573%" cy="26.1938917%" fx="63.9405573%" fy="26.1938917%" r="49.053135%" id="radialGradient-2">
            <stop stop-color="#FFF9F9" offset="0%"></stop>
            <stop stop-color="#F3B1B1" offset="100%"></stop>
        </radialGradient>
    </defs>
    <g id="REX-mobile" stroke="none" stroke-width="1" fill="none" fill-rule="evenodd">
        <g id="m02.Login" transform="translate(250.000000, -359.000000)">
            <g id="image" transform="translate(-250.000000, 359.000000)">
                <g id="house" transform="translate(332.003735, 200.674536) scale(-1, 1) translate(-332.003735, -200.674536) translate(61.839123, 0.674536)" stroke="#00B3B0">
                    <g transform="translate(0.000000, -0.000000)">
                        <g id="base" transform="translate(0.000000, 53.625632)">
                            <polyline id="Path-9" stroke-linejoin="round" points="520.945284 143.170815 389.459896 310.680597 3.99488354e-14 211.757304 73.6653479 179.371661"></polyline>
                            <line x1="263.081185" y1="278.583474" x2="528.952512" y2="346.037099" id="Line-7" stroke-linecap="square"></line>
                            <line x1="456.316584" y1="178.752108" x2="539.749317" y2="193.591906" id="Line-7-Copy" stroke-linecap="square"></line>
                            <line x1="368.882983" y1="61.5538602" x2="524.471416" y2="-1.00469072e-13" id="Line-8" stroke-linecap="square"></line>
                        </g>
                        <polygon id="Stroke-1" points="109.082861 281.785158 47.0501888 265.78299 47.0501888 261.382394 109.082861 277.384562"></polygon>
                        <polygon id="Stroke-3" points="195.528392 282.585266 139.098671 269.783532 139.098671 265.382936 195.528392 278.18467"></polygon>
                        <polygon id="Stroke-4" points="138.69846 269.783532 108.682651 281.785158 108.682651 277.384562 138.69846 265.382936"></polygon>
                        <polyline id="Stroke-5" points="104.076945 140.831908 66.2602267 173.370715 404.038135 215.776458 443.258792 124.564105 341.012139 121.242855"></polyline>
                        <polygon id="Stroke-6" stroke-linejoin="round" points="383.627464 323.390792 383.565031 213.20627 224.961495 193.293973 227.545256 288.986133"></polygon>
                        <polyline id="Stroke-7" points="407.528933 207.658158 458.867173 173.770369 440.659983 130.607723"></polyline>
                        <polyline id="Stroke-8" points="454.863224 176.413447 465.426388 176.413447 443.258712 124.564025"></polyline>
                        <polyline id="Stroke-10" points="450.062456 179.771342 450.062456 244.980173 396.583088 308.246341"></polyline>
                        <polyline id="Stroke-11" points="311.036591 25.0366258 348.409075 22.5498891 374.14583 84.1582327 311.589682 82.558016 201.931925 82.558016 164.769151 53.3540609 135.115933 84.1582327 93.0745899 84.1582327 147.503258 24.1501058 197.929817 32.1511894 291.761639 26.1319742"></polyline>
                        <line x1="197.929657" y1="32.1513494" x2="216.339354" y2="82.558176" id="Stroke-12"></line>
                        <line x1="348.408915" y1="22.5500491" x2="311.589522" y2="82.558176" id="Stroke-13"></line>
                        <polyline id="Stroke-14" points="147.503097 24.1502658 181.921225 52.9541667 164.768991 53.3542209"></polyline>
                        <polyline id="Stroke-15" points="138.69846 156.968253 105.080754 153.76782 99.7899669 84.1583927"></polyline>
                        <polyline id="Stroke-16" points="306.330752 82.5825623 305.986571 172.970421 220.465527 165.234523 218.660576 82.5825623"></polyline>
                        <polyline id="Stroke-17" stroke-linejoin="round" points="135.116093 84.1583927 139.853789 176.498098 142.593792 174.210829 203.092697 180.557848 201.932085 82.558176"></polyline>
                        <line x1="140.267527" y1="176.391231" x2="203.023957" y2="184.485666" id="Line-3" stroke-linecap="square"></line>
                        <line x1="368.419454" y1="122.563594" x2="368.419454" y2="84.1583927" id="Stroke-18"></line>
                        <polyline id="Stroke-19" stroke-linejoin="round" points="47.0501888 261.382394 91.0229493 246.897233 205.933873 272.983966 195.528392 278.18467"></polyline>
                        <line x1="91.1520573" y1="246.897073" x2="88.2721404" y2="176.170694" id="Stroke-21"></line>
                        <line x1="142.464924" y1="258.495923" x2="138.69814" y2="182.572041" id="Stroke-22"></line>
                        <line x1="205.935074" y1="272.983966" x2="203.533809" y2="190.572805" id="Stroke-23"></line>
                        <polyline id="Stroke-24" stroke-linejoin="round" points="220.341461 164.969337 203.060359 184.585594 203.092376 180.557848"></polyline>
                        <polyline id="Stroke-25" points="176.888335 52.5541126 147.503258 28.5164571 99.790127 81.4844306 137.556134 81.4844306"></polyline>
                        <line x1="100.454308" y1="81.2816189" x2="93.7063047" y2="83.9797639" id="Line"></line>
                        <g id="Group-206" transform="translate(72.273714, 0.000000)">
                            <path d="M324.015619,315.080627 C325.055367,315.370266 325.861391,316.13917 325.861391,316.989685 C325.861391,318.315465 323.532165,319.39001 320.658651,319.39001 C317.785138,319.39001 315.455911,318.315465 315.455911,316.989685 C315.455911,316.180776 316.159481,315.611899 317.222441,315.201443" id="Stroke-26"></path>
                            <path d="M320.658651,319.39025 C317.785138,319.39025 315.455911,318.315705 315.455911,316.989925 L315.455911,322.590684 C315.455911,323.916463 317.785138,324.991009 320.658651,324.991009 C323.532165,324.991009 325.861391,323.916463 325.861391,322.590684 L325.861391,316.989925 C325.861391,318.315705 323.532165,319.39025 320.658651,319.39025 Z" id="Stroke-28"></path>
                            <path d="M317.186182,213.775947 L317.186182,316.188217 C317.186182,317.073137 318.740601,317.790034 320.658411,317.790034 C322.576221,317.790034 324.13064,317.073137 324.13064,316.188217 L324.160255,214.576055" id="Stroke-30"></path>
                            <path d="M383.474536,247.499714 C384.462257,247.871765 385.092989,248.438241 385.092989,249.072727 C385.092989,250.194479 383.12155,251.104202 380.69067,251.104202 C378.258989,251.104202 376.288351,250.194479 376.288351,249.072727 C376.288351,248.423039 376.9495,247.844561 377.978842,247.472511" id="Stroke-32"></path>
                            <path d="M380.69027,251.104042 C378.258589,251.104042 376.287951,250.194319 376.287951,249.073367 L376.287951,253.812409 C376.287951,254.934161 378.258589,255.843084 380.69027,255.843084 C383.121951,255.843084 385.092589,254.934161 385.092589,253.812409 L385.092589,249.073367 C385.092589,250.194319 383.121951,251.104042 380.69027,251.104042 Z" id="Stroke-34"></path>
                            <path d="M377.752082,179.771342 L377.752082,248.394235 C377.752082,249.143137 379.067175,249.750419 380.69043,249.750419 C382.312885,249.750419 383.628778,249.143137 383.628778,248.394235 L383.628778,175.864413" id="Stroke-36"></path>
                            <path d="M7.25798279,245.076266 C8.21928911,245.436315 8.83401288,245.985989 8.84209604,246.609274 C8.85642469,247.730225 6.89699265,248.664752 4.46531188,248.695956 C2.03443154,248.72636 0.0517872764,247.842241 0.0380925081,246.720489 C0.0293754721,246.070001 0.684920748,245.482721 1.71186164,245.097869" id="Stroke-38"></path>
                            <path d="M8.90204872,250.223683 L8.8420171,246.608794 C8.85642469,247.730545 6.89699265,248.665072 4.46531188,248.695476 C2.03443154,248.72668 0.0517872764,247.842561 0.0381801095,246.720809 L0.0982117282,251.459851 C0.104615101,251.956718 0.497622098,252.407179 1.14436274,252.752026" id="Stroke-40"></path>
                            <path d="M0,173.616588 L1.52880522,245.787162 C1.53841028,246.535264 2.86150716,247.125744 4.48396171,247.105474 C6.10721668,247.084138 7.41430512,246.460854 7.40475266,245.711952 L5.84627924,174.786347" id="Stroke-42"></path>
                            <line x1="233.712857" y1="172.970421" x2="269.125108" y2="121.113798" id="Stroke-44"></line>
                            <polygon id="Stroke-46" points="76.029805 150.567387 73.6285402 98.5603432 121.375288 99.3604516 122.454257 154.567928"></polygon>
                            <polygon id="Stroke-48" fill-opacity="0.2" fill="#00B3B0" points="85.634864 100.16056 87.8355123 149.724552 110.447933 151.367495 108.84709 100.960668"></polygon>
                            <path d="M77.7821679,97.1215884 C77.2186711,84.4214684 81.8531121,69.6250645 95.2401631,69.7562823 C112.285141,69.9235049 116.282446,90.5703011 116.051124,97.7600748 L106.290783,97.7600748 C106.097081,96.0470428 106.333206,83.2325074 95.8476831,82.558016 C84.6633923,81.8387186 85.8232032,94.017968 85.7271526,97.1431913 L77.7821679,97.1215884 Z" id="Stroke-50"></path>
                            <path d="M164.827659,216.226418 L297.763322,234.252573 L297.763322,315.947117 L164.827659,286.612451 L164.827659,216.226418 Z M167.86426,284.03348 L294.726721,311.539367 L167.86426,284.03348 Z M167.86426,280.465545 L294.726721,307.426345 L167.86426,280.465545 Z M167.86426,276.897609 L294.726721,303.313322 L167.86426,276.897609 Z M167.86426,273.329674 L294.726721,299.2003 L167.86426,273.329674 Z M167.86426,269.761738 L294.726721,295.087278 L167.86426,269.761738 Z M167.86426,266.193803 L294.726721,290.974255 L167.86426,266.193803 Z M167.86426,262.625867 L294.726721,286.861233 L167.86426,262.625867 Z M167.86426,259.057932 L294.726721,282.74821 L167.86426,259.057932 Z M167.86426,255.489996 L294.726721,278.635188 L167.86426,255.489996 Z M167.86426,251.922061 L294.726721,274.522165 L167.86426,251.922061 Z M167.86426,248.354125 L294.726721,270.409143 L167.86426,248.354125 Z M167.86426,244.78619 L294.726721,266.29612 L167.86426,244.78619 Z M167.86426,241.218254 L294.726721,262.183098 L167.86426,241.218254 Z M167.86426,237.650319 L294.726721,258.070076 L167.86426,237.650319 Z M167.86426,234.082383 L294.726721,253.957053 L167.86426,234.082383 Z M167.86426,230.514448 L294.726721,249.844031 L167.86426,230.514448 Z M167.86426,226.946512 L294.726721,245.731008 L167.86426,226.946512 Z M167.86426,223.378577 L294.726721,241.617986 L167.86426,223.378577 Z M167.86426,219.810641 L294.726721,237.504963 L167.86426,219.810641 Z" id="rolling" stroke-linecap="square"></path>
                            <polygon id="Stroke-90" points="164.289268 290.957328 292.944054 319.39025 304.292542 321.901349 267.330563 340.993176 152.870277 313.789492"></polygon>
                            <line x1="296.693625" y1="320.116364" x2="267.330563" y2="340.993176" id="Stroke-92"></line>
                            <polygon id="Stroke-94" points="150.061277 98.5603432 230.898254 100.16056 230.898254 159.390181 151.269114 152.967712"></polygon>
                            <line x1="188.889248" y1="99.3604516" x2="188.889248" y2="156.168145" id="Stroke-96"></line>
                            <line x1="201.695993" y1="99.3604516" x2="202.496415" y2="156.968253" id="Stroke-98"></line>
                            <line x1="161.66667" y1="98.7900543" x2="162.465491" y2="153.870314" id="Stroke-100"></line>
                            <path d="M164.049845,101.331359 C165.650688,101.331359 174.943823,101.609599 174.943823,101.609599 L175.282161,152.167843 L164.822252,151.420542 L164.049845,101.331359 Z" id="Stroke-102" fill-opacity="0.2" fill="#00B3B0"></path>
                            <line x1="169.456367" y1="101.517707" x2="169.915735" y2="151.528397" id="Stroke-104"></line>
                            <line x1="164.694425" y1="126.333305" x2="174.943823" y2="127.106209" id="Stroke-106"></line>
                            <line x1="175.201959" y1="99.1726661" x2="175.879116" y2="154.847406" id="Stroke-108"></line>
                            <path d="M204.468334,101.896315 C206.147618,101.896315 215.896673,102.504637 215.896673,102.504637 L216.25134,155.225937 L205.27836,154.442631 L204.468334,101.896315 Z" id="Stroke-110" fill-opacity="0.2" fill="#00B3B0"></path>
                            <line x1="210.08121" y1="102.504637" x2="210.622295" y2="154.555687" id="Stroke-112"></line>
                            <line x1="205.14461" y1="128.124507" x2="215.896673" y2="128.935817" id="Stroke-114"></line>
                            <line x1="216.167456" y1="99.6316883" x2="216.87743" y2="158.037198" id="Stroke-116"></line>
                            <line x1="110.91711" y1="153.274202" x2="108.965632" y2="98.97944" id="Stroke-118"></line>
                            <line x1="83.535118" y1="98.6894007" x2="85.7594896" y2="151.560561" id="Stroke-120"></line>
                            <line x1="97.7492446" y1="100.622543" x2="99.5382669" y2="150.691004" id="Stroke-122"></line>
                            <line x1="88.2731335" y1="100.525889" x2="90.3038031" y2="149.724552" id="Stroke-124"></line>
                            <line x1="89.5301956" y1="125.850039" x2="109.546338" y2="126.430118" id="Stroke-126"></line>
                            <polygon id="Stroke-128" points="64.3428729 146.553047 35.5388169 144.662172 31.8031507 97.4328305 61.9718406 98.3025483"></polygon>
                            <polyline id="Stroke-130" points="70.3200776 174.210829 65.9361686 83.739376 94.6873119 55.3867362"></polyline>
                            <line x1="39.9095329" y1="97.7600748" x2="43.1167896" y2="144.956227" id="Stroke-132"></line>
                            <polygon id="Stroke-134" fill-opacity="0.2" fill="#00B3B0" points="64.0993612 144.1123 44.6634443 142.635992 42.0614474 97.7600748 61.9718406 98.3027083"></polygon>
                            <line x1="53.6885978" y1="98.3027083" x2="56.396424" y2="143.409617" id="Stroke-136"></line>
                            <line x1="43.7612091" y1="121.242695" x2="62.7135913" y2="122.145217" id="Stroke-138"></line>
                            <path d="M91.1227136,98.6894007 C91.1227136,98.6894007 91.1019835,95.9723796 91.1019835,93.2016975 C91.1019835,90.4310154 93.265523,87.8617743 96.781775,87.9289834 C100.298027,87.9969926 102.664874,91.7823053 102.73291,93.7425707 C102.800145,95.7028362 103.002652,98.9472756 103.002652,98.9472756" id="Stroke-140"></path>
                            <path d="M92.7489309,98.632913 C92.7489309,98.632913 92.6905002,96.8451926 92.6905002,94.113901 C92.6905002,91.3826095 94.5690896,89.476473 97.622698,89.535681 C100.675506,89.5940889 102.730988,92.8809341 102.789419,94.5827645 C102.84785,96.2853951 103.023943,99.1025767 103.023943,99.1025767" id="Stroke-142" fill-opacity="0.2" fill="#00B3B0"></path>
                            <path d="M87.1450194,98.5605032 C87.1450194,98.5605032 87.0481683,95.5675628 87.0481683,93.7278488 C87.0481683,91.2303699 87.943174,82.8889123 94.6873119,82.558176" id="Stroke-144" stroke-linecap="round"></path>
                            <path d="M117.899698,99.3112449 C117.526701,95.5587367 118.024564,72.0971593 96.5564564,69.6920336" id="Stroke-146"></path>
                            <line x1="129.175157" y1="275.185384" x2="155.043054" y2="280.944351" id="Stroke-148"></line>
                            <polygon id="Stroke-150" points="64.2605661 234.911609 22.9844996 226.363565 20.554346 181.943636 61.6824082 186.969917"></polygon>
                            <polygon id="Stroke-152" fill-opacity="0.2" fill="#00B3B0" points="57.4274471 231.560836 33.5756843 226.663372 30.8686585 185.552205 55.2358928 188.515806"></polygon>
                            <line x1="55.1174168" y1="186.177606" x2="57.6416576" y2="233.502681" id="Stroke-154"></line>
                            <line x1="28.805732" y1="182.974415" x2="31.5545955" y2="228.330523" id="Stroke-156"></line>
                            <line x1="32.1578175" y1="206.945422" x2="56.5222074" y2="210.118044" id="Stroke-158"></line>
                            <line x1="42.0851263" y1="187.098494" x2="44.5344163" y2="228.596914" id="Stroke-160"></line>
                            <path d="M88.7565882,256.176169 C90.9481425,256.176169 127.563428,263.779599 127.563428,263.779599 L126.402816,197.150575 L85.9198941,192.124295 L88.7565882,256.176169 Z" id="Stroke-162"></path>
                            <line x1="126.145401" y1="190.062655" x2="128.051041" y2="271.500843" id="Stroke-164"></line>
                            <polyline id="Stroke-166" points="72.9091796 259.107228 78.8291194 256.305387 85.6623184 257.851196 88.7567483 256.175769"></polyline>
                            <polyline id="Stroke-168" points="82.2898267 257.098111 79.8610229 191.35147 85.9202142 192.124375"></polyline>
                            <polygon id="Stroke-170" fill-opacity="0.2" fill="#00B3B0" stroke-linejoin="round" points="98.8773588 254.152561 98.4475546 238.164161 108.095814 240.233875 108.67612 255.956805"></polygon>
                            <polygon id="Stroke-170-Copy" stroke-linejoin="round" points="98.350931 235.7799 98.1681853 230.687289 120.988205 235.674421 120.988205 240.764156"></polygon>
                            <polygon id="Stroke-172" fill-opacity="0.2" fill="#00B3B0" stroke-linejoin="round" points="111.383226 256.794518 110.80292 241.00758 121.24602 242.940642 121.761492 259.050024"></polygon>
                            <polygon id="Stroke-174" fill-opacity="0.2" fill="#00B3B0" stroke-linejoin="round" points="98.0393174 228.429346 96.9435402 197.177114 107.128905 198.787732 108.35355 230.362408"></polygon>
                            <polygon id="Stroke-176" fill-opacity="0.2" fill="#00B3B0" stroke-linejoin="round" points="111.12541 231.135793 110.093666 199.238673 120.407899 200.656465 120.988205 233.455307"></polygon>
                            <line x1="94.4294161" y1="193.413429" x2="96.4921025" y2="257.335686" id="Stroke-178"></line>
                            <line x1="122.793315" y1="196.796447" x2="124.920836" y2="263.007014" id="Stroke-180"></line>
                            <polyline id="Stroke-182" points="123.180079 282.724645 129.400642 279.196254 154.992835 285.624237"></polyline>
                            <line x1="129.400642" y1="275.548061" x2="129.400642" y2="278.920742" id="Line-2" stroke-linecap="square"></line>
                            <polygon id="Stroke-184" points="217.665525 20.289903 232.380475 20.0730736 241.098667 19.0513352 241.166703 14.4763156 232.252087 14.0561787 217.735161 15.328431"></polygon>
                            <polygon id="Stroke-188" points="219.808573 43.0386639 233.283671 43.1434781 238.69372 36.1985375 238.633689 19.3658578 232.379995 20.0731536 219.634081 20.2139727"></polygon>
                            <line x1="219.981304" y1="15.1308535" x2="219.981304" y2="11.6153331" id="Stroke-190"></line>
                            <line x1="239.012768" y1="14.730715" x2="239.062394" y2="10.6788863" id="Stroke-192"></line>
                            <line x1="229.94589" y1="11.8043845" x2="229.97929" y2="13.9152446" id="Stroke-194"></line>
                            <line x1="224.427406" y1="11.7351093" x2="224.346564" y2="14.730715" id="Stroke-196"></line>
                            <line x1="235.488512" y1="11.0769393" x2="235.488512" y2="14.0639847" id="Stroke-198"></line>
                            <line x1="232.235279" y1="13.9437284" x2="232.243683" y2="20.289903" id="Stroke-200"></line>
                            <line x1="311.413062" y1="323.256214" x2="315.474401" y2="318.358751" id="Stroke-204"></line>
                            <polygon id="Stroke-186" points="214.746867 11.4703534 231.303588 11.4559515 245.314167 10.1101692 237.057018 0 219.826343 1.91945995"></polygon>
                            <line x1="231.549237" y1="11.3114519" x2="237.056138" y2="0.030724161" id="Stroke-202"></line>
                        </g>
                        <g id="Group" transform="translate(340.242007, 51.264755)">
                            <ellipse id="Oval" fill-opacity="0.2" fill="#00B3B0" cx="6.17701832" cy="10.7925801" rx="5.39840257" ry="8.76897133"></ellipse>
                            <ellipse id="Oval-Copy" cx="6.74800321" cy="10.7925801" rx="6.74800321" ry="10.7925801"></ellipse>
                        </g>
                        <g id="Group-2" transform="translate(437.517068, 167.824621) rotate(5.000000) translate(-437.517068, -167.824621) translate(432.118666, 159.190556)">
                            <ellipse id="Oval" fill-opacity="0.2" fill="#00B3B0" cx="4.94161466" cy="8.63406408" rx="4.31872206" ry="7.01517707"></ellipse>
                            <ellipse id="Oval-Copy" cx="5.39840257" cy="8.63406408" rx="5.39840257" ry="8.63406408"></ellipse>
                        </g>
                    </g>
                </g>
                <polyline id="Background" stroke="#00B3B0" transform="translate(640.000000, 403.500000) scale(-1, 1) translate(-640.000000, -403.500000) " points="602 541 602 300.499605 639.716674 266 678 266"></polyline>
                <g id="ball-4" transform="translate(469.000000, 286.000000)">
                    <ellipse id="Oval" fill="#000000" opacity="0.6" filter="url(#filter-1)" cx="12" cy="44.6666667" rx="6.66666667" ry="1"></ellipse>
                    <g id="ball" fill="url(#radialGradient-2)">
                        <circle id="Oval" cx="12" cy="12" r="12"></circle>
                    </g>
                </g>
            </g>
        </g>
    </g>
</svg>