<?xml version="1.0" encoding="UTF-8"?>
<svg width="324px" height="218px" viewBox="0 0 324 218" version="1.1" xmlns="http://www.w3.org/2000/svg" xmlns:xlink="http://www.w3.org/1999/xlink">
    <title>logo</title>
    <defs>
        <filter x="-61.2%" y="-61.2%" width="222.4%" height="222.4%" filterUnits="objectBoundingBox" id="filter-1">
            <feGaussianBlur stdDeviation="20" in="SourceGraphic"></feGaussianBlur>
        </filter>
    </defs>
    <g id="REX-desktop" stroke="none" stroke-width="1" fill="none" fill-rule="evenodd">
        <g id="01.Landing-A" transform="translate(-134.000000, -3584.000000)">
            <g id="footer" transform="translate(0.000000, 3371.000000)">
                <g id="logo" transform="translate(194.000000, 273.000000)">
                    <circle id="white-halo" fill="#FFFFFF" filter="url(#filter-1)" cx="49" cy="49" r="49"></circle>
                    <path d="M111.045415,48.0516474 L111.045415,59.1701642 L105.380095,59.1701642 L105.380095,48.0516474 C105.286142,46.3934105 104.574223,45.5400772 103.245309,45.492616 L102.92761,45.492616 C101.49215,45.5400772 100.77442,46.5348256 100.77442,48.474924 L100.77442,59.1701642 L95.1275036,59.1701642 L95.1275036,48.474924 C95.1275036,43.3578297 97.727216,40.6573833 102.92761,40.3755218 L103.245309,40.3755218 C105.315199,40.4927219 106.974405,40.9876746 108.221957,41.8574741 C109.456917,40.9876746 111.109342,40.4927219 113.180201,40.3755218 L113.497901,40.3755218 C118.697326,40.6573833 121.298007,43.3578297 121.298007,48.474924 L121.298007,59.1701642 L115.65109,59.1701642 L115.65109,48.474924 C115.65109,46.5348256 114.933361,45.5400772 113.497901,45.492616 L113.180201,45.492616 C111.850319,45.5400772 111.139369,46.3934105 111.045415,48.0516474" id="Fill-274" fill="#000000"></path>
                    <path d="M135.828792,58.8169171 C134.758493,59.2518169 133.769556,59.5104321 132.86295,59.5927628 C127.298364,60.1807007 124.516555,57.5286841 124.516555,51.633807 L124.516555,41.0993538 L130.163472,41.0993538 L130.163472,51.2463685 C130.163472,52.3166674 130.410464,53.1283511 130.905417,53.6814196 C131.399401,54.2228649 132.093884,54.4931033 132.98693,54.4931033 C133.846075,54.4931033 134.533778,54.2170533 135.051977,53.6639849 C135.545961,53.1099478 135.792953,52.3040757 135.792953,51.2463685 L135.792953,41.1167885 L141.43987,41.0993538 L141.43987,61.2868377 C141.43987,63.4758653 140.664024,65.3578479 139.111364,66.9337541 C138.405258,67.6398608 137.433756,68.2161756 136.198795,68.663667 C135.082004,69.0627287 133.957463,69.2632281 132.82808,69.2632281 L131.893385,69.2632281 C129.376003,69.2157669 127.358417,68.4399213 125.839658,66.9337541 C124.852658,65.9225395 124.240505,65.0159334 124.005137,64.2158729 L129.105765,61.2335649 C129.151289,62.1275793 129.499015,62.8811472 130.146037,63.4923314 C130.793059,64.1044843 131.564062,64.4105607 132.458076,64.4105607 C133.151591,64.4105607 133.787959,64.2100613 134.363305,63.810031 C134.904751,63.4458388 135.310593,62.9402316 135.581799,62.2932092 L135.599234,62.2399364 L135.634104,62.1517942 L135.669942,62.0278138 L135.704811,61.9048021 C135.752272,61.7982565 135.78133,61.662653 135.792953,61.4989603 C135.792953,61.4747454 135.799734,61.4456875 135.810388,61.410818 L135.810388,61.2335649 L135.828792,61.2335649 L135.828792,58.8169171 Z" id="Fill-276" fill="#000000"></path>
                    <path d="M164.535758,46.5344381 C164.030151,46.1111616 163.477082,45.7924934 162.876552,45.5813394 C162.253745,45.3692168 161.5951,45.2636398 160.900616,45.2636398 C159.606571,45.2636398 158.512058,45.6811048 157.618043,46.5160348 C156.712406,47.3519334 156.259103,48.3873628 156.259103,49.6223231 C156.259103,50.5880136 156.45379,51.4520015 156.842198,52.216224 C157.218013,52.9814151 157.776893,53.5867877 158.517869,54.0342792 C159.235599,54.4933939 160.065686,54.7219826 161.006193,54.7219826 C162.394191,54.7219826 163.583628,54.2812713 164.570627,53.3988801 L167.659481,57.3168521 C167.211989,57.7866213 166.588213,58.2050549 165.789121,58.5692471 C164.977438,58.9344079 164.141539,59.2046462 163.283363,59.3818994 C162.424218,59.5572153 161.629969,59.6453575 160.900616,59.6453575 C158.853972,59.6453575 157.04754,59.2162694 155.482288,58.3571245 C153.918005,57.487325 152.718883,56.3463186 151.882984,54.9341052 C151.047086,53.4986455 150.630589,51.9634204 150.630589,50.3284298 C150.630589,48.8348543 150.882425,47.4817253 151.389,46.2700114 C151.906231,45.0340825 152.618149,43.9754067 153.524755,43.0930155 C154.41877,42.2348392 155.506503,41.5577904 156.788925,41.0638063 C158.058754,40.5814453 159.430287,40.3392963 160.900616,40.3392963 C162.100707,40.3392963 163.270771,40.5291411 164.412746,40.9049565 C165.564407,41.2933636 166.582402,41.8396519 167.464793,42.5457586 L164.535758,46.5344381 Z" id="Fill-278" fill="#000000"></path>
                    <path d="M174.654974,47.7338509 C174.219106,48.4283345 174.001171,49.187714 174.001171,50.0110208 C174.001171,51.2585728 174.472878,52.3346833 175.413385,53.2403208 C176.342269,54.1343352 177.442594,54.5808581 178.713392,54.5808581 C179.995814,54.5808581 181.100982,54.1343352 182.030835,53.2403208 C182.97231,52.3346833 183.442079,51.2585728 183.442079,50.0110208 C183.442079,49.187714 183.225114,48.4283345 182.789246,47.7338509 C182.354346,47.040336 181.772219,46.4872675 181.042866,46.0756141 C180.325137,45.6755838 179.549291,45.4750844 178.713392,45.4750844 C177.901709,45.4750844 177.131675,45.6755838 176.402322,46.0756141 C175.672,46.4872675 175.089874,47.040336 174.654974,47.7338509 L174.654974,47.7338509 Z M183.460483,58.6218418 C183.083699,58.7874718 182.807649,58.8988604 182.630396,58.9579448 C181.383812,59.4403057 180.078145,59.6814862 178.713392,59.6814862 C176.91374,59.6814862 175.212885,59.2630526 173.613733,58.4281226 C172.012643,57.5815694 170.742813,56.4289398 169.801338,54.9692652 C168.849208,53.4863443 168.372658,51.833919 168.372658,50.0110208 C168.372658,48.6346455 168.648708,47.3512554 169.201777,46.1637563 C169.753877,44.9869118 170.514225,43.9631056 171.478947,43.0933061 C172.431077,42.2235066 173.537214,41.558081 174.796389,41.0989663 C176.054596,40.6166054 177.360263,40.3754249 178.713392,40.3754249 C180.05393,40.3754249 181.360566,40.6107938 182.630396,41.0815316 C183.902163,41.5522694 185.007331,42.2235066 185.948807,43.0933061 C186.936775,43.9873205 187.701966,45.0101582 188.242443,46.1637563 C188.795511,47.3512554 189.07253,48.6346455 189.07253,50.0110208 L189.054126,59.2049368 L183.460483,59.151664 L183.460483,58.6218418 Z" id="Fill-280" fill="#000000"></path>
                    <path d="M199.561362,45.4749875 C198.125902,45.5350405 197.408173,46.5346319 197.408173,48.4756988 L197.408173,59.1515672 L191.761256,59.1515672 L191.761256,48.4756988 C191.761256,43.3343897 194.361937,40.6339432 199.561362,40.375328 L199.879062,40.375328 C205.078487,40.6339432 207.679168,43.3343897 207.679168,48.4756988 L207.679168,59.1515672 L202.032251,59.1515672 L202.032251,48.4756988 C202.032251,46.5346319 201.314521,45.5350405 199.879062,45.4749875 L199.561362,45.4749875 Z" id="Fill-282" fill="#000000"></path>
                    <path d="M216.650791,47.7338509 C216.214922,48.4283345 215.996988,49.187714 215.996988,50.0110208 C215.996988,51.2585728 216.468695,52.3346833 217.409202,53.2403208 C218.338086,54.1343352 219.438411,54.5808581 220.709209,54.5808581 C221.991631,54.5808581 223.096799,54.1343352 224.026652,53.2403208 C224.968127,52.3346833 225.437896,51.2585728 225.437896,50.0110208 C225.437896,49.187714 225.220931,48.4283345 224.785062,47.7338509 C224.350163,47.040336 223.768036,46.4872675 223.038683,46.0756141 C222.320953,45.6755838 221.545108,45.4750844 220.709209,45.4750844 C219.897526,45.4750844 219.127491,45.6755838 218.398138,46.0756141 C217.667817,46.4872675 217.085691,47.040336 216.650791,47.7338509 L216.650791,47.7338509 Z M225.4563,58.6218418 C225.079516,58.7874718 224.803466,58.8988604 224.626213,58.9579448 C223.379629,59.4403057 222.073961,59.6814862 220.709209,59.6814862 C218.909557,59.6814862 217.208702,59.2630526 215.60955,58.4281226 C214.00846,57.5815694 212.73863,56.4289398 211.797155,54.9692652 C210.845025,53.4863443 210.368475,51.833919 210.368475,50.0110208 C210.368475,48.6346455 210.644525,47.3512554 211.197594,46.1637563 C211.749694,44.9869118 212.510042,43.9631056 213.474764,43.0933061 C214.426894,42.2235066 215.533031,41.558081 216.792206,41.0989663 C218.050412,40.6166054 219.35608,40.3754249 220.709209,40.3754249 C222.049747,40.3754249 223.356383,40.6107938 224.626213,41.0815316 C225.89798,41.5522694 227.003148,42.2235066 227.944624,43.0933061 C228.932592,43.9873205 229.697783,45.0101582 230.23826,46.1637563 C230.791328,47.3512554 231.068347,48.6346455 231.068347,50.0110208 L231.049943,59.2049368 L225.4563,59.151664 L225.4563,58.6218418 Z" id="Fill-284" fill="#000000"></path>
                    <path d="M243.022375,45.7928808 C242.727921,45.59335 242.345326,45.4819614 241.874588,45.4577465 L241.556888,45.4577465 C240.121429,45.5168309 239.404667,46.5164222 239.404667,48.4574892 L239.404667,59.1517609 L233.757751,59.1517609 L233.757751,48.4574892 C233.757751,43.3161801 236.357463,40.6167022 241.556888,40.358087 L241.874588,40.358087 C242.262995,40.3697102 242.644622,40.4055482 243.022375,40.463664 L243.022375,45.7928808 Z" id="Fill-286" fill="#000000"></path>
                    <path d="M257.53524,58.8169171 C256.464941,59.2518169 255.476005,59.5104321 254.569398,59.5927628 C249.004813,60.1807007 246.223004,57.5286841 246.223004,51.633807 L246.223004,41.0993538 L251.869921,41.0993538 L251.869921,51.2463685 C251.869921,52.3166674 252.116913,53.1283511 252.611865,53.6814196 C253.105849,54.2228649 253.800333,54.4931033 254.693379,54.4931033 C255.552524,54.4931033 256.240227,54.2170533 256.758426,53.6639849 C257.25241,53.1099478 257.499402,52.3040757 257.499402,51.2463685 L257.499402,41.1167885 L263.146319,41.0993538 L263.146319,61.2868377 C263.146319,63.4758653 262.370473,65.3578479 260.817813,66.9337541 C260.111706,67.6398608 259.140204,68.2161756 257.905244,68.663667 C256.788453,69.0627287 255.663912,69.2632281 254.534529,69.2632281 L253.599834,69.2632281 C251.082452,69.2157669 249.064866,68.4399213 247.546107,66.9337541 C246.559107,65.9225395 245.946954,65.0159334 245.711585,64.2158729 L250.812213,61.2335649 C250.857737,62.1275793 251.205463,62.8811472 251.852486,63.4923314 C252.499508,64.1044843 253.270511,64.4105607 254.164525,64.4105607 C254.85804,64.4105607 255.494408,64.2100613 256.069754,63.810031 C256.611199,63.4458388 257.017041,62.9402316 257.288248,62.2932092 L257.305683,62.2399364 L257.340552,62.1517942 L257.37639,62.0278138 L257.41126,61.9048021 C257.458721,61.7982565 257.487779,61.662653 257.499402,61.4989603 C257.499402,61.4747454 257.506182,61.4456875 257.516837,61.410818 L257.516837,61.2335649 L257.53524,61.2335649 L257.53524,58.8169171 Z" id="Fill-288" fill="#000000"></path>
                    <path d="M80.1193946,48.9634839 C80.1193946,65.0121559 67.1101778,78.0213727 51.0615059,78.0213727 C35.0128339,78.0213727 22.0036171,65.0121559 22.0036171,48.9634839 C22.0036171,32.914812 35.0128339,19.9055952 51.0615059,19.9055952 C67.1101778,19.9055952 80.1193946,32.914812 80.1193946,48.9634839" id="Fill-290" fill="#FFFFFF"></path>
                    <path d="M64.8011411,33.4188695 C63.8771003,32.9810639 62.7961468,33.1922179 62.1036005,33.8944502 C62.2992569,34.0261793 62.4881332,34.1646886 62.6692607,34.3119152 L62.7767749,34.3864972 C63.4567295,34.9230995 64.0901914,35.5003829 64.6752236,36.1105986 C64.7478683,36.0156761 64.8156701,35.9168793 64.8737858,35.8083965 C65.298031,35.0306137 65.2389467,34.1201332 64.8011411,33.4188695" id="Fill-292" fill="#FFFE71"></path>
                    <path d="M58.2215634,40.7091063 C58.0782111,40.6635823 57.9348589,40.6229012 57.7915066,40.5841574 C57.7459826,40.5715656 57.69949,40.5609111 57.6529974,40.5492879 C57.5551691,40.525073 57.4573409,40.5008581 57.3585441,40.479549 C57.3052713,40.4679258 57.2510299,40.4572713 57.1977571,40.4466167 C57.1057404,40.4282134 57.0137238,40.4107787 56.9217072,40.3952811 C56.8664972,40.3865638 56.8122558,40.3768778 56.7580144,40.369129 C56.6621233,40.3546001 56.5662323,40.3420083 56.4703413,40.3303852 C56.4209429,40.3245736 56.3725131,40.3177934 56.3240832,40.3129504 C56.1913855,40.2993901 56.0586879,40.2887355 55.9269588,40.2809868 C55.9027439,40.2790496 55.8794975,40.278081 55.8552826,40.2771124 C55.7274279,40.2703322 55.6005418,40.2664578 55.4736557,40.2645206 C55.4194143,40.2645206 55.3661415,40.2654892 55.3119001,40.2654892 C55.2237579,40.2664578 55.1365842,40.2674264 55.0494105,40.2703322 C54.9874204,40.2722694 54.9263988,40.2751752 54.8653772,40.2790496 C54.7859523,40.282924 54.7055588,40.2887355 54.6261339,40.2945471 C54.5631752,40.3003587 54.5002164,40.3052017 54.4362891,40.3110132 C54.3588014,40.3197306 54.2803451,40.328448 54.2028574,40.3391025 C54.1398986,40.3468513 54.0779084,40.3536315 54.0159183,40.3633174 C53.9297132,40.3759092 53.8435081,40.3904381 53.7582717,40.4059357 C53.6526947,40.424339 53.5480863,40.4446795 53.4434779,40.4669572 C53.3708331,40.4814862 53.2972198,40.4969837 53.2255437,40.5134499 C53.1519304,40.5308846 53.0792857,40.5502565 53.0076095,40.5696285 C52.9475566,40.585126 52.8875036,40.6006235 52.8274506,40.6170897 C52.7519001,40.6383988 52.6773182,40.6616451 52.6017677,40.6848914 C52.5475263,40.7013575 52.4942535,40.7187923 52.4400121,40.736227 C52.3615558,40.7623791 52.2840681,40.7885312 52.2065804,40.8166205 C52.1600878,40.8330866 52.1145638,40.8505214 52.0680711,40.8679561 C51.9847719,40.8989512 51.9014726,40.9309149 51.8191419,40.9648157 C51.8036443,40.9706273 51.7891154,40.9774075 51.7736179,40.9841877 C51.4597927,41.1139796 51.1537162,41.2621748 50.8553886,41.4258676 C50.8292365,41.4403965 50.8030844,41.4539569 50.7779009,41.4684858 C50.68879,41.5178842 50.6016163,41.5692198 50.5144427,41.621524 C50.4892592,41.6370216 50.4640757,41.6525191 50.4388922,41.6680166 C50.3730276,41.7086977 50.3091003,41.7503473 50.2442043,41.7929656 C50.2199894,41.8074945 50.1967431,41.8220235 50.1725282,41.837521 C50.1589678,41.847207 50.1444389,41.8568929 50.12991,41.8665789 C49.7260053,42.1377858 49.3434098,42.4409565 48.9850291,42.773185 C48.9821233,42.7760908 48.9792176,42.778028 48.9763118,42.7809338 C48.8881695,42.8622959 48.8019644,42.9455952 48.7176966,43.0308316 C48.7099478,43.0385804 48.7031676,43.0453606 48.6954188,43.0531093 C48.2547075,43.4986636 47.8556459,43.989742 47.5069512,44.5244071 L47.500171,44.5215013 C47.4740189,44.5670253 47.4468982,44.6115808 47.4197775,44.6561362 C47.4178403,44.659042 47.4168717,44.6619478 47.4149345,44.6648536 C46.0143443,46.9817359 43.164734,48.1266167 40.4730049,47.2684404 C39.0017072,46.7996398 37.8374544,45.8145774 37.1177874,44.5776799 C36.3632509,47.6026061 36.6480182,50.6720878 37.7628725,53.3841574 C39.3010034,57.1239077 42.4179463,60.1827348 46.5722558,61.5068059 C53.5810185,63.7413575 61.0266182,60.235039 63.8781657,53.6185577 C63.9440303,53.476174 64.0079576,53.3308846 64.067042,53.1826894 C64.0864139,53.1361967 64.1057858,53.0897041 64.1241892,53.0432115 C64.1445297,52.9889701 64.1648702,52.9347287 64.1852107,52.8795187 C64.2307348,52.756507 64.2743216,52.6315581 64.3150026,52.504672 C65.8899402,47.5648309 63.1614045,42.2840439 58.2215634,40.7091063" id="Fill-294" fill="#FFFE71"></path>
                    <path d="M58.6242089,66.1041513 L58.6242089,69.1387635 C58.6242089,69.6085327 59.0087416,69.9930655 59.4785108,69.9930655 C59.94828,69.9930655 60.3328127,69.6085327 60.3328127,69.1387635 L60.3328127,65.2440378 C59.7768384,65.5607688 59.2063352,65.8474733 58.6242089,66.1041513" id="Fill-296" fill="#000000"></path>
                    <path d="M59.5176421,35.7332334 C59.4643693,35.0397185 58.8599652,34.5205509 58.1664502,34.5728551 C57.4729353,34.6261279 56.9537677,35.2315006 57.0060719,35.9250155 C57.0593447,36.6185305 57.6637488,37.1376981 58.3572637,37.0844253 C59.0507787,37.0321211 59.5709149,36.4267484 59.5176421,35.7332334" id="Fill-298" fill="#000000"></path>
                    <path d="M56.1996186,63.5273946 C55.7298494,63.5273946 55.3453167,63.9119274 55.3453167,64.3816966 L55.3453167,67.2012804 L55.3453167,69.9240045 C55.3453167,70.3937737 55.7298494,70.7783065 56.1996186,70.7783065 C56.6693878,70.7783065 57.0539205,70.3937737 57.0539205,69.9240045 L57.0539205,66.7131078 L57.0539205,64.3816966 C57.0539205,63.9119274 56.6693878,63.5273946 56.1996186,63.5273946" id="Fill-300" fill="#000000"></path>
                    <path d="M58.3576512,37.084619 C57.6641362,37.1378918 57.0587635,36.6177556 57.0064593,35.9242406 C56.9531865,35.2307257 57.4723541,34.6263216 58.1658691,34.5730488 C58.859384,34.5207446 59.4647567,35.0399122 59.5180295,35.7334272 C59.5703337,36.4269421 59.0511661,37.0313462 58.3576512,37.084619 M64.6758048,36.1102111 C64.089804,35.4999955 63.456342,34.9236807 62.7763874,34.3861097 L62.6698418,34.3124964 C62.4887143,34.1652698 62.2988695,34.0257919 62.103213,33.8940628 C61.5365842,33.5143731 60.9099024,33.2034537 60.2299478,32.9787393 C56.1850897,31.643045 51.8235006,33.8388528 50.4878063,37.8837109 C50.0558123,39.1913159 49.9938222,40.5318532 50.24372,41.7929656 C50.308616,41.7503473 50.3735119,41.7086977 50.4393765,41.6680166 C50.46456,41.6525191 50.4897435,41.6370216 50.514927,41.621524 C50.6021006,41.5692198 50.6892743,41.5178842 50.7774166,41.4684858 C50.8035687,41.4539569 50.8297208,41.4394279 50.8549043,41.4258676 C51.1532319,41.2621748 51.4593084,41.1139796 51.7741022,40.9841877 C51.7886311,40.9774075 51.8041286,40.9706273 51.8186576,40.9648157 C51.9009883,40.9309149 51.9852561,40.8989512 52.0685554,40.8679561 C52.1140795,40.8505214 52.1605721,40.8330866 52.2070647,40.8166205 C52.2835838,40.7885312 52.3620401,40.7623791 52.4404964,40.736227 C52.4937692,40.7187923 52.5480106,40.7013575 52.602252,40.6848914 C52.6768339,40.6616451 52.7523844,40.6383988 52.8279349,40.6170897 C52.8870193,40.6006235 52.9470723,40.585126 53.0071252,40.5696285 C53.07977,40.5502565 53.1524147,40.5308846 53.2250594,40.5134499 C53.2977041,40.4969837 53.3703488,40.4814862 53.4439622,40.4669572 C53.547602,40.4446795 53.653179,40.424339 53.758756,40.4059357 C53.8439924,40.3904381 53.9292289,40.3759092 54.015434,40.3623488 C54.0774241,40.3536315 54.1403829,40.3468513 54.2023731,40.3391025 C54.2808294,40.328448 54.3583171,40.3197306 54.4367734,40.3110132 C54.4997321,40.3052017 54.5626909,40.2993901 54.6266182,40.2945471 C54.7060431,40.2887355 54.785468,40.282924 54.8658615,40.2790496 C54.9268831,40.2751752 54.9879047,40.2722694 55.0489262,40.2703322 C55.1360999,40.2674264 55.2242421,40.2664578 55.3123844,40.2654892 C55.3656572,40.2654892 55.4198986,40.263552 55.47414,40.2645206 C55.6010261,40.2664578 55.7279122,40.2703322 55.8547983,40.2771124 C55.8790132,40.278081 55.9032281,40.2790496 55.9264745,40.2809868 C56.0591722,40.2887355 56.1918698,40.2993901 56.3245675,40.3129504 C56.3729974,40.3177934 56.4214272,40.3245736 56.469857,40.3303852 C56.565748,40.3420083 56.661639,40.3546001 56.7584987,40.369129 C56.8127401,40.3768778 56.8669815,40.3865638 56.9212229,40.3952811 C57.0132395,40.4107787 57.1052561,40.4282134 57.1972728,40.4466167 C57.2515142,40.4572713 57.304787,40.4679258 57.3590284,40.479549 C57.4568566,40.5008581 57.5556534,40.525073 57.6534816,40.5492879 C57.6990057,40.5609111 57.7454983,40.5715656 57.7919909,40.5841574 C57.9353432,40.6219327 58.0786954,40.6635823 58.2220477,40.7091063 C63.1618888,42.2840439 65.8894559,47.5648309 64.3154869,52.504672 C64.2748059,52.6315581 64.2302505,52.756507 64.1847264,52.8795187 C64.1653545,52.9347287 64.145014,52.9889701 64.1237049,53.0432115 C64.1053016,53.0897041 64.0859296,53.1361967 64.0675263,53.1826894 C64.0074733,53.3308846 63.9445146,53.476174 63.8776814,53.6185577 C61.0271025,60.235039 53.5815028,63.7413575 46.5727401,61.5068059 C42.4184306,60.1827348 39.3014877,57.1239077 37.7633568,53.3841574 C35.8620023,53.128448 34.0807537,52.4959546 32.4951616,51.5651336 C33.2409807,56.8556065 36.2300689,61.7935104 41.1137314,64.8484631 C45.5285933,67.6099311 50.6476247,68.3073205 55.3453167,67.2011835 L55.3453167,64.3815997 C55.3453167,63.9118305 55.7298494,63.5272978 56.1996186,63.5272978 C56.6693878,63.5272978 57.0539205,63.9118305 57.0539205,64.3815997 L57.0539205,66.713011 C57.5856799,66.5338207 58.1096905,66.331384 58.6240151,66.1037639 C59.2071101,65.8470859 59.7766447,65.5603814 60.332619,65.244619 C62.942986,63.7597609 65.2337162,61.6249747 66.9374771,58.9003133 C71.5848021,51.4721483 70.462199,42.1406916 64.6758048,36.1102111" id="Fill-302" fill="#FFE600"></path>
                    <path d="M51.0004843,75.2475066 C36.5267499,75.2475066 24.7524934,63.4722815 24.7524934,48.9995157 C24.7524934,34.5267499 36.5267499,22.7515248 51.0004843,22.7515248 C65.4732501,22.7515248 77.2484752,34.5267499 77.2484752,48.9995157 C77.2484752,63.4722815 65.4732501,75.2475066 51.0004843,75.2475066 M51.0004843,17 C33.3555656,17 19,31.354597 19,48.9995157 C19,66.6444344 33.3555656,81 51.0004843,81 C68.645403,81 83.0009686,66.6444344 83.0009686,48.9995157 C83.0009686,31.354597 68.645403,17 51.0004843,17" id="Fill-304" fill="#FFE600"></path>
                </g>
            </g>
        </g>
    </g>
</svg>