<?xml version="1.0" encoding="UTF-8"?>
<svg width="239px" height="130px" viewBox="0 0 239 130" version="1.1" xmlns="http://www.w3.org/2000/svg" xmlns:xlink="http://www.w3.org/1999/xlink">
    <title>logo</title>
    <defs>
        <filter x="-39.3%" y="-39.2%" width="178.6%" height="178.4%" filterUnits="objectBoundingBox" id="filter-1">
            <feGaussianBlur stdDeviation="9.41176471" in="SourceGraphic"></feGaussianBlur>
        </filter>
    </defs>
    <g id="REX-mobile" stroke="none" stroke-width="1" fill="none" fill-rule="evenodd">
        <g id="m01.Landing-A" transform="translate(11.000000, -46.000000)">
            <g id="logo" transform="translate(18.000000, 75.000000)">
                <ellipse id="white-halo" fill="#FFFFFF" filter="url(#filter-1)" cx="35.9340655" cy="36" rx="35.9340655" ry="36"></ellipse>
                <path d="M85.1163833,21.0956388 L85.1163833,30.2193629 L80.4760031,30.2193629 L80.4760031,21.0956388 C80.3990469,19.7349092 79.8159251,19.0346739 78.7274311,18.9957277 L78.467208,18.9957277 C77.291444,19.0346739 76.703562,19.8509527 76.703562,21.4429746 L76.703562,30.2193629 L72.0782557,30.2193629 L72.0782557,21.4429746 C72.0782557,17.2439473 74.207642,15.0279927 78.467208,14.7967004 L78.7274311,14.7967004 C80.4228478,14.8928735 81.7818786,15.2990259 82.8037302,16.0127731 C83.815268,15.2990259 85.1687453,14.8928735 86.8649554,14.7967004 L87.1251784,14.7967004 C91.383951,15.0279927 93.5141307,17.2439473 93.5141307,21.4429746 L93.5141307,30.2193629 L88.8888244,30.2193629 L88.8888244,21.4429746 C88.8888244,19.8509527 88.3009424,19.0346739 87.1251784,18.9957277 L86.8649554,18.9957277 C85.775668,19.0346739 85.1933395,19.7349092 85.1163833,21.0956388" id="Fill-211" fill="#000000"></path>
                <path d="M105.416083,29.929413 C104.539417,30.2862867 103.729393,30.4985033 102.986806,30.5660628 C98.4289351,31.0485178 96.1503966,28.8723041 96.1503966,24.0350374 L96.1503966,15.390589 L100.775703,15.390589 L100.775703,23.7171099 C100.775703,24.5953846 100.97801,25.2614427 101.383419,25.7152842 C101.788034,26.1595878 102.356875,26.3813423 103.088356,26.3813423 C103.792069,26.3813423 104.355357,26.1548189 104.779806,25.7009774 C105.184421,25.2463411 105.386729,24.585052 105.386729,23.7171099 L105.386729,15.4048957 L110.012035,15.390589 L110.012035,31.9562008 C110.012035,33.7524911 109.376551,35.2968239 108.10479,36.5899939 C107.526429,37.1694168 106.730686,37.6423339 105.719148,38.0095402 C104.8044,38.3370055 103.883306,38.501533 102.958244,38.501533 L102.192649,38.501533 C100.130699,38.4625868 98.4781236,37.8259371 97.2341304,36.5899939 C96.4256935,35.7602032 95.9242881,35.0162529 95.7315009,34.3597326 L99.9093505,31.9124858 C99.9466385,32.6461034 100.231456,33.2644724 100.761422,33.766003 C101.291389,34.2683285 101.922906,34.5194912 102.65518,34.5194912 C103.223228,34.5194912 103.744467,34.3549637 104.215725,34.0267036 C104.659215,33.7278517 104.991634,33.3129563 105.213775,32.7820174 L105.228056,32.7383024 L105.256617,32.6659739 L105.285972,32.5642371 L105.314533,32.4632951 C105.353407,32.3758651 105.377208,32.2645905 105.386729,32.1302661 C105.386729,32.1103956 105.392282,32.0865511 105.401009,32.0579376 L105.401009,31.9124858 L105.416083,31.9124858 L105.416083,29.929413 Z" id="Fill-213" fill="#000000"></path>
                <path d="M128.929538,19.8506348 C128.515402,19.503299 128.062392,19.2418036 127.570507,19.0685331 C127.060374,18.8944678 126.520888,18.8078326 125.952046,18.8078326 C124.892113,18.8078326 123.995613,19.1503995 123.263339,19.8355332 C122.521545,20.5214618 122.150251,21.371123 122.150251,22.3845168 C122.150251,23.1769511 122.309717,23.8859294 122.627855,24.5130414 C122.93568,25.1409482 123.393451,25.6377099 124.000373,26.0049161 C124.588255,26.3816602 125.268167,26.5692374 126.038523,26.5692374 C127.175412,26.5692374 128.149662,26.2075949 128.958099,25.483515 L131.488133,28.6985568 C131.1216,29.0840439 130.610674,29.4274055 129.956149,29.7262574 C129.291311,30.025904 128.606639,30.2476585 127.903719,30.3931103 C127.200006,30.5369725 126.549449,30.609301 125.952046,30.609301 C124.27567,30.609301 122.796048,30.2571963 121.513974,29.5521921 C120.232692,28.8384449 119.250509,27.9021484 118.565837,26.7433027 C117.881165,25.5653814 117.540018,24.3055937 117.540018,22.9639397 C117.540018,21.7383292 117.746293,20.6279675 118.161222,19.6336492 C118.584877,18.6194606 119.167999,17.7507237 119.910587,17.0266438 C120.642861,16.3224345 121.533808,15.7668562 122.58422,15.3614986 C123.624319,14.9656789 124.747721,14.7669742 125.952046,14.7669742 C126.935023,14.7669742 127.893406,14.9227587 128.828781,15.2311483 C129.772089,15.5498707 130.605914,15.9981484 131.328667,16.5775713 L128.929538,19.8506348 Z" id="Fill-215" fill="#000000"></path>
                <path d="M137.218039,20.8348588 C136.861026,21.4047438 136.682519,22.0278817 136.682519,22.7034776 C136.682519,23.7272041 137.068887,24.6102477 137.839242,25.3534032 C138.600077,26.0870209 139.501338,26.4534323 140.54223,26.4534323 C141.592643,26.4534323 142.49787,26.0870209 143.259498,25.3534032 C144.030647,24.6102477 144.415428,23.7272041 144.415428,22.7034776 C144.415428,22.0278817 144.237715,21.4047438 143.880701,20.8348588 C143.524481,20.2657686 143.04767,19.8119271 142.450268,19.4741291 C141.862386,19.145869 141.226902,18.9813415 140.54223,18.9813415 C139.877392,18.9813415 139.246668,19.145869 138.649266,19.4741291 C138.05107,19.8119271 137.574259,20.2657686 137.218039,20.8348588 L137.218039,20.8348588 Z M144.430502,29.769416 C144.121884,29.90533 143.895775,29.9967342 143.75059,30.0452181 C142.729532,30.4410379 141.660078,30.6389477 140.54223,30.6389477 C139.068161,30.6389477 137.675016,30.295586 136.365174,29.6104523 C135.053745,28.9157807 134.013646,27.9699465 133.242497,26.7721546 C132.462621,25.5552872 132.072287,24.1993264 132.072287,22.7034776 C132.072287,21.5740402 132.298395,20.5209054 132.751405,19.5464576 C133.203622,18.5807529 133.826412,17.7406295 134.616602,17.0268823 C135.396477,16.3131351 136.302498,15.7670946 137.33387,15.3903505 C138.364448,14.9945308 139.433902,14.796621 140.54223,14.796621 C141.640244,14.796621 142.710491,14.9897619 143.75059,15.3760438 C144.792275,15.7623257 145.697503,16.3131351 146.468652,17.0268823 C147.277882,17.7605 147.904639,18.5998285 148.347335,19.5464576 C148.800345,20.5209054 149.027247,21.5740402 149.027247,22.7034776 L149.012173,30.2478969 L144.430502,30.2041819 L144.430502,29.769416 Z" id="Fill-217" fill="#000000"></path>
                <path d="M157.618496,18.981262 C156.442732,19.0305408 155.85485,19.8507937 155.85485,21.4436104 L155.85485,30.2041024 L151.229544,30.2041024 L151.229544,21.4436104 C151.229544,17.2247127 153.359723,15.0087581 157.618496,14.7965415 L157.878719,14.7965415 C162.137491,15.0087581 164.267671,17.2247127 164.267671,21.4436104 L164.267671,30.2041024 L159.642365,30.2041024 L159.642365,21.4436104 C159.642365,19.8507937 159.054483,19.0305408 157.878719,18.981262 L157.618496,18.981262 Z" id="Fill-219" fill="#000000"></path>
                <path d="M171.616196,20.8348588 C171.259183,21.4047438 171.080676,22.0278817 171.080676,22.7034776 C171.080676,23.7272041 171.467044,24.6102477 172.237399,25.3534032 C172.998234,26.0870209 173.899495,26.4534323 174.940387,26.4534323 C175.990799,26.4534323 176.896027,26.0870209 177.657655,25.3534032 C178.428804,24.6102477 178.813585,23.7272041 178.813585,22.7034776 C178.813585,22.0278817 178.635872,21.4047438 178.278858,20.8348588 C177.922638,20.2657686 177.445827,19.8119271 176.848425,19.4741291 C176.260543,19.145869 175.625059,18.9813415 174.940387,18.9813415 C174.275549,18.9813415 173.644825,19.145869 173.047423,19.4741291 C172.449227,19.8119271 171.972416,20.2657686 171.616196,20.8348588 L171.616196,20.8348588 Z M178.828659,29.769416 C178.520041,29.90533 178.293932,29.9967342 178.148747,30.0452181 C177.127689,30.4410379 176.058235,30.6389477 174.940387,30.6389477 C173.466318,30.6389477 172.073173,30.295586 170.763331,29.6104523 C169.451902,28.9157807 168.411803,27.9699465 167.640654,26.7721546 C166.860778,25.5552872 166.470443,24.1993264 166.470443,22.7034776 C166.470443,21.5740402 166.696552,20.5209054 167.149562,19.5464576 C167.601779,18.5807529 168.224569,17.7406295 169.014759,17.0268823 C169.794634,16.3131351 170.700655,15.7670946 171.732027,15.3903505 C172.762605,14.9945308 173.832059,14.796621 174.940387,14.796621 C176.038401,14.796621 177.108648,14.9897619 178.148747,15.3760438 C179.190432,15.7623257 180.09566,16.3131351 180.866808,17.0268823 C181.676039,17.7605 182.302796,18.5998285 182.745492,19.5464576 C183.198502,20.5209054 183.425404,21.5740402 183.425404,22.7034776 L183.41033,30.2478969 L178.828659,30.2041819 L178.828659,29.769416 Z" id="Fill-221" fill="#000000"></path>
                <path d="M193.216773,19.2420421 C192.975591,19.0783094 192.662212,18.9869053 192.276638,18.9670348 L192.016415,18.9670348 C190.840651,19.0155187 190.253562,19.8357716 190.253562,21.4285884 L190.253562,30.2041819 L185.628256,30.2041819 L185.628256,21.4285884 C185.628256,17.2096906 187.757642,14.9945308 192.016415,14.7823142 L192.276638,14.7823142 C192.594776,14.791852 192.907361,14.8212603 193.216773,14.8689495 L193.216773,19.2420421 Z" id="Fill-223" fill="#000000"></path>
                <path d="M205.104048,29.929413 C204.227382,30.2862867 203.417358,30.4985033 202.674771,30.5660628 C198.1169,31.0485178 195.838362,28.8723041 195.838362,24.0350374 L195.838362,15.390589 L200.463668,15.390589 L200.463668,23.7171099 C200.463668,24.5953846 200.665976,25.2614427 201.071384,25.7152842 C201.475999,26.1595878 202.04484,26.3813423 202.776321,26.3813423 C203.480034,26.3813423 204.043322,26.1548189 204.467771,25.7009774 C204.872386,25.2463411 205.074694,24.585052 205.074694,23.7171099 L205.074694,15.4048957 L209.7,15.390589 L209.7,31.9562008 C209.7,33.7524911 209.064516,35.2968239 207.792755,36.5899939 C207.214394,37.1694168 206.418651,37.6423339 205.407113,38.0095402 C204.492365,38.3370055 203.571271,38.501533 202.64621,38.501533 L201.880614,38.501533 C199.818664,38.4625868 198.166089,37.8259371 196.922096,36.5899939 C196.113659,35.7602032 195.612253,35.0162529 195.419466,34.3597326 L199.597316,31.9124858 C199.634604,32.6461034 199.919421,33.2644724 200.449387,33.766003 C200.979354,34.2683285 201.610871,34.5194912 202.343145,34.5194912 C202.911193,34.5194912 203.432432,34.3549637 203.90369,34.0267036 C204.34718,33.7278517 204.679599,33.3129563 204.901741,32.7820174 L204.916021,32.7383024 L204.944582,32.6659739 L204.973937,32.5642371 L205.002498,32.4632951 C205.041372,32.3758651 205.065173,32.2645905 205.074694,32.1302661 C205.074694,32.1103956 205.080247,32.0865511 205.088974,32.0579376 L205.088974,31.9124858 L205.104048,31.9124858 L205.104048,29.929413 Z" id="Fill-225" fill="#000000"></path>
                <path d="M79.8720159,48.2133434 L79.8720159,52.8781345 L77.4998605,52.8781345 L77.4998605,48.2133434 C77.4601923,47.5170822 77.1618878,47.1594138 76.6057404,47.1387485 L76.4724554,47.1387485 C75.8710862,47.1594138 75.5704017,47.5758988 75.5704017,48.3913828 L75.5704017,52.8781345 L73.2061799,52.8781345 L73.2061799,48.3913828 C73.2061799,46.2429878 74.294674,45.1103712 76.4724554,44.9919432 L76.6057404,44.9919432 C77.4728861,45.0420167 78.1678721,45.2494644 78.689905,45.6134914 C79.2071777,45.2494644 79.8997836,45.0420167 80.766136,44.9919432 L80.8994209,44.9919432 C83.0779957,45.1103712 84.1664898,46.2429878 84.1664898,48.3913828 L84.1664898,52.8781345 L81.8014747,52.8781345 L81.8014747,48.3913828 C81.8014747,47.5758988 81.5007901,47.1594138 80.8994209,47.1387485 L80.766136,47.1387485 C80.2099885,47.1594138 79.911684,47.5170822 79.8720159,48.2133434" id="Fill-227" fill="#000000"></path>
                <path d="M90.252298,52.7300598 C89.8040479,52.9120733 89.3899124,53.0209635 89.0114783,53.0551407 C86.6797844,53.3023293 85.5143342,52.1887882 85.5143342,49.7161072 L85.5143342,45.2953255 L87.8801426,45.2953255 L87.8801426,49.5531694 C87.8801426,50.0022419 87.9840732,50.3432192 88.1895542,50.5753062 C88.3974153,50.8018296 88.6877862,50.9162835 89.0622535,50.9162835 C89.421647,50.9162835 89.7096377,50.7994451 89.9270192,50.5673581 C90.1348803,50.335271 90.2372241,49.997473 90.2372241,49.5531694 L90.2372241,45.3032737 L92.6030326,45.2953255 L92.6030326,53.7665034 C92.6030326,54.684519 92.2777538,55.4745688 91.6264027,56.135858 C91.3312717,56.4323254 90.9250698,56.6739503 90.4070038,56.8615275 C89.9389196,57.0292343 89.4692487,57.1134851 88.995611,57.1134851 L88.6036897,57.1134851 C87.5501036,57.0936146 86.7043787,56.7677389 86.0688949,56.135858 C85.6547594,55.7114248 85.3992965,55.3307067 85.3001262,54.996088 L87.4366527,53.7442485 C87.4564868,54.1194029 87.6008789,54.4357408 87.872209,54.6924672 C88.1435392,54.9483989 88.4656445,55.0771595 88.8409052,55.0771595 C89.1312761,55.0771595 89.3970527,54.9937035 89.6390284,54.8252019 C89.8651369,54.6718019 90.0357099,54.4603802 90.1483675,54.1885522 L90.1563011,54.1662972 L90.1705816,54.1297356 L90.1856555,54.0772775 L90.2015228,54.0256143 C90.2197701,53.9811045 90.2324639,53.9246723 90.2372241,53.8555231 C90.2372241,53.8451905 90.2396042,53.8332682 90.2443644,53.8181666 L90.2443644,53.7442485 L90.252298,53.7442485 L90.252298,52.7300598 Z" id="Fill-229" fill="#000000"></path>
                <path d="M98.8166516,42.3562448 L98.8166516,45.7326347 C99.0427601,45.5005477 99.3244039,45.3185342 99.6592031,45.1850046 C99.9987625,45.0514751 100.344669,44.9847103 100.693748,44.9847103 C102.591473,44.9847103 103.539542,46.0982513 103.539542,48.3245386 L103.539542,52.8709017 L101.17532,52.878055 L101.17532,48.4874764 C101.17532,48.0336349 101.071389,47.6926577 100.863528,47.4653395 C100.657254,47.2388162 100.36609,47.1243623 99.9916222,47.1243623 C99.6266752,47.1243623 99.3418579,47.2388162 99.1339968,47.4653395 C98.9229623,47.6926577 98.8166516,48.0336349 98.8166516,48.4874764 L98.8166516,52.8709017 L96.4524299,52.8852084 L96.4524299,42.3633982 L98.8166516,42.3562448 Z" id="Fill-231" fill="#000000"></path>
                <path d="M107.614889,50.3975848 C108.003636,50.7783029 108.465374,50.9674698 108.996927,50.9674698 C109.534827,50.9674698 109.997358,50.7783029 110.386899,50.3975848 C110.780407,50.0168666 110.977954,49.5630251 110.977954,49.0344707 C110.977954,48.6895193 110.886718,48.370797 110.705037,48.0798934 C110.521771,47.7889897 110.278208,47.5569027 109.973557,47.3836322 C109.672872,47.2111565 109.347593,47.1245213 108.996927,47.1245213 C108.657368,47.1245213 108.334469,47.2111565 108.028231,47.3836322 C107.723579,47.5569027 107.480017,47.7889897 107.297543,48.0798934 C107.114277,48.370797 107.023833,48.6895193 107.023833,49.0344707 C107.023833,49.5630251 107.221381,50.0168666 107.614889,50.3975848 M106.861987,52.5817466 C106.190802,52.2264627 105.659249,51.7400336 105.264154,51.1232543 C104.865886,50.5009112 104.665958,49.8054448 104.665958,49.0344707 C104.665958,48.4574323 104.782583,47.91934 105.013451,47.4209887 C105.245113,46.9226373 105.563252,46.4902559 105.967074,46.1246393 C106.375656,45.7542538 106.84136,45.4712983 107.364186,45.2733885 C107.895739,45.0762734 108.440779,44.9777159 108.996927,44.9777159 C109.558628,44.9777159 110.106048,45.0762734 110.638395,45.2733885 C111.155668,45.4609657 111.621372,45.7431263 112.034714,46.117486 C112.444089,46.4926404 112.761434,46.9274062 112.988336,47.4209887 C113.219205,47.91934 113.335829,48.4574323 113.335829,49.0344707 C113.335829,49.6218417 113.222378,50.1607288 112.995476,50.6487475 C112.768575,51.1423299 112.448849,51.5794802 112.034714,51.9601984 C111.615818,52.3353528 111.150908,52.6191031 110.638395,52.8114492 C110.120329,53.0133332 109.573702,53.11507 108.996927,53.11507 C108.243232,53.11507 107.531585,52.9370306 106.861987,52.5817466" id="Fill-233" fill="#000000"></path>
                <path d="M121.157833,48.2133434 L121.157833,52.8781345 L118.785678,52.8781345 L118.785678,48.2133434 C118.74601,47.5170822 118.447705,47.1594138 117.891558,47.1387485 L117.758273,47.1387485 C117.156903,47.1594138 116.856219,47.5758988 116.856219,48.3913828 L116.856219,52.8781345 L114.491997,52.8781345 L114.491997,48.3913828 C114.491997,46.2429878 115.580491,45.1103712 117.758273,44.9919432 L117.891558,44.9919432 C118.758703,45.0420167 119.453689,45.2494644 119.975722,45.6134914 C120.492995,45.2494644 121.185601,45.0420167 122.051953,44.9919432 L122.185238,44.9919432 C124.363813,45.1103712 125.452307,46.2429878 125.452307,48.3913828 L125.452307,52.8781345 L123.087292,52.8781345 L123.087292,48.3913828 C123.087292,47.5758988 122.786607,47.1594138 122.185238,47.1387485 L122.051953,47.1387485 C121.495806,47.1594138 121.197501,47.5170822 121.157833,48.2133434" id="Fill-235" fill="#000000"></path>
                <path d="M130.740151,47.1321515 C130.410112,47.1321515 130.099113,47.2156075 129.808743,47.3833143 C129.631823,47.4922044 129.458869,47.6456044 129.29147,47.8435143 L132.188832,47.8435143 C132.020639,47.6456044 131.847685,47.4922044 131.671559,47.3833143 C131.380395,47.2156075 131.07019,47.1321515 130.740151,47.1321515 M134.560987,47.4278241 C134.783129,47.9269703 134.893406,48.4602936 134.893406,49.0277942 L134.893406,49.094559 C134.893406,49.1191983 134.891026,49.1462222 134.887059,49.1756305 L134.871192,49.3012118 L133.955651,49.3012118 L133.955651,49.3163134 L128.870194,49.3163134 C128.928903,49.7312088 129.108203,50.0888772 129.408888,50.3901135 C129.788908,50.7652679 130.231605,50.9528451 130.740151,50.9528451 C131.252663,50.9528451 131.696153,50.7652679 132.07062,50.3901135 L132.084901,50.3750119 L132.107115,50.3456036 L132.129329,50.3233487 L132.144403,50.3010938 L133.415371,52.1228183 C133.050424,52.4184909 132.68151,52.6442194 132.307043,52.7968246 C131.804844,52.9939396 131.282811,53.0924971 130.740151,53.0924971 C130.005497,53.0924971 129.323998,52.9168422 128.693274,52.567122 C128.046683,52.211838 127.537344,51.7254089 127.162084,51.1086296 C126.778096,50.4918503 126.586102,49.7979735 126.586102,49.0277942 C126.586102,48.449961 126.697173,47.9166376 126.919314,47.4278241 C127.140663,46.9350365 127.446108,46.5050396 127.834855,46.1402178 C128.22995,45.7642685 128.67344,45.4805182 129.166119,45.2881721 C129.673077,45.0910571 130.19749,44.9924995 130.740151,44.9924995 C131.282811,44.9924995 131.804844,45.0910571 132.307043,45.2881721 C132.804481,45.4805182 133.250351,45.7618841 133.644653,46.1322696 C134.033401,46.4923225 134.339639,46.9247039 134.560987,47.4278241" id="Fill-237" fill="#000000"></path>
                <path d="M136.20539,51.0417854 C136.333122,50.8343377 136.498141,50.6737843 136.699656,50.56092 C136.907517,50.4416972 137.125691,50.3828806 137.358147,50.3828806 C137.589015,50.3828806 137.808777,50.4416972 138.015051,50.56092 C138.218152,50.6841169 138.380792,50.8470548 138.50297,51.0489387 C138.626734,51.2468486 138.688617,51.4630393 138.688617,51.7006901 C138.688617,52.095715 138.560885,52.4207958 138.303836,52.6783171 C138.042819,52.9398125 137.727061,53.0709575 137.358147,53.0709575 C137.112204,53.0709575 136.886889,53.0113461 136.685375,52.8929182 C136.478307,52.7744902 136.315668,52.6091679 136.197457,52.3961565 C136.080039,52.1799658 136.020537,51.9478787 136.020537,51.7006901 C136.020537,51.4582704 136.081626,51.2389004 136.20539,51.0417854" id="Fill-239" fill="#000000"></path>
                <path d="M151.956423,48.2133434 L151.956423,52.8781345 L149.584267,52.8781345 L149.584267,48.2133434 C149.543806,47.5170822 149.246295,47.1594138 148.690147,47.1387485 L148.556862,47.1387485 C147.955493,47.1594138 147.654809,47.5758988 147.654809,48.3913828 L147.654809,52.8781345 L145.289793,52.8781345 L145.289793,48.3913828 C145.289793,46.2429878 146.378287,45.1103712 148.556862,44.9919432 L148.690147,44.9919432 C149.5565,45.0420167 150.252279,45.2494644 150.774312,45.6134914 C151.291585,45.2494644 151.983397,45.0420167 152.850543,44.9919432 L152.983828,44.9919432 C155.161609,45.1103712 156.250103,46.2429878 156.250103,48.3913828 L156.250103,52.8781345 L153.885882,52.8781345 L153.885882,48.3913828 C153.885882,47.5758988 153.585197,47.1594138 152.983828,47.1387485 L152.850543,47.1387485 C152.294395,47.1594138 151.995298,47.5170822 151.956423,48.2133434" id="Fill-241" fill="#000000"></path>
                <path d="M162.336784,52.7300598 C161.887741,52.9120733 161.473605,53.0209635 161.095171,53.0551407 C158.763477,53.3023293 157.598027,52.1887882 157.598027,49.7161072 L157.598027,45.2953255 L159.964629,45.2953255 L159.964629,49.5531694 C159.964629,50.0022419 160.067766,50.3432192 160.27404,50.5753062 C160.481108,50.8018296 160.771479,50.9162835 161.14674,50.9162835 C161.506133,50.9162835 161.794124,50.7994451 162.011505,50.5673581 C162.218573,50.335271 162.320917,49.997473 162.320917,49.5531694 L162.320917,45.3032737 L164.686725,45.2953255 L164.686725,53.7665034 C164.686725,54.684519 164.36224,55.4745688 163.710889,56.135858 C163.414965,56.4323254 163.009556,56.6739503 162.49149,56.8615275 C162.023406,57.0292343 161.552942,57.1134851 161.080097,57.1134851 L160.688176,57.1134851 C159.633796,57.0936146 158.788072,56.7677389 158.153381,56.135858 C157.739246,55.7114248 157.482989,55.3307067 157.384612,54.996088 L159.520346,53.7442485 C159.54018,54.1194029 159.685365,54.4357408 159.956695,54.6924672 C160.228025,54.9483989 160.550131,55.0771595 160.925391,55.0771595 C161.214969,55.0771595 161.481539,54.9937035 161.723515,54.8252019 C161.949623,54.6718019 162.120196,54.4603802 162.232854,54.1885522 L162.240787,54.1662972 L162.254274,54.1297356 L162.270142,54.0772775 L162.285216,54.0256143 C162.304256,53.9811045 162.31695,53.9246723 162.320917,53.8555231 C162.320917,53.8451905 162.32409,53.8332682 162.328851,53.8181666 L162.328851,53.7442485 L162.336784,53.7442485 L162.336784,52.7300598 Z" id="Fill-243" fill="#000000"></path>
                <polygon id="Fill-245" fill="#000000" points="176.363204 45.2956434 172.379728 53.1818348 168.536678 45.310745 170.938188 45.2956434 172.409083 48.6569318 173.857764 45.2956434"></polygon>
                <path d="M179.078013,48.0798934 C178.896333,48.370797 178.805096,48.6895193 178.805096,49.0344707 C178.805096,49.5582562 179.00185,50.0105081 179.396151,50.3896366 C179.785693,50.7655858 180.246637,50.9523682 180.77819,50.9523682 C181.315297,50.9523682 181.778621,50.7655858 182.168162,50.3896366 C182.562463,50.0105081 182.760011,49.5582562 182.760011,49.0344707 C182.760011,48.6895193 182.66798,48.370797 182.485507,48.0798934 C182.303034,47.7889897 182.059471,47.5569027 181.754026,47.3836322 C181.453342,47.2159254 181.128063,47.1324695 180.77819,47.1324695 C180.43863,47.1324695 180.116525,47.2159254 179.810287,47.3836322 C179.504049,47.5569027 179.260486,47.7889897 179.078013,48.0798934 L179.078013,48.0798934 Z M182.766358,52.6485114 C182.608478,52.7176606 182.493441,52.7645549 182.418865,52.7891943 C181.896832,52.9918731 181.349411,53.0928151 180.77819,53.0928151 C180.024495,53.0928151 179.312055,52.9171601 178.642457,52.5674399 C177.972065,52.2113611 177.440512,51.7281113 177.045417,51.1153061 C176.647149,50.4937578 176.447221,49.7998811 176.447221,49.0344707 C176.447221,48.4574323 176.563052,47.91934 176.794714,47.4209887 C177.026376,46.9274062 177.343721,46.4982041 177.748337,46.1325875 C178.146605,45.7669709 178.609929,45.4879895 179.137515,45.2956434 C179.665102,45.0929646 180.212522,44.9920226 180.77819,44.9920226 C181.340684,44.9920226 181.887311,45.0905802 182.418865,45.2876952 C182.952004,45.4856051 183.414535,45.7669709 183.808836,46.1325875 C184.222179,46.5069471 184.543491,46.9377389 184.769599,47.4209887 C185.001261,47.91934 185.116299,48.4574323 185.116299,49.0344707 L185.109952,52.8933156 L182.766358,52.8702658 L182.766358,52.6485114 Z" id="Fill-247" fill="#000000"></path>
                <polygon id="Fill-249" fill="#000000" points="186.243033 42.3632392 188.601701 42.3560858 188.601701 52.8556412 186.243033 52.8850494"></polygon>
                <path d="M192.994393,50.9525272 L193.126885,50.9525272 C193.728254,50.9334516 194.028939,50.5153769 194.028939,49.7014825 L194.028939,45.2878542 L196.393954,45.2878542 L196.393954,49.7014825 C196.393954,51.8490827 195.304666,52.9816994 193.126885,53.1001274 L192.994393,53.1001274 C190.815819,52.9816994 189.727324,51.8490827 189.727324,49.7014825 L189.727324,45.2878542 L192.09234,45.2878542 L192.09234,49.7014825 C192.09234,50.5153769 192.393024,50.9334516 192.994393,50.9525272" id="Fill-251" fill="#000000"></path>
                <path d="M201.674895,47.1321515 C201.344063,47.1321515 201.033065,47.2156075 200.743487,47.3833143 C200.565774,47.4922044 200.393614,47.6456044 200.226214,47.8435143 L203.122783,47.8435143 C202.95459,47.6456044 202.78243,47.4922044 202.60551,47.3833143 C202.315139,47.2156075 202.004934,47.1321515 201.674895,47.1321515 M205.494938,47.4278241 C205.717873,47.9269703 205.827357,48.4602936 205.827357,49.0277942 L205.827357,49.094559 C205.827357,49.1191983 205.824977,49.1462222 205.82101,49.1756305 L205.805936,49.3012118 L204.889602,49.3012118 L204.889602,49.3163134 L199.804939,49.3163134 C199.863648,49.7312088 200.042948,50.0888772 200.343632,50.3901135 C200.723653,50.7652679 201.16635,50.9528451 201.674895,50.9528451 C202.186614,50.9528451 202.630104,50.7652679 203.004572,50.3901135 L203.019646,50.3750119 L203.04186,50.3456036 L203.06328,50.3233487 L203.079148,50.3010938 L204.349322,52.1228183 C203.985168,52.4184909 203.615461,52.6442194 203.241787,52.7968246 C202.738795,52.9939396 202.216762,53.0924971 201.674895,53.0924971 C200.940241,53.0924971 200.257949,52.9168422 199.627225,52.567122 C198.981428,52.211838 198.472089,51.7254089 198.096828,51.1086296 C197.71284,50.4918503 197.520847,49.7979735 197.520847,49.0277942 C197.520847,48.449961 197.631124,47.9166376 197.854059,47.4278241 C198.075407,46.9350365 198.380852,46.5050396 198.7696,46.1402178 C199.163901,45.7642685 199.608185,45.4805182 200.100863,45.2881721 C200.607029,45.0910571 201.132235,44.9924995 201.674895,44.9924995 C202.216762,44.9924995 202.738795,45.0910571 203.241787,45.2881721 C203.739226,45.4805182 204.185096,45.7618841 204.578604,46.1322696 C204.967352,46.4923225 205.27359,46.9247039 205.494938,47.4278241" id="Fill-253" fill="#000000"></path>
                <path d="M207.138548,51.0417854 C207.267073,50.8343377 207.432093,50.6737843 207.6344,50.56092 C207.841468,50.4416972 208.060436,50.3828806 208.291305,50.3828806 C208.52376,50.3828806 208.741935,50.4416972 208.949796,50.56092 C209.15131,50.6841169 209.31395,50.8470548 209.437714,51.0489387 C209.560685,51.2468486 209.622568,51.4630393 209.622568,51.7006901 C209.622568,52.095715 209.494043,52.4207958 209.237787,52.6783171 C208.975977,52.9398125 208.661805,53.0709575 208.291305,53.0709575 C208.045362,53.0709575 207.821634,53.0113461 207.618533,52.8929182 C207.413052,52.7744902 207.250412,52.6091679 207.131408,52.3961565 C207.013197,52.1799658 206.954488,51.9478787 206.954488,51.7006901 C206.954488,51.4582704 207.01637,51.2389004 207.138548,51.0417854" id="Fill-255" fill="#000000"></path>
                <g id="the-canary" transform="translate(9.723335, 9.741176)">
                    <path d="M50.0619987,26.3193887 C50.0619987,39.4887401 39.4063402,50.1639504 26.2611087,50.1639504 C13.1158771,50.1639504 2.46021866,39.4887401 2.46021866,26.3193887 C2.46021866,13.1500373 13.1158771,2.47482705 26.2611087,2.47482705 C39.4063402,2.47482705 50.0619987,13.1500373 50.0619987,26.3193887" id="Fill-257" fill="#FFFFFF"></path>
                    <path d="M37.5150422,13.4731311 C36.7581739,13.1138731 35.8727808,13.2871435 35.3055262,13.8633871 C35.4657855,13.9714825 35.6204913,14.0851415 35.7688502,14.205954 L35.8569135,14.267155 C36.4138543,14.7074846 36.9327137,15.1811966 37.411905,15.6819323 C37.4714072,15.6040401 37.5269426,15.5229686 37.5745444,15.4339489 C37.9220374,14.7957095 37.8736423,14.0485799 37.5150422,13.4731311" id="Fill-259" fill="#FFFE71"></path>
                    <path d="M32.1258067,19.4554137 C32.0083889,19.4180572 31.8909712,19.3846748 31.7735535,19.3528821 C31.7362654,19.3425495 31.698184,19.3338064 31.6601026,19.3242686 C31.5799729,19.3043982 31.4998432,19.2845277 31.4189202,19.2670417 C31.3752853,19.2575039 31.3308569,19.2487608 31.287222,19.2400178 C31.2118525,19.2249163 31.136483,19.2106095 31.0611135,19.1978924 C31.0158918,19.1907391 30.9714635,19.1827909 30.9270352,19.1764323 C30.8484922,19.1645101 30.7699493,19.1541774 30.6914063,19.1446396 C30.6509448,19.1398707 30.6112767,19.134307 30.5716085,19.1303329 C30.4629178,19.1192054 30.3542271,19.1104624 30.2463297,19.1041038 C30.2264956,19.1025142 30.2074549,19.1017194 30.1876208,19.1009246 C30.0828969,19.0953608 29.9789664,19.0921816 29.8750358,19.0905919 C29.8306075,19.0905919 29.7869725,19.0913867 29.7425442,19.0913867 C29.6703482,19.0921816 29.5989455,19.0929764 29.5275428,19.0953608 C29.4767676,19.0969505 29.4267857,19.0993349 29.3768039,19.1025142 C29.3117481,19.1056935 29.245899,19.1104624 29.1808432,19.1152313 C29.1292746,19.1200002 29.077706,19.1239743 29.025344,19.1287432 C28.961875,19.1358966 28.8976126,19.14305 28.8341436,19.151793 C28.782575,19.1581515 28.7317997,19.1637152 28.6810245,19.1716634 C28.6104152,19.1819961 28.5398059,19.1939184 28.4699899,19.2066355 C28.3835134,19.221737 28.2978302,19.2384282 28.212147,19.256709 C28.1526447,19.2686313 28.0923492,19.2813484 28.0336403,19.2948603 C27.9733447,19.3091671 27.9138425,19.3250634 27.8551336,19.3409598 C27.8059451,19.3536769 27.7567566,19.366394 27.7075681,19.3799059 C27.6456858,19.3973919 27.5845968,19.4164676 27.5227145,19.4355432 C27.4782862,19.4490552 27.4346512,19.4633619 27.3902229,19.4776686 C27.3259605,19.4991287 27.2624915,19.5205888 27.1990224,19.5436386 C27.160941,19.5571505 27.1236529,19.5714572 27.0855715,19.585764 C27.0173423,19.6111982 26.9491131,19.6374272 26.8816772,19.6652459 C26.8689834,19.6700148 26.857083,19.6755785 26.8443892,19.6811422 C26.5873395,19.7876479 26.3366368,19.9092552 26.092281,20.0435796 C26.0708602,20.0555018 26.0494394,20.0666293 26.028812,20.0785516 C25.9558226,20.1190873 25.8844199,20.1612127 25.8130173,20.204133 C25.7923898,20.2168501 25.7717624,20.2295671 25.7511349,20.2422842 C25.6971863,20.2756666 25.6448243,20.3098438 25.591669,20.3448159 C25.5718349,20.3567381 25.5527942,20.3686604 25.5329601,20.3813775 C25.521853,20.3893257 25.5099526,20.3972739 25.4980521,20.4052221 C25.1672198,20.6277713 24.8538414,20.8765496 24.5602971,21.1491724 C24.557917,21.1515569 24.5555369,21.1531465 24.5531568,21.155531 C24.4809608,21.2222957 24.4103515,21.2906501 24.3413289,21.3605942 C24.334982,21.3669527 24.3294284,21.3725165 24.3230815,21.378875 C23.9621014,21.7444916 23.6352358,22.1474647 23.3496251,22.5862047 L23.3440716,22.5838202 C23.3226508,22.6211767 23.3004366,22.6577383 23.2782225,22.6943 C23.2766357,22.6966845 23.2758424,22.6990689 23.2742557,22.7014534 C22.1270528,24.6026598 19.7929788,25.5421355 17.588223,24.8379261 C16.3831046,24.4532338 15.4294823,23.6449032 14.8400136,22.6299197 C14.2219838,25.1121386 14.4552325,27.6309191 15.3683934,29.8564115 C16.6282538,32.9252066 19.1812959,35.4352441 22.5840298,36.5217613 C28.3248045,38.3554081 34.4233859,35.4781643 36.7590466,30.0487576 C36.8129953,29.9319193 36.8653572,29.8126965 36.9137524,29.6910892 C36.9296196,29.6529379 36.9454869,29.6147866 36.9605608,29.5766353 C36.9772214,29.5321255 36.993882,29.4876156 37.0105426,29.442311 C37.0478307,29.341369 37.083532,29.2388374 37.1168533,29.1355109 C38.4068615,25.0811406 36.171958,20.747789 32.1258067,19.4554137" id="Fill-261" fill="#FFFE71"></path>
                    <path d="M32.4556077,40.2942889 L32.4556077,42.784456 C32.4556077,43.169943 32.7705728,43.4854861 33.1553538,43.4854861 C33.5401349,43.4854861 33.8551,43.169943 33.8551,42.784456 L33.8551,39.5884899 C33.3997096,39.8483956 32.9324188,40.0836619 32.4556077,40.2942889" id="Fill-263" fill="#000000"></path>
                    <path d="M33.1874057,15.372271 C33.1437707,14.8031808 32.6487122,14.3771579 32.0806643,14.4200781 C31.5126164,14.4637932 31.0873738,14.9605549 31.1302154,15.5296451 C31.1738504,16.0987353 31.6689089,16.5247581 32.2369568,16.4810431 C32.8050047,16.4381229 33.2310406,15.9413612 33.1874057,15.372271" id="Fill-265" fill="#000000"></path>
                    <path d="M30.4696614,38.1798327 C30.0848803,38.1798327 29.7699152,38.4953757 29.7699152,38.8808628 L29.7699152,41.1945801 L29.7699152,43.4288155 C29.7699152,43.8143026 30.0848803,44.1298456 30.4696614,44.1298456 C30.8544424,44.1298456 31.1694076,43.8143026 31.1694076,43.4288155 L31.1694076,40.7939914 L31.1694076,38.8808628 C31.1694076,38.4953757 30.8544424,38.1798327 30.4696614,38.1798327" id="Fill-267" fill="#000000"></path>
                    <path d="M32.2372742,16.4812021 C31.6692262,16.5249171 31.1733744,16.0980994 31.1305328,15.5290092 C31.0868978,14.959919 31.5121404,14.4639521 32.0801883,14.4202371 C32.6482362,14.3773169 33.1440881,14.8033397 33.187723,15.3724299 C33.2305646,15.9415201 32.8053221,16.437487 32.2372742,16.4812021 M37.412381,15.6816144 C36.9323964,15.1808786 36.413537,14.7079615 35.8565962,14.2668371 L35.7693262,14.2064309 C35.6209674,14.0856184 35.4654682,13.9711645 35.3052089,13.8630692 C34.8410915,13.5515002 34.3277857,13.2963634 33.7708448,13.1119655 C30.4577609,12.0159105 26.8852474,13.8177645 25.7911998,17.1369275 C25.4373599,18.2099328 25.3865846,19.3099619 25.5912723,20.3448159 C25.6444276,20.3098438 25.6975829,20.2756666 25.7515316,20.2422842 C25.7721591,20.2295671 25.7927865,20.2168501 25.8134139,20.204133 C25.8848166,20.1612127 25.9562193,20.1190873 26.0284153,20.0785516 C26.0498361,20.0666293 26.0712569,20.054707 26.0918844,20.0435796 C26.3362402,19.9092552 26.5869429,19.7876479 26.8447858,19.6811422 C26.8566863,19.6755785 26.8693801,19.6700148 26.8812805,19.6652459 C26.9487164,19.6374272 27.017739,19.6111982 27.0859682,19.585764 C27.1232563,19.5714572 27.1613377,19.5571505 27.1994191,19.5436386 C27.2620948,19.5205888 27.3263572,19.4991287 27.3906196,19.4776686 C27.4342545,19.4633619 27.4786829,19.4490552 27.5231112,19.4355432 C27.5842002,19.4164676 27.6460825,19.3973919 27.7079648,19.3799059 C27.7563599,19.366394 27.8055484,19.3536769 27.8547369,19.3409598 C27.9142392,19.3250634 27.9737414,19.3091671 28.0332436,19.2948603 C28.0927458,19.2813484 28.1522481,19.2686313 28.2125437,19.256709 C28.2974335,19.2384282 28.3839101,19.221737 28.4703866,19.2066355 C28.5402026,19.1939184 28.6100185,19.1819961 28.6806278,19.1708686 C28.7314031,19.1637152 28.7829716,19.1581515 28.8337469,19.151793 C28.8980093,19.14305 28.9614783,19.1358966 29.0257407,19.1287432 C29.0773093,19.1239743 29.1288779,19.1192054 29.1812399,19.1152313 C29.2462956,19.1104624 29.3113514,19.1056935 29.3772005,19.1025142 C29.4271824,19.0993349 29.4771643,19.0969505 29.5271461,19.0953608 C29.5985488,19.0929764 29.6707448,19.0921816 29.7429409,19.0913867 C29.7865758,19.0913867 29.8310042,19.0897971 29.8754325,19.0905919 C29.9793631,19.0921816 30.0832936,19.0953608 30.1872242,19.1009246 C30.2070582,19.1017194 30.2268923,19.1025142 30.245933,19.1041038 C30.3546238,19.1104624 30.4633145,19.1192054 30.5720052,19.1303329 C30.6116734,19.134307 30.6513415,19.1398707 30.6910097,19.1446396 C30.7695526,19.1541774 30.8480955,19.1645101 30.9274318,19.1764323 C30.9718602,19.1827909 31.0162885,19.1907391 31.0607168,19.1978924 C31.1360863,19.2106095 31.2114558,19.2249163 31.2868253,19.2400178 C31.3312536,19.2487608 31.3748886,19.2575039 31.4193169,19.2670417 C31.4994466,19.2845277 31.5803696,19.3043982 31.6604993,19.3242686 C31.6977873,19.3338064 31.7358687,19.3425495 31.7739502,19.3528821 C31.8913679,19.38388 32.0087856,19.4180572 32.1262033,19.4554137 C36.1723546,20.747789 38.4064648,25.0811406 37.11725,29.1347161 C37.0839287,29.2388374 37.047434,29.341369 37.010146,29.442311 C36.9942787,29.4876156 36.9776181,29.5321255 36.9601641,29.5766353 C36.9450902,29.6147866 36.9292229,29.6529379 36.914149,29.6910892 C36.8649605,29.8126965 36.8133919,29.9319193 36.7586499,30.0487576 C34.4237826,35.4781643 28.3252012,38.3554081 22.5844265,36.5217613 C19.1816926,35.4352441 16.6286505,32.9252066 15.36879,29.8564115 C13.8114185,29.6465794 12.3524239,29.1275627 11.0536887,28.363742 C11.6645782,32.7050418 14.1128964,36.7570277 18.1130327,39.2638859 C21.7291812,41.5299141 25.9221047,42.1021836 29.7699152,41.1945006 L29.7699152,38.8807833 C29.7699152,38.4952962 30.0848803,38.1797532 30.4696614,38.1797532 C30.8544424,38.1797532 31.1694076,38.4952962 31.1694076,38.8807833 L31.1694076,40.7939119 C31.6049638,40.6468705 32.0341732,40.4807534 32.455449,40.293971 C32.9330535,40.083344 33.3995509,39.8480777 33.8549413,39.5889668 C35.9930546,38.3705097 37.8693581,36.6187292 39.2648836,34.3829041 C43.0714393,28.2874394 42.1519316,20.6301558 37.412381,15.6816144" id="Fill-269" fill="#FFE600"></path>
                    <path d="M26.2111268,47.7972187 C14.3559035,47.7972187 4.71178286,38.1354023 4.71178286,26.2584261 C4.71178286,14.3822448 14.3559035,4.71963357 26.2111268,4.71963357 C38.0655568,4.71963357 47.7104708,14.3822448 47.7104708,26.2584261 C47.7104708,38.1354023 38.0655568,47.7972187 26.2111268,47.7972187 M26.2111268,0 C11.758433,0 0,11.7792135 0,26.2584261 C0,40.7376388 11.758433,52.5176471 26.2111268,52.5176471 C40.6638206,52.5176471 52.4222536,40.7376388 52.4222536,26.2584261 C52.4222536,11.7792135 40.6638206,0 26.2111268,0" id="Fill-271" fill="#FFE600"></path>
                </g>
            </g>
        </g>
    </g>
</svg>