<?xml version="1.0" encoding="UTF-8"?>
<svg width="60px" height="60px" viewBox="0 0 60 60" version="1.1" xmlns="http://www.w3.org/2000/svg" xmlns:xlink="http://www.w3.org/1999/xlink">
    <title>Logo_mycanary</title>
    <defs>
        <filter x="-7.4%" y="-7.9%" width="114.9%" height="115.8%" filterUnits="objectBoundingBox" id="filter-1">
            <feOffset dx="0" dy="8" in="SourceAlpha" result="shadowOffsetOuter1"></feOffset>
            <feGaussianBlur stdDeviation="7" in="shadowOffsetOuter1" result="shadowBlurOuter1"></feGaussianBlur>
            <feColorMatrix values="0 0 0 0 0   0 0 0 0 0   0 0 0 0 0  0 0 0 0.1 0" type="matrix" in="shadowBlurOuter1" result="shadowMatrixOuter1"></feColorMatrix>
            <feMerge>
                <feMergeNode in="shadowMatrixOuter1"></feMergeNode>
                <feMergeNode in="SourceGraphic"></feMergeNode>
            </feMerge>
        </filter>
    </defs>
    <g id="REX-desktop" stroke="none" stroke-width="1" fill="none" fill-rule="evenodd">
        <g id="06.1c.New" transform="translate(-490.000000, -530.000000)">
            <g id="Group-2" filter="url(#filter-1)" transform="translate(391.000000, 130.000000)">
                <g id="Group-9-Copy-4" transform="translate(88.000000, 397.000000)">
                    <g id="Logo_mycanary" transform="translate(25.000000, 9.000000)">
                        <path d="M30.5593406,16.037068 C30.5593406,24.0610892 24.0545422,30.5658875 16.030521,30.5658875 C8.00649985,30.5658875 1.5017015,24.0610892 1.5017015,16.037068 C1.5017015,8.01304681 8.00649985,1.50824845 16.030521,1.50824845 C24.0545422,1.50824845 30.5593406,8.01304681 30.5593406,16.037068" id="Fill-403" fill="#FFFFFF"></path>
                        <path d="M22.9002532,8.20966735 C22.4379629,7.99065057 21.897486,8.09639093 21.5512982,8.44752429 C21.649267,8.51322932 21.7439388,8.58270238 21.834607,8.65641448 L21.8880659,8.69315278 C22.2281307,8.96186047 22.5446453,9.25035031 22.8373742,9.55532529 C22.8734059,9.5082249 22.9073182,9.458534 22.936756,9.40460406 C23.1487077,9.0155549 23.1192699,8.5603297 22.9002532,8.20966735" id="Fill-405" fill="#FFFE71"></path>
                        <path d="M19.6105034,11.8547189 C19.5389108,11.8318752 19.4673182,11.8113865 19.3957256,11.7920754 C19.3726465,11.7859523 19.3493318,11.7805358 19.3262526,11.7748837 C19.2772682,11.7624021 19.2282838,11.750627 19.1792994,11.7400294 C19.1522167,11.7341419 19.1253694,11.7287253 19.0985222,11.7233088 C19.0525994,11.7141242 19.006441,11.7056462 18.9602826,11.6978746 C18.9331999,11.6931646 18.9058817,11.68869 18.8787989,11.6846865 C18.8307565,11.6773859 18.7827142,11.6712629 18.7346718,11.6656108 C18.7104151,11.6625493 18.6861584,11.6592523 18.6619017,11.6566618 C18.5954901,11.6498322 18.5293141,11.6444157 18.4631381,11.6404121 C18.4511275,11.6397056 18.4393524,11.6392346 18.4273418,11.6385281 C18.3635208,11.6352311 18.2999352,11.6331116 18.2365852,11.632357 C18.2095025,11.6321696 18.1826553,11.6328761 18.1555726,11.6328761 C18.1117692,11.6331116 18.0679659,11.6338181 18.024398,11.6352311 C17.9935472,11.6364086 17.9631675,11.6378216 17.9325523,11.6394701 C17.8925169,11.6415896 17.8527171,11.6444157 17.8129173,11.6474772 C17.7811245,11.6500677 17.7495673,11.6526582 17.7182455,11.6559553 C17.6789167,11.6597233 17.6400589,11.6646688 17.6009656,11.6696144 C17.5698793,11.6733824 17.5385576,11.6771504 17.5074713,11.681625 C17.4643744,11.6879835 17.4217486,11.6955196 17.3788873,11.7030556 C17.3261348,11.7122402 17.2738534,11.7223668 17.221572,11.7334354 C17.1850692,11.7412069 17.1485664,11.7485075 17.1122991,11.7569856 C17.0757963,11.7656991 17.039529,11.7753547 17.0032617,11.7847748 C16.973353,11.7927819 16.9434442,11.8003179 16.913771,11.808796 C16.8758552,11.8193936 16.8381749,11.8309332 16.8007301,11.8424728 C16.7736473,11.8509508 16.7465646,11.8594289 16.7197174,11.868378 C16.6806241,11.8813306 16.6417663,11.8945187 16.603144,11.9084133 C16.5798293,11.9166559 16.5569856,11.9253694 16.5339064,11.934083 C16.4922225,11.9498616 16.4505387,11.9656403 16.4090904,11.9823609 C16.4015543,11.9856579 16.3942538,11.988955 16.3867177,11.9920165 C16.2296379,12.0572505 16.0763262,12.1311981 15.9272535,12.2131528 C15.9145364,12.2202178 15.9013482,12.2270474 15.8886311,12.234348 C15.8443568,12.2590757 15.8005534,12.2847454 15.7569856,12.3111216 C15.744504,12.3186576 15.7317869,12.3264292 15.7193053,12.3342008 C15.6865705,12.3544539 15.6540712,12.3754136 15.6218075,12.3963733 C15.6100324,12.4041448 15.5980218,12.4112099 15.5862467,12.4189815 C15.5789461,12.423927 15.5718811,12.4288725 15.564816,12.4335826 C15.3629909,12.5692317 15.1715278,12.7206594 14.9920754,12.8866883 C14.9906623,12.8881013 14.9892493,12.8892788 14.9878363,12.8906918 C14.944033,12.9314336 14.9009361,12.9731175 14.8585458,13.0155078 C14.8550132,13.0192758 14.8512452,13.0230439 14.8474772,13.0268119 C14.6270474,13.2493612 14.4275773,13.4952252 14.2535414,13.7625199 L14.2500088,13.7608714 C14.2370562,13.783715 14.2233971,13.8060877 14.209738,13.8284604 C14.208796,13.8298734 14.2080895,13.8312864 14.2071475,13.8326994 C13.5070003,14.9908979 12.0822137,15.5636385 10.7363203,15.134554 C10.0003768,14.8999941 9.41868708,14.4075596 9.05836915,13.7888961 C8.68156609,15.3015249 8.82380924,16.8362908 9.38147777,18.1923109 C10.1503915,20.0619606 11.7089432,21.5915455 13.7860701,22.2535414 C17.2903385,23.3705269 21.0131528,21.6176862 22.4386459,18.3095908 C22.4718516,18.2379982 22.5034089,18.1654636 22.5333176,18.091516 C22.5427377,18.0684369 22.5523933,18.0451222 22.5615779,18.021572 C22.5719399,17.9947248 22.582302,17.9674065 22.5921931,17.9400883 C22.6150368,17.8783868 22.6369385,17.8159788 22.6571916,17.7526288 C23.4444745,15.2826847 22.0804475,12.6420018 19.6105034,11.8547189" id="Fill-407" fill="#FFFE71"></path>
                        <path d="M19.8118104,24.5521813 L19.8118104,26.0692847 C19.8118104,26.3043156 20.00398,26.4964851 20.2390109,26.4964851 C20.4740418,26.4964851 20.6662114,26.3043156 20.6662114,26.0692847 L20.6662114,24.1223903 C20.3880836,24.2804121 20.1031263,24.4238328 19.8118104,24.5521813" id="Fill-409" fill="#000000"></path>
                        <path d="M20.2585576,9.36682956 C20.2321813,9.02017074 19.9295614,8.76041213 19.5829026,8.78678834 C19.2360082,8.81316456 18.9764851,9.11578452 19.0028613,9.46244333 C19.0292376,9.80933765 19.3318575,10.0688608 19.6785163,10.0424845 C20.0251752,10.0161083 20.2849338,9.71348837 20.2585576,9.36682956" id="Fill-411" fill="#000000"></path>
                        <path d="M18.5995643,23.263821 C18.3645334,23.263821 18.1723639,23.4559906 18.1723639,23.6910215 L18.1723639,25.1007359 L18.1723639,26.461937 C18.1723639,26.6967324 18.3645334,26.888902 18.5995643,26.888902 C18.8345952,26.888902 19.0267648,26.6967324 19.0267648,26.461937 L19.0267648,24.856756 L19.0267648,23.6910215 C19.0267648,23.4559906 18.8345952,23.263821 18.5995643,23.263821" id="Fill-413" fill="#000000"></path>
                        <path d="M19.6785163,10.0425316 C19.3318575,10.0689079 19.0292376,9.80914925 19.0028613,9.46249043 C18.9764851,9.11583162 19.2360082,8.81321166 19.5829026,8.78683544 C19.9295614,8.76045923 20.2321813,9.01998234 20.2585576,9.36687666 C20.2849338,9.71353547 20.0251752,10.0161554 19.6785163,10.0425316 M22.8373035,9.55551369 C22.5445746,9.25030321 22.2280601,8.96181336 21.8879953,8.69334118 L21.8345364,8.65636738 C21.7438681,8.58289079 21.6491963,8.51318222 21.5512276,8.44747719 C21.2676832,8.25742714 20.9544657,8.10199588 20.6146364,7.98989697 C18.5923815,7.32177804 16.4113983,8.41968796 15.7435149,10.4419429 C15.5275596,11.0959317 15.4967089,11.7661702 15.6217604,12.3963733 C15.6540241,12.3754136 15.6865234,12.3544539 15.7192582,12.3342008 C15.7319753,12.3264292 15.7444569,12.3186576 15.757174,12.3111216 C15.8005063,12.2847454 15.8443097,12.2590757 15.888584,12.234348 C15.9015366,12.2270474 15.9144893,12.2202178 15.9272064,12.2131528 C16.0762791,12.1311981 16.2295908,12.057486 16.3866706,11.9920165 C16.3942067,11.988955 16.4015072,11.9856579 16.4092788,11.9823609 C16.4504916,11.9656403 16.4921754,11.9498616 16.5338593,11.934083 C16.5569385,11.9253694 16.5797822,11.9166559 16.6030969,11.9084133 C16.6417192,11.8945187 16.680577,11.8813306 16.7196703,11.868378 C16.746753,11.8594289 16.7736002,11.8509508 16.800683,11.8424728 C16.8383633,11.8309332 16.8758081,11.8196291 16.9137239,11.808796 C16.9433971,11.8005534 16.9733059,11.7927819 17.0032146,11.7847748 C17.0394819,11.7753547 17.0757492,11.7656991 17.112252,11.7569856 C17.1485193,11.7485075 17.1850221,11.7412069 17.2215249,11.7334354 C17.2738063,11.7223668 17.3260877,11.7122402 17.3788402,11.7030556 C17.4217015,11.6955196 17.4645628,11.6879835 17.5074242,11.681625 C17.5385105,11.6771504 17.5698322,11.6733824 17.6009185,11.6696144 C17.6400118,11.6646688 17.6788696,11.6597233 17.7181984,11.6559553 C17.7495202,11.6526582 17.7810774,11.6500677 17.8128702,11.6474772 C17.85267,11.6444157 17.8924698,11.6418251 17.9325052,11.6394701 C17.9631204,11.6378216 17.9937356,11.6364086 18.0243509,11.6352311 C18.0679188,11.6338181 18.1117221,11.6333471 18.155761,11.6328761 C18.1826082,11.6328761 18.2094554,11.6321696 18.2365381,11.6324051 C18.3001236,11.6333471 18.3637092,11.6352311 18.4272947,11.6385281 C18.4393053,11.6392346 18.4513159,11.6397056 18.463091,11.6404121 C18.529267,11.6444157 18.595443,11.6500677 18.6618546,11.6568973 C18.6861113,11.6592523 18.710368,11.6625493 18.7346247,11.6656108 C18.7826671,11.6712629 18.8307094,11.6773859 18.8787518,11.6846865 C18.9058346,11.68869 18.9331528,11.6934001 18.960471,11.6978746 C19.0063939,11.7056462 19.0525523,11.7141242 19.0984751,11.7233088 C19.1255578,11.7287253 19.1524051,11.7341419 19.1792523,11.7400294 C19.2282367,11.750627 19.2772211,11.7624021 19.3262055,11.7748837 C19.3495202,11.7805358 19.3725994,11.7859523 19.3956785,11.7920754 C19.4672711,11.8113865 19.5390992,11.8318752 19.6104563,11.8547189 C22.0804004,12.6420018 23.4446629,15.2826847 22.6571445,17.7526288 C22.6371269,17.8159788 22.6149897,17.8783868 22.592146,17.9400883 C22.5822549,17.9674065 22.5721283,17.9947248 22.5615308,18.0218075 C22.5523462,18.0451222 22.5426906,18.0684369 22.5332705,18.091516 C22.5033618,18.1654636 22.47204,18.2379982 22.4385988,18.3095908 C21.0131057,21.6176862 17.2902914,23.3705269 13.786023,22.2535414 C11.7088961,21.5915455 10.1503444,20.0619606 9.38143067,18.1923109 C8.43094495,18.0644333 7.54027671,17.7481543 6.74757727,17.2828025 C7.1201413,19.9281955 8.61463644,22.3967265 11.0567913,23.9244274 C13.2639152,25.3051752 15.823821,25.653718 18.1724816,25.1007595 L18.1724816,23.691045 C18.1724816,23.4560141 18.3646512,23.2638446 18.5994466,23.2638446 C18.8344775,23.2638446 19.026647,23.4560141 19.026647,23.691045 L19.026647,24.8567795 C19.2925287,24.7670533 19.5544068,24.665552 19.8118104,24.5522755 C20.1028908,24.423927 20.3880836,24.2805063 20.6662114,24.122249 C21.971363,23.379947 23.1163733,22.3126523 23.9686547,20.9502738 C26.2918811,17.2364086 25.7309155,12.5704092 22.8373035,9.55551369" id="Fill-415" fill="#FFE600"></path>
                        <path d="M16,29.1238151 C8.7634972,29.1238151 2.87618487,23.2365028 2.87618487,16 C2.87618487,8.7634972 8.7634972,2.87618487 16,2.87618487 C23.2365028,2.87618487 29.1238151,8.7634972 29.1238151,16 C29.1238151,23.2365028 23.2365028,29.1238151 16,29.1238151 M16,-3.55271368e-15 C7.17762732,-3.55271368e-15 0,7.17762732 0,16 C0,24.8223727 7.17762732,32 16,32 C24.8223727,32 32,24.8223727 32,16 C32,7.17762732 24.8223727,-3.55271368e-15 16,-3.55271368e-15" id="Fill-417" fill="#FFE600"></path>
                    </g>
                </g>
            </g>
        </g>
    </g>
</svg>