<?xml version="1.0" encoding="UTF-8"?>
<svg width="557px" height="290px" viewBox="0 0 557 290" version="1.1" xmlns="http://www.w3.org/2000/svg" xmlns:xlink="http://www.w3.org/1999/xlink">
    <title>logo</title>
    <defs>
        <filter x="-35.3%" y="-35.3%" width="170.6%" height="170.6%" filterUnits="objectBoundingBox" id="filter-1">
            <feGaussianBlur stdDeviation="20" in="SourceGraphic"></feGaussianBlur>
        </filter>
    </defs>
    <g id="REX-desktop" stroke="none" stroke-width="1" fill="none" fill-rule="evenodd">
        <g id="01.Landing-A" transform="translate(-13.000000, -52.000000)">
            <g id="logo" transform="translate(73.000000, 112.000000)">
                <circle id="white-halo" fill="#FFFFFF" filter="url(#filter-1)" cx="85" cy="85" r="85"></circle>
                <path d="M201.337992,49.8091472 L201.337992,71.3512736 L190.361435,71.3512736 L190.361435,49.8091472 C190.179399,46.5963133 188.800058,44.9429799 186.225286,44.8510238 L185.609743,44.8510238 C182.82854,44.9429799 181.437939,46.870305 181.437939,50.6292456 L181.437939,71.3512736 L170.497038,71.3512736 L170.497038,50.6292456 C170.497038,40.7148755 175.533981,35.4827605 185.609743,34.9366538 L186.225286,34.9366538 C190.235699,35.1637291 193.450409,36.1227 195.867541,37.8079364 C198.260277,36.1227 201.461851,35.1637291 205.47414,34.9366538 L206.089683,34.9366538 C216.163569,35.4827605 221.202388,40.7148755 221.202388,50.6292456 L221.202388,71.3512736 L210.261488,71.3512736 L210.261488,50.6292456 C210.261488,46.870305 208.870886,44.9429799 206.089683,44.8510238 L205.47414,44.8510238 C202.897492,44.9429799 201.520027,46.5963133 201.337992,49.8091472" id="Fill-211" fill="#000000"></path>
                <path d="M249.355784,70.6666697 C247.282079,71.5092879 245.366014,72.0103549 243.609465,72.1698706 C232.82808,73.3090004 227.438326,68.1707181 227.438326,56.7493939 L227.438326,36.3388907 L238.379227,36.3388907 L238.379227,55.9987317 C238.379227,58.0724359 238.857774,59.645073 239.816745,60.7166432 C240.773839,61.7656935 242.119401,62.2892804 243.849677,62.2892804 C245.51427,62.2892804 246.846695,61.7544336 247.850706,60.6828634 C248.8078,59.6094166 249.286347,58.0480393 249.286347,55.9987317 L249.286347,36.3726705 L260.227248,36.3388907 L260.227248,75.4521407 C260.227248,79.6933818 258.724047,83.339723 255.715768,86.3930412 C254.347687,87.761123 252.465401,88.8777329 250.072666,89.7447476 C247.908882,90.5179296 245.730086,90.9063973 243.541905,90.9063973 L241.730933,90.9063973 C236.853506,90.8144412 232.944433,89.3112403 230.001837,86.3930412 C228.089526,84.4338131 226.903479,82.6772637 226.447452,81.1271464 L236.329919,75.3489247 C236.418122,77.0810776 237.091841,78.5411154 238.345447,79.7252849 C239.599053,80.9113311 241.09287,81.5043541 242.825023,81.5043541 C244.168708,81.5043541 245.401671,81.1158865 246.516404,80.3408278 C247.565454,79.6352054 248.351773,78.6555914 248.877236,77.4019856 L248.911016,77.2987696 L248.978576,77.1279939 L249.048012,76.8877821 L249.115572,76.6494468 C249.207528,76.4430148 249.263827,76.180283 249.286347,75.8631283 C249.286347,75.8162119 249.299484,75.7599122 249.320127,75.6923526 L249.320127,75.3489247 L249.355784,75.3489247 L249.355784,70.6666697 Z" id="Fill-213" fill="#000000"></path>
                <path d="M304.975531,46.8695543 C303.995917,46.0494559 302.924347,45.4320363 301.76082,45.0229255 C300.554131,44.6119379 299.278005,44.4073825 297.932443,44.4073825 C295.425232,44.4073825 293.304611,45.216221 291.572459,46.8338978 C289.817786,48.4534514 288.939511,50.4595959 288.939511,52.8523314 C288.939511,54.7233568 289.316719,56.3973333 290.069258,57.8780144 C290.7974,59.3605721 291.88023,60.5334816 293.315871,61.4004964 C294.706473,62.290031 296.314767,62.7329217 298.136999,62.7329217 C300.826246,62.7329217 303.130779,61.8790435 305.04309,60.1694105 L311.027744,67.7604813 C310.160729,68.6706591 308.952163,69.4813742 307.403923,70.1869966 C305.831286,70.8944956 304.211732,71.4180825 302.549016,71.7615104 C300.884422,72.101185 299.345565,72.2719607 297.932443,72.2719607 C293.967071,72.2719607 290.467109,71.4406023 287.434434,69.7760091 C284.403635,68.0907726 282.080336,65.8800726 280.460782,63.1439092 C278.841229,60.362706 278.034267,57.3882073 278.034267,54.2204132 C278.034267,51.3266107 278.522198,48.7049232 279.503688,46.3572274 C280.505822,43.9626152 281.885164,41.9114309 283.641713,40.201798 C285.373866,38.5390813 287.48135,37.2272993 289.966042,36.2702051 C292.426337,35.3356307 295.083681,34.8664669 297.932443,34.8664669 C300.257619,34.8664669 302.524619,35.2342913 304.737196,35.9624336 C306.968539,36.7149724 308.940904,37.773406 310.650537,39.1414877 L304.975531,46.8695543 Z" id="Fill-215" fill="#000000"></path>
                <path d="M324.581512,49.1934166 C323.737017,50.5389784 323.31477,52.0102762 323.31477,53.6054332 C323.31477,56.0225653 324.228701,58.1075293 326.050933,59.862202 C327.850645,61.5943549 329.982526,62.459493 332.444698,62.459493 C334.929389,62.459493 337.070653,61.5943549 338.872242,59.862202 C340.696351,58.1075293 341.606529,56.0225653 341.606529,53.6054332 C341.606529,52.0102762 341.186158,50.5389784 340.341663,49.1934166 C339.499045,47.8497314 338.371175,46.7781612 336.958054,45.9805827 C335.567452,45.205524 334.064251,44.8170564 332.444698,44.8170564 C330.872061,44.8170564 329.38012,45.205524 327.966998,45.9805827 C326.552,46.7781612 325.42413,47.8497314 324.581512,49.1934166 L324.581512,49.1934166 Z M341.642185,70.288899 C340.912166,70.609807 340.37732,70.8256224 340.033892,70.9400984 C337.618636,71.8746727 335.088905,72.3419599 332.444698,72.3419599 C328.957872,72.3419599 325.662465,71.5312448 322.564107,69.9135679 C319.461996,68.2733712 317.001701,66.0401513 315.177592,63.2120318 C313.33284,60.3388725 312.409526,57.1372985 312.409526,53.6054332 C312.409526,50.938706 312.944372,48.4521377 314.015942,46.1513583 C315.085636,43.8712221 316.55881,41.8875974 318.427959,40.202361 C320.272711,38.5171245 322.415852,37.2278623 324.855504,36.3383277 C327.293279,35.4037533 329.82301,34.9364661 332.444698,34.9364661 C335.041989,34.9364661 337.573597,35.3924934 340.033892,36.3045479 C342.49794,37.2166023 344.639204,38.5171245 346.463313,40.202361 C348.377501,41.9345138 349.860059,43.9162618 350.907233,46.1513583 C351.978803,48.4521377 352.515526,50.938706 352.515526,53.6054332 L352.47987,71.4186455 L341.642185,71.3154294 L341.642185,70.288899 Z" id="Fill-217" fill="#000000"></path>
                <path d="M372.837639,44.8168687 C370.056436,44.9332213 368.665834,46.8699296 368.665834,50.6307469 L368.665834,71.3152418 L357.724934,71.3152418 L357.724934,50.6307469 C357.724934,40.6694605 362.763753,35.4373454 372.837639,34.9362785 L373.453182,34.9362785 C383.527068,35.4373454 388.565887,40.6694605 388.565887,50.6307469 L388.565887,71.3152418 L377.624987,71.3152418 L377.624987,50.6307469 C377.624987,46.8699296 376.234385,44.9332213 373.453182,44.8168687 L372.837639,44.8168687 Z" id="Fill-219" fill="#000000"></path>
                <path d="M405.948407,49.1934166 C405.103912,50.5389784 404.681665,52.0102762 404.681665,53.6054332 C404.681665,56.0225653 405.595596,58.1075293 407.417828,59.862202 C409.217541,61.5943549 411.349421,62.459493 413.811593,62.459493 C416.296285,62.459493 418.437548,61.5943549 420.239137,59.862202 C422.063246,58.1075293 422.973424,56.0225653 422.973424,53.6054332 C422.973424,52.0102762 422.553053,50.5389784 421.708558,49.1934166 C420.86594,47.8497314 419.73807,46.7781612 418.324949,45.9805827 C416.934347,45.205524 415.431146,44.8170564 413.811593,44.8170564 C412.238956,44.8170564 410.747015,45.205524 409.333893,45.9805827 C407.918895,46.7781612 406.791025,47.8497314 405.948407,49.1934166 L405.948407,49.1934166 Z M423.009081,70.288899 C422.279062,70.609807 421.744215,70.8256224 421.400787,70.9400984 C418.985532,71.8746727 416.4558,72.3419599 413.811593,72.3419599 C410.324767,72.3419599 407.029361,71.5312448 403.931003,69.9135679 C400.828891,68.2733712 398.368596,66.0401513 396.544487,63.2120318 C394.699735,60.3388725 393.776421,57.1372985 393.776421,53.6054332 C393.776421,50.938706 394.311267,48.4521377 395.382838,46.1513583 C396.452531,43.8712221 397.925706,41.8875974 399.794854,40.202361 C401.639607,38.5171245 403.782747,37.2278623 406.222399,36.3383277 C408.660174,35.4037533 411.189905,34.9364661 413.811593,34.9364661 C416.408884,34.9364661 418.940492,35.3924934 421.400787,36.3045479 C423.864835,37.2166023 426.006099,38.5171245 427.830208,40.202361 C429.744397,41.9345138 431.226954,43.9162618 432.274128,46.1513583 C433.345698,48.4521377 433.882421,50.938706 433.882421,53.6054332 L433.846765,71.4186455 L423.009081,71.3154294 L423.009081,70.288899 Z" id="Fill-221" fill="#000000"></path>
                <path d="M457.043351,45.4325993 C456.472848,45.0460083 455.731569,44.830193 454.819514,44.7832766 L454.203971,44.7832766 C451.422768,44.8977526 450.034043,46.8344608 450.034043,50.5952781 L450.034043,71.3154294 L439.093143,71.3154294 L439.093143,50.5952781 C439.093143,40.6339917 444.130086,35.4037533 454.203971,34.9026863 L454.819514,34.9026863 C455.572053,34.9252062 456.311455,34.9946425 457.043351,35.1072418 L457.043351,45.4325993 Z" id="Fill-223" fill="#000000"></path>
                <path d="M485.162028,70.6666697 C483.088324,71.5092879 481.172259,72.0103549 479.415709,72.1698706 C468.634325,73.3090004 463.244571,68.1707181 463.244571,56.7493939 L463.244571,36.3388907 L474.185471,36.3388907 L474.185471,55.9987317 C474.185471,58.0724359 474.664018,59.645073 475.622989,60.7166432 C476.580083,61.7656935 477.925645,62.2892804 479.655921,62.2892804 C481.320515,62.2892804 482.65294,61.7544336 483.65695,60.6828634 C484.614045,59.6094166 485.092592,58.0480393 485.092592,55.9987317 L485.092592,36.3726705 L496.033492,36.3388907 L496.033492,75.4521407 C496.033492,79.6933818 494.530291,83.339723 491.522013,86.3930412 C490.153931,87.761123 488.271646,88.8777329 485.87891,89.7447476 C483.715127,90.5179296 481.53633,90.9063973 479.34815,90.9063973 L477.537177,90.9063973 C472.65975,90.8144412 468.750677,89.3112403 465.808082,86.3930412 C463.89577,84.4338131 462.709724,82.6772637 462.253697,81.1271464 L472.136163,75.3489247 C472.224366,77.0810776 472.898086,78.5411154 474.151691,79.7252849 C475.405297,80.9113311 476.899115,81.5043541 478.631267,81.5043541 C479.974953,81.5043541 481.207915,81.1158865 482.322649,80.3408278 C483.371699,79.6352054 484.158017,78.6555914 484.683481,77.4019856 L484.717261,77.2987696 L484.78482,77.1279939 L484.854257,76.8877821 L484.921816,76.6494468 C485.013772,76.4430148 485.070072,76.180283 485.092592,75.8631283 C485.092592,75.8162119 485.105728,75.7599122 485.126372,75.6923526 L485.126372,75.3489247 L485.162028,75.3489247 L485.162028,70.6666697 Z" id="Fill-225" fill="#000000"></path>
                <path d="M188.932737,113.837061 L188.932737,124.851151 L183.321538,124.851151 L183.321538,113.837061 C183.227705,112.193111 182.522082,111.348616 181.206547,111.299823 L180.891269,111.299823 C179.468764,111.348616 178.757512,112.331983 178.757512,114.257432 L178.757512,124.851151 L173.165079,124.851151 L173.165079,114.257432 C173.165079,109.184832 175.73985,106.510599 180.891269,106.230977 L181.206547,106.230977 C183.257731,106.349206 184.901681,106.839013 186.136521,107.698521 C187.3601,106.839013 188.99842,106.349206 191.047728,106.230977 L191.363006,106.230977 C196.516301,106.510599 199.091072,109.184832 199.091072,114.257432 L199.091072,124.851151 L193.496763,124.851151 L193.496763,114.257432 C193.496763,112.331983 192.78551,111.348616 191.363006,111.299823 L191.047728,111.299823 C189.732192,111.348616 189.02657,112.193111 188.932737,113.837061" id="Fill-227" fill="#000000"></path>
                <path d="M213.486708,124.50153 C212.426397,124.931284 211.446783,125.188386 210.551619,125.269082 C205.036129,125.852722 202.279322,123.223528 202.279322,117.385253 L202.279322,106.947296 L207.875508,106.947296 L207.875508,117.000539 C207.875508,118.060849 208.12135,118.865934 208.607404,119.413918 C209.099087,119.948764 209.785943,120.219003 210.671725,120.219003 C211.521849,120.219003 212.203075,119.943134 212.717279,119.395151 C213.208963,118.847168 213.451051,118.049589 213.451051,117.000539 L213.451051,106.966063 L219.047237,106.947296 L219.047237,126.948689 C219.047237,129.116226 218.277809,130.981621 216.737075,132.542998 C216.038959,133.242991 215.078111,133.813494 213.852655,134.256384 C212.745429,134.652359 211.634449,134.851284 210.514086,134.851284 L209.587018,134.851284 C207.09482,134.804368 205.094305,134.034939 203.591104,132.542998 C202.61149,131.540864 202.007207,130.641946 201.772625,129.851874 L206.826458,126.896142 C206.873374,127.781924 207.214925,128.528832 207.856742,129.134992 C208.498558,129.739275 209.26048,130.043293 210.148138,130.043293 C210.834994,130.043293 211.463673,129.846244 212.036053,129.448393 C212.5709,129.086199 212.974381,128.587009 213.240866,127.945193 L213.259632,127.892646 L213.293412,127.80632 L213.329068,127.682461 L213.366602,127.560478 C213.409765,127.455386 213.439791,127.322143 213.451051,127.158874 C213.451051,127.134477 213.456681,127.106328 213.467941,127.070671 L213.467941,126.896142 L213.486708,126.896142 L213.486708,124.50153 Z" id="Fill-229" fill="#000000"></path>
                <path d="M233.745202,100.0078 L233.745202,107.979832 C234.280048,107.431849 234.946261,107.002095 235.73821,106.686816 C236.541418,106.371538 237.35964,106.213899 238.185368,106.213899 C242.674328,106.213899 244.916931,108.843093 244.916931,114.099605 L244.916931,124.834073 L239.324498,124.850963 L239.324498,114.484319 C239.324498,113.412749 239.078656,112.607664 238.586972,112.070941 C238.099042,111.536094 237.410309,111.265855 236.524528,111.265855 C235.661267,111.265855 234.987547,111.536094 234.495864,112.070941 C233.996673,112.607664 233.745202,113.412749 233.745202,114.484319 L233.745202,124.834073 L228.152769,124.867853 L228.152769,100.02469 L233.745202,100.0078 Z" id="Fill-231" fill="#000000"></path>
                <path d="M254.556934,118.994297 C255.476495,119.893215 256.568708,120.339859 257.826067,120.339859 C259.09844,120.339859 260.19253,119.893215 261.113967,118.994297 C262.044788,118.095379 262.512076,117.023809 262.512076,115.775834 C262.512076,114.961365 262.29626,114.208826 261.866506,113.52197 C261.432999,112.835115 260.856866,112.287131 260.13623,111.87802 C259.424978,111.470786 258.655549,111.266231 257.826067,111.266231 C257.022859,111.266231 256.25906,111.470786 255.534671,111.87802 C254.814036,112.287131 254.237902,112.835115 253.806272,113.52197 C253.372764,114.208826 253.158826,114.961365 253.158826,115.775834 C253.158826,117.023809 253.626113,118.095379 254.556934,118.994297 M252.775988,124.151346 C251.188337,123.312481 249.930978,122.163968 248.996404,120.707684 C248.054323,119.238263 247.581406,117.596189 247.581406,115.775834 C247.581406,114.413382 247.857274,113.142886 248.403381,111.966223 C248.951364,110.78956 249.703903,109.76866 250.659121,108.905398 C251.625598,108.030877 252.727195,107.362788 253.963911,106.895501 C255.22127,106.43009 256.510532,106.197385 257.826067,106.197385 C259.154739,106.197385 260.449631,106.43009 261.708867,106.895501 C262.932446,107.338391 264.034043,108.004604 265.011781,108.888509 C265.980135,109.77429 266.730797,110.80082 267.26752,111.966223 C267.813627,113.142886 268.089495,114.413382 268.089495,115.775834 C268.089495,117.162682 267.821134,118.435054 267.28441,119.58732 C266.747687,120.752723 265.991395,121.784884 265.011781,122.683802 C264.020907,123.569583 262.921187,124.239549 261.708867,124.6937 C260.483411,125.17037 259.190396,125.410582 257.826067,125.410582 C256.043245,125.410582 254.359885,124.990211 252.775988,124.151346" id="Fill-233" fill="#000000"></path>
                <path d="M286.592003,113.837061 L286.592003,124.851151 L280.980804,124.851151 L280.980804,113.837061 C280.886971,112.193111 280.181348,111.348616 278.865813,111.299823 L278.550535,111.299823 C277.12803,111.348616 276.416778,112.331983 276.416778,114.257432 L276.416778,124.851151 L270.824345,124.851151 L270.824345,114.257432 C270.824345,109.184832 273.399116,106.510599 278.550535,106.230977 L278.865813,106.230977 C280.916997,106.349206 282.560947,106.839013 283.795787,107.698521 C285.019366,106.839013 286.657686,106.349206 288.706994,106.230977 L289.022272,106.230977 C294.175567,106.510599 296.750338,109.184832 296.750338,114.257432 L296.750338,124.851151 L291.156029,124.851151 L291.156029,114.257432 C291.156029,112.331983 290.444776,111.348616 289.022272,111.299823 L288.706994,111.299823 C287.391458,111.348616 286.685836,112.193111 286.592003,113.837061" id="Fill-235" fill="#000000"></path>
                <path d="M309.258434,111.284247 C308.477745,111.284247 307.742096,111.481295 307.05524,111.87727 C306.636746,112.134372 306.227635,112.496566 305.831661,112.963853 L312.685206,112.963853 C312.287355,112.496566 311.878244,112.134372 311.461627,111.87727 C310.772894,111.481295 310.039122,111.284247 309.258434,111.284247 M318.296406,111.982362 C318.821869,113.160902 319.082724,114.420138 319.082724,115.76007 L319.082724,115.917709 C319.082724,115.975885 319.077094,116.039691 319.067711,116.109128 L319.030178,116.405639 L316.864518,116.405639 L316.864518,116.441295 L304.835157,116.441295 C304.97403,117.42091 305.398154,118.265404 306.109406,118.976657 C307.008324,119.862438 308.055498,120.305329 309.258434,120.305329 C310.470753,120.305329 311.519803,119.862438 312.405585,118.976657 L312.439364,118.941 L312.491911,118.871564 L312.544457,118.819018 L312.580114,118.766471 L315.586515,123.067765 C314.723254,123.765881 313.850609,124.298851 312.964828,124.659169 C311.776905,125.12458 310.542066,125.357285 309.258434,125.357285 C307.520651,125.357285 305.908604,124.942544 304.416663,124.116816 C302.887189,123.277951 301.682376,122.129438 300.794718,120.673153 C299.886417,119.216869 299.432266,117.578549 299.432266,115.76007 C299.432266,114.395741 299.694998,113.136505 300.220462,111.982362 C300.744048,110.818836 301.466561,109.803566 302.386122,108.942181 C303.320696,108.054523 304.369747,107.384557 305.535149,106.930406 C306.734332,106.464996 307.974801,106.232291 309.258434,106.232291 C310.542066,106.232291 311.776905,106.464996 312.964828,106.930406 C314.141491,107.384557 315.196171,108.048893 316.128869,108.923414 C317.04843,109.773539 317.772819,110.79444 318.296406,111.982362" id="Fill-237" fill="#000000"></path>
                <path d="M322.186149,120.515327 C322.488291,120.025519 322.878635,119.646435 323.355305,119.37995 C323.846989,119.098452 324.363069,118.959579 324.912929,118.959579 C325.459036,118.959579 325.978869,119.098452 326.4668,119.37995 C326.947224,119.670832 327.331938,120.055546 327.620943,120.532216 C327.913701,120.999504 328.06008,121.509954 328.06008,122.071074 C328.06008,123.003771 327.757939,123.771323 327.149902,124.37936 C326.532483,124.996779 325.785574,125.306428 324.912929,125.306428 C324.331166,125.306428 323.798196,125.165678 323.321526,124.886057 C322.831719,124.606435 322.447004,124.216091 322.167383,123.713147 C321.889638,123.202697 321.748888,122.654714 321.748888,122.071074 C321.748888,121.498694 321.893391,120.980737 322.186149,120.515327" id="Fill-239" fill="#000000"></path>
                <path d="M359.444325,113.837061 L359.444325,124.851151 L353.833126,124.851151 L353.833126,113.837061 C353.737417,112.193111 353.033671,111.348616 351.718135,111.299823 L351.402857,111.299823 C349.980353,111.348616 349.2691,112.331983 349.2691,114.257432 L349.2691,124.851151 L343.674791,124.851151 L343.674791,114.257432 C343.674791,109.184832 346.249562,106.510599 351.402857,106.230977 L351.718135,106.230977 C353.767443,106.349206 355.41327,106.839013 356.648109,107.698521 C357.871688,106.839013 359.508132,106.349206 361.559316,106.230977 L361.874594,106.230977 C367.026013,106.510599 369.600784,109.184832 369.600784,114.257432 L369.600784,124.851151 L364.008351,124.851151 L364.008351,114.257432 C364.008351,112.331983 363.297099,111.348616 361.874594,111.299823 L361.559316,111.299823 C360.243781,111.348616 359.536281,112.193111 359.444325,113.837061" id="Fill-241" fill="#000000"></path>
                <path d="M383.998484,124.50153 C382.936297,124.931284 381.956683,125.188386 381.061518,125.269082 C375.546028,125.852722 372.789221,123.223528 372.789221,117.385253 L372.789221,106.947296 L378.387284,106.947296 L378.387284,117.000539 C378.387284,118.060849 378.631249,118.865934 379.11918,119.413918 C379.608987,119.948764 380.295843,120.219003 381.183501,120.219003 C382.033625,120.219003 382.714851,119.943134 383.229055,119.395151 C383.718862,118.847168 383.96095,118.049589 383.96095,117.000539 L383.96095,106.966063 L389.557137,106.947296 L389.557137,126.948689 C389.557137,129.116226 388.789585,130.981621 387.248851,132.542998 C386.548858,133.242991 385.589887,133.813494 384.364431,134.256384 C383.257205,134.652359 382.144348,134.851284 381.025862,134.851284 L380.098794,134.851284 C377.604719,134.804368 375.604204,134.034939 374.10288,132.542998 C373.123266,131.540864 372.517106,130.641946 372.284401,129.851874 L377.336357,126.896142 C377.383274,127.781924 377.726701,128.528832 378.368518,129.134992 C379.010334,129.739275 379.772256,130.043293 380.659914,130.043293 C381.344893,130.043293 381.975449,129.846244 382.547829,129.448393 C383.082676,129.086199 383.486157,128.587009 383.752642,127.945193 L383.771408,127.892646 L383.803311,127.80632 L383.840844,127.682461 L383.876501,127.560478 C383.921541,127.455386 383.951567,127.322143 383.96095,127.158874 C383.96095,127.134477 383.968457,127.106328 383.979717,127.070671 L383.979717,126.896142 L383.998484,126.896142 L383.998484,124.50153 Z" id="Fill-243" fill="#000000"></path>
                <polygon id="Fill-245" fill="#000000" points="417.177187 106.948047 407.7545 125.568221 398.663982 106.983703 404.344617 106.948047 407.823936 114.884422 411.250709 106.948047"></polygon>
                <path d="M423.598913,113.52197 C423.169159,114.208826 422.953344,114.961365 422.953344,115.775834 C422.953344,117.012549 423.418754,118.080366 424.351452,118.975531 C425.27289,119.863189 426.363227,120.304203 427.620586,120.304203 C428.891081,120.304203 429.987048,119.863189 430.908486,118.975531 C431.841184,118.080366 432.308471,117.012549 432.308471,115.775834 C432.308471,114.961365 432.090779,114.208826 431.659148,113.52197 C431.227517,112.835115 430.651384,112.287131 429.928872,111.87802 C429.217619,111.482046 428.448191,111.284997 427.620586,111.284997 C426.817377,111.284997 426.055455,111.482046 425.331066,111.87802 C424.606677,112.287131 424.030544,112.835115 423.598913,113.52197 L423.598913,113.52197 Z M432.323484,124.308985 C431.95003,124.472254 431.677914,124.582977 431.501509,124.641153 C430.26667,125.1197 428.971778,125.358036 427.620586,125.358036 C425.837763,125.358036 424.152527,124.943295 422.56863,124.117566 C420.982856,123.276825 419.725497,122.135818 418.790922,120.688917 C417.848841,119.221373 417.375924,117.583053 417.375924,115.775834 C417.375924,114.413382 417.649916,113.142886 418.197899,111.966223 C418.745883,110.80082 419.496545,109.787426 420.453639,108.924165 C421.39572,108.060904 422.491687,107.402198 423.739663,106.948047 C424.987638,106.4695 426.28253,106.231165 427.620586,106.231165 C428.951134,106.231165 430.24415,106.46387 431.501509,106.92928 C432.762621,107.396568 433.856711,108.060904 434.789409,108.924165 C435.767146,109.80807 436.527192,110.825217 437.062039,111.966223 C437.610022,113.142886 437.882137,114.413382 437.882137,115.775834 L437.867124,124.886995 L432.323484,124.832572 L432.323484,124.308985 Z" id="Fill-247" fill="#000000"></path>
                <polygon id="Fill-249" fill="#000000" points="440.547363 100.024315 446.126659 100.007425 446.126659 124.798042 440.547363 124.867478"></polygon>
                <path d="M456.517324,120.304578 L456.830726,120.304578 C458.25323,120.259538 458.964483,119.272418 458.964483,117.350723 L458.964483,106.929656 L464.558792,106.929656 L464.558792,117.350723 C464.558792,122.421445 461.982145,125.095679 456.830726,125.375301 L456.517324,125.375301 C451.364029,125.095679 448.789258,122.421445 448.789258,117.350723 L448.789258,106.929656 L454.383567,106.929656 L454.383567,117.350723 C454.383567,119.272418 455.09482,120.259538 456.517324,120.304578" id="Fill-251" fill="#000000"></path>
                <path d="M477.050561,111.284247 C476.267995,111.284247 475.532347,111.481295 474.847367,111.87727 C474.426997,112.134372 474.019762,112.496566 473.623788,112.963853 L480.475457,112.963853 C480.077606,112.496566 479.670372,112.134372 479.251877,111.87727 C478.565022,111.481295 477.831249,111.284247 477.050561,111.284247 M486.086656,111.982362 C486.613996,113.160902 486.872975,114.420138 486.872975,115.76007 L486.872975,115.917709 C486.872975,115.975885 486.867345,116.039691 486.857961,116.109128 L486.822305,116.405639 L484.654768,116.405639 L484.654768,116.441295 L472.627284,116.441295 C472.766157,117.42091 473.190281,118.265404 473.901533,118.976657 C474.800451,119.862438 475.847625,120.305329 477.050561,120.305329 C478.261003,120.305329 479.310054,119.862438 480.195835,118.976657 L480.231491,118.941 L480.284038,118.871564 L480.334708,118.819018 L480.372241,118.766471 L483.376766,123.067765 C482.515381,123.765881 481.64086,124.298851 480.756955,124.659169 C479.567156,125.12458 478.332316,125.357285 477.050561,125.357285 C475.312778,125.357285 473.698854,124.942544 472.206913,124.116816 C470.679316,123.277951 469.474503,122.129438 468.586845,120.673153 C467.678544,119.216869 467.224393,117.578549 467.224393,115.76007 C467.224393,114.395741 467.485249,113.136505 468.012589,111.982362 C468.536176,110.818836 469.258688,109.803566 470.178249,108.942181 C471.110947,108.054523 472.161874,107.384557 473.327277,106.930406 C474.524583,106.464996 475.766928,106.232291 477.050561,106.232291 C478.332316,106.232291 479.567156,106.464996 480.756955,106.930406 C481.933618,107.384557 482.988298,108.048893 483.919119,108.923414 C484.83868,109.773539 485.563069,110.79444 486.086656,111.982362" id="Fill-253" fill="#000000"></path>
                <path d="M489.974523,120.515327 C490.278541,120.025519 490.668885,119.646435 491.147432,119.37995 C491.63724,119.098452 492.155196,118.959579 492.701303,118.959579 C493.251163,118.959579 493.767243,119.098452 494.258927,119.37995 C494.735597,119.670832 495.120312,120.055546 495.41307,120.532216 C495.703952,120.999504 495.850331,121.509954 495.850331,122.071074 C495.850331,123.003771 495.546313,123.771323 494.940153,124.37936 C494.320857,124.996779 493.577701,125.306428 492.701303,125.306428 C492.11954,125.306428 491.590323,125.165678 491.109899,124.886057 C490.623846,124.606435 490.239131,124.216091 489.957633,123.713147 C489.678011,123.202697 489.539139,122.654714 489.539139,122.071074 C489.539139,121.498694 489.685518,120.980737 489.974523,120.515327" id="Fill-255" fill="#000000"></path>
                <g id="the-canary" transform="translate(23.000000, 23.000000)">
                    <path d="M118.418827,62.1430011 C118.418827,93.2373031 93.2134695,118.442661 62.1191676,118.442661 C31.0248657,118.442661 5.81950813,93.2373031 5.81950813,62.1430011 C5.81950813,31.0486992 31.0248657,5.84334166 62.1191676,5.84334166 C93.2134695,5.84334166 118.418827,31.0486992 118.418827,62.1430011" id="Fill-257" fill="#FFFFFF"></path>
                    <path d="M88.7397109,31.8115596 C86.9493818,30.9633114 84.8550344,31.3724222 83.5132259,32.7329974 C83.8923103,32.9882225 84.258258,33.2565842 84.6091926,33.5418358 L84.8175013,33.6863383 C86.1349134,34.7260053 87.3622459,35.8444919 88.4957457,37.0267847 C88.6364949,36.8428725 88.7678608,36.6514537 88.8804601,36.4412683 C89.7024351,34.934314 89.5879591,33.170258 88.7397109,31.8115596" id="Fill-259" fill="#FFFE71"></path>
                    <path d="M75.991779,45.9363935 C75.7140341,45.8481907 75.4362891,45.7693712 75.1585441,45.694305 C75.0703413,45.6699084 74.9802618,45.6492652 74.8901824,45.6267454 C74.7006402,45.579829 74.511098,45.5329126 74.3196792,45.4916262 C74.2164631,45.4691063 74.1113704,45.4484631 74.0081544,45.4278199 C73.8298721,45.3921635 73.6515899,45.3583837 73.4733076,45.3283572 C73.3663383,45.3114673 73.2612456,45.2927007 73.1561529,45.2776875 C72.970364,45.2495376 72.7845751,45.2251411 72.5987862,45.2026213 C72.5030768,45.1913613 72.409244,45.1782247 72.3154113,45.1688415 C72.0583095,45.1425683 71.8012077,45.1219251 71.5459826,45.1069118 C71.4990662,45.1031585 71.4540265,45.1012819 71.4071101,45.0994052 C71.1593916,45.0862686 70.9135498,45.078762 70.6677079,45.0750087 C70.5626152,45.0750087 70.4593992,45.0768854 70.3543065,45.0768854 C70.1835308,45.078762 70.0146319,45.0806387 69.8457329,45.0862686 C69.7256269,45.0900219 69.6073977,45.0956519 69.4891684,45.1031585 C69.3352826,45.1106652 69.1795202,45.1219251 69.0256345,45.133185 C68.9036519,45.1444449 68.7816693,45.1538282 68.6578101,45.1650882 C68.5076776,45.1819781 68.3556686,45.198868 68.2055361,45.2195112 C68.0835535,45.2345244 67.9634476,45.247661 67.8433417,45.2664275 C67.6763193,45.2908241 67.509297,45.3189739 67.3441513,45.3490004 C67.1395959,45.3846568 66.9369171,45.4240666 66.7342384,45.4672297 C66.5934892,45.4953795 66.4508634,45.525406 66.3119909,45.5573091 C66.1693651,45.5910889 66.028616,45.628622 65.8897435,45.6661551 C65.7733908,45.6961816 65.6570382,45.7262081 65.5406856,45.7581112 C65.3943065,45.7993977 65.249804,45.8444374 65.1034249,45.8894771 C64.9983322,45.9213802 64.8951162,45.95516 64.7900235,45.9889398 C64.6380144,46.0396095 64.487882,46.0902792 64.3377495,46.1447022 C64.2476701,46.1766054 64.1594673,46.2103852 64.0693878,46.244165 C63.9079955,46.3042179 63.7466031,46.3661476 63.5870874,46.4318305 C63.5570609,46.4430904 63.5289111,46.456227 63.4988846,46.4693636 C62.8908483,46.7208354 62.2978252,47.0079637 61.7198154,47.3251184 C61.6691457,47.3532683 61.618476,47.3795414 61.5696829,47.4076913 C61.3970306,47.5034007 61.2281317,47.6028634 61.0592327,47.7042028 C61.0104397,47.7342293 60.9616466,47.7642558 60.9128536,47.7942823 C60.785241,47.8731018 60.6613818,47.953798 60.5356459,48.0363708 C60.4887295,48.0645206 60.4436897,48.0926705 60.3967734,48.1226969 C60.3705002,48.1414635 60.3423504,48.16023 60.3142005,48.1789966 C59.5316353,48.7044601 58.7903564,49.2918532 58.0959939,49.935546 C58.090364,49.9411759 58.084734,49.9449292 58.079104,49.9505592 C57.9083284,50.1081983 57.7413061,50.2695906 57.5780371,50.4347363 C57.5630238,50.4497495 57.5498872,50.4628861 57.534874,50.4778994 C56.6809958,51.3411608 55.9078138,52.292625 55.2322179,53.3285388 L55.2190813,53.3229088 C55.1684117,53.4111116 55.1158653,53.4974378 55.063319,53.5837639 C55.0595656,53.5893939 55.057689,53.5950238 55.0539357,53.6006538 C52.3402921,58.0896133 46.8191722,60.3078199 41.603947,58.6451033 C38.7533076,57.7368021 36.4975679,55.8282437 35.103213,53.4317548 C33.6412985,59.2925494 34.1930352,65.2396701 36.3530655,70.494305 C39.3331941,77.7400711 45.3722709,83.6665486 53.4212456,86.2319364 C67.0007234,90.5613802 81.4265728,83.767888 86.9514461,70.9484555 C87.0790586,70.6725872 87.2029179,70.3910889 87.3173939,70.1039607 C87.354927,70.0138812 87.3924601,69.9238017 87.4281165,69.8337223 C87.4675263,69.7286296 87.5069361,69.6235369 87.5463458,69.5165675 C87.6345486,69.2782323 87.7189981,69.0361438 87.7978176,68.7921786 C90.8492592,59.2193598 85.5627212,48.987835 75.991779,45.9363935" id="Fill-261" fill="#FFFE71"></path>
                    <path d="M76.7719047,95.1392932 L76.7719047,101.018854 C76.7719047,101.929032 77.5169368,102.674064 78.4271146,102.674064 C79.3372925,102.674064 80.0823246,101.929032 80.0823246,101.018854 L80.0823246,93.4728233 C79.0051245,94.0864896 77.8997745,94.6419796 76.7719047,95.1392932" id="Fill-263" fill="#000000"></path>
                    <path d="M78.5029315,36.2956398 C78.3997155,34.9519546 77.2286826,33.9460673 75.8849974,34.0474067 C74.5413121,34.1506228 73.5354249,35.3235323 73.6367643,36.6672176 C73.7399803,38.0109028 74.9110132,39.01679 76.2546984,38.913574 C77.5983837,38.8122346 78.6061476,37.639325 78.5029315,36.2956398" id="Fill-265" fill="#000000"></path>
                    <path d="M72.0742611,90.1468271 C71.1640832,90.1468271 70.4190511,90.8918593 70.4190511,91.8020371 L70.4190511,97.2649807 L70.4190511,102.540259 C70.4190511,103.450437 71.1640832,104.195469 72.0742611,104.195469 C72.9844389,104.195469 73.7294711,103.450437 73.7294711,102.540259 L73.7294711,96.3191464 L73.7294711,91.8020371 C73.7294711,90.8918593 72.9844389,90.1468271 72.0742611,90.1468271" id="Fill-267" fill="#000000"></path>
                    <path d="M76.2554491,38.9139493 C74.9117639,39.0171653 73.7388543,38.0094014 73.6375149,36.6657162 C73.5342989,35.322031 74.5401862,34.1509981 75.8838714,34.0477821 C77.2275566,33.9464427 78.4004661,34.9523299 78.5036822,36.2960151 C78.6050216,37.6397003 77.5991343,38.8107333 76.2554491,38.9139493 M88.4968717,37.0260341 C87.3614953,35.8437412 86.1341627,34.7271313 84.8167507,33.6855876 L84.6103186,33.5429618 C84.259384,33.2577102 83.8915596,32.9874718 83.5124752,32.7322467 C82.4146319,31.9965978 81.2004359,31.3941914 79.8830238,30.9588074 C72.0461112,28.3708997 63.5955323,32.6252773 61.0076247,40.4621899 C60.1706364,42.9956746 60.0505305,45.5929656 60.5347075,48.0363708 C60.6604434,47.953798 60.7861793,47.8731018 60.9137919,47.7942823 C60.9625849,47.7642558 61.011378,47.7342293 61.060171,47.7042028 C61.22907,47.6028634 61.397969,47.5034007 61.5687446,47.4076913 C61.6194143,47.3795414 61.670084,47.3513916 61.718877,47.3251184 C62.2968869,47.0079637 62.88991,46.7208354 63.4998229,46.4693636 C63.5279728,46.456227 63.5579992,46.4430904 63.5861491,46.4318305 C63.7456648,46.3661476 63.9089338,46.3042179 64.0703261,46.244165 C64.1585289,46.2103852 64.2486084,46.1766054 64.3386879,46.1447022 C64.4869436,46.0902792 64.6389527,46.0396095 64.7909618,45.9889398 C64.8941778,45.95516 64.9992705,45.9213802 65.1043632,45.8894771 C65.2488657,45.8444374 65.3952448,45.7993977 65.5416239,45.7581112 C65.6560999,45.7262081 65.7724525,45.6961816 65.8888051,45.6661551 C66.0295543,45.628622 66.1703034,45.5910889 66.3110526,45.5573091 C66.4518017,45.525406 66.5925509,45.4953795 66.7351767,45.4672297 C66.9359788,45.4240666 67.1405342,45.3846568 67.3450897,45.3490004 C67.5102353,45.3189739 67.675381,45.2908241 67.8424033,45.2645509 C67.9625093,45.247661 68.0844919,45.2345244 68.2045978,45.2195112 C68.3566069,45.198868 68.5067393,45.1819781 68.6587484,45.1650882 C68.780731,45.1538282 68.9027136,45.1425683 69.0265728,45.133185 C69.1804586,45.1219251 69.3343443,45.1106652 69.4901067,45.1031585 C69.608336,45.0956519 69.7265653,45.0900219 69.8447946,45.0862686 C70.0136935,45.0806387 70.1844692,45.078762 70.3552448,45.0768854 C70.4584608,45.0768854 70.5635535,45.073132 70.6686462,45.0750087 C70.9144881,45.078762 71.1603299,45.0862686 71.4061718,45.0994052 C71.4530882,45.1012819 71.5000045,45.1031585 71.5450443,45.1069118 C71.802146,45.1219251 72.0592478,45.1425683 72.3163496,45.1688415 C72.4101824,45.1782247 72.5040151,45.1913613 72.5978479,45.2026213 C72.7836368,45.2251411 72.9694257,45.2495376 73.1570912,45.2776875 C73.2621839,45.2927007 73.3672766,45.3114673 73.4723693,45.3283572 C73.6506515,45.3583837 73.8289338,45.3921635 74.007216,45.4278199 C74.1123087,45.4484631 74.2155248,45.4691063 74.3206175,45.4916262 C74.5101597,45.5329126 74.7015785,45.579829 74.8911207,45.6267454 C74.9793235,45.6492652 75.069403,45.6699084 75.1594824,45.694305 C75.4372274,45.7674945 75.7149724,45.8481907 75.9927174,45.9363935 C85.5636595,48.987835 90.8483208,59.2193598 87.798756,68.7903019 C87.7199364,69.0361438 87.6336103,69.2782323 87.5454075,69.5165675 C87.5078744,69.6235369 87.4684646,69.7286296 87.4271782,69.8337223 C87.3915218,69.9238017 87.3539886,70.0138812 87.3183322,70.1039607 C87.2019796,70.3910889 87.079997,70.6725872 86.9505078,70.9484555 C81.4275112,83.767888 67.0016617,90.5613802 53.4221839,86.2319364 C45.3732092,83.6665486 39.3341324,77.7400711 36.3540038,70.494305 C32.6701294,69.998868 29.2189603,68.773412 26.1468755,66.9699463 C27.5919001,77.2202376 33.3832584,86.7874264 42.8453545,92.7063973 C51.3991495,98.0567416 61.3172728,99.4079334 70.4190511,97.264793 L70.4190511,91.8018494 C70.4190511,90.8916716 71.1640832,90.1466394 72.0742611,90.1466394 C72.9844389,90.1466394 73.7294711,90.8916716 73.7294711,91.8018494 L73.7294711,96.3189588 C74.7597548,95.9717775 75.7750253,95.5795566 76.7715293,95.1385426 C77.9012758,94.6412289 79.0047491,94.0857389 80.0819493,93.4739493 C85.1395354,90.5970367 89.5778252,86.4608884 92.8788619,81.181857 C101.883054,66.7897874 99.7080106,48.71009 88.4968717,37.0260341" id="Fill-269" fill="#FFE600"></path>
                    <path d="M62.0009383,112.854544 C33.9580779,112.854544 11.1454559,90.0419221 11.1454559,61.9990617 C11.1454559,33.9580779 33.9580779,11.1435793 62.0009383,11.1435793 C90.0419221,11.1435793 112.856421,33.9580779 112.856421,61.9990617 C112.856421,90.0419221 90.0419221,112.854544 62.0009383,112.854544 M62.0009383,0 C27.8139084,0 0,27.8120318 0,61.9990617 C0,96.1860916 27.8139084,124 62.0009383,124 C96.1879682,124 124.001877,96.1860916 124.001877,61.9990617 C124.001877,27.8120318 96.1879682,0 62.0009383,0" id="Fill-271" fill="#FFE600"></path>
                </g>
            </g>
        </g>
    </g>
</svg>