<?xml version="1.0" encoding="UTF-8"?>
<svg width="169px" height="106px" viewBox="0 0 169 106" version="1.1" xmlns="http://www.w3.org/2000/svg" xmlns:xlink="http://www.w3.org/1999/xlink">
    <title>logo</title>
    <defs>
        <filter x="-58.9%" y="-58.8%" width="217.9%" height="217.6%" filterUnits="objectBoundingBox" id="filter-1">
            <feGaussianBlur stdDeviation="9.41176471" in="SourceGraphic"></feGaussianBlur>
        </filter>
    </defs>
    <g id="Symbols" stroke="none" stroke-width="1" fill="none" fill-rule="evenodd">
        <g id="header_mobile_ok" transform="translate(-19.000000, 1.000000)">
            <g id="logo" transform="translate(48.000000, 28.000000)">
                <ellipse id="white-halo" fill="#FFFFFF" filter="url(#filter-1)" cx="23.9560437" cy="24" rx="23.9560437" ry="24"></ellipse>
                <path d="M56.7442555,14.0637592 L56.7442555,20.1462419 L53.6506687,20.1462419 L53.6506687,14.0637592 C53.5993646,13.1566061 53.2106167,12.6897826 52.484954,12.6638185 L52.311472,12.6638185 C51.5276293,12.6897826 51.135708,13.2339685 51.135708,14.2953164 L51.135708,20.1462419 L48.0521705,20.1462419 L48.0521705,14.2953164 C48.0521705,11.4959649 49.4717614,10.0186618 52.311472,9.86446696 L52.484954,9.86446696 C53.6152319,9.92858233 54.5212524,10.1993506 55.2024868,10.6751821 C55.8768453,10.1993506 56.7791635,9.92858233 57.9099702,9.86446696 L58.0834523,9.86446696 C60.922634,10.0186618 62.3427538,11.4959649 62.3427538,14.2953164 L62.3427538,20.1462419 L59.2592162,20.1462419 L59.2592162,14.2953164 C59.2592162,13.2339685 58.8672949,12.6897826 58.0834523,12.6638185 L57.9099702,12.6638185 C57.1837786,12.6897826 56.7955597,13.1566061 56.7442555,14.0637592" id="Fill-211" fill="#000000"></path>
                <path d="M70.2773887,19.952942 C69.6929446,20.1908578 69.1529289,20.3323355 68.6578704,20.3773752 C65.6192901,20.6990119 64.1002644,19.2482028 64.1002644,16.0233583 L64.1002644,10.2603927 L67.1838019,10.2603927 L67.1838019,15.8114066 C67.1838019,16.3969231 67.3186736,16.8409618 67.5889459,17.1435228 C67.8586894,17.4397252 68.2379169,17.5875615 68.7255707,17.5875615 C69.1947127,17.5875615 69.5702378,17.436546 69.853204,17.133985 C70.1229474,16.8308941 70.2578191,16.3900346 70.2578191,15.8114066 L70.2578191,10.2699305 L73.3413566,10.2603927 L73.3413566,21.3041339 C73.3413566,22.5016607 72.9177008,23.5312159 72.0698602,24.3933293 C71.6842858,24.7796112 71.1537904,25.0948893 70.4794318,25.3396934 C69.8696001,25.5580037 69.2555372,25.6676886 68.6388297,25.6676886 L68.1284328,25.6676886 C66.7537992,25.6417246 65.6520824,25.2172914 64.8227536,24.3933293 C64.2837957,23.8401355 63.9495254,23.3441686 63.8210006,22.9064884 L66.6062336,21.2749905 C66.6310924,21.764069 66.8209706,22.1763149 67.1742816,22.5106687 C67.5275925,22.8455523 67.9486038,23.0129941 68.4367865,23.0129941 C68.8154851,23.0129941 69.1629781,22.9033091 69.4771499,22.684469 C69.7728098,22.4852345 69.9944226,22.2086376 70.142517,21.8546783 L70.1520373,21.8255349 L70.1710781,21.7773159 L70.1906477,21.7094914 L70.2096884,21.6421968 C70.2356049,21.58391 70.2514722,21.509727 70.2578191,21.4201774 C70.2578191,21.4069304 70.2615214,21.391034 70.2673394,21.3719584 L70.2673394,21.2749905 L70.2773887,21.2749905 L70.2773887,19.952942 Z" id="Fill-213" fill="#000000"></path>
                <path d="M85.9530251,13.2337565 C85.6769348,13.0021993 85.3749279,12.8278691 85.0470046,12.7123554 C84.7069163,12.5963119 84.3472584,12.5385551 83.9680309,12.5385551 C83.2614089,12.5385551 82.6637421,12.766933 82.1755594,13.2236888 C81.6810298,13.6809745 81.4335005,14.2474153 81.4335005,14.9230112 C81.4335005,15.4513007 81.5398112,15.9239529 81.7519036,16.3420276 C81.9571201,16.7606321 82.2623004,17.0918066 82.6669156,17.3366107 C83.0588369,17.5877735 83.5121116,17.7128249 84.0256819,17.7128249 C84.783608,17.7128249 85.4331079,17.4717299 85.9720658,16.98901 L87.6587556,19.1323712 C87.4143998,19.3893626 87.0737826,19.6182704 86.6374329,19.8175049 C86.1942075,20.0172694 85.7377593,20.1651056 85.2691462,20.2620735 C84.8000042,20.3579817 84.3662991,20.4062007 83.9680309,20.4062007 C82.8504469,20.4062007 81.8640322,20.1714642 81.0093158,19.7014614 C80.1551283,19.2256299 79.5003394,18.6014323 79.0438912,17.8288685 C78.587443,17.0435876 78.3600123,16.2037291 78.3600123,15.3092931 C78.3600123,14.4922195 78.4975285,13.7519783 78.7741478,13.0890995 C79.056585,12.4129737 79.4453329,11.8338158 79.9403914,11.3510959 C80.4285741,10.881623 81.0225385,10.5112374 81.7228136,10.2409991 C82.4162128,9.97711926 83.1651475,9.84464948 83.9680309,9.84464948 C84.6233487,9.84464948 85.2622704,9.94850579 85.8858537,10.1540989 C86.5147261,10.3665804 87.0706091,10.6654323 87.5524449,11.0517142 L85.9530251,13.2337565 Z" id="Fill-215" fill="#000000"></path>
                <path d="M91.4786926,13.8899059 C91.2406837,14.2698292 91.1216793,14.6852545 91.1216793,15.1356517 C91.1216793,15.8181361 91.3792578,16.4068318 91.8928281,16.9022688 C92.4000515,17.3913473 93.0008918,17.6356216 93.6948199,17.6356216 C94.395095,17.6356216 94.9985798,17.3913473 95.5063321,16.9022688 C96.0204313,16.4068318 96.276952,15.8181361 96.276952,15.1356517 C96.276952,14.6852545 96.1584765,14.2698292 95.9204676,13.8899059 C95.6829876,13.5105124 95.3651135,13.2079514 94.9668453,12.9827528 C94.574924,12.7639127 94.1512681,12.6542277 93.6948199,12.6542277 C93.2515945,12.6542277 92.8311121,12.7639127 92.4328439,12.9827528 C92.0340467,13.2079514 91.7161726,13.5105124 91.4786926,13.8899059 L91.4786926,13.8899059 Z M96.2870013,19.8462774 C96.0812558,19.9368867 95.9305169,19.9978228 95.8337266,20.0301454 C95.1530211,20.2940252 94.4400522,20.4259651 93.6948199,20.4259651 C92.7121076,20.4259651 91.783344,20.1970574 90.9101158,19.7403015 C90.0358298,19.2771872 89.3424305,18.646631 88.8283313,17.8481031 C88.3084141,17.0368581 88.048191,16.1328843 88.048191,15.1356517 C88.048191,14.3826935 88.19893,13.6806036 88.5009368,13.0309718 C88.8024148,12.3871686 89.2176081,11.8270863 89.7444011,11.3512549 C90.2643183,10.8754234 90.868332,10.5113964 91.5559133,10.2602337 C92.2429656,9.99635388 92.9559345,9.86441397 93.6948199,9.86441397 C94.4268295,9.86441397 95.1403273,9.9931746 95.8337266,10.2506959 C96.5281837,10.5082171 97.1316685,10.8754234 97.6457677,11.3512549 C98.1852545,11.8403333 98.6030924,12.3998857 98.8982234,13.0309718 C99.2002302,13.6806036 99.3514981,14.3826935 99.3514981,15.1356517 L99.3414489,20.1652646 L96.2870013,20.1361213 L96.2870013,19.8462774 Z" id="Fill-217" fill="#000000"></path>
                <path d="M105.078997,12.6541747 C104.295155,12.6870272 103.903233,13.2338625 103.903233,14.2957403 L103.903233,20.1360683 L100.819696,20.1360683 L100.819696,14.2957403 C100.819696,11.4831418 102.239815,10.0058387 105.078997,9.86436098 L105.252479,9.86436098 C108.091661,10.0058387 109.511781,11.4831418 109.511781,14.2957403 L109.511781,20.1360683 L106.428243,20.1360683 L106.428243,14.2957403 C106.428243,13.2338625 106.036322,12.6870272 105.252479,12.6541747 L105.078997,12.6541747 Z" id="Fill-219" fill="#000000"></path>
                <path d="M114.410797,13.8899059 C114.172788,14.2698292 114.053784,14.6852545 114.053784,15.1356517 C114.053784,15.8181361 114.311362,16.4068318 114.824933,16.9022688 C115.332156,17.3913473 115.932996,17.6356216 116.626925,17.6356216 C117.3272,17.6356216 117.930684,17.3913473 118.438437,16.9022688 C118.952536,16.4068318 119.209057,15.8181361 119.209057,15.1356517 C119.209057,14.6852545 119.090581,14.2698292 118.852572,13.8899059 C118.615092,13.5105124 118.297218,13.2079514 117.89895,12.9827528 C117.507029,12.7639127 117.083373,12.6542277 116.626925,12.6542277 C116.183699,12.6542277 115.763217,12.7639127 115.364948,12.9827528 C114.966151,13.2079514 114.648277,13.5105124 114.410797,13.8899059 L114.410797,13.8899059 Z M119.219106,19.8462774 C119.01336,19.9368867 118.862622,19.9978228 118.765831,20.0301454 C118.085126,20.2940252 117.372157,20.4259651 116.626925,20.4259651 C115.644212,20.4259651 114.715449,20.1970574 113.84222,19.7403015 C112.967934,19.2771872 112.274535,18.646631 111.760436,17.8481031 C111.240519,17.0368581 110.980296,16.1328843 110.980296,15.1356517 C110.980296,14.3826935 111.131035,13.6806036 111.433041,13.0309718 C111.734519,12.3871686 112.149713,11.8270863 112.676506,11.3512549 C113.196423,10.8754234 113.800437,10.5113964 114.488018,10.2602337 C115.17507,9.99635388 115.888039,9.86441397 116.626925,9.86441397 C117.358934,9.86441397 118.072432,9.9931746 118.765831,10.2506959 C119.460288,10.5082171 120.063773,10.8754234 120.577872,11.3512549 C121.117359,11.8403333 121.535197,12.3998857 121.830328,13.0309718 C122.132335,13.6806036 122.283603,14.3826935 122.283603,15.1356517 L122.273554,20.1652646 L119.219106,20.1361213 L119.219106,19.8462774 Z" id="Fill-221" fill="#000000"></path>
                <path d="M128.811182,12.828028 C128.650394,12.7188729 128.441475,12.6579368 128.184425,12.6446899 L128.010943,12.6446899 C127.227101,12.6770125 126.835708,13.2238478 126.835708,14.2857256 L126.835708,20.1361213 L123.752171,20.1361213 L123.752171,14.2857256 C123.752171,11.4731271 125.171761,9.99635388 128.010943,9.85487614 L128.184425,9.85487614 C128.396518,9.86123469 128.604908,9.88084022 128.811182,9.91263297 L128.811182,12.828028 Z" id="Fill-223" fill="#000000"></path>
                <path d="M136.736032,19.952942 C136.151588,20.1908578 135.611572,20.3323355 135.116514,20.3773752 C132.077933,20.6990119 130.558908,19.2482028 130.558908,16.0233583 L130.558908,10.2603927 L133.642445,10.2603927 L133.642445,15.8114066 C133.642445,16.3969231 133.777317,16.8409618 134.047589,17.1435228 C134.317333,17.4397252 134.69656,17.5875615 135.184214,17.5875615 C135.653356,17.5875615 136.028881,17.436546 136.311847,17.133985 C136.581591,16.8308941 136.716462,16.3900346 136.716462,15.8114066 L136.716462,10.2699305 L139.8,10.2603927 L139.8,21.3041339 C139.8,22.5016607 139.376344,23.5312159 138.528504,24.3933293 C138.142929,24.7796112 137.612434,25.0948893 136.938075,25.3396934 C136.328244,25.5580037 135.714181,25.6676886 135.097473,25.6676886 L134.587076,25.6676886 C133.212443,25.6417246 132.110726,25.2172914 131.281397,24.3933293 C130.742439,23.8401355 130.408169,23.3441686 130.279644,22.9064884 L133.064877,21.2749905 C133.089736,21.764069 133.279614,22.1763149 133.632925,22.5106687 C133.986236,22.8455523 134.407247,23.0129941 134.89543,23.0129941 C135.274129,23.0129941 135.621622,22.9033091 135.935793,22.684469 C136.231453,22.4852345 136.453066,22.2086376 136.60116,21.8546783 L136.610681,21.8255349 L136.629721,21.7773159 L136.649291,21.7094914 L136.668332,21.6421968 C136.694248,21.58391 136.710116,21.509727 136.716462,21.4201774 C136.716462,21.4069304 136.720165,21.391034 136.725983,21.3719584 L136.725983,21.2749905 L136.736032,21.2749905 L136.736032,19.952942 Z" id="Fill-225" fill="#000000"></path>
                <path d="M53.2480106,32.142229 L53.2480106,35.2520897 L51.6665737,35.2520897 L51.6665737,32.142229 C51.6401282,31.6780548 51.4412586,31.4396092 51.0704936,31.4258324 L50.9816369,31.4258324 C50.5807242,31.4396092 50.3802678,31.7172659 50.3802678,32.2609219 L50.3802678,35.2520897 L48.80412,35.2520897 L48.80412,32.2609219 C48.80412,30.8286586 49.5297826,30.0735808 50.9816369,29.9946288 L51.0704936,29.9946288 C51.6485908,30.0280112 52.1119148,30.1663096 52.4599367,30.4089943 C52.8047851,30.1663096 53.2665224,30.0280112 53.8440906,29.9946288 L53.9329473,29.9946288 C55.3853305,30.0735808 56.1109932,30.8286586 56.1109932,32.2609219 L56.1109932,35.2520897 L54.5343164,35.2520897 L54.5343164,32.2609219 C54.5343164,31.7172659 54.3338601,31.4396092 53.9329473,31.4258324 L53.8440906,31.4258324 C53.4733257,31.4396092 53.274456,31.6780548 53.2480106,32.142229" id="Fill-227" fill="#000000"></path>
                <path d="M60.1681987,35.1533732 C59.8693653,35.2747155 59.593275,35.347309 59.3409855,35.3700938 C57.786523,35.5348862 57.0095561,34.7925255 57.0095561,33.1440715 L57.0095561,30.1968836 L58.5867618,30.1968836 L58.5867618,33.0354462 C58.5867618,33.334828 58.6560488,33.5621461 58.7930361,33.7168708 C58.9316102,33.8678864 59.1251908,33.944189 59.3748357,33.944189 C59.6144313,33.944189 59.8064252,33.8662967 59.9513461,33.711572 C60.0899202,33.5568473 60.1581494,33.3316487 60.1581494,33.0354462 L60.1581494,30.2021824 L61.7353551,30.1968836 L61.7353551,35.8443356 C61.7353551,36.456346 61.5185025,36.9830459 61.0842685,37.4239053 C60.8875145,37.6215503 60.6167132,37.7826335 60.2713359,37.907685 C59.9592798,38.0194895 59.6461658,38.0756567 59.3304074,38.0756567 L59.0691265,38.0756567 C58.3667358,38.0624097 57.8029191,37.8451593 57.3792633,37.4239053 C57.103173,37.1409499 56.9328644,36.8871378 56.8667508,36.6640586 L58.2911018,35.829499 C58.3043245,36.0796019 58.4005859,36.2904939 58.5814727,36.4616448 C58.7623594,36.6322659 58.9770964,36.7181063 59.2272702,36.7181063 C59.4208507,36.7181063 59.5980351,36.662469 59.7593523,36.5501346 C59.9100912,36.447868 60.0238066,36.3069201 60.0989116,36.1257014 L60.1042007,36.1108648 L60.1137211,36.0864904 L60.1237704,36.0515184 L60.1343485,36.0170762 C60.1465134,35.987403 60.154976,35.9497816 60.1581494,35.9036821 C60.1581494,35.8967936 60.1597361,35.8888455 60.1629096,35.8787778 L60.1629096,35.829499 L60.1681987,35.829499 L60.1681987,35.1533732 Z" id="Fill-229" fill="#000000"></path>
                <path d="M65.8777677,28.2374965 L65.8777677,30.4884232 C66.0285067,30.3336984 66.2162693,30.2123561 66.4394687,30.1233364 C66.6658417,30.0343167 66.8964458,29.9898069 67.1291656,29.9898069 C68.3943152,29.9898069 69.026361,30.7321676 69.026361,32.2163591 L69.026361,35.2472678 L67.4502132,35.2520367 L67.4502132,32.3249843 C67.4502132,32.0224233 67.3809262,31.7951051 67.2423521,31.6435597 C67.1048358,31.4925441 66.9107264,31.4162415 66.6610815,31.4162415 C66.4177835,31.4162415 66.2279053,31.4925441 66.0893312,31.6435597 C65.9486415,31.7951051 65.8777677,32.0224233 65.8777677,32.3249843 L65.8777677,35.2472678 L64.3016199,35.2568056 L64.3016199,28.2422654 L65.8777677,28.2374965 Z" id="Fill-231" fill="#000000"></path>
                <path d="M71.7432591,33.5983899 C72.0024243,33.852202 72.3102492,33.9783132 72.664618,33.9783132 C73.023218,33.9783132 73.3315718,33.852202 73.591266,33.5983899 C73.8536047,33.3445777 73.9853029,33.0420167 73.9853029,32.6896471 C73.9853029,32.4596796 73.9244784,32.247198 73.8033583,32.0532623 C73.6811804,31.8593265 73.5188055,31.7046018 73.3157045,31.5890881 C73.1152482,31.4741043 72.8983956,31.4163475 72.664618,31.4163475 C72.4382451,31.4163475 72.2229792,31.4741043 72.0188205,31.5890881 C71.8157196,31.7046018 71.6533446,31.8593265 71.5316956,32.0532623 C71.4095177,32.247198 71.3492221,32.4596796 71.3492221,32.6896471 C71.3492221,33.0420167 71.4809204,33.3445777 71.7432591,33.5983899 M71.2413247,35.0544977 C70.793868,34.8176418 70.4394992,34.4933557 70.1761027,34.0821695 C69.9105905,33.6672741 69.7773056,33.2036299 69.7773056,32.6896471 C69.7773056,32.3049549 69.8550551,31.9462267 70.0089676,31.6139924 C70.1634089,31.2817582 70.3755013,30.993504 70.6447158,30.7497596 C70.9171037,30.5028359 71.2275731,30.3141989 71.5761239,30.182259 C71.9304927,30.050849 72.293853,29.9851439 72.664618,29.9851439 C73.0390853,29.9851439 73.4040323,30.050849 73.75893,30.182259 C74.1037785,30.3073105 74.4142478,30.4954176 74.6898093,30.7449906 C74.9627261,30.9950936 75.1742896,31.2849375 75.3255575,31.6139924 C75.4794699,31.9462267 75.5572195,32.3049549 75.5572195,32.6896471 C75.5572195,33.0812278 75.4815855,33.4404859 75.3303177,33.7658317 C75.1790498,34.0948866 74.9658996,34.3863201 74.6898093,34.6401323 C74.4105455,34.8902352 74.100605,35.0794021 73.75893,35.2076328 C73.4135526,35.3422221 73.0491346,35.4100467 72.664618,35.4100467 C72.1621547,35.4100467 71.6877237,35.2913537 71.2413247,35.0544977" id="Fill-233" fill="#000000"></path>
                <path d="M80.7718887,32.142229 L80.7718887,35.2520897 L79.1904518,35.2520897 L79.1904518,32.142229 C79.1640063,31.6780548 78.9651367,31.4396092 78.5943717,31.4258324 L78.5055151,31.4258324 C78.1046023,31.4396092 77.9041459,31.7172659 77.9041459,32.2609219 L77.9041459,35.2520897 L76.3279981,35.2520897 L76.3279981,32.2609219 C76.3279981,30.8286586 77.0536608,30.0735808 78.5055151,29.9946288 L78.5943717,29.9946288 C79.1724689,30.0280112 79.6357929,30.1663096 79.9838148,30.4089943 C80.3286632,30.1663096 80.7904005,30.0280112 81.3679688,29.9946288 L81.4568254,29.9946288 C82.9092086,30.0735808 83.6348713,30.8286586 83.6348713,32.2609219 L83.6348713,35.2520897 L82.0581946,35.2520897 L82.0581946,32.2609219 C82.0581946,31.7172659 81.8577382,31.4396092 81.4568254,31.4258324 L81.3679688,31.4258324 C80.9972038,31.4396092 80.7983341,31.6780548 80.7718887,32.142229" id="Fill-235" fill="#000000"></path>
                <path d="M87.1601005,31.4214344 C86.9400745,31.4214344 86.7327423,31.4770717 86.5391617,31.5888762 C86.4212151,31.6614696 86.305913,31.7637363 86.1943132,31.8956762 L88.1258877,31.8956762 C88.0137591,31.7637363 87.898457,31.6614696 87.7810392,31.5888762 C87.5869298,31.4770717 87.3801265,31.4214344 87.1601005,31.4214344 M89.7073246,31.6185494 C89.855419,31.9513135 89.9289373,32.3068624 89.9289373,32.6851961 L89.9289373,32.729706 C89.9289373,32.7461322 89.9273506,32.7641481 89.9247061,32.7837536 L89.9141279,32.8674746 L89.3037673,32.8674746 L89.3037673,32.8775423 L85.9134627,32.8775423 C85.952602,33.1541392 86.0721353,33.3925848 86.2725917,33.593409 C86.525939,33.8435119 86.82107,33.9685634 87.1601005,33.9685634 C87.5017755,33.9685634 87.7974354,33.8435119 88.0470803,33.593409 L88.0566007,33.5833413 L88.0714101,33.5637358 L88.0862195,33.5488991 L88.0962688,33.5340625 L88.9435805,34.7485455 C88.7002825,34.9456606 88.45434,35.0961463 88.2046951,35.197883 C87.8698959,35.3292931 87.521874,35.3949981 87.1601005,35.3949981 C86.670331,35.3949981 86.2159985,35.2778948 85.7955161,35.044748 C85.3644555,34.807892 85.0248962,34.483606 84.7747224,34.0724197 C84.5187306,33.6612335 84.3907347,33.198649 84.3907347,32.6851961 C84.3907347,32.299974 84.4647819,31.9444251 84.6128763,31.6185494 C84.7604418,31.2900243 84.9640717,31.0033597 85.2232369,30.7601452 C85.4866334,30.5095123 85.7822934,30.3203455 86.1107457,30.1921147 C86.4487183,30.0607047 86.7983269,29.9949997 87.1601005,29.9949997 C87.521874,29.9949997 87.8698959,30.0607047 88.2046951,30.1921147 C88.5363208,30.3203455 88.8335675,30.5079227 89.0964351,30.7548464 C89.3556003,30.9948816 89.5597591,31.2831359 89.7073246,31.6185494" id="Fill-237" fill="#000000"></path>
                <path d="M90.8035936,34.0278569 C90.8887479,33.8895584 90.9987609,33.7825229 91.1331037,33.70728 C91.2716778,33.6277981 91.4171277,33.5885871 91.5720979,33.5885871 C91.7260103,33.5885871 91.872518,33.6277981 92.0100343,33.70728 C92.1454349,33.7894113 92.2538612,33.8980365 92.3353131,34.0326258 C92.4178228,34.1645657 92.4590777,34.3086928 92.4590777,34.4671267 C92.4590777,34.7304767 92.3739234,34.9471972 92.202557,35.1188781 C92.0285461,35.2932083 91.8180404,35.3806384 91.5720979,35.3806384 C91.4081362,35.3806384 91.2579261,35.3408974 91.1235833,35.2619454 C90.9855382,35.1829934 90.8771119,35.0727786 90.7983045,34.930771 C90.720026,34.7866438 90.6803579,34.6319191 90.6803579,34.4671267 C90.6803579,34.3055136 90.7210838,34.1592669 90.8035936,34.0278569" id="Fill-239" fill="#000000"></path>
                <path d="M101.304282,32.142229 L101.304282,35.2520897 L99.7228449,35.2520897 L99.7228449,32.142229 C99.6958706,31.6780548 99.4975298,31.4396092 99.1267648,31.4258324 L99.0379082,31.4258324 C98.6369954,31.4396092 98.436539,31.7172659 98.436539,32.2609219 L98.436539,35.2520897 L96.8598623,35.2520897 L96.8598623,32.2609219 C96.8598623,30.8286586 97.585525,30.0735808 99.0379082,29.9946288 L99.1267648,29.9946288 C99.7043331,30.0280112 100.168186,30.1663096 100.516208,30.4089943 C100.861056,30.1663096 101.322265,30.0280112 101.900362,29.9946288 L101.989219,29.9946288 C103.441073,30.0735808 104.166736,30.8286586 104.166736,32.2609219 L104.166736,35.2520897 L102.590588,35.2520897 L102.590588,32.2609219 C102.590588,31.7172659 102.390131,31.4396092 101.989219,31.4258324 L101.900362,31.4258324 C101.529597,31.4396092 101.330198,31.6780548 101.304282,32.142229" id="Fill-241" fill="#000000"></path>
                <path d="M108.224523,35.1533732 C107.925161,35.2747155 107.64907,35.347309 107.396781,35.3700938 C105.842318,35.5348862 105.065351,34.7925255 105.065351,33.1440715 L105.065351,30.1968836 L106.643086,30.1968836 L106.643086,33.0354462 C106.643086,33.334828 106.711844,33.5621461 106.84936,33.7168708 C106.987405,33.8678864 107.180986,33.944189 107.43116,33.944189 C107.670755,33.944189 107.862749,33.8662967 108.00767,33.711572 C108.145715,33.5568473 108.213945,33.3316487 108.213945,33.0354462 L108.213945,30.2021824 L109.79115,30.1968836 L109.79115,35.8443356 C109.79115,36.456346 109.574827,36.9830459 109.140593,37.4239053 C108.94331,37.6215503 108.673037,37.7826335 108.32766,37.907685 C108.015604,38.0194895 107.701961,38.0756567 107.386731,38.0756567 L107.125451,38.0756567 C106.422531,38.0624097 105.858714,37.8451593 105.435587,37.4239053 C105.159497,37.1409499 104.98866,36.8871378 104.923075,36.6640586 L106.346897,35.829499 C106.36012,36.0796019 106.45691,36.2904939 106.637797,36.4616448 C106.818684,36.6322659 107.03342,36.7181063 107.283594,36.7181063 C107.476646,36.7181063 107.654359,36.662469 107.815676,36.5501346 C107.966415,36.447868 108.080131,36.3069201 108.155236,36.1257014 L108.160525,36.1108648 L108.169516,36.0864904 L108.180094,36.0515184 L108.190144,36.0170762 C108.202838,35.987403 108.2113,35.9497816 108.213945,35.9036821 C108.213945,35.8967936 108.21606,35.8888455 108.219234,35.8787778 L108.219234,35.829499 L108.224523,35.829499 L108.224523,35.1533732 Z" id="Fill-243" fill="#000000"></path>
                <polygon id="Fill-245" fill="#000000" points="117.575469 30.1970956 114.919819 35.4545565 112.357785 30.2071633 113.958792 30.1970956 114.939389 32.4379545 115.905176 30.1970956"></polygon>
                <path d="M119.385342,32.0532623 C119.264222,32.247198 119.203397,32.4596796 119.203397,32.6896471 C119.203397,33.0388375 119.334567,33.3403387 119.597434,33.5930911 C119.857128,33.8437239 120.164424,33.9682455 120.518793,33.9682455 C120.876864,33.9682455 121.185747,33.8437239 121.445441,33.5930911 C121.708309,33.3403387 121.840007,33.0388375 121.840007,32.6896471 C121.840007,32.4596796 121.778654,32.247198 121.657005,32.0532623 C121.535356,31.8593265 121.372981,31.7046018 121.169351,31.5890881 C120.968894,31.4772836 120.752042,31.4216463 120.518793,31.4216463 C120.29242,31.4216463 120.077683,31.4772836 119.873525,31.5890881 C119.669366,31.7046018 119.506991,31.8593265 119.385342,32.0532623 L119.385342,32.0532623 Z M121.844238,35.0990076 C121.738986,35.1451071 121.662294,35.17637 121.612576,35.1927962 C121.264554,35.3279154 120.899607,35.39521 120.518793,35.39521 C120.01633,35.39521 119.54137,35.2781068 119.094971,35.0449599 C118.648043,34.8075741 118.293674,34.4854075 118.030278,34.0768707 C117.764766,33.6625052 117.631481,33.1999207 117.631481,32.6896471 C117.631481,32.3049549 117.708701,31.9462267 117.863143,31.6139924 C118.017584,31.2849375 118.229148,30.9988028 118.498891,30.7550583 C118.764403,30.5113139 119.073286,30.3253264 119.42501,30.1970956 C119.776734,30.0619764 120.141681,29.9946818 120.518793,29.9946818 C120.893789,29.9946818 121.258208,30.0603868 121.612576,30.1917968 C121.968003,30.3237367 122.276357,30.5113139 122.539224,30.7550583 C122.814786,31.0046314 123.028994,31.2918259 123.179733,31.6139924 C123.334174,31.9462267 123.410866,32.3049549 123.410866,32.6896471 L123.406635,35.2622104 L121.844238,35.2468439 L121.844238,35.0990076 Z" id="Fill-247" fill="#000000"></path>
                <polygon id="Fill-249" fill="#000000" points="124.162022 28.2421595 125.734467 28.2373906 125.734467 35.2370941 124.162022 35.2566996"></polygon>
                <path d="M128.662929,33.9683515 L128.751257,33.9683515 C129.152169,33.9556344 129.352626,33.6769179 129.352626,33.1343217 L129.352626,30.1919028 L130.929303,30.1919028 L130.929303,33.1343217 C130.929303,34.5660552 130.203111,35.3211329 128.751257,35.4000849 L128.662929,35.4000849 C127.210546,35.3211329 126.484883,34.5660552 126.484883,33.1343217 L126.484883,30.1919028 L128.06156,30.1919028 L128.06156,33.1343217 C128.06156,33.6769179 128.262016,33.9556344 128.662929,33.9683515" id="Fill-251" fill="#000000"></path>
                <path d="M134.44993,31.4214344 C134.229375,31.4214344 134.022043,31.4770717 133.828991,31.5888762 C133.710516,31.6614696 133.595743,31.7637363 133.484143,31.8956762 L135.415188,31.8956762 C135.30306,31.7637363 135.188287,31.6614696 135.07034,31.5888762 C134.876759,31.4770717 134.669956,31.4214344 134.44993,31.4214344 M136.996625,31.6185494 C137.145249,31.9513135 137.218238,32.3068624 137.218238,32.6851961 L137.218238,32.729706 C137.218238,32.7461322 137.216651,32.7641481 137.214007,32.7837536 L137.203958,32.8674746 L136.593068,32.8674746 L136.593068,32.8775423 L133.203292,32.8775423 C133.242432,33.1541392 133.361965,33.3925848 133.562421,33.593409 C133.815769,33.8435119 134.1109,33.9685634 134.44993,33.9685634 C134.791076,33.9685634 135.086736,33.8435119 135.336381,33.593409 L135.34643,33.5833413 L135.36124,33.5637358 L135.37552,33.5488991 L135.386099,33.5340625 L136.232881,34.7485455 C135.990112,34.9456606 135.743641,35.0961463 135.494525,35.197883 C135.159197,35.3292931 134.811175,35.3949981 134.44993,35.3949981 C133.960161,35.3949981 133.505299,35.2778948 133.084817,35.044748 C132.654285,34.807892 132.314726,34.483606 132.064552,34.0724197 C131.80856,33.6612335 131.680564,33.198649 131.680564,32.6851961 C131.680564,32.299974 131.754083,31.9444251 131.902706,31.6185494 C132.050272,31.2900243 132.253901,31.0033597 132.513067,30.7601452 C132.775934,30.5095123 133.072123,30.3203455 133.400575,30.1921147 C133.738019,30.0607047 134.088157,29.9949997 134.44993,29.9949997 C134.811175,29.9949997 135.159197,30.0607047 135.494525,30.1921147 C135.826151,30.3203455 136.123397,30.5079227 136.385736,30.7548464 C136.644901,30.9948816 136.84906,31.2831359 136.996625,31.6185494" id="Fill-253" fill="#000000"></path>
                <path d="M138.092365,34.0278569 C138.178049,33.8895584 138.288062,33.7825229 138.422933,33.70728 C138.560979,33.6277981 138.706957,33.5885871 138.86087,33.5885871 C139.01584,33.5885871 139.16129,33.6277981 139.299864,33.70728 C139.434207,33.7894113 139.542633,33.8980365 139.625143,34.0326258 C139.707124,34.1645657 139.748379,34.3086928 139.748379,34.4671267 C139.748379,34.7304767 139.662695,34.9471972 139.491858,35.1188781 C139.317318,35.2932083 139.10787,35.3806384 138.86087,35.3806384 C138.696908,35.3806384 138.547756,35.3408974 138.412355,35.2619454 C138.275368,35.1829934 138.166942,35.0727786 138.087605,34.930771 C138.008798,34.7866438 137.969659,34.6319191 137.969659,34.4671267 C137.969659,34.3055136 138.010914,34.1592669 138.092365,34.0278569" id="Fill-255" fill="#000000"></path>
                <g id="the-canary" transform="translate(6.482224, 6.494118)">
                    <path d="M33.3746658,17.5462591 C33.3746658,26.3258267 26.2708935,33.4426336 17.5074058,33.4426336 C8.74391808,33.4426336 1.64014578,26.3258267 1.64014578,17.5462591 C1.64014578,8.76669154 8.74391808,1.6498847 17.5074058,1.6498847 C26.2708935,1.6498847 33.3746658,8.76669154 33.3746658,17.5462591" id="Fill-257" fill="#FFFFFF"></path>
                    <path d="M25.0100281,8.98208741 C24.5054493,8.74258204 23.9151872,8.85809569 23.5370175,9.24225808 C23.643857,9.31432164 23.7469942,9.39009436 23.8459001,9.47063599 L23.904609,9.51143668 C24.2759029,9.80498973 24.6218092,10.1207977 24.94127,10.4546216 C24.9809381,10.4026934 25.0179617,10.3486457 25.0496963,10.2892993 C25.2813583,9.86380632 25.2490948,9.36571992 25.0100281,8.98208741" id="Fill-259" fill="#FFFE71"></path>
                    <path d="M21.4172044,12.9702758 C21.338926,12.9453715 21.2606475,12.9231166 21.182369,12.9019214 C21.1575103,12.895033 21.1321227,12.8892043 21.106735,12.8828458 C21.0533153,12.8695988 20.9998955,12.8563518 20.9459468,12.8446945 C20.9168568,12.8383359 20.8872379,12.8325072 20.858148,12.8266786 C20.8079016,12.8166109 20.7576553,12.807073 20.707409,12.798595 C20.6772612,12.7938261 20.6476423,12.7885273 20.6180234,12.7842882 C20.5656615,12.77634 20.5132995,12.7694516 20.4609376,12.7630931 C20.4339632,12.7599138 20.4075178,12.7562046 20.3810724,12.7535552 C20.3086119,12.7461369 20.2361514,12.7403083 20.1642198,12.7360692 C20.1509971,12.7350095 20.1383033,12.7344796 20.1250806,12.7339497 C20.0552646,12.7302406 19.9859776,12.728121 19.9166905,12.7270613 C19.8870717,12.7270613 19.8579817,12.7275912 19.8283628,12.7275912 C19.7802321,12.728121 19.7326303,12.7286509 19.6850285,12.7302406 C19.6511784,12.7313003 19.6178571,12.73289 19.5845359,12.7350095 C19.5411654,12.737129 19.497266,12.7403083 19.4538955,12.7434875 C19.4195164,12.7466668 19.3851373,12.7493162 19.3502294,12.7524955 C19.3079167,12.7572644 19.2650751,12.7620333 19.2227624,12.767862 C19.1883833,12.772101 19.1545332,12.7758102 19.120683,12.781109 C19.0736101,12.7879974 19.0265373,12.7959456 18.9799933,12.8044236 C18.9223423,12.8144913 18.8652201,12.8256188 18.808098,12.837806 C18.7684298,12.8457542 18.7282328,12.8542323 18.6890935,12.8632402 C18.6488965,12.872778 18.6092283,12.8833756 18.5700891,12.8939732 C18.5372967,12.9024513 18.5045044,12.9109293 18.4717121,12.9199373 C18.4304572,12.9315946 18.3897312,12.9443117 18.3484763,12.9570288 C18.3188575,12.9660368 18.2897675,12.9755746 18.2601486,12.9851124 C18.217307,12.9994192 18.1749943,13.0137259 18.1326816,13.0290924 C18.107294,13.0381003 18.0824353,13.0476382 18.0570477,13.057176 C18.0115615,13.0741321 17.9660754,13.0916181 17.9211181,13.1101639 C17.9126556,13.1133432 17.904722,13.1170523 17.8962594,13.1207615 C17.724893,13.1917653 17.5577579,13.2728368 17.394854,13.3623864 C17.3805735,13.3703346 17.366293,13.3777529 17.3525413,13.3857011 C17.3038817,13.4127249 17.25628,13.4408085 17.2086782,13.469422 C17.1949265,13.4779 17.1811749,13.4863781 17.1674233,13.4948562 C17.1314575,13.5171111 17.0965495,13.5398959 17.0611127,13.5632106 C17.0478899,13.5711588 17.0351961,13.579107 17.0219734,13.587585 C17.0145687,13.5928838 17.0066351,13.5981826 16.9987014,13.6034814 C16.7781465,13.7518476 16.5692276,13.9176997 16.3735314,14.0994483 C16.3719447,14.1010379 16.3703579,14.1020977 16.3687712,14.1036873 C16.3206405,14.1481972 16.2735676,14.1937668 16.2275526,14.2403961 C16.2233213,14.2446352 16.219619,14.2483443 16.2153877,14.2525833 C15.9747343,14.4963278 15.7568239,14.7649765 15.5664168,15.0574698 L15.5627144,15.0558801 C15.5484339,15.0807845 15.5336244,15.1051589 15.518815,15.1295333 C15.5177572,15.131123 15.5172283,15.1327126 15.5161704,15.1343023 C14.7513685,16.4017732 13.1953192,17.0280903 11.725482,16.5586174 C10.9220698,16.3021559 10.2863215,15.7632688 9.8933424,15.0866131 C9.48132255,16.7414257 9.63682169,18.4206127 10.2455956,19.9042743 C11.0855025,21.9501377 12.7875306,23.6234961 15.0560199,24.3478409 C18.883203,25.5702721 22.9489239,23.6521096 24.506031,20.0325051 C24.5419968,19.9546129 24.5769048,19.875131 24.6091682,19.7940595 C24.6197464,19.7686253 24.6303246,19.7431911 24.6403739,19.7177569 C24.6514809,19.6880836 24.662588,19.6584104 24.6736951,19.6282073 C24.6985538,19.5609127 24.7223547,19.4925582 24.7445689,19.423674 C25.6045744,16.7207604 24.1146386,13.8318593 21.4172044,12.9702758" id="Fill-261" fill="#FFFE71"></path>
                    <path d="M21.6370718,26.8628593 L21.6370718,28.5229706 C21.6370718,28.779962 21.8470485,28.990324 22.1035692,28.990324 C22.3600899,28.990324 22.5700667,28.779962 22.5700667,28.5229706 L22.5700667,26.3923266 C22.2664731,26.5655971 21.9549459,26.7224413 21.6370718,26.8628593" id="Fill-263" fill="#000000"></path>
                    <path d="M22.1249371,10.2481807 C22.0958471,9.86878718 21.7658081,9.58477196 21.3871095,9.61338543 C21.0084109,9.64252878 20.7249159,9.97370325 20.7534769,10.3530967 C20.7825669,10.7324902 21.1126059,11.0165054 21.4913045,10.9873621 C21.8700031,10.9587486 22.1540271,10.6275741 22.1249371,10.2481807" id="Fill-265" fill="#000000"></path>
                    <path d="M20.3131076,25.4532218 C20.0565869,25.4532218 19.8466101,25.6635838 19.8466101,25.9205752 L19.8466101,27.4630534 L19.8466101,28.9525437 C19.8466101,29.209535 20.0565869,29.4198971 20.3131076,29.4198971 C20.5696283,29.4198971 20.779605,29.209535 20.779605,28.9525437 L20.779605,27.1959943 L20.779605,25.9205752 C20.779605,25.6635838 20.5696283,25.4532218 20.3131076,25.4532218" id="Fill-267" fill="#000000"></path>
                    <path d="M21.4915161,10.987468 C21.1128175,11.0166114 20.7822496,10.7320663 20.7536885,10.3526728 C20.7245985,9.97327935 21.0080936,9.64263476 21.3867922,9.61349141 C21.7654908,9.58487793 22.0960587,9.86889316 22.1251487,10.2482866 C22.1537098,10.6276801 21.8702147,10.9583247 21.4915161,10.987468 M24.9415873,10.4544096 C24.6215976,10.1205858 24.2756913,9.80530766 23.9043974,9.51122473 L23.8462175,9.47095392 C23.7473116,9.39041229 23.6436455,9.31410969 23.5368059,9.24204612 C23.2273943,9.0343335 22.8851904,8.86424229 22.5138966,8.74131033 C20.305174,8.01060698 17.9234982,9.21184301 17.1941332,11.4246183 C16.9582399,12.1399552 16.9243898,12.8733079 17.0608482,13.5632106 C17.0962851,13.5398959 17.131722,13.5171111 17.1676877,13.4948562 C17.1814394,13.4863781 17.195191,13.4779 17.2089426,13.469422 C17.2565444,13.4408085 17.3041462,13.4127249 17.3522769,13.3857011 C17.3665574,13.3777529 17.3808379,13.3698047 17.3945896,13.3623864 C17.5574934,13.2728368 17.7246286,13.1917653 17.8965239,13.1207615 C17.9044575,13.1170523 17.9129201,13.1133432 17.9208537,13.1101639 C17.9658109,13.0916181 18.011826,13.0741321 18.0573121,13.057176 C18.0821708,13.0476382 18.1075585,13.0381003 18.1329461,13.0290924 C18.1747299,13.0137259 18.2175715,12.9994192 18.2604131,12.9851124 C18.289503,12.9755746 18.3191219,12.9660368 18.3487408,12.9570288 C18.3894668,12.9443117 18.4307216,12.9315946 18.4719765,12.9199373 C18.50424,12.9109293 18.5370323,12.9024513 18.5698246,12.8939732 C18.6094928,12.8833756 18.6491609,12.872778 18.6888291,12.8632402 C18.7284972,12.8542323 18.7681654,12.8457542 18.8083624,12.837806 C18.8649557,12.8256188 18.9226067,12.8144913 18.9802578,12.8044236 C19.0268017,12.7959456 19.0733457,12.7879974 19.1204185,12.7805791 C19.1542687,12.7758102 19.1886478,12.772101 19.2224979,12.767862 C19.2653395,12.7620333 19.3076522,12.7572644 19.3504938,12.7524955 C19.3848729,12.7493162 19.4192519,12.7461369 19.4541599,12.7434875 C19.4975304,12.7403083 19.5409009,12.737129 19.5848004,12.7350095 C19.6181216,12.73289 19.6514428,12.7313003 19.6847641,12.7302406 C19.7323659,12.7286509 19.7804966,12.728121 19.8286273,12.7275912 C19.8577172,12.7275912 19.8873361,12.7265314 19.916955,12.7270613 C19.986242,12.728121 20.0555291,12.7302406 20.1248161,12.7339497 C20.1380388,12.7344796 20.1512615,12.7350095 20.1639553,12.7360692 C20.2364158,12.7403083 20.3088763,12.7461369 20.3813368,12.7535552 C20.4077822,12.7562046 20.4342277,12.7599138 20.4606731,12.7630931 C20.5130351,12.7694516 20.565397,12.77634 20.6182879,12.7842882 C20.6479068,12.7885273 20.6775257,12.7938261 20.7071445,12.798595 C20.7573909,12.807073 20.8076372,12.8166109 20.8578835,12.8266786 C20.8875024,12.8325072 20.9165924,12.8383359 20.9462113,12.8446945 C20.999631,12.8563518 21.0535797,12.8695988 21.1069995,12.8828458 C21.1318582,12.8892043 21.1572458,12.895033 21.1826334,12.9019214 C21.2609119,12.9225867 21.3391904,12.9453715 21.4174689,12.9702758 C24.1149031,13.8318593 25.6043099,16.7207604 24.7448333,19.4231441 C24.7226191,19.4925582 24.6982894,19.5609127 24.6734306,19.6282073 C24.6628525,19.6584104 24.6517454,19.6880836 24.6401094,19.7177569 C24.6300601,19.7431911 24.619482,19.7686253 24.6094327,19.7940595 C24.5766404,19.875131 24.5422613,19.9546129 24.5057666,20.0325051 C22.9491884,23.6521096 18.8834675,25.5702721 15.0562844,24.3478409 C12.7877951,23.6234961 11.085767,21.9501377 10.24586,19.9042743 C9.20761231,19.7643862 8.23494927,19.4183752 7.36912578,18.9091613 C7.77638546,21.8033612 9.4085976,24.5046851 12.0753551,26.1759239 C14.4861208,27.6866094 17.2814031,28.0681224 19.8466101,27.4630004 L19.8466101,25.9205222 C19.8466101,25.6635308 20.0565869,25.4531688 20.3131076,25.4531688 C20.5696283,25.4531688 20.779605,25.6635308 20.779605,25.9205222 L20.779605,27.1959413 C21.0699759,27.0979137 21.3561155,26.9871689 21.636966,26.8626473 C21.955369,26.7222293 22.2663673,26.5653851 22.5699609,26.3926445 C23.9953697,25.5803398 25.2462387,24.4124861 26.1765891,22.9219361 C28.7142929,18.8582929 28.1012877,13.7534372 24.9415873,10.4544096" id="Fill-269" fill="#FFE600"></path>
                    <path d="M17.4740845,31.8648124 C9.57060233,31.8648124 3.14118857,25.4236015 3.14118857,17.5056174 C3.14118857,9.58816318 9.57060233,3.14642238 17.4740845,3.14642238 C25.3770378,3.14642238 31.8069805,9.58816318 31.8069805,17.5056174 C31.8069805,25.4236015 25.3770378,31.8648124 17.4740845,31.8648124 M17.4740845,0 C7.83895535,0 0,7.85280897 0,17.5056174 C0,27.1584259 7.83895535,35.0117647 17.4740845,35.0117647 C27.1092137,35.0117647 34.9481691,27.1584259 34.9481691,17.5056174 C34.9481691,7.85280897 27.1092137,0 17.4740845,0" id="Fill-271" fill="#FFE600"></path>
                </g>
            </g>
        </g>
    </g>
</svg>