<?xml version="1.0" encoding="UTF-8"?>
<svg width="277px" height="166px" viewBox="0 0 277 166" version="1.1" xmlns="http://www.w3.org/2000/svg" xmlns:xlink="http://www.w3.org/1999/xlink">
    <title>logo</title>
    <defs>
        <filter x="-53.0%" y="-52.9%" width="205.9%" height="205.9%" filterUnits="objectBoundingBox" id="filter-1">
            <feGaussianBlur stdDeviation="14.1176471" in="SourceGraphic"></feGaussianBlur>
        </filter>
    </defs>
    <g id="Cover" stroke="none" stroke-width="1" fill="none" fill-rule="evenodd">
        <g id="cover" transform="translate(-22.000000, -43.000000)">
            <g id="logo" transform="translate(65.000000, 86.000000)">
                <ellipse id="white-halo" fill="#FFFFFF" filter="url(#filter-1)" cx="39.9838592" cy="40" rx="39.9838592" ry="40"></ellipse>
                <path d="M94.7090579,23.4395987 L94.7090579,33.5770699 L89.5457037,33.5770699 L89.5457037,23.4395987 C89.4600744,21.9276768 88.8112344,21.1496376 87.6000663,21.1063642 L87.310516,21.1063642 C86.0022426,21.1496376 85.3481059,22.0566141 85.3481059,23.8255273 L85.3481059,33.5770699 L80.2015244,33.5770699 L80.2015244,23.8255273 C80.2015244,19.1599414 82.570894,16.6977696 87.310516,16.4407783 L87.6000663,16.4407783 C89.4865577,16.5476372 90.9987522,16.9989176 92.1357671,17.7919701 C93.261306,16.9989176 94.7673211,16.5476372 96.6546952,16.4407783 L96.9442456,16.4407783 C101.682985,16.6977696 104.053237,19.1599414 104.053237,23.8255273 L104.053237,33.5770699 L98.9066556,33.5770699 L98.9066556,23.8255273 C98.9066556,22.0566141 98.2525189,21.1496376 96.9442456,21.1063642 L96.6546952,21.1063642 C95.4426444,21.1496376 94.7946871,21.9276768 94.7090579,23.4395987" id="Fill-211" fill="#000000"></path>
                <path d="M117.296548,33.2549034 C116.321081,33.6514296 115.419767,33.8872258 114.593489,33.962292 C109.521943,34.4983531 106.986612,32.0803379 106.986612,26.7055971 L106.986612,17.1006544 L112.133193,17.1006544 L112.133193,26.3523444 C112.133193,27.3282051 112.358301,28.0682697 112.8094,28.572538 C113.259615,29.0662087 113.892565,29.3126025 114.706484,29.3126025 C115.489506,29.3126025 116.116277,29.0609099 116.588562,28.5566416 C117.038777,28.0514902 117.263885,27.3167244 117.263885,26.3523444 L117.263885,17.1165508 L122.410466,17.1006544 L122.410466,35.5068898 C122.410466,37.5027679 121.703363,39.2186932 120.288274,40.6555488 C119.644731,41.299352 118.759307,41.8248155 117.633768,42.2328224 C116.615928,42.5966728 115.591025,42.7794811 114.561709,42.7794811 L113.709831,42.7794811 C111.415497,42.7362076 109.576675,42.0288189 108.192483,40.6555488 C107.292935,39.7335591 106.735021,38.9069476 106.520506,38.1774807 L111.169203,35.4583175 C111.210693,36.2734483 111.527609,36.9605249 112.117304,37.5177811 C112.706998,38.0759205 113.409687,38.3549902 114.224489,38.3549902 C114.856556,38.3549902 115.43654,38.1721819 115.960908,37.8074484 C116.45438,37.4753908 116.824263,37.0143959 117.07144,36.4244638 L117.08733,36.3758916 L117.11911,36.2955266 L117.151772,36.1824857 L117.183552,36.0703279 C117.226808,35.9731834 117.253292,35.8495449 117.263885,35.7002957 C117.263885,35.6782174 117.270064,35.6517234 117.279775,35.6199306 L117.279775,35.4583175 L117.296548,35.4583175 L117.296548,33.2549034 Z" id="Fill-213" fill="#000000"></path>
                <path d="M143.459985,22.0562608 C142.999176,21.6703322 142.495111,21.3797818 141.94779,21.187259 C141.380165,20.9938532 140.779878,20.8975918 140.146928,20.8975918 C138.96754,20.8975918 137.970004,21.2782216 137.155202,22.0394813 C136.329807,22.8016242 135.916668,23.7456922 135.916668,24.8716854 C135.916668,25.7521679 136.094105,26.5399216 136.448098,27.2367126 C136.790615,27.9343869 137.299977,28.4863443 137.9753,28.8943512 C138.629437,29.3129558 139.385975,29.5213749 140.243151,29.5213749 C141.508168,29.5213749 142.592216,29.1195499 143.491765,28.3150167 L146.306936,31.8872853 C145.899094,32.3156043 145.330586,32.6971173 144.602296,33.0291749 C143.86253,33.3621156 143.100695,33.6085094 142.318556,33.7701225 C141.535534,33.9299694 140.811658,34.0103344 140.146928,34.0103344 C138.281623,34.0103344 136.635247,33.619107 135.208682,32.835769 C133.782999,32.0427165 132.690123,31.0023871 131.928288,29.7147808 C131.166452,28.4059793 130.786859,27.0062152 130.786859,25.5154885 C130.786859,24.1536991 131.01638,22.9199639 131.478072,21.8151658 C131.949474,20.6882895 132.598314,19.7230263 133.424592,18.9184932 C134.239394,18.1360383 135.230751,17.5187291 136.399546,17.0683318 C137.556865,16.6285321 138.806875,16.4077491 140.146928,16.4077491 C141.240687,16.4077491 142.30708,16.580843 143.347872,16.9234982 C144.397492,17.2776341 145.325289,17.7757205 146.129498,18.4195236 L143.459985,22.0562608 Z" id="Fill-215" fill="#000000"></path>
                <path d="M152.682606,23.1498431 C152.285357,23.7830487 152.086732,24.4754241 152.086732,25.2260862 C152.086732,26.3635601 152.516644,27.3447197 153.373819,28.170448 C154.220401,28.9855788 155.223234,29.3927026 156.381435,29.3927026 C157.55023,29.3927026 158.557477,28.9855788 159.404942,28.170448 C160.262999,27.3447197 160.691146,26.3635601 160.691146,25.2260862 C160.691146,24.4754241 160.493404,23.7830487 160.096155,23.1498431 C159.699789,22.5175206 159.16924,22.0132523 158.50451,21.6379213 C157.850374,21.2731878 157.143271,21.0903795 156.381435,21.0903795 C155.641669,21.0903795 154.939863,21.2731878 154.275133,21.6379213 C153.60952,22.0132523 153.078972,22.5175206 152.682606,23.1498431 L152.682606,23.1498431 Z M160.707918,33.0771289 C160.364519,33.2281445 160.112928,33.3297047 159.95138,33.3835757 C158.815247,33.8233754 157.625266,34.0432752 156.381435,34.0432752 C154.741238,34.0432752 153.191084,33.6617623 151.733622,32.9005025 C150.274394,32.1286453 149.117075,31.0777183 148.259017,29.7468385 C147.391249,28.3947635 146.956923,26.8881405 146.956923,25.2260862 C146.956923,23.9711558 147.208515,22.801006 147.712579,21.7182863 C148.215761,20.645281 148.90874,19.7118106 149.787985,18.9187581 C150.655753,18.1257056 151.663883,17.518994 152.811491,17.1003895 C153.958216,16.6605898 155.148198,16.4406899 156.381435,16.4406899 C157.603197,16.4406899 158.794061,16.655291 159.95138,17.0844931 C161.110464,17.5136952 162.117711,18.1257056 162.975769,18.9187581 C163.8762,19.7338889 164.573592,20.6664762 165.066181,21.7182863 C165.570246,22.801006 165.82272,23.9711558 165.82272,25.2260862 L165.805947,33.6087743 L160.707918,33.5602021 L160.707918,33.0771289 Z" id="Fill-217" fill="#000000"></path>
                <path d="M175.382208,21.0902912 C174.073935,21.1450453 173.419798,22.0564375 173.419798,23.8262338 L173.419798,33.5601138 L168.273216,33.5601138 L168.273216,23.8262338 C168.273216,19.1385696 170.643469,16.6763979 175.382208,16.4406016 L175.671758,16.4406016 C180.410498,16.6763979 182.78075,19.1385696 182.78075,23.8262338 L182.78075,33.5601138 L177.634168,33.5601138 L177.634168,23.8262338 C177.634168,22.0564375 176.980032,21.1450453 175.671758,21.0902912 L175.382208,21.0902912 Z" id="Fill-219" fill="#000000"></path>
                <path d="M190.957458,23.1498431 C190.560209,23.7830487 190.361585,24.4754241 190.361585,25.2260862 C190.361585,26.3635601 190.791497,27.3447197 191.648672,28.170448 C192.495253,28.9855788 193.498087,29.3927026 194.656288,29.3927026 C195.825083,29.3927026 196.83233,28.9855788 197.679794,28.170448 C198.537852,27.3447197 198.965998,26.3635601 198.965998,25.2260862 C198.965998,24.4754241 198.768257,23.7830487 198.371008,23.1498431 C197.974641,22.5175206 197.444093,22.0132523 196.779363,21.6379213 C196.125227,21.2731878 195.418123,21.0903795 194.656288,21.0903795 C193.916522,21.0903795 193.214716,21.2731878 192.549986,21.6379213 C191.884373,22.0132523 191.353825,22.5175206 190.957458,23.1498431 L190.957458,23.1498431 Z M198.982771,33.0771289 C198.639371,33.2281445 198.38778,33.3297047 198.226232,33.3835757 C197.0901,33.8233754 195.900119,34.0432752 194.656288,34.0432752 C193.016091,34.0432752 191.465937,33.6617623 190.008475,32.9005025 C188.549247,32.1286453 187.391928,31.0777183 186.53387,29.7468385 C185.666102,28.3947635 185.231776,26.8881405 185.231776,25.2260862 C185.231776,23.9711558 185.483367,22.801006 185.987432,21.7182863 C186.490614,20.645281 187.183593,19.7118106 188.062837,18.9187581 C188.930606,18.1257056 189.938735,17.518994 191.086344,17.1003895 C192.233069,16.6605898 193.423051,16.4406899 194.656288,16.4406899 C195.878049,16.4406899 197.068914,16.655291 198.226232,17.0844931 C199.385317,17.5136952 200.392564,18.1257056 201.250621,18.9187581 C202.151052,19.7338889 202.848445,20.6664762 203.341034,21.7182863 C203.845099,22.801006 204.097573,23.9711558 204.097573,25.2260862 L204.0808,33.6087743 L198.982771,33.5602021 L198.982771,33.0771289 Z" id="Fill-221" fill="#000000"></path>
                <path d="M214.992435,21.3800467 C214.724072,21.1981216 214.375375,21.0965614 213.946346,21.0744831 L213.656796,21.0744831 C212.348523,21.1283541 211.695269,22.0397463 211.695269,23.8095426 L211.695269,33.5602021 L206.548687,33.5602021 L206.548687,23.8095426 C206.548687,19.1218784 208.918057,16.6605898 213.656796,16.4247936 L213.946346,16.4247936 C214.300339,16.4353912 214.648153,16.468067 214.992435,16.521055 L214.992435,21.3800467 Z" id="Fill-223" fill="#000000"></path>
                <path d="M228.219415,33.2549034 C227.243948,33.6514296 226.342634,33.8872258 225.516356,33.962292 C220.44481,34.4983531 217.909479,32.0803379 217.909479,26.7055971 L217.909479,17.1006544 L223.05606,17.1006544 L223.05606,26.3523444 C223.05606,27.3282051 223.281168,28.0682697 223.732266,28.572538 C224.182482,29.0662087 224.815432,29.3126025 225.629351,29.3126025 C226.412373,29.3126025 227.039144,29.0609099 227.511429,28.5566416 C227.961644,28.0514902 228.186752,27.3167244 228.186752,26.3523444 L228.186752,17.1165508 L233.333333,17.1006544 L233.333333,35.5068898 C233.333333,37.5027679 232.62623,39.2186932 231.211141,40.6555488 C230.567598,41.299352 229.682174,41.8248155 228.556635,42.2328224 C227.538795,42.5966728 226.513892,42.7794811 225.484576,42.7794811 L224.632697,42.7794811 C222.338364,42.7362076 220.499542,42.0288189 219.11535,40.6555488 C218.215802,39.7335591 217.657888,38.9069476 217.443373,38.1774807 L222.092069,35.4583175 C222.13356,36.2734483 222.450476,36.9605249 223.04017,37.5177811 C223.629864,38.0759205 224.332554,38.3549902 225.147356,38.3549902 C225.779423,38.3549902 226.359406,38.1721819 226.883775,37.8074484 C227.377247,37.4753908 227.74713,37.0143959 227.994307,36.4244638 L228.010197,36.3758916 L228.041977,36.2955266 L228.074639,36.1824857 L228.106419,36.0703279 C228.149675,35.9731834 228.176159,35.8495449 228.186752,35.7002957 C228.186752,35.6782174 228.192931,35.6517234 228.202642,35.6199306 L228.202642,35.4583175 L228.219415,35.4583175 L228.219415,33.2549034 Z" id="Fill-225" fill="#000000"></path>
                <path d="M88.8736466,53.5703816 L88.8736466,58.7534828 L86.2341477,58.7534828 L86.2341477,53.5703816 C86.190009,52.7967581 85.8580853,52.3993487 85.2392597,52.3763873 L85.0909534,52.3763873 C84.4218095,52.3993487 84.0872376,52.8621098 84.0872376,53.7682032 L84.0872376,58.7534828 L81.4565664,58.7534828 L81.4565664,53.7682032 C81.4565664,51.3810976 82.6677345,50.1226346 85.0909534,49.991048 L85.2392597,49.991048 C86.2041334,50.0466853 86.9774447,50.2771827 87.5583111,50.6816571 C88.1338807,50.2771827 88.9045438,50.0466853 89.8685347,49.991048 L90.016841,49.991048 C92.4409426,50.1226346 93.6521107,51.3810976 93.6521107,53.7682032 L93.6521107,58.7534828 L91.0205568,58.7534828 L91.0205568,53.7682032 C91.0205568,52.8621098 90.6859848,52.3993487 90.016841,52.3763873 L89.8685347,52.3763873 C89.249709,52.3993487 88.9177854,52.7967581 88.8736466,53.5703816" id="Fill-227" fill="#000000"></path>
                <path d="M100.423794,58.5889553 C99.9250255,58.7911925 99.4642167,58.9121816 99.0431327,58.9501563 C96.4486554,59.2248103 95.1518581,57.9875425 95.1518581,55.2401191 L95.1518581,50.3281394 L97.7842948,50.3281394 L97.7842948,55.0590771 C97.7842948,55.5580466 97.8999384,55.9369102 98.1285773,56.1947847 C98.3598645,56.4464773 98.6829603,56.5736483 99.0996304,56.5736483 C99.4995277,56.5736483 99.8199752,56.4438279 100.061856,56.1859534 C100.293143,55.9280789 100.407021,55.5527478 100.407021,55.0590771 L100.407021,50.3369707 L103.039458,50.3281394 L103.039458,59.7405593 C103.039458,60.7605767 102.67752,61.6384098 101.952761,62.3731756 C101.624368,62.7025838 101.172387,62.9710559 100.595935,63.179475 C100.075097,63.3658159 99.5524942,63.4594278 99.0254772,63.4594278 L98.5893861,63.4594278 C97.4170602,63.4373495 96.4760214,63.0752655 95.7689182,62.3731756 C95.3081094,61.9015831 95.0238556,61.478563 94.9135087,61.1067644 L97.2908233,59.7158317 C97.3128926,60.1326699 97.4735578,60.4841564 97.775467,60.769408 C98.0773763,61.0537765 98.4357831,61.1968439 98.853336,61.1968439 C99.1764318,61.1968439 99.4721616,61.104115 99.7414082,60.9168911 C99.9929992,60.7464466 100.182796,60.5115335 100.30815,60.2095024 L100.316978,60.1847747 L100.332868,60.1441506 L100.349641,60.0858639 L100.367296,60.0284604 C100.3876,59.979005 100.401724,59.9163026 100.407021,59.8394701 C100.407021,59.8279894 100.409669,59.8147424 100.414966,59.7979629 L100.414966,59.7158317 L100.423794,59.7158317 L100.423794,58.5889553 Z" id="Fill-229" fill="#000000"></path>
                <path d="M109.953356,47.0624942 L109.953356,50.8140386 C110.204947,50.5561641 110.518332,50.3539269 110.890863,50.2055607 C111.268691,50.0571945 111.653582,49.9830115 112.042003,49.9830115 C114.153602,49.9830115 115.208519,51.2202793 115.208519,53.6939318 L115.208519,58.7454463 L112.577848,58.7533945 L112.577848,53.8749738 C112.577848,53.3707055 112.462204,52.9918419 112.230917,52.7392662 C112.001395,52.4875736 111.677416,52.3604026 111.260746,52.3604026 C110.85467,52.3604026 110.537753,52.4875736 110.306466,52.7392662 C110.071648,52.9918419 109.953356,53.3707055 109.953356,53.8749738 L109.953356,58.7454463 L107.322685,58.7613427 L107.322685,47.0704424 L109.953356,47.0624942 Z" id="Fill-231" fill="#000000"></path>
                <path d="M119.74316,55.9973164 C120.17572,56.4203366 120.689496,56.630522 121.280955,56.630522 C121.879477,56.630522 122.394135,56.4203366 122.827578,55.9973164 C123.265435,55.5742962 123.485246,55.0700279 123.485246,54.4827452 C123.485246,54.0994659 123.383726,53.74533 123.181571,53.4221038 C122.97765,53.0988775 122.706638,52.841003 122.367652,52.6484802 C122.03308,52.4568406 121.671142,52.3605792 121.280955,52.3605792 C120.903127,52.3605792 120.543838,52.4568406 120.203086,52.6484802 C119.8641,52.841003 119.593088,53.0988775 119.39005,53.4221038 C119.186129,53.74533 119.085492,54.0994659 119.085492,54.4827452 C119.085492,55.0700279 119.305303,55.5742962 119.74316,55.9973164 M118.905406,58.4241629 C118.158578,58.029403 117.567118,57.4889262 117.127496,56.8036159 C116.684343,56.1121236 116.461883,55.3393831 116.461883,54.4827452 C116.461883,53.8415914 116.591651,53.2437111 116.848539,52.6899874 C117.10631,52.1362637 117.460303,51.6558399 117.909635,51.2495993 C118.364265,50.8380598 118.882454,50.5236648 119.464203,50.303765 C120.055663,50.0847483 120.662129,49.9752399 121.280955,49.9752399 C121.90596,49.9752399 122.515075,50.0847483 123.107418,50.303765 C123.682987,50.5121841 124.201177,50.8256959 124.661103,51.2416511 C125.116615,51.6584893 125.469725,52.1415625 125.722199,52.6899874 C125.979087,53.2437111 126.108855,53.8415914 126.108855,54.4827452 C126.108855,55.1353797 125.982618,55.7341431 125.730144,56.2763861 C125.47767,56.824811 125.121912,57.3105336 124.661103,57.7335538 C124.194997,58.150392 123.677691,58.4656701 123.107418,58.679388 C122.530965,58.9037035 121.922733,59.0167444 121.280955,59.0167444 C120.442318,59.0167444 119.650469,58.8189229 118.905406,58.4241629" id="Fill-233" fill="#000000"></path>
                <path d="M134.812404,53.5703816 L134.812404,58.7534828 L132.172905,58.7534828 L132.172905,53.5703816 C132.128766,52.7967581 131.796842,52.3993487 131.178017,52.3763873 L131.02971,52.3763873 C130.360567,52.3993487 130.025995,52.8621098 130.025995,53.7682032 L130.025995,58.7534828 L127.395323,58.7534828 L127.395323,53.7682032 C127.395323,51.3810976 128.606491,50.1226346 131.02971,49.991048 L131.178017,49.991048 C132.14289,50.0466853 132.916202,50.2771827 133.497068,50.6816571 C134.072638,50.2771827 134.843301,50.0466853 135.807292,49.991048 L135.955598,49.991048 C138.3797,50.1226346 139.590868,51.3810976 139.590868,53.7682032 L139.590868,58.7534828 L136.959314,58.7534828 L136.959314,53.7682032 C136.959314,52.8621098 136.624742,52.3993487 135.955598,52.3763873 L135.807292,52.3763873 C135.188466,52.3993487 134.856542,52.7967581 134.812404,53.5703816" id="Fill-235" fill="#000000"></path>
                <path d="M145.474655,52.3690573 C145.10742,52.3690573 144.761372,52.4617861 144.438277,52.648127 C144.241418,52.769116 144.048973,52.9395605 143.862707,53.1594603 L147.086603,53.1594603 C146.899455,52.9395605 146.70701,52.769116 146.511034,52.648127 C146.187055,52.4617861 145.84189,52.3690573 145.474655,52.3690573 M149.726102,52.6975823 C149.973279,53.2521892 150.095985,53.8447707 150.095985,54.4753269 L150.095985,54.54951 C150.095985,54.576887 150.093337,54.6069135 150.088923,54.6395894 L150.071267,54.7791243 L149.052544,54.7791243 L149.052544,54.7959038 L143.393953,54.7959038 C143.459278,55.2568986 143.658786,55.654308 143.993358,55.989015 C144.416207,56.4058532 144.908796,56.6142724 145.474655,56.6142724 C146.044928,56.6142724 146.5384,56.4058532 146.95507,55.989015 L146.97096,55.9722355 L146.995677,55.9395596 L147.020395,55.9148319 L147.037168,55.8901042 L148.451374,57.9142425 C148.045297,58.2427676 147.634807,58.4935771 147.218137,58.6631384 C146.65934,58.8821551 146.078474,58.9916662 145.474655,58.9916662 C144.657205,58.9916662 143.898901,58.7964913 143.197094,58.4079133 C142.477632,58.0131533 141.91089,57.4726766 141.493337,56.7873662 C141.066074,56.1020559 140.852442,55.3310817 140.852442,54.4753269 C140.852442,53.83329 140.976031,53.2407085 141.223208,52.6975823 C141.469502,52.1500406 141.809371,51.6722662 142.241931,51.2669086 C142.681553,50.8491872 143.175025,50.5339091 143.723228,50.3201912 C144.287322,50.1011745 144.870837,49.9916662 145.474655,49.9916662 C146.078474,49.9916662 146.65934,50.1011745 147.218137,50.3201912 C147.771637,50.5339091 148.267757,50.8465378 148.706496,51.2580773 C149.139056,51.6581361 149.479808,52.1385598 149.726102,52.6975823" id="Fill-237" fill="#000000"></path>
                <path d="M151.555831,56.7130948 C151.697958,56.4825974 151.881575,56.3042048 152.1058,56.1788 C152.337087,56.0463302 152.579851,55.9809785 152.838504,55.9809785 C153.095392,55.9809785 153.33992,56.0463302 153.569442,56.1788 C153.795433,56.3156855 153.976402,56.4967275 154.112349,56.721043 C154.250062,56.9409429 154.318918,57.1811547 154.318918,57.4452112 C154.318918,57.8841278 154.176792,58.2453287 153.890772,58.5314634 C153.600339,58.8220138 153.248995,58.9677306 152.838504,58.9677306 C152.564843,58.9677306 152.314135,58.9014957 152.08991,58.7699091 C151.859506,58.6383224 151.678537,58.454631 151.547003,58.2179516 C151.416352,57.9777397 151.350144,57.7198652 151.350144,57.4452112 C151.350144,57.175856 151.418118,56.9321115 151.555831,56.7130948" id="Fill-239" fill="#000000"></path>
                <path d="M169.082015,53.5703816 L169.082015,58.7534828 L166.442517,58.7534828 L166.442517,53.5703816 C166.397495,52.7967581 166.066454,52.3993487 165.447628,52.3763873 L165.299322,52.3763873 C164.630178,52.3993487 164.295606,52.8621098 164.295606,53.7682032 L164.295606,58.7534828 L161.664052,58.7534828 L161.664052,53.7682032 C161.664052,51.3810976 162.875221,50.1226346 165.299322,49.991048 L165.447628,49.991048 C166.411619,50.0466853 167.185814,50.2771827 167.76668,50.6816571 C168.34225,50.2771827 169.11203,50.0466853 170.076903,49.991048 L170.22521,49.991048 C172.648429,50.1226346 173.859597,51.3810976 173.859597,53.7682032 L173.859597,58.7534828 L171.228926,58.7534828 L171.228926,53.7682032 C171.228926,52.8621098 170.894354,52.3993487 170.22521,52.3763873 L170.076903,52.3763873 C169.458078,52.3993487 169.125271,52.7967581 169.082015,53.5703816" id="Fill-241" fill="#000000"></path>
                <path d="M180.632251,58.5889553 C180.1326,58.7911925 179.671791,58.9121816 179.250707,58.9501563 C176.65623,59.2248103 175.359432,57.9875425 175.359432,55.2401191 L175.359432,50.3281394 L177.992752,50.3281394 L177.992752,55.0590771 C177.992752,55.5580466 178.107513,55.9369102 178.337034,56.1947847 C178.567439,56.4464773 178.890535,56.5736483 179.308087,56.5736483 C179.707985,56.5736483 180.028432,56.4438279 180.270313,56.1859534 C180.500717,55.9280789 180.614595,55.5527478 180.614595,55.0590771 L180.614595,50.3369707 L183.247032,50.3281394 L183.247032,59.7405593 C183.247032,60.7605767 182.885977,61.6384098 182.161218,62.3731756 C181.831943,62.7025838 181.380844,62.9710559 180.804392,63.179475 C180.283554,63.3658159 179.760069,63.4594278 179.233934,63.4594278 L178.797843,63.4594278 C177.624634,63.4373495 176.683596,63.0752655 175.977375,62.3731756 C175.516566,61.9015831 175.23143,61.478563 175.121966,61.1067644 L177.498398,59.7158317 C177.520467,60.1326699 177.682015,60.4841564 177.983924,60.769408 C178.285833,61.0537765 178.64424,61.1968439 179.061793,61.1968439 C179.384006,61.1968439 179.680619,61.104115 179.949865,60.9168911 C180.201456,60.7464466 180.391253,60.5115335 180.516607,60.2095024 L180.525435,60.1847747 L180.540442,60.1441506 L180.558098,60.0858639 L180.57487,60.0284604 C180.596057,59.979005 180.610181,59.9163026 180.614595,59.8394701 C180.614595,59.8279894 180.618126,59.8147424 180.623423,59.7979629 L180.623423,59.7158317 L180.632251,59.7158317 L180.632251,58.5889553 Z" id="Fill-243" fill="#000000"></path>
                <polygon id="Fill-245" fill="#000000" points="196.239458 50.3284927 191.807042 59.0909275 187.530877 50.3452722 190.203038 50.3284927 191.839704 54.0632575 193.451653 50.3284927"></polygon>
                <path d="M199.260227,53.4221038 C199.058072,53.74533 198.956553,54.0994659 198.956553,54.4827452 C198.956553,55.0647291 199.175481,55.5672312 199.61422,55.9884851 C200.047663,56.4062065 200.560556,56.6137425 201.152015,56.6137425 C201.749654,56.6137425 202.265195,56.4062065 202.698638,55.9884851 C203.137378,55.5672312 203.357189,55.0647291 203.357189,54.4827452 C203.357189,54.0994659 203.254787,53.74533 203.051748,53.4221038 C202.84871,53.0988775 202.577698,52.841003 202.237829,52.6484802 C201.903257,52.4621394 201.541319,52.3694105 201.152015,52.3694105 C200.774187,52.3694105 200.415781,52.4621394 200.075029,52.6484802 C199.734278,52.841003 199.463266,53.0988775 199.260227,53.4221038 L199.260227,53.4221038 Z M203.364251,58.498346 C203.188579,58.5751785 203.060576,58.6272833 202.977595,58.6546603 C202.396729,58.879859 201.787614,58.9920167 201.152015,58.9920167 C200.313379,58.9920167 199.520646,58.7968446 198.775584,58.4082665 C198.029638,58.0126234 197.438179,57.4756792 196.998556,56.7947845 C196.555403,56.1041754 196.332944,55.3332012 196.332944,54.4827452 C196.332944,53.8415914 196.461829,53.2437111 196.719599,52.6899874 C196.97737,52.1415625 197.33048,51.6646713 197.780696,51.2584306 C198.223849,50.8521899 198.73939,50.5422106 199.326436,50.3284927 C199.913481,50.103294 200.522596,49.9911363 201.152015,49.9911363 C201.777903,49.9911363 202.386136,50.1006446 202.977595,50.3196613 C203.57082,50.5395612 204.085479,50.8521899 204.524218,51.2584306 C204.984144,51.6743857 205.341668,52.1530432 205.593259,52.6899874 C205.85103,53.2437111 205.979032,53.8415914 205.979032,54.4827452 L205.97197,58.7703506 L203.364251,58.7447398 L203.364251,58.498346 Z" id="Fill-247" fill="#000000"></path>
                <polygon id="Fill-249" fill="#000000" points="207.23275 47.0702658 209.857242 47.0623176 209.857242 58.7284902 207.23275 58.7611661"></polygon>
                <path d="M214.744993,56.6139191 L214.892417,56.6139191 C215.561561,56.592724 215.896133,56.1281966 215.896133,55.2238695 L215.896133,50.319838 L218.527687,50.319838 L218.527687,55.2238695 C218.527687,57.6100919 217.315636,58.8685549 214.892417,59.0001416 L214.744993,59.0001416 C212.320892,58.8685549 211.109724,57.6100919 211.109724,55.2238695 L211.109724,50.319838 L213.741278,50.319838 L213.741278,55.2238695 C213.741278,56.1281966 214.075849,56.592724 214.744993,56.6139191" id="Fill-251" fill="#000000"></path>
                <path d="M224.403794,52.3690573 C224.035676,52.3690573 223.689628,52.4617861 223.367415,52.648127 C223.169674,52.769116 222.978111,52.9395605 222.791846,53.1594603 L226.014859,53.1594603 C225.827711,52.9395605 225.636148,52.769116 225.43929,52.648127 C225.116194,52.4617861 224.771028,52.3690573 224.403794,52.3690573 M228.654358,52.6975823 C228.902418,53.2521892 229.024241,53.8447707 229.024241,54.4753269 L229.024241,54.54951 C229.024241,54.576887 229.021593,54.6069135 229.017179,54.6395894 L229.000406,54.7791243 L227.9808,54.7791243 L227.9808,54.7959038 L222.323092,54.7959038 C222.388417,55.2568986 222.587924,55.654308 222.922496,55.989015 C223.345346,56.4058532 223.837935,56.6142724 224.403794,56.6142724 C224.973184,56.6142724 225.466656,56.4058532 225.883326,55.989015 L225.900098,55.9722355 L225.924816,55.9395596 L225.948651,55.9148319 L225.966307,55.8901042 L227.37963,57.9142425 C226.974436,58.2427676 226.563063,58.4935771 226.147275,58.6631384 C225.587596,58.8821551 225.006729,58.9916662 224.403794,58.9916662 C223.586344,58.9916662 222.827157,58.7964913 222.12535,58.4079133 C221.406771,58.0131533 220.840029,57.4726766 220.422476,56.7873662 C219.995213,56.1020559 219.781581,55.3310817 219.781581,54.4753269 C219.781581,53.83329 219.904287,53.2407085 220.152347,52.6975823 C220.398641,52.1500406 220.73851,51.6722662 221.17107,51.2669086 C221.609809,50.8491872 222.104163,50.5339091 222.652367,50.3201912 C223.215578,50.1011745 223.799975,49.9916662 224.403794,49.9916662 C225.006729,49.9916662 225.587596,50.1011745 226.147275,50.3201912 C226.700776,50.5339091 227.196896,50.8465378 227.634752,51.2580773 C228.067312,51.6581361 228.408064,52.1385598 228.654358,52.6975823" id="Fill-253" fill="#000000"></path>
                <path d="M230.483204,56.7130948 C230.626214,56.4825974 230.809831,56.3042048 231.034939,56.1788 C231.265343,56.0463302 231.508989,55.9809785 231.765877,55.9809785 C232.02453,55.9809785 232.267294,56.0463302 232.498581,56.1788 C232.722806,56.3156855 232.903775,56.4967275 233.041488,56.721043 C233.178318,56.9409429 233.247174,57.1811547 233.247174,57.4452112 C233.247174,57.8841278 233.104165,58.2453287 232.819028,58.5314634 C232.527712,58.8220138 232.178133,58.9677306 231.765877,58.9677306 C231.492217,58.9677306 231.243274,58.9014957 231.017283,58.7699091 C230.788645,58.6383224 230.607676,58.454631 230.475259,58.2179516 C230.343726,57.9777397 230.2784,57.7198652 230.2784,57.4452112 C230.2784,57.175856 230.347257,56.9321115 230.483204,56.7130948" id="Fill-255" fill="#000000"></path>
                <g id="the-canary" transform="translate(10.819162, 10.823529)">
                    <path d="M55.7040202,29.2437652 C55.7040202,43.8763779 43.8474617,55.7377226 29.2207536,55.7377226 C14.5940454,55.7377226 2.73748699,43.8763779 2.73748699,29.2437652 C2.73748699,14.6111526 14.5940454,2.74980784 29.2207536,2.74980784 C43.8474617,2.74980784 55.7040202,14.6111526 55.7040202,29.2437652" id="Fill-257" fill="#FFFFFF"></path>
                    <path d="M41.7430131,14.9701457 C40.9008452,14.5709701 39.9156677,14.7634928 39.2844832,15.4037635 C39.4628038,15.5238694 39.6349451,15.6501573 39.8000241,15.7843933 L39.8980122,15.8523945 C40.5177206,16.3416496 41.0950558,16.8679962 41.6282523,17.4243693 C41.6944604,17.3378223 41.7562547,17.2477429 41.8092212,17.1488321 C42.1958769,16.4396772 42.1420276,15.6095332 41.7430131,14.9701457" id="Fill-259" fill="#FFFE71"></path>
                    <path d="M35.746407,21.6171263 C35.6157562,21.5756191 35.4851055,21.5385276 35.3544547,21.5032023 C35.3129642,21.4917216 35.270591,21.4820072 35.2282178,21.4714096 C35.1390574,21.4493313 35.0498971,21.427253 34.959854,21.4078241 C34.9113013,21.3972265 34.8618659,21.3875121 34.8133133,21.3777976 C34.7294496,21.3610181 34.6455859,21.3451217 34.5617222,21.3309916 C34.511404,21.3230434 34.4619686,21.3142121 34.4125332,21.307147 C34.3251384,21.2939001 34.2377436,21.2824194 34.1503488,21.2718218 C34.1053273,21.266523 34.0611885,21.2603411 34.0170497,21.2559254 C33.8961095,21.2435615 33.7751692,21.2338471 33.6551117,21.226782 C33.6330423,21.2250158 33.6118557,21.2241326 33.5897863,21.2232495 C33.47326,21.2170676 33.3576164,21.2135351 33.2419728,21.2117688 C33.1925373,21.2117688 33.1439847,21.2126519 33.0945493,21.2126519 C33.0142167,21.2135351 32.9347669,21.2144182 32.8553171,21.2170676 C32.7988194,21.2188339 32.7432046,21.2214833 32.6875897,21.2250158 C32.6152021,21.2285483 32.5419318,21.2338471 32.4695442,21.2391459 C32.4121638,21.2444447 32.3547833,21.2488603 32.2965202,21.2541591 C32.2258981,21.2621073 32.1543933,21.2700555 32.0837713,21.27977 C32.0263908,21.286835 31.9698932,21.2930169 31.9133956,21.3018483 C31.8348285,21.313329 31.7562615,21.3265759 31.6785773,21.3407061 C31.5823547,21.3574856 31.487015,21.3760313 31.3916752,21.3963434 C31.3254671,21.4095903 31.2583761,21.4237205 31.1930507,21.4387337 C31.1259598,21.4546301 31.0597516,21.4722927 30.9944262,21.4899554 C30.9396941,21.5040855 30.884962,21.5182156 30.83023,21.5332288 C30.7613735,21.5526577 30.6933998,21.5738529 30.6245433,21.5950481 C30.5751078,21.6100613 30.5265552,21.6259577 30.4771197,21.641854 C30.4056149,21.6656986 30.3349929,21.6895432 30.2643708,21.715154 C30.2219976,21.7301672 30.1805072,21.7460636 30.1381339,21.76196 C30.0622152,21.7902202 29.9862965,21.8193636 29.9112606,21.8502732 C29.8971362,21.855572 29.8838946,21.8617539 29.8697702,21.8679358 C29.5837509,21.9862755 29.3047938,22.1213947 29.0328989,22.270644 C29.009064,22.2838909 28.9852291,22.2962548 28.9622769,22.3095018 C28.8810615,22.3545415 28.8016117,22.4013475 28.7221619,22.4490366 C28.6992098,22.4631667 28.6762576,22.4772968 28.6533055,22.4914269 C28.5932767,22.5285185 28.5350135,22.5664932 28.4758676,22.605351 C28.4537982,22.6185979 28.4326116,22.6318449 28.4105422,22.645975 C28.3981833,22.6548063 28.3849417,22.6636377 28.3717001,22.672469 C28.0035826,22.9197459 27.6548863,23.1961662 27.3282593,23.4990805 C27.325611,23.5017299 27.3229627,23.5034961 27.3203144,23.5061455 C27.2399818,23.5803286 27.1614148,23.6562779 27.0846133,23.7339935 C27.0775511,23.7410586 27.0713717,23.7472405 27.0643095,23.7543056 C26.6626466,24.1605463 26.2989431,24.6082941 25.9811439,25.095783 L25.9749644,25.0931336 C25.9511295,25.1346408 25.9264118,25.1752648 25.9016941,25.2158889 C25.8999285,25.2185383 25.8990457,25.2211877 25.8972802,25.2238371 C24.6207867,27.3362886 22.023661,28.3801505 19.5704278,27.5976957 C18.2294917,27.1702598 17.1683955,26.2721147 16.5124933,25.1443552 C15.8248111,27.9023762 16.0843471,30.7010212 17.1004218,33.1737906 C18.5022694,36.5835629 21.3430411,39.3724935 25.1292654,40.5797348 C31.5170293,42.6171201 38.302925,39.4201826 40.9018162,33.3875085 C40.961845,33.2576881 41.0201082,33.1252183 41.0739575,32.9900991 C41.091613,32.9477088 41.1092685,32.9053185 41.1260412,32.8629281 C41.1445795,32.8134727 41.1631178,32.7640174 41.1816561,32.7136788 C41.2231465,32.6015211 41.2628714,32.4875971 41.299948,32.3727899 C42.7353411,27.867934 40.2485623,23.0530988 35.746407,21.6171263" id="Fill-261" fill="#FFFE71"></path>
                    <path d="M36.1133768,44.7714321 L36.1133768,47.5382844 C36.1133768,47.9666034 36.4638387,48.3172067 36.8919849,48.3172067 C37.320131,48.3172067 37.6705929,47.9666034 37.6705929,47.5382844 L37.6705929,43.987211 C37.1638797,44.2759951 36.6439249,44.5374021 36.1133768,44.7714321" id="Fill-263" fill="#000000"></path>
                    <path d="M36.927649,17.0803011 C36.8790963,16.4479786 36.3282444,15.9746199 35.6961771,16.0223091 C35.0641098,16.0708813 34.5909421,16.6228388 34.638612,17.2551612 C34.6871646,17.8874837 35.2380166,18.3608424 35.8700839,18.3122701 C36.5021512,18.264581 36.9762016,17.7126235 36.927649,17.0803011" id="Fill-265" fill="#000000"></path>
                    <path d="M33.9036131,42.4220363 C33.4754669,42.4220363 33.125005,42.7726396 33.125005,43.2009586 L33.125005,45.7717556 L33.125005,48.2542394 C33.125005,48.6825584 33.4754669,49.0331618 33.9036131,49.0331618 C34.3317592,49.0331618 34.6822211,48.6825584 34.6822211,48.2542394 L34.6822211,45.3266571 L34.6822211,43.2009586 C34.6822211,42.7726396 34.3317592,42.4220363 33.9036131,42.4220363" id="Fill-267" fill="#000000"></path>
                    <path d="M35.870437,18.3124467 C35.2383697,18.361019 34.686635,17.8867771 34.6389651,17.2544547 C34.5904124,16.6221322 35.0635801,16.0710579 35.6956474,16.0224857 C36.3277147,15.9747966 36.8794494,16.4481553 36.9280021,17.0804777 C36.975672,17.7128002 36.5025043,18.2638745 35.870437,18.3124467 M41.6287819,17.424016 C41.0947027,16.8676429 40.5173675,16.3421794 39.8976591,15.8520412 L39.8005537,15.7849232 C39.6354747,15.6506871 39.4624507,15.5235161 39.28413,15.4034102 C38.7677063,15.0572225 38.1965506,14.7737372 37.5768421,14.5688505 C33.8903714,13.3510116 29.9152331,15.3530717 28.6978856,19.0410306 C28.3041677,20.2332586 28.2476701,21.4555132 28.4754262,22.605351 C28.5345721,22.5664932 28.5937181,22.5285185 28.6537468,22.4914269 C28.676699,22.4772968 28.6996512,22.4631667 28.7226033,22.4490366 C28.8020531,22.4013475 28.8815029,22.3545415 28.9618355,22.3095018 C28.9856704,22.2962548 29.0095054,22.2830078 29.0324576,22.270644 C29.3043524,22.1213947 29.5833095,21.9862755 29.8702116,21.8679358 C29.8834532,21.8617539 29.8975776,21.855572 29.9108192,21.8502732 C29.9858551,21.8193636 30.0626566,21.7902202 30.1385753,21.76196 C30.1800658,21.7460636 30.222439,21.7301672 30.2648122,21.715154 C30.3345515,21.6895432 30.4060563,21.6656986 30.4775611,21.641854 C30.5261138,21.6259577 30.5755492,21.6100613 30.6249846,21.5950481 C30.6929584,21.5738529 30.7618149,21.5526577 30.8306714,21.5332288 C30.8845207,21.5182156 30.9392527,21.5040855 30.9939848,21.4899554 C31.060193,21.4722927 31.1264012,21.4546301 31.1926093,21.4387337 C31.2588175,21.4237205 31.3250257,21.4095903 31.3921166,21.3963434 C31.4865736,21.3760313 31.5827961,21.3574856 31.6790187,21.3407061 C31.7567029,21.3265759 31.8343872,21.313329 31.9129542,21.3009651 C31.9694518,21.2930169 32.0268322,21.286835 32.0833299,21.27977 C32.1548347,21.2700555 32.2254567,21.2621073 32.2969615,21.2541591 C32.354342,21.2488603 32.4117224,21.2435615 32.4699856,21.2391459 C32.5423732,21.2338471 32.6147607,21.2285483 32.6880311,21.2250158 C32.743646,21.2214833 32.7992608,21.2188339 32.8548757,21.2170676 C32.9343255,21.2144182 33.0146581,21.2135351 33.0949906,21.2126519 C33.1435433,21.2126519 33.1929787,21.2108857 33.2424142,21.2117688 C33.3580578,21.2135351 33.4737014,21.2170676 33.589345,21.2232495 C33.6114143,21.2241326 33.6334837,21.2250158 33.6546703,21.226782 C33.7756106,21.2338471 33.8965508,21.2435615 34.0174911,21.2559254 C34.0616299,21.2603411 34.1057687,21.266523 34.1499074,21.2718218 C34.2373022,21.2824194 34.324697,21.2939001 34.4129745,21.307147 C34.46241,21.3142121 34.5118454,21.3230434 34.5612808,21.3309916 C34.6451445,21.3451217 34.7290082,21.3610181 34.8128719,21.3777976 C34.8623073,21.3875121 34.91086,21.3972265 34.9602954,21.4078241 C35.0494557,21.427253 35.1394988,21.4493313 35.2286592,21.4714096 C35.2701496,21.4820072 35.3125228,21.4917216 35.3548961,21.5032023 C35.4855468,21.5376445 35.6161976,21.5756191 35.7468484,21.6171263 C40.2490037,23.0530988 42.7348997,27.867934 41.3003894,32.3719068 C41.2633128,32.4875971 41.2227052,32.6015211 41.1812147,32.7136788 C41.1635592,32.7640174 41.1450209,32.8134727 41.1255999,32.8629281 C41.1088271,32.9053185 41.0911716,32.9477088 41.0743989,32.9900991 C41.0196668,33.1252183 40.9622864,33.2576881 40.9013749,33.3875085 C38.3033664,39.4201826 31.5174707,42.6171201 25.1297068,40.5797348 C21.3434825,39.3724935 18.5027108,36.5835629 17.1008632,33.1737906 C15.3679748,32.9406437 13.7445505,32.3639586 12.2994469,31.5152688 C12.9791841,36.3389353 15.7034295,40.8411418 20.1543838,43.6265399 C24.1780748,46.144349 28.8435436,46.780204 33.125005,45.7716673 L33.125005,43.2008703 C33.125005,42.7725513 33.4754669,42.421948 33.9036131,42.421948 C34.3317592,42.421948 34.6822211,42.7725513 34.6822211,43.2008703 L34.6822211,45.3265688 C35.1668649,45.1631894 35.6444464,44.9786149 36.1132003,44.7710789 C36.6446311,44.5370489 37.1637032,44.2756419 37.6704163,43.9877408 C40.0494965,42.6338996 42.1372606,40.6874769 43.6900628,38.2032268 C47.9256199,31.4304882 46.9024831,22.9223953 41.6287819,17.424016" id="Fill-269" fill="#FFE600"></path>
                    <path d="M29.1651387,53.1080207 C15.9738236,53.1080207 5.24280401,42.3726692 5.24280401,29.176029 C5.24280401,15.980272 15.9738236,5.2440373 29.1651387,5.2440373 C42.355571,5.2440373 53.0874734,15.980272 53.0874734,29.176029 C53.0874734,42.3726692 42.355571,53.1080207 29.1651387,53.1080207 M29.1651387,0 C13.0836165,0 0,13.088015 0,29.176029 C0,45.2640431 13.0836165,58.3529412 29.1651387,58.3529412 C45.246661,58.3529412 58.3302774,45.2640431 58.3302774,29.176029 C58.3302774,13.088015 45.246661,0 29.1651387,0" id="Fill-271" fill="#FFE600"></path>
                </g>
            </g>
        </g>
    </g>
</svg>