<?xml version="1.0" encoding="UTF-8"?>
<svg width="239px" height="158px" viewBox="0 0 239 158" version="1.1" xmlns="http://www.w3.org/2000/svg" xmlns:xlink="http://www.w3.org/1999/xlink">
    <title>logo</title>
    <defs>
        <filter x="-58.8%" y="-58.8%" width="217.7%" height="217.6%" filterUnits="objectBoundingBox" id="filter-1">
            <feGaussianBlur stdDeviation="14.1176471" in="SourceGraphic"></feGaussianBlur>
        </filter>
    </defs>
    <g id="REX-general-user" stroke="none" stroke-width="1" fill="none" fill-rule="evenodd">
        <g id="t01.Landing-A" transform="translate(-18.000000, -3611.000000)">
            <g id="Group-9" transform="translate(-4.000000, 3493.000000)">
                <g id="logo" transform="translate(64.990316, 161.000000)">
                    <ellipse id="white-halo" fill="#FFFFFF" filter="url(#filter-1)" cx="35.9854733" cy="36" rx="35.9854733" ry="36"></ellipse>
                    <path d="M82.0023732,36.2887355 L82.0023732,44.6276232 L77.7559298,44.6276232 L77.7559298,36.2887355 C77.6855067,35.0450579 77.151888,34.4050579 76.1557997,34.369462 L75.9176678,34.369462 C74.8417182,34.4050579 74.3037435,35.1511192 74.3037435,36.606193 L74.3037435,44.6276232 L70.0710943,44.6276232 L70.0710943,36.606193 C70.0710943,32.7683723 72.0197102,30.7430375 75.9176678,30.5316413 L76.1557997,30.5316413 C77.707287,30.6195414 78.9509453,30.990756 79.8860486,31.6431056 C80.8117137,30.990756 82.0502899,30.6195414 83.6025033,30.5316413 L83.8406352,30.5316413 C87.7378668,30.7430375 89.6872086,32.7683723 89.6872086,36.606193 L89.6872086,44.6276232 L85.4545595,44.6276232 L85.4545595,36.606193 C85.4545595,35.1511192 84.9165847,34.4050579 83.8406352,34.369462 L83.6025033,34.369462 C82.605689,34.4050579 82.0727963,35.0450579 82.0023732,36.2887355" id="Fill-274" fill="#000000"></path>
                    <path d="M100.578766,44.3626879 C99.7765228,44.6888627 99.0352647,44.8828241 98.3557176,44.9445721 C94.1847795,45.3855255 92.0996734,43.3965131 92.0996734,38.9753553 L92.0996734,31.0745153 L96.3323225,31.0745153 L96.3323225,38.6847764 C96.3323225,39.4875006 96.5174556,40.0962633 96.8884476,40.5110647 C97.2587137,40.9171487 97.7792642,41.1198275 98.4486471,41.1198275 C99.0926196,41.1198275 99.608088,40.91279 99.9965044,40.4979886 C100.36677,40.0824608 100.551903,39.4780568 100.551903,38.6847764 L100.551903,31.0875914 L104.784553,31.0745153 L104.784553,46.2151283 C104.784553,47.856899 104.203017,49.2683859 103.03922,50.4503156 C102.509957,50.9798956 101.781768,51.4121317 100.856102,51.7477503 C100.019011,52.0470465 99.176111,52.1974211 98.3295811,52.1974211 L97.6289797,52.1974211 C95.7420749,52.1618252 94.2297922,51.579941 93.0914056,50.4503156 C92.3515995,49.6919047 91.89276,49.0119501 91.7163392,48.4119047 L95.5395176,46.1751737 C95.5736401,46.8456844 95.8342784,47.4108604 96.3192543,47.8692486 C96.8042302,48.3283632 97.3821357,48.5579205 98.0522446,48.5579205 C98.5720691,48.5579205 99.0490589,48.407546 99.4803099,48.1075233 C99.8861506,47.8343791 100.19035,47.4551737 100.393633,46.9699069 L100.406701,46.9299523 L100.432837,46.8638456 L100.4597,46.7708604 L100.485836,46.6786016 C100.521411,46.5986924 100.543191,46.4969898 100.551903,46.3742202 C100.551903,46.356059 100.556986,46.3342656 100.564972,46.3081135 L100.564972,46.1751737 L100.578766,46.1751737 L100.578766,44.3626879 Z" id="Fill-276" fill="#000000"></path>
                    <path d="M122.096087,35.1508286 C121.717109,34.8333712 121.302556,34.59437 120.852429,34.4360045 C120.385603,34.2769126 119.891915,34.1977299 119.371365,34.1977299 C118.401413,34.1977299 117.58102,34.5108286 116.910911,35.1370261 C116.23209,35.7639501 115.892316,36.5405221 115.892316,37.4667423 C115.892316,38.1910102 116.038244,38.8390011 116.329375,39.412168 C116.611068,39.9860613 117.029977,40.4400908 117.585376,40.7757094 C118.123351,41.1200454 118.745543,41.2914869 119.4505,41.2914869 C120.490875,41.2914869 121.382418,40.9609535 122.122224,40.29916 L124.437476,43.237639 C124.102058,43.5899659 123.634507,43.9037911 123.035547,44.1769353 C122.427149,44.4508059 121.800601,44.6534847 121.157354,44.7864245 C120.513382,44.9179115 119.918052,44.9840182 119.371365,44.9840182 C117.837302,44.9840182 116.48329,44.662202 115.310055,44.0178434 C114.137545,43.3654938 113.238743,42.5097389 112.612195,41.4505789 C111.985646,40.3739841 111.673461,39.2225653 111.673461,37.9963224 C111.673461,36.8761407 111.862224,35.861294 112.241929,34.9525085 C112.629619,34.0255619 113.163238,33.2315551 113.842785,32.5697616 C114.512894,31.9261294 115.328205,31.4183428 116.289445,31.0478547 C117.241246,30.686084 118.269279,30.5044722 119.371365,30.5044722 C120.270894,30.5044722 121.147916,30.6468558 122.003884,30.9287174 C122.867112,31.2200227 123.63015,31.6297389 124.291547,32.159319 L122.096087,35.1508286 Z" id="Fill-278" fill="#000000"></path>
                    <path d="M129.680951,36.0503882 C129.354246,36.5712509 129.190893,37.1407855 129.190893,37.7582656 C129.190893,38.6939296 129.544461,39.5010125 130.249418,40.1802406 C130.945664,40.8507514 131.770413,41.1856436 132.722941,41.1856436 C133.68418,41.1856436 134.51256,40.8507514 135.209531,40.1802406 C135.915215,39.5010125 136.267331,38.6939296 136.267331,37.7582656 C136.267331,37.1407855 136.104704,36.5712509 135.777999,36.0503882 C135.452019,35.530252 135.015686,35.1154506 134.468999,34.8067106 C133.931024,34.5066879 133.349489,34.3563133 132.722941,34.3563133 C132.114543,34.3563133 131.537363,34.5066879 130.990676,34.8067106 C130.443263,35.1154506 130.00693,35.530252 129.680951,36.0503882 L129.680951,36.0503882 Z M136.281125,44.2163814 C135.998706,44.3406039 135.791793,44.4241453 135.658933,44.4684586 C134.724555,44.8302293 133.745891,45.0111146 132.722941,45.0111146 C131.374011,45.0111146 130.099134,44.6972894 128.900488,44.0710919 C127.700391,43.4361771 126.748589,42.5717049 126.042906,41.4769489 C125.329236,40.3647582 124.972038,39.1254393 124.972038,37.7582656 C124.972038,36.7259841 125.178952,35.7634415 125.593504,34.8728173 C126.007331,33.9901839 126.57725,33.2223292 127.300358,32.5699796 C128.014028,31.91763 128.843133,31.4185607 129.786949,31.0742247 C130.730038,30.712454 131.708702,30.5315687 132.722941,30.5315687 C133.727741,30.5315687 134.707131,30.7080953 135.658933,31.0611487 C136.612186,31.414202 137.440566,31.91763 138.146249,32.5699796 C138.886781,33.2404904 139.460331,34.0076186 139.865445,34.8728173 C140.279998,35.7634415 140.487637,36.7259841 140.487637,37.7582656 L140.473843,44.6537026 L136.281125,44.613748 L136.281125,44.2163814 Z" id="Fill-280" fill="#000000"></path>
                    <path d="M148.349547,34.3562406 C147.273598,34.4012804 146.735623,35.1509739 146.735623,36.6067741 L146.735623,44.6136754 L142.502974,44.6136754 L142.502974,36.6067741 C142.502974,32.7507923 144.452316,30.7254574 148.349547,30.531496 L148.587679,30.531496 C152.484911,30.7254574 154.434253,32.7507923 154.434253,36.6067741 L154.434253,44.6136754 L150.201604,44.6136754 L150.201604,36.6067741 C150.201604,35.1509739 149.663629,34.4012804 148.587679,34.3562406 L148.349547,34.3562406 Z" id="Fill-282" fill="#000000"></path>
                    <path d="M161.158937,36.0503882 C160.832232,36.5712509 160.668879,37.1407855 160.668879,37.7582656 C160.668879,38.6939296 161.022447,39.5010125 161.727405,40.1802406 C162.42365,40.8507514 163.2484,41.1856436 164.200927,41.1856436 C165.162167,41.1856436 165.990546,40.8507514 166.687518,40.1802406 C167.393201,39.5010125 167.745317,38.6939296 167.745317,37.7582656 C167.745317,37.1407855 167.58269,36.5712509 167.255985,36.0503882 C166.930006,35.530252 166.493673,35.1154506 165.946986,34.8067106 C165.409011,34.5066879 164.827475,34.3563133 164.200927,34.3563133 C163.592529,34.3563133 163.01535,34.5066879 162.468663,34.8067106 C161.92125,35.1154506 161.484917,35.530252 161.158937,36.0503882 L161.158937,36.0503882 Z M167.759111,44.2163814 C167.476693,44.3406039 167.269779,44.4241453 167.136919,44.4684586 C166.202542,44.8302293 165.223878,45.0111146 164.200927,45.0111146 C162.851997,45.0111146 161.57712,44.6972894 160.378475,44.0710919 C159.178377,43.4361771 158.226576,42.5717049 157.520892,41.4769489 C156.807222,40.3647582 156.450025,39.1254393 156.450025,37.7582656 C156.450025,36.7259841 156.656938,35.7634415 157.071491,34.8728173 C157.485317,33.9901839 158.055237,33.2223292 158.778345,32.5699796 C159.492014,31.91763 160.32112,31.4185607 161.264935,31.0742247 C162.208025,30.712454 163.186689,30.5315687 164.200927,30.5315687 C165.205727,30.5315687 166.185117,30.7080953 167.136919,31.0611487 C168.090173,31.414202 168.918552,31.91763 169.624236,32.5699796 C170.364768,33.2404904 170.938317,34.0076186 171.343432,34.8728173 C171.757984,35.7634415 171.965624,36.7259841 171.965624,37.7582656 L171.95183,44.6537026 L167.759111,44.613748 L167.759111,44.2163814 Z" id="Fill-284" fill="#000000"></path>
                    <path d="M180.925772,34.5946606 C180.705064,34.4450125 180.418289,34.3614711 180.065448,34.3433099 L179.827316,34.3433099 C178.751366,34.3876232 178.214117,35.1373167 178.214117,36.5931169 L178.214117,44.6138207 L173.981468,44.6138207 L173.981468,36.5931169 C173.981468,32.7371351 175.930084,30.7125267 179.827316,30.5185653 L180.065448,30.5185653 C180.356578,30.5272826 180.642627,30.5541612 180.925772,30.597748 L180.925772,34.5946606 Z" id="Fill-286" fill="#000000"></path>
                    <path d="M191.803898,44.3626879 C191.001655,44.6888627 190.260397,44.8828241 189.580849,44.9445721 C185.409911,45.3855255 183.324805,43.3965131 183.324805,38.9753553 L183.324805,31.0745153 L187.557454,31.0745153 L187.557454,38.6847764 C187.557454,39.4875006 187.742587,40.0962633 188.11358,40.5110647 C188.483846,40.9171487 189.004396,41.1198275 189.673779,41.1198275 C190.317752,41.1198275 190.83322,40.91279 191.221636,40.4979886 C191.591902,40.0824608 191.777035,39.4780568 191.777035,38.6847764 L191.777035,31.0875914 L196.009684,31.0745153 L196.009684,46.2151283 C196.009684,47.856899 195.428149,49.2683859 194.264352,50.4503156 C193.735089,50.9798956 193.006899,51.4121317 192.081234,51.7477503 C191.244143,52.0470465 190.401243,52.1974211 189.554713,52.1974211 L188.854112,52.1974211 C186.967207,52.1618252 185.454924,51.579941 184.316538,50.4503156 C183.576731,49.6919047 183.117892,49.0119501 182.941471,48.4119047 L186.76465,46.1751737 C186.798772,46.8456844 187.05941,47.4108604 187.544386,47.8692486 C188.029362,48.3283632 188.607268,48.5579205 189.277377,48.5579205 C189.797201,48.5579205 190.274191,48.407546 190.705442,48.1075233 C191.111282,47.8343791 191.415481,47.4551737 191.618765,46.9699069 L191.631833,46.9299523 L191.657969,46.8638456 L191.684832,46.7708604 L191.710968,46.6786016 C191.746543,46.5986924 191.768323,46.4969898 191.777035,46.3742202 C191.777035,46.356059 191.782117,46.3342656 191.790104,46.3081135 L191.790104,46.1751737 L191.803898,46.1751737 L191.803898,44.3626879 Z" id="Fill-288" fill="#000000"></path>
                    <path d="M58.8217585,36.9726129 C58.8217585,49.0091169 49.0706933,58.7660295 37.0414028,58.7660295 C25.0121124,58.7660295 15.2610472,49.0091169 15.2610472,36.9726129 C15.2610472,24.936109 25.0121124,15.1791964 37.0414028,15.1791964 C49.0706933,15.1791964 58.8217585,24.936109 58.8217585,36.9726129" id="Fill-290" fill="#FFFFFF"></path>
                    <path d="M47.3399536,25.3141521 C46.6473383,24.985798 45.8371091,25.1441635 45.3180106,25.6708377 C45.464665,25.7696345 45.6062373,25.8735165 45.7420015,25.9839364 L45.8225888,26.0398729 C46.3322491,26.4423246 46.8070609,26.8752872 47.2455721,27.3329489 C47.3000229,27.2617571 47.3508438,27.1876595 47.3944045,27.1062974 C47.7123977,26.5229603 47.668111,25.8400999 47.3399536,25.3141521" id="Fill-292" fill="#FFFE71"></path>
                    <path d="M42.4082277,30.7818297 C42.3007779,30.7476867 42.1933282,30.7171759 42.0858784,30.688118 C42.0517558,30.6786742 42.0169073,30.6706833 41.9820587,30.6619659 C41.9087315,30.6438048 41.8354043,30.6256436 41.7613511,30.6096617 C41.7214205,30.6009444 41.6807638,30.5929535 41.6408331,30.5849625 C41.571862,30.57116 41.5028909,30.558084 41.4339198,30.5464608 C41.3925371,30.5399228 41.3518804,30.5326583 41.3112238,30.5268468 C41.2393486,30.5159501 41.1674734,30.5065062 41.0955982,30.4977889 C41.0585716,30.4934302 41.022271,30.4883451 40.9859704,30.4847128 C40.8865068,30.4745426 40.7870432,30.4665516 40.6883056,30.4607401 C40.6701553,30.4592872 40.652731,30.4585607 40.6345807,30.4578343 C40.5387471,30.4527491 40.4436396,30.4498434 40.348532,30.4483905 C40.3078754,30.4483905 40.2679447,30.4491169 40.2272881,30.4491169 C40.161221,30.4498434 40.0958799,30.4505698 40.0305388,30.4527491 C39.9840741,30.454202 39.9383353,30.4563814 39.8925966,30.4592872 C39.8330636,30.462193 39.7728046,30.4665516 39.7132717,30.4709103 C39.6660809,30.475269 39.6188901,30.4789012 39.5709733,30.4832599 C39.5128924,30.489798 39.4540854,30.496336 39.3960045,30.5043269 C39.3488137,30.5101385 39.302349,30.5152236 39.2558842,30.5224881 C39.1912691,30.5319319 39.1266541,30.5428286 39.062765,30.5544518 C38.9836298,30.5682543 38.9052205,30.5835096 38.8268112,30.6002179 C38.7723603,30.6111146 38.7171834,30.6227378 38.6634585,30.6350874 C38.6082816,30.6481635 38.5538307,30.6626924 38.5001059,30.6772213 C38.4550931,30.6888445 38.4100804,30.7004677 38.3650677,30.7128173 C38.3084387,30.7287991 38.2525358,30.7462338 38.1959069,30.7636686 C38.1552502,30.7760182 38.1153196,30.7890942 38.0746629,30.8021703 C38.015856,30.8217843 37.957775,30.8413984 37.8996941,30.8624654 C37.8648455,30.874815 37.8307229,30.887891 37.7958744,30.9009671 C37.7334373,30.9242134 37.6710003,30.9481862 37.6092893,30.9736118 C37.5976731,30.9779705 37.5867829,30.9830556 37.5751668,30.9881407 C37.3399389,31.0854847 37.1105192,31.1966311 36.8869075,31.3194007 C36.8673052,31.3302974 36.8477029,31.3404677 36.8288266,31.3513644 C36.7620335,31.3884132 36.6966924,31.4269149 36.6313513,31.466143 C36.612475,31.4777662 36.5935987,31.4893893 36.5747224,31.5010125 C36.5253536,31.5315233 36.4774368,31.5627605 36.428794,31.5947242 C36.4106437,31.6056209 36.3932195,31.6165176 36.3750692,31.6281407 C36.364905,31.6354052 36.3540148,31.6426697 36.3431246,31.6499342 C36.0403777,31.8533394 35.753603,32.0807174 35.4849786,32.3298888 C35.4828006,32.3320681 35.4806226,32.333521 35.4784445,32.3357003 C35.4123774,32.3967219 35.3477624,32.4591964 35.2845994,32.5231237 C35.2787913,32.5289353 35.2737092,32.5340204 35.2679011,32.539832 C34.9375657,32.8739977 34.6384488,33.2423065 34.3770845,33.6433053 L34.3720025,33.641126 C34.3524001,33.675269 34.3320718,33.7086856 34.3117435,33.7421022 C34.3102914,33.7442815 34.3095654,33.7464608 34.3081134,33.7486402 C33.2583003,35.4863019 31.1223734,36.3449625 29.1047865,35.7013303 C28.0019744,35.3497299 27.1293082,34.610933 26.5898814,33.6832599 C26.0243182,35.9519546 26.2377656,38.2540658 27.0734053,40.288118 C28.2263121,43.0929308 30.5626183,45.3870511 33.6764831,46.3801044 C38.9299049,48.0560182 44.510758,45.4262792 46.6481369,40.4639183 C46.6975057,40.3571305 46.7454225,40.2481635 46.7897092,40.137017 C46.8042294,40.1021476 46.8187497,40.0672781 46.8325439,40.0324086 C46.8477902,39.9917276 46.8630364,39.9510465 46.8782827,39.909639 C46.9124052,39.8173802 46.9450757,39.7236686 46.9755682,39.628504 C48.1560635,35.9236232 46.1108881,31.9630329 42.4082277,30.7818297" id="Fill-294" fill="#FFFE71"></path>
                    <path d="M42.7100308,49.8281135 L42.7100308,52.1040726 C42.7100308,52.4563995 42.9982575,52.7447991 43.3503733,52.7447991 C43.702489,52.7447991 43.9907157,52.4563995 43.9907157,52.1040726 L43.9907157,49.1830284 C43.5739849,49.4205766 43.1463639,49.635605 42.7100308,49.8281135" id="Fill-296" fill="#000000"></path>
                    <path d="M43.3797041,27.0499251 C43.3397735,26.5297889 42.8867421,26.1404132 42.3669176,26.1796413 C41.8470931,26.2195959 41.4579508,26.6736254 41.4971554,27.1937616 C41.537086,27.7138978 41.9901174,28.1032736 42.5099419,28.063319 C43.0297664,28.0240908 43.4196348,27.5700613 43.3797041,27.0499251" id="Fill-298" fill="#000000"></path>
                    <path d="M40.8926779,47.895546 C40.5405622,47.895546 40.2523355,48.1839455 40.2523355,48.5362724 L40.2523355,50.6509603 L40.2523355,52.6930034 C40.2523355,53.0453303 40.5405622,53.3337299 40.8926779,53.3337299 C41.2447937,53.3337299 41.5330204,53.0453303 41.5330204,52.6930034 L41.5330204,50.2848309 L41.5330204,48.5362724 C41.5330204,48.1839455 41.2447937,47.895546 40.8926779,47.895546" id="Fill-300" fill="#000000"></path>
                    <path d="M42.5102323,28.0634642 C41.9904078,28.1034188 41.5366504,27.7133167 41.4974458,27.1931805 C41.4575151,26.6730443 41.8466575,26.2197412 42.366482,26.1797866 C42.8863065,26.1405585 43.3400639,26.5299342 43.3799945,27.0500704 C43.4191992,27.5702066 43.0300568,28.0235096 42.5102323,28.0634642 M47.2460077,27.3326583 C46.8067705,26.8749966 46.3319587,26.4427605 45.8222984,26.0395823 L45.7424371,25.9843723 C45.6066729,25.8739523 45.4643746,25.7693439 45.3177202,25.6705471 C44.8930032,25.3857798 44.4232736,25.1525902 43.9136132,24.9840545 C40.8817877,23.9822838 37.6125564,25.6291396 36.611386,28.6627832 C36.2875847,29.6434869 36.24112,30.6488899 36.428431,31.5947242 C36.4770738,31.5627605 36.5257166,31.5315233 36.5750854,31.5010125 C36.5939617,31.4893893 36.612838,31.4777662 36.6317144,31.466143 C36.6970554,31.4269149 36.7623965,31.3884132 36.8284636,31.3513644 C36.8480659,31.3404677 36.8676682,31.3295709 36.8865445,31.3194007 C37.1101562,31.1966311 37.3395759,31.0854847 37.5755298,30.9881407 C37.5864199,30.9830556 37.5980361,30.9779705 37.6089263,30.9736118 C37.6706373,30.9481862 37.7338003,30.9242134 37.7962374,30.9009671 C37.8303599,30.887891 37.8652085,30.874815 37.9000571,30.8624654 C37.957412,30.8413984 38.016219,30.8217843 38.0750259,30.8021703 C38.1149566,30.7890942 38.1556132,30.7760182 38.1962699,30.7636686 C38.2521728,30.7462338 38.3088017,30.7287991 38.3654307,30.7128173 C38.4097174,30.7004677 38.4547301,30.6888445 38.4997429,30.6772213 C38.5541937,30.6626924 38.6086446,30.6481635 38.6630955,30.6350874 C38.7175464,30.6227378 38.7719973,30.6111146 38.8271742,30.6002179 C38.9048575,30.5835096 38.9839928,30.5682543 39.0631281,30.5544518 C39.1270171,30.5428286 39.1909061,30.5319319 39.2555212,30.5217616 C39.301986,30.5152236 39.3491767,30.5101385 39.3956415,30.5043269 C39.4544484,30.496336 39.5125294,30.489798 39.5713363,30.4832599 C39.6185271,30.4789012 39.6657179,30.4745426 39.7136347,30.4709103 C39.7731676,30.4665516 39.8327006,30.462193 39.8929596,30.4592872 C39.9386983,30.4563814 39.9844371,30.454202 40.0301758,30.4527491 C40.0955169,30.4505698 40.161584,30.4498434 40.2276511,30.4491169 C40.2675817,30.4491169 40.3082384,30.447664 40.348895,30.4483905 C40.4440026,30.4498434 40.5391102,30.4527491 40.6342177,30.4578343 C40.652368,30.4585607 40.6705183,30.4592872 40.6879426,30.4607401 C40.7874062,30.4665516 40.8868698,30.4745426 40.9863335,30.4847128 C41.022634,30.4883451 41.0589346,30.4934302 41.0952352,30.4977889 C41.1671104,30.5065062 41.2389856,30.5159501 41.3115868,30.5268468 C41.3522434,30.5326583 41.3929001,30.5399228 41.4335568,30.5464608 C41.5025279,30.558084 41.571499,30.57116 41.6404701,30.5849625 C41.6811268,30.5929535 41.7210575,30.6009444 41.7617141,30.6096617 C41.8350413,30.6256436 41.9090945,30.6438048 41.9824217,30.6619659 C42.0165443,30.6706833 42.0513928,30.6786742 42.0862414,30.688118 C42.1936912,30.7164495 42.3011409,30.7476867 42.4085907,30.7818297 C46.1112511,31.9630329 48.1557005,35.9236232 46.9759313,39.628504 C46.9454388,39.7236686 46.9120422,39.8173802 46.8779197,39.909639 C46.8633994,39.9510465 46.8481532,39.9917276 46.8321809,40.0324086 C46.8183867,40.0672781 46.8038664,40.1021476 46.7900722,40.137017 C46.7450595,40.2481635 46.6978687,40.3571305 46.6477739,40.4639183 C44.511121,45.4262792 38.9302679,48.0560182 33.6768461,46.3801044 C30.5629813,45.3870511 28.2266751,43.0929308 27.0737683,40.288118 C25.648607,40.096336 24.3134712,39.6219659 23.1249898,38.9238502 C23.6840189,42.8917049 25.9244915,46.5951328 29.5850433,48.8863473 C32.8942053,50.9574484 36.731178,51.4804904 40.2523355,50.6508876 L40.2523355,48.5361998 C40.2523355,48.1838729 40.5405622,47.8954733 40.8926779,47.8954733 C41.2447937,47.8954733 41.5330204,48.1838729 41.5330204,48.5361998 L41.5330204,50.2847582 C41.9316009,50.1503655 42.3243733,49.998538 42.7098856,49.8278229 C43.1469447,49.6353144 43.5738397,49.420286 43.9905705,49.1834642 C45.9471725,48.0698207 47.6641905,46.468731 48.9412453,44.425235 C52.4246502,38.8541112 51.5832025,31.8555187 47.2460077,27.3326583" id="Fill-302" fill="#FFE600"></path>
                    <path d="M36.9956641,56.68563 C26.146869,56.68563 17.3214689,47.8542111 17.3214689,36.9996368 C17.3214689,26.1450624 26.146869,17.3136436 36.9956641,17.3136436 C47.8437332,17.3136436 56.6698593,26.1450624 56.6698593,36.9996368 C56.6698593,47.8542111 47.8437332,56.68563 36.9956641,56.68563 M36.9956641,13 C23.7699061,13 13.0096845,23.7659478 13.0096845,36.9996368 C13.0096845,50.2333258 23.7699061,61 36.9956641,61 C50.221422,61 60.9816437,50.2333258 60.9816437,36.9996368 C60.9816437,23.7659478 50.221422,13 36.9956641,13" id="Fill-304" fill="#FFE600"></path>
                </g>
            </g>
        </g>
    </g>
</svg>