<?xml version="1.0" encoding="UTF-8"?>
<svg width="1355px" height="672px" viewBox="0 0 1355 672" version="1.1" xmlns="http://www.w3.org/2000/svg" xmlns:xlink="http://www.w3.org/1999/xlink">
    <title>Group</title>
    <g id="REX-desktop" stroke="none" stroke-width="1" fill="none" fill-rule="evenodd">
        <g id="01.Landing-D---menu-view" transform="translate(-180.000000, -54.000000)" stroke="#00B3B0">
            <g id="Group" transform="translate(180.525656, 54.000000)">
                <g id="house" transform="translate(461.759770, 1.000000)">
                    <g transform="translate(0.000000, 0.000000)">
                        <g id="base" transform="translate(0.000000, 79.500000)">
                            <polyline id="Path-9" stroke-linejoin="round" points="772.301384 212.250733 577.374296 460.583984 5.92241485e-14 313.930203 109.208878 265.918487"></polyline>
                            <line x1="390.017857" y1="413" x2="784.172099" y2="513" id="Line-7" stroke-linecap="square"></line>
                            <line x1="676.489335" y1="265" x2="800.178362" y2="287" id="Line-7-Copy" stroke-linecap="square"></line>
                            <line x1="546.869023" y1="91.2535978" x2="777.528874" y2="-1.489454e-13" id="Line-8" stroke-linecap="square"></line>
                        </g>
                        <polygon id="Stroke-1" points="161.715342 417.746496 69.7519049 394.023283 69.7519049 387.4994 161.715342 411.222613"></polygon>
                        <polygon id="Stroke-3" points="289.870842 418.932657 206.213779 399.954086 206.213779 393.430203 289.870842 412.408773"></polygon>
                        <polygon id="Stroke-4" points="205.620467 399.954086 161.12203 417.746496 161.12203 411.222613 205.620467 393.430203"></polygon>
                        <polyline id="Stroke-5" points="154.294071 208.783304 98.2307861 257.022085 598.986535 319.888599 657.131159 184.666286 505.550496 179.742533"></polyline>
                        <polygon id="Stroke-6" stroke-linejoin="round" points="568.727716 479.426849 568.635159 316.078295 333.505416 286.558315 337.335842 428.421942"></polygon>
                        <polyline id="Stroke-7" points="604.161644 307.85322 680.270584 257.614572 653.278425 193.62595"></polyline>
                        <polyline id="Stroke-8" points="674.33473 261.532935 689.99462 261.532935 657.131041 184.666167"></polyline>
                        <polyline id="Stroke-10" points="667.217591 266.511014 667.217591 363.183106 587.934428 456.975201"></polyline>
                        <polyline id="Stroke-11" points="461.111746 37.1167978 516.516453 33.4302105 554.671193 124.76458 461.931704 122.392259 299.364079 122.392259 244.270267 79.0973953 200.309371 124.76458 137.98308 124.76458 218.673579 35.8025318 293.430954 47.6641382 432.536629 38.7406517"></polyline>
                        <line x1="293.430717" y1="47.6643755" x2="320.723092" y2="122.392496" id="Stroke-12"></line>
                        <line x1="516.516216" y1="33.4304477" x2="461.931466" y2="122.392496" id="Stroke-13"></line>
                        <polyline id="Stroke-14" points="218.673342 35.802769 269.698217 78.5045522 244.27003 79.0976325"></polyline>
                        <polyline id="Stroke-15" points="205.620467 232.705436 155.782217 227.960793 147.938626 124.764817"></polyline>
                        <polyline id="Stroke-16" points="454.13534 122.428649 453.625091 256.428649 326.840143 244.96018 324.164304 122.428649"></polyline>
                        <polyline id="Stroke-17" stroke-linejoin="round" points="200.309608 124.764817 207.333241 261.658431 211.395296 258.267553 301.084923 267.67701 299.364316 122.392496"></polyline>
                        <line x1="207.946609" y1="261.5" x2="300.983016" y2="273.5" id="Line-3" stroke-linecap="square"></line>
                        <line x1="546.181841" y1="181.700528" x2="546.181841" y2="124.764817" id="Stroke-18"></line>
                        <polyline id="Stroke-19" stroke-linejoin="round" points="69.7519049 387.4994 134.941522 366.025147 305.296967 404.698729 289.870842 412.408773"></polyline>
                        <line x1="135.132925" y1="366.02491" x2="130.863448" y2="261.173054" id="Stroke-21"></line>
                        <line x1="211.20425" y1="383.220207" x2="205.619992" y2="270.663051" id="Stroke-22"></line>
                        <line x1="305.298747" y1="404.698729" x2="301.738872" y2="282.524183" id="Stroke-23"></line>
                        <polyline id="Stroke-24" stroke-linejoin="round" points="326.656217 244.567042 301.036983 273.648143 301.084448 267.67701"></polyline>
                        <polyline id="Stroke-25" points="262.236956 77.9114719 218.673579 42.2756477 147.938863 120.800668 203.926969 120.800668"></polyline>
                        <line x1="148.923512" y1="120.5" x2="138.919597" y2="124.5" id="Line"></line>
                        <g id="Group-206" transform="translate(107.145781, 0.000000)">
                            <path d="M480.353156,467.107029 C481.894581,467.536419 483.089513,468.67632 483.089513,469.937208 C483.089513,471.902677 479.636434,473.49569 475.37645,473.49569 C471.116467,473.49569 467.663388,471.902677 467.663388,469.937208 C467.663388,468.738 468.706431,467.89464 470.282269,467.286139" id="Stroke-26"></path>
                            <path d="M475.37645,473.496046 C471.116467,473.496046 467.663388,471.903033 467.663388,469.937564 L467.663388,478.240689 C467.663388,480.206157 471.116467,481.799171 475.37645,481.799171 C479.636434,481.799171 483.089513,480.206157 483.089513,478.240689 L483.089513,469.937564 C483.089513,471.903033 479.636434,473.496046 475.37645,473.496046 Z" id="Stroke-28"></path>
                            <path d="M470.228515,316.922841 L470.228515,468.749031 C470.228515,470.060925 472.532941,471.123725 475.376094,471.123725 C478.219248,471.123725 480.523674,470.060925 480.523674,468.749031 L480.567579,318.109002" id="Stroke-30"></path>
                            <path d="M568.501,366.918326 C569.965295,367.469891 570.900356,368.309693 570.900356,369.250318 C570.900356,370.913315 567.977699,372.26198 564.373918,372.26198 C560.768952,372.26198 557.847481,370.913315 557.847481,369.250318 C557.847481,368.287156 558.827633,367.429562 560.353633,366.877997" id="Stroke-32"></path>
                            <path d="M564.373325,372.261743 C560.768358,372.261743 557.846888,370.913078 557.846888,369.251267 L557.846888,376.276897 C557.846888,377.939894 560.768358,379.287372 564.373325,379.287372 C567.978292,379.287372 570.899763,377.939894 570.899763,376.276897 L570.899763,369.251267 C570.899763,370.913078 567.978292,372.261743 564.373325,372.261743 Z" id="Stroke-34"></path>
                            <path d="M560.017462,266.511014 L560.017462,368.244454 C560.017462,369.3547 561.967087,370.254996 564.373562,370.254996 C566.778851,370.254996 568.729663,369.3547 568.729663,368.244454 L568.729663,260.718992" id="Stroke-36"></path>
                            <path d="M10.7599595,363.325564 C12.1850961,363.859337 13.0964241,364.674229 13.1084074,365.598248 C13.1296496,367.260059 10.2247916,368.645495 6.61982487,368.691755 C3.01604475,368.736829 0.0767746373,367.426122 0.0564721432,365.763124 C0.0435491374,364.798776 1.01539501,363.928134 2.53783488,363.357591" id="Stroke-38"></path>
                            <path d="M13.1972872,370.95661 L13.1082903,365.597536 C13.1296496,367.260534 10.2247916,368.645969 6.61982487,368.691043 C3.01604475,368.737304 0.0767746373,367.426596 0.0566020123,365.763599 L0.145598887,372.789228 C0.155091887,373.525834 0.73772476,374.193643 1.69651776,374.704878" id="Stroke-40"></path>
                            <path d="M0,257.386592 L2.26645374,364.379468 C2.28069324,365.488528 4.24218436,366.363915 6.64747323,366.333865 C9.05394872,366.302234 10.9917073,365.378215 10.9775458,364.267969 L8.66710897,259.120759" id="Stroke-42"></path>
                            <line x1="346.47931" y1="256.428649" x2="398.977973" y2="179.551205" id="Stroke-44"></line>
                            <polygon id="Stroke-46" points="112.714186 223.216151 109.154311 146.115709 179.938865 147.301869 181.538436 229.146954"></polygon>
                            <polygon id="Stroke-48" fill-opacity="0.2" fill="#00B3B0" points="126.953686 148.48803 130.216147 221.966649 163.739061 224.402311 161.365811 149.674191"></polygon>
                            <path d="M115.312064,143.982755 C114.47668,125.154827 121.347239,103.219158 141.193542,103.413688 C166.462721,103.661596 172.388726,134.270471 172.045792,144.929311 L157.576086,144.929311 C157.288923,142.389741 157.638978,123.392192 142.09419,122.392259 C125.513479,121.3259 127.232899,139.381638 127.090504,144.014781 L115.312064,143.982755 Z" id="Stroke-50"></path>
                            <path d="M244.357004,320.555664 L441.434125,347.279439 L441.434125,468.391602 L244.357004,424.902959 L244.357004,320.555664 Z M248.858766,421.079634 L436.932364,461.857112 L248.858766,421.079634 Z M248.858766,415.79017 L436.932364,455.759556 L248.858766,415.79017 Z M248.858766,410.500705 L436.932364,449.662 L248.858766,410.500705 Z M248.858766,405.211241 L436.932364,443.564445 L248.858766,405.211241 Z M248.858766,399.921777 L436.932364,437.466889 L248.858766,399.921777 Z M248.858766,394.632312 L436.932364,431.369333 L248.858766,394.632312 Z M248.858766,389.342848 L436.932364,425.271777 L248.858766,389.342848 Z M248.858766,384.053384 L436.932364,419.174222 L248.858766,384.053384 Z M248.858766,378.763919 L436.932364,413.076666 L248.858766,378.763919 Z M248.858766,373.474455 L436.932364,406.97911 L248.858766,373.474455 Z M248.858766,368.18499 L436.932364,400.881554 L248.858766,368.18499 Z M248.858766,362.895526 L436.932364,394.783999 L248.858766,362.895526 Z M248.858766,357.606062 L436.932364,388.686443 L248.858766,357.606062 Z M248.858766,352.316597 L436.932364,382.588887 L248.858766,352.316597 Z M248.858766,347.027133 L436.932364,376.491331 L248.858766,347.027133 Z M248.858766,341.737669 L436.932364,370.393776 L248.858766,341.737669 Z M248.858766,336.448204 L436.932364,364.29622 L248.858766,336.448204 Z M248.858766,331.15874 L436.932364,358.198664 L248.858766,331.15874 Z M248.858766,325.869275 L436.932364,352.101108 L248.858766,325.869275 Z" id="rolling" stroke-linecap="square"></path>
                            <polygon id="Stroke-90" points="243.55884 431.344238 434.28956 473.496046 451.113694 477.21875 396.31756 505.522384 226.630186 465.192922"></polygon>
                            <line x1="439.8483" y1="474.57251" x2="396.31756" y2="505.522384" id="Stroke-92"></line>
                            <polygon id="Stroke-94" points="222.465844 146.115709 342.306662 148.48803 342.306662 236.295944 224.256461 226.774633"></polygon>
                            <line x1="280.02831" y1="147.301869" x2="280.02831" y2="231.519275" id="Stroke-96"></line>
                            <line x1="299.01431" y1="147.301869" x2="300.200935" y2="232.705436" id="Stroke-98"></line>
                            <line x1="239.670838" y1="146.456256" x2="240.85509" y2="228.11274" id="Stroke-100"></line>
                            <path d="M243.203895,150.223739 C245.577145,150.223739 259.354218,150.63623 259.354218,150.63623 L259.855804,225.588828 L244.348989,224.480954 L243.203895,150.223739 Z" id="Stroke-102" fill-opacity="0.2" fill="#00B3B0"></path>
                            <line x1="251.219065" y1="150.5" x2="251.900077" y2="224.640848" id="Stroke-104"></line>
                            <line x1="244.159485" y1="187.289124" x2="259.354218" y2="188.434955" id="Stroke-106"></line>
                            <line x1="259.736904" y1="147.023478" x2="260.740789" y2="229.56128" id="Stroke-108"></line>
                            <path d="M303.124305,151.061287 C305.613844,151.061287 320.066818,151.963125 320.066818,151.963125 L320.592611,230.122452 L304.325169,228.961201 L303.124305,151.061287 Z" id="Stroke-110" fill-opacity="0.2" fill="#00B3B0"></path>
                            <line x1="311.445394" y1="151.963125" x2="312.247552" y2="229.128806" id="Stroke-112"></line>
                            <line x1="304.126884" y1="189.944582" x2="320.066818" y2="191.147349" id="Stroke-114"></line>
                            <line x1="320.468253" y1="147.703978" x2="321.520789" y2="234.290146" id="Stroke-116"></line>
                            <line x1="164.434616" y1="227.229004" x2="161.54155" y2="146.73702" id="Stroke-118"></line>
                            <line x1="123.840812" y1="146.307037" x2="127.138443" y2="224.688532" id="Stroke-120"></line>
                            <line x1="144.913255" y1="149.172919" x2="147.565481" y2="223.399414" id="Stroke-122"></line>
                            <line x1="130.86492" y1="149.029631" x2="133.875388" y2="221.966649" id="Stroke-124"></line>
                            <line x1="132.728515" y1="186.572683" x2="162.402446" y2="187.432649" id="Stroke-126"></line>
                            <polygon id="Stroke-128" points="95.3883091 217.264893 52.6862961 214.46167 47.148171 144.444171 91.8732537 145.733528"></polygon>
                            <polyline id="Stroke-130" points="104.249515 258.267553 97.75037 124.143625 140.37394 82.1108364"></polyline>
                            <line x1="59.1658825" y1="144.929311" x2="63.9206407" y2="214.897606" id="Stroke-132"></line>
                            <polygon id="Stroke-134" fill-opacity="0.2" fill="#00B3B0" points="95.027303 213.646484 66.2135561 211.457859 62.3560958 144.929311 91.8732537 145.733765"></polygon>
                            <line x1="79.5933463" y1="145.733765" x2="83.6076986" y2="212.604757" id="Stroke-136"></line>
                            <line x1="64.8759924" y1="179.742296" x2="92.9728991" y2="181.080285" id="Stroke-138"></line>
                            <path d="M135.089423,146.307037 C135.089423,146.307037 135.058691,142.279053 135.058691,138.171517 C135.058691,134.06398 138.266138,130.25508 143.478981,130.354718 C148.691825,130.455542 152.200675,136.067268 152.301538,138.973361 C152.401215,141.879455 152.701431,146.689336 152.701431,146.689336" id="Stroke-140"></path>
                            <path d="M137.50029,146.223294 C137.50029,146.223294 137.413666,143.572998 137.413666,139.523858 C137.413666,135.474719 140.198675,132.648871 144.72565,132.736647 C149.251437,132.823237 152.29869,137.695985 152.385314,140.218948 C152.471938,142.743098 152.732995,146.91957 152.732995,146.91957" id="Stroke-142" fill-opacity="0.2" fill="#00B3B0"></path>
                            <path d="M129.192491,146.115946 C129.192491,146.115946 129.04891,141.678912 129.04891,138.951536 C129.04891,135.249023 130.375755,122.882812 140.37394,122.392496" id="Stroke-144" stroke-linecap="round"></path>
                            <path d="M174.786302,147.228921 C174.233335,141.665827 174.971416,106.884039 143.144947,103.31844" id="Stroke-146"></path>
                            <line x1="191.50217" y1="407.962331" x2="229.851328" y2="416.5" id="Stroke-148"></line>
                            <polygon id="Stroke-150" points="95.2662892 348.256461 34.0745207 335.583984 30.4718179 269.73144 91.4441701 277.182901"></polygon>
                            <polygon id="Stroke-152" fill-opacity="0.2" fill="#00B3B0" points="85.1361903 343.288939 49.775952 336.028449 45.7627863 275.081143 81.8872111 279.474682"></polygon>
                            <line x1="81.7115704" y1="276.008301" x2="85.4537574" y2="346.167725" id="Stroke-154"></line>
                            <line x1="42.7044977" y1="271.259571" x2="46.7796879" y2="338.5" id="Stroke-156"></line>
                            <line x1="47.6739645" y1="306.796588" x2="83.7941725" y2="311.5" id="Stroke-158"></line>
                            <line x1="62.3911997" y1="277.373517" x2="66.0222722" y2="338.894925" id="Stroke-160"></line>
                            <path d="M131.581642,379.781171 C134.830621,379.781171 189.112782,391.053256 189.112782,391.053256 L187.392175,292.275728 L127.376243,284.824267 L131.581642,379.781171 Z" id="Stroke-162"></path>
                            <line x1="187.010557" y1="281.767887" x2="189.835669" y2="402.5" id="Stroke-164"></line>
                            <polyline id="Stroke-166" points="108.087859 384.126465 116.864169 379.972736 126.994387 382.264398 131.581879 379.780578"></polyline>
                            <polyline id="Stroke-168" points="121.994668 381.147949 118.393966 283.678554 127.376718 284.824385"></polyline>
                            <polygon id="Stroke-170" fill-opacity="0.2" fill="#00B3B0" stroke-linejoin="round" points="146.585684 376.781171 145.9485 353.078369 160.252044 356.14672 161.112348 379.455963"></polygon>
                            <polygon id="Stroke-170-Copy" stroke-linejoin="round" points="145.805255 349.543701 145.534335 341.993905 179.365013 349.387329 179.365013 356.932861"></polygon>
                            <polygon id="Stroke-172" fill-opacity="0.2" fill="#00B3B0" stroke-linejoin="round" points="165.125632 380.697873 164.265329 357.293738 179.747225 360.159502 180.511412 384.04166"></polygon>
                            <polygon id="Stroke-174" fill-opacity="0.2" fill="#00B3B0" stroke-linejoin="round" points="145.343288 338.646506 143.718798 292.315071 158.818601 294.702812 160.634138 341.51227"></polygon>
                            <polygon id="Stroke-176" fill-opacity="0.2" fill="#00B3B0" stroke-linejoin="round" points="164.74342 342.658813 163.21386 295.371333 178.50471 297.473209 179.365013 346.097492"></polygon>
                            <line x1="139.991609" y1="286.735409" x2="143.049542" y2="381.500155" id="Stroke-178"></line>
                            <line x1="182.04109" y1="291.750733" x2="185.195139" y2="389.907899" id="Stroke-180"></line>
                            <polyline id="Stroke-182" points="182.614467 419.139286 191.836452 413.908447 229.776878 423.437932"></polyline>
                            <line x1="191.836452" y1="408.5" x2="191.836452" y2="413.5" id="Line-2" stroke-linecap="square"></line>
                            <polygon id="Stroke-184" points="322.68914 30.0797812 344.504054 29.7583316 357.428774 28.2436045 357.529637 21.4611379 344.31372 20.838285 322.792377 22.724399"></polygon>
                            <polygon id="Stroke-188" points="325.86621 63.8048192 345.843042 63.9602062 353.86344 53.6643318 353.774443 28.7098842 344.503342 29.7584502 325.607526 29.9672145"></polygon>
                            <line x1="326.122284" y1="22.4314904" x2="326.122284" y2="17.2197313" id="Stroke-190"></line>
                            <line x1="354.336429" y1="21.838285" x2="354.41" y2="15.8314489" id="Stroke-192"></line>
                            <line x1="340.894782" y1="17.5" x2="340.944298" y2="20.6293501" id="Stroke-194"></line>
                            <line x1="332.71363" y1="17.3972995" x2="332.59378" y2="21.838285" id="Stroke-196"></line>
                            <line x1="349.111719" y1="16.4215625" x2="349.111719" y2="20.8498573" id="Stroke-198"></line>
                            <line x1="344.2888" y1="20.6715774" x2="344.30126" y2="30.0797812" id="Stroke-200"></line>
                            <line x1="461.669864" y1="479.227337" x2="467.690799" y2="471.966848" id="Stroke-204"></line>
                            <polygon id="Stroke-186" points="318.362231 17.004799 342.907569 16.9834481 363.678253 14.9883259 351.437029 0 325.892553 2.84559938"></polygon>
                            <line x1="343.271744" y1="16.7692275" x2="351.435724" y2="0.0455485687" id="Stroke-202"></line>
                        </g>
                        <g id="Group" transform="translate(504.408775, 76.000000)">
                            <ellipse id="Oval" fill-opacity="0.2" fill="#00B3B0" cx="9.15742967" cy="16" rx="8.00313181" ry="13"></ellipse>
                            <ellipse id="Oval-Copy" cx="10.0039148" cy="16" rx="10.0039148" ry="16"></ellipse>
                        </g>
                        <g id="Group-2" transform="translate(648.619054, 248.800000) rotate(5.000000) translate(-648.619054, -248.800000) translate(640.615922, 236.000000)">
                            <ellipse id="Oval" fill-opacity="0.2" fill="#00B3B0" cx="7.32594373" cy="12.8" rx="6.40250545" ry="10.4"></ellipse>
                            <ellipse id="Oval-Copy" cx="8.00313181" cy="12.8" rx="8.00313181" ry="12.8"></ellipse>
                        </g>
                    </g>
                </g>
                <polyline id="Background" points="-7.02084116e-13 672 -5.60785823e-13 475.986362 88.5382935 395 462.944559 395"></polyline>
            </g>
        </g>
    </g>
</svg>