<?xml version="1.0" encoding="UTF-8"?>
<svg width="1088px" height="433px" viewBox="0 0 1088 433" version="1.1" xmlns="http://www.w3.org/2000/svg" xmlns:xlink="http://www.w3.org/1999/xlink">
    <title>stair path</title>
    <defs>
        <filter x="-3.4%" y="-10.4%" width="106.8%" height="120.7%" filterUnits="objectBoundingBox" id="filter-1">
            <feGaussianBlur stdDeviation="11" in="SourceGraphic"></feGaussianBlur>
        </filter>
        <linearGradient x1="19.4662845%" y1="51.985812%" x2="91.1628189%" y2="46.8229556%" id="linearGradient-2">
            <stop stop-color="#AEDBDC" offset="0%"></stop>
            <stop stop-color="#FBF46B" offset="100%"></stop>
            <stop stop-color="#FEF566" offset="100%"></stop>
        </linearGradient>
    </defs>
    <g id="REX-general-user" stroke="none" stroke-width="1" fill="none" fill-rule="evenodd">
        <g id="t01.Landing-A" transform="translate(528.000000, -1649.000000)">
            <g id="stair-path" transform="translate(32.437219, 1849.000000) scale(-1, 1) translate(-32.437219, -1849.000000) translate(-495.000000, 1649.000000)">
                <polygon id="shadow" fill="#000000" opacity="0.0799999982" filter="url(#filter-1)" transform="translate(566.960826, 240.848393) scale(-1, 1) translate(-566.960826, -240.848393) " points="1054.87444 96.862915 79.0472139 400 79.0472139 273.101733 978.494651 81.6967854"></polygon>
                <polygon id="floor" fill="url(#linearGradient-2)" transform="translate(517.066821, 183.661688) scale(-1, 1) translate(-517.066821, -183.661688) " points="956.865751 88.0764553 77.2678915 294.523203 77.2678915 175.452595 879.597859 72.8001738"></polygon>
                <g id="stair" transform="translate(77.267892, 37.365769) scale(-1, 1) translate(-77.267892, -37.365769) ">
                    <g id="stair-copy-2" transform="translate(51.600348, 0.000000)">
                        <path d="M82.2188676,22.1100086 L82.412884,26.3403215 C82.259493,26.3863896 82.0957478,26.4286193 81.9228847,26.4663982 L81.7474491,26.5033718 C81.5654611,26.537641 81.3772607,26.5683355 81.1827801,26.5941585 C81.0573718,26.6099804 80.9315885,26.6243917 80.8056697,26.6362093 L80.6424615,26.6510763 L80.479313,26.6636299 L80.1779863,26.6799826 C80.0792932,26.6838747 79.983506,26.6863275 79.8876674,26.6874963 L79.8874035,26.6886188 L79.5994457,26.6898349 L79.3038499,26.6832601 L79.1098335,22.4529472 C79.2064527,22.4569732 79.305941,22.4582476 79.4054292,22.4595221 C79.5006908,22.4606285 79.5970389,22.4594672 79.6933871,22.4583059 L79.9839698,22.4496698 L79.9839698,22.4496698 L80.0158595,23.1490607 L79.9848441,22.4491037 L80.1351211,22.442183 L80.2843748,22.4329754 C80.3954744,22.4258375 80.5035017,22.4175607 80.6113934,22.4066903 C80.737572,22.3940788 80.8663599,22.3795097 80.9890708,22.3639595 C81.1185198,22.3466683 81.2453442,22.3278389 81.3694128,22.3066691 L81.5529833,22.2735309 L81.7289846,22.2374212 C81.9026861,22.1995237 82.0676705,22.1569641 82.2188676,22.1100086 Z M78.7949928,22.4355502 C78.8978245,22.4431508 79.0035929,22.4492968 79.1092258,22.4528491 L79.3032422,26.683162 C79.1945371,26.6784707 79.0918409,26.6734637 78.9890092,26.665863 L78.7949928,22.4355502 Z M0.924061649,7.375388 L77.974383,22.3331559 C78.0674347,22.3515433 78.1660145,22.3674586 78.2680749,22.3816498 L78.4235487,22.4021139 L78.6060739,22.420802 L78.794419,22.4361005 L78.9884354,26.6664133 L78.8006021,26.6510017 L78.6175748,26.6320641 C78.459916,26.6130401 78.3080629,26.5898101 78.1680923,26.5633549 L1.11807812,11.6057009 L0.924061649,7.375388 Z M101.665371,16.1320035 L101.859388,20.3623164 L82.4131709,26.3400464 L82.2191544,22.1097335 L101.665371,16.1320035 Z M102.476841,15.5811819 L102.670858,19.8114948 L102.665935,19.8475272 L102.665935,19.8475272 L102.654899,19.8865845 C102.644101,19.9105585 102.630366,19.9359872 102.610622,19.9617316 C102.590801,19.9873401 102.565394,20.0131121 102.534044,20.0379381 L102.534252,20.0396053 C102.500073,20.067019 102.462979,20.0945858 102.417227,20.1226075 L102.41723,20.1236462 C102.382215,20.145425 102.343164,20.1668379 102.300967,20.1878381 L102.235177,20.2200765 C102.129252,20.2685543 102.002226,20.3168404 101.859975,20.3620254 L101.665958,16.1317126 C101.811214,16.0863697 101.935235,16.0382415 102.041161,15.9897636 C102.109088,15.9578465 102.170691,15.9260015 102.223214,15.8933333 L102.287533,17.3030012 L102.224122,15.8934156 L102.304714,15.8378989 L102.339054,15.8097447 C102.370816,15.7833688 102.396569,15.7573086 102.416312,15.7315642 C102.435867,15.7076502 102.449384,15.6829544 102.459981,15.6583779 C102.470404,15.6309343 102.475125,15.6059792 102.476841,15.5811819 Z M0.000197374546,6.88843802 C0.00722549797,7.08052352 0.317778352,7.25796135 0.923474302,7.37567893 L1.11749077,11.6059918 C0.511794822,11.4882742 0.201241969,11.3108364 0.194213845,11.1187509 L0.000197374546,6.88843802 Z" id="Shape" fill="#E3DA49"></path>
                        <path d="M101.559912,15.0828144 C102.733508,15.3110987 102.773543,15.7653755 101.718342,16.1147252 L82.2176996,22.1107202 C81.0523773,22.4684339 79.1775542,22.5669424 77.9753115,22.3336273 L0.921985598,7.37601723 C-0.21704544,7.15375326 -0.304350968,6.72217262 0.680394815,6.37210299 L0.854448998,6.31456265 L0.854448998,6.31456265 L20.2641981,0.348111452 C21.4116966,-0.00476465114 23.3043435,-0.108110787 24.5095908,0.1250465 L101.559912,15.0828144 Z" id="Fill-33" fill="#FEF566"></path>
                    </g>
                    <g id="stair-copy-3" transform="translate(25.800174, 24.020851)">
                        <path d="M82.2188676,22.1100086 L82.412884,26.3403215 C82.259493,26.3863896 82.0957478,26.4286193 81.9228847,26.4663982 L81.7474491,26.5033718 C81.5654611,26.537641 81.3772607,26.5683355 81.1827801,26.5941585 C81.0573718,26.6099804 80.9315885,26.6243917 80.8056697,26.6362093 L80.6424615,26.6510763 L80.479313,26.6636299 L80.1779863,26.6799826 C80.0792932,26.6838747 79.983506,26.6863275 79.8876674,26.6874963 L79.8874035,26.6886188 L79.5994457,26.6898349 L79.3038499,26.6832601 L79.1098335,22.4529472 C79.2064527,22.4569732 79.305941,22.4582476 79.4054292,22.4595221 C79.5006908,22.4606285 79.5970389,22.4594672 79.6933871,22.4583059 L79.9839698,22.4496698 L79.9839698,22.4496698 L80.0158595,23.1490607 L79.9848441,22.4491037 L80.1351211,22.442183 L80.2843748,22.4329754 C80.3954744,22.4258375 80.5035017,22.4175607 80.6113934,22.4066903 C80.737572,22.3940788 80.8663599,22.3795097 80.9890708,22.3639595 C81.1185198,22.3466683 81.2453442,22.3278389 81.3694128,22.3066691 L81.5529833,22.2735309 L81.7289846,22.2374212 C81.9026861,22.1995237 82.0676705,22.1569641 82.2188676,22.1100086 Z M78.7949928,22.4355502 C78.8978245,22.4431508 79.0035929,22.4492968 79.1092258,22.4528491 L79.3032422,26.683162 C79.1945371,26.6784707 79.0918409,26.6734637 78.9890092,26.665863 L78.7949928,22.4355502 Z M0.924061649,7.375388 L77.974383,22.3331559 C78.0674347,22.3515433 78.1660145,22.3674586 78.2680749,22.3816498 L78.4235487,22.4021139 L78.6060739,22.420802 L78.794419,22.4361005 L78.9884354,26.6664133 L78.8006021,26.6510017 L78.6175748,26.6320641 C78.459916,26.6130401 78.3080629,26.5898101 78.1680923,26.5633549 L1.11807812,11.6057009 L0.924061649,7.375388 Z M101.665371,16.1320035 L101.859388,20.3623164 L82.4131709,26.3400464 L82.2191544,22.1097335 L101.665371,16.1320035 Z M102.476841,15.5811819 L102.670858,19.8114948 L102.665935,19.8475272 L102.665935,19.8475272 L102.654899,19.8865845 C102.644101,19.9105585 102.630366,19.9359872 102.610622,19.9617316 C102.590801,19.9873401 102.565394,20.0131121 102.534044,20.0379381 L102.534252,20.0396053 C102.500073,20.067019 102.462979,20.0945858 102.417227,20.1226075 L102.41723,20.1236462 C102.382215,20.145425 102.343164,20.1668379 102.300967,20.1878381 L102.235177,20.2200765 C102.129252,20.2685543 102.002226,20.3168404 101.859975,20.3620254 L101.665958,16.1317126 C101.811214,16.0863697 101.935235,16.0382415 102.041161,15.9897636 C102.109088,15.9578465 102.170691,15.9260015 102.223214,15.8933333 L102.287533,17.3030012 L102.224122,15.8934156 L102.304714,15.8378989 L102.339054,15.8097447 C102.370816,15.7833688 102.396569,15.7573086 102.416312,15.7315642 C102.435867,15.7076502 102.449384,15.6829544 102.459981,15.6583779 C102.470404,15.6309343 102.475125,15.6059792 102.476841,15.5811819 Z M0.000197374546,6.88843802 C0.00722549797,7.08052352 0.317778352,7.25796135 0.923474302,7.37567893 L1.11749077,11.6059918 C0.511794822,11.4882742 0.201241969,11.3108364 0.194213845,11.1187509 L0.000197374546,6.88843802 Z" id="Shape" fill="#E3DA49"></path>
                        <path d="M101.559912,15.0828144 C102.733508,15.3110987 102.773543,15.7653755 101.718342,16.1147252 L82.2176996,22.1107202 C81.0523773,22.4684339 79.1775542,22.5669424 77.9753115,22.3336273 L0.921985598,7.37601723 C-0.21704544,7.15375326 -0.304350968,6.72217262 0.680394815,6.37210299 L0.854448998,6.31456265 L0.854448998,6.31456265 L20.2641981,0.348111452 C21.4116966,-0.00476465114 23.3043435,-0.108110787 24.5095908,0.1250465 L101.559912,15.0828144 Z" id="Fill-33" fill="#FEF566"></path>
                    </g>
                    <g id="stair-copy-4" transform="translate(0.000000, 48.041703)">
                        <path d="M82.2188676,22.1100086 L82.412884,26.3403215 C82.259493,26.3863896 82.0957478,26.4286193 81.9228847,26.4663982 L81.7474491,26.5033718 C81.5654611,26.537641 81.3772607,26.5683355 81.1827801,26.5941585 C81.0573718,26.6099804 80.9315885,26.6243917 80.8056697,26.6362093 L80.6424615,26.6510763 L80.479313,26.6636299 L80.1779863,26.6799826 C80.0792932,26.6838747 79.983506,26.6863275 79.8876674,26.6874963 L79.8874035,26.6886188 L79.5994457,26.6898349 L79.3038499,26.6832601 L79.1098335,22.4529472 C79.2064527,22.4569732 79.305941,22.4582476 79.4054292,22.4595221 C79.5006908,22.4606285 79.5970389,22.4594672 79.6933871,22.4583059 L79.9839698,22.4496698 L79.9839698,22.4496698 L80.0158595,23.1490607 L79.9848441,22.4491037 L80.1351211,22.442183 L80.2843748,22.4329754 C80.3954744,22.4258375 80.5035017,22.4175607 80.6113934,22.4066903 C80.737572,22.3940788 80.8663599,22.3795097 80.9890708,22.3639595 C81.1185198,22.3466683 81.2453442,22.3278389 81.3694128,22.3066691 L81.5529833,22.2735309 L81.7289846,22.2374212 C81.9026861,22.1995237 82.0676705,22.1569641 82.2188676,22.1100086 Z M78.7949928,22.4355502 C78.8978245,22.4431508 79.0035929,22.4492968 79.1092258,22.4528491 L79.3032422,26.683162 C79.1945371,26.6784707 79.0918409,26.6734637 78.9890092,26.665863 L78.7949928,22.4355502 Z M0.924061649,7.375388 L77.974383,22.3331559 C78.0674347,22.3515433 78.1660145,22.3674586 78.2680749,22.3816498 L78.4235487,22.4021139 L78.6060739,22.420802 L78.794419,22.4361005 L78.9884354,26.6664133 L78.8006021,26.6510017 L78.6175748,26.6320641 C78.459916,26.6130401 78.3080629,26.5898101 78.1680923,26.5633549 L1.11807812,11.6057009 L0.924061649,7.375388 Z M101.665371,16.1320035 L101.859388,20.3623164 L82.4131709,26.3400464 L82.2191544,22.1097335 L101.665371,16.1320035 Z M102.476841,15.5811819 L102.670858,19.8114948 L102.665935,19.8475272 L102.665935,19.8475272 L102.654899,19.8865845 C102.644101,19.9105585 102.630366,19.9359872 102.610622,19.9617316 C102.590801,19.9873401 102.565394,20.0131121 102.534044,20.0379381 L102.534252,20.0396053 C102.500073,20.067019 102.462979,20.0945858 102.417227,20.1226075 L102.41723,20.1236462 C102.382215,20.145425 102.343164,20.1668379 102.300967,20.1878381 L102.235177,20.2200765 C102.129252,20.2685543 102.002226,20.3168404 101.859975,20.3620254 L101.665958,16.1317126 C101.811214,16.0863697 101.935235,16.0382415 102.041161,15.9897636 C102.109088,15.9578465 102.170691,15.9260015 102.223214,15.8933333 L102.287533,17.3030012 L102.224122,15.8934156 L102.304714,15.8378989 L102.339054,15.8097447 C102.370816,15.7833688 102.396569,15.7573086 102.416312,15.7315642 C102.435867,15.7076502 102.449384,15.6829544 102.459981,15.6583779 C102.470404,15.6309343 102.475125,15.6059792 102.476841,15.5811819 Z M0.000197374546,6.88843802 C0.00722549797,7.08052352 0.317778352,7.25796135 0.923474302,7.37567893 L1.11749077,11.6059918 C0.511794822,11.4882742 0.201241969,11.3108364 0.194213845,11.1187509 L0.000197374546,6.88843802 Z" id="Shape" fill="#E3DA49"></path>
                        <path d="M101.559912,15.0828144 C102.733508,15.3110987 102.773543,15.7653755 101.718342,16.1147252 L82.2176996,22.1107202 C81.0523773,22.4684339 79.1775542,22.5669424 77.9753115,22.3336273 L0.921985598,7.37601723 C-0.21704544,7.15375326 -0.304350968,6.72217262 0.680394815,6.37210299 L0.854448998,6.31456265 L0.854448998,6.31456265 L20.2641981,0.348111452 C21.4116966,-0.00476465114 23.3043435,-0.108110787 24.5095908,0.1250465 L101.559912,15.0828144 Z" id="Fill-33" fill="#FEF566"></path>
                    </g>
                </g>
            </g>
        </g>
    </g>
</svg>