<?xml version="1.0" encoding="UTF-8"?>
<svg width="933px" height="434px" viewBox="0 0 933 434" version="1.1" xmlns="http://www.w3.org/2000/svg" xmlns:xlink="http://www.w3.org/1999/xlink">
    <title>Group 14</title>
    <defs>
        <filter x="-4.1%" y="-11.2%" width="108.3%" height="122.4%" filterUnits="objectBoundingBox" id="filter-1">
            <feGaussianBlur stdDeviation="11" in="SourceGraphic"></feGaussianBlur>
        </filter>
        <linearGradient x1="30.0205068%" y1="52.5764187%" x2="94.7348434%" y2="44.9125302%" id="linearGradient-2">
            <stop stop-color="#F9D0B6" offset="0%"></stop>
            <stop stop-color="#FEF566" offset="100%"></stop>
        </linearGradient>
    </defs>
    <g id="REX-general-user" stroke="none" stroke-width="1" fill="none" fill-rule="evenodd">
        <g id="t01.Landing-A" transform="translate(-31.000000, -2461.000000)">
            <g id="Group-14" transform="translate(480.824064, 2661.850384) scale(-1, 1) translate(-480.824064, -2661.850384) translate(31.235933, 2461.850384)">
                <polygon id="Path-8-Copy-3" fill="#000000" opacity="0.0799999982" filter="url(#filter-1)" points="796.321195 119.200779 -5.65488461e-14 400 -5.65488461e-14 271.397654 725.320931 104.87441"></polygon>
                <polygon id="Path-8-Copy-6" fill="url(#linearGradient-2)" points="796.321195 112.020107 -6.57707615e-14 371.277315 -6.57707615e-14 242.674969 725.320931 97.6937388"></polygon>
                <g id="Group-16-Copy-2" transform="translate(732.584687, 0.000000)">
                    <g id="stair" transform="translate(83.295787, 0.000000)">
                        <path d="M66.3608445,17.8455249 L66.5174399,21.2599131 C66.3936342,21.2970958 66.2614715,21.3311804 66.1219495,21.3616727 L65.9803512,21.3915149 C65.8334643,21.4191744 65.6815631,21.4439487 65.5245931,21.4647911 C65.423373,21.4775614 65.3218503,21.489193 65.2202181,21.4987313 L65.0884888,21.5107309 L64.9568077,21.5208632 L64.7135996,21.5340618 C64.6339421,21.5372032 64.5566299,21.5391829 64.4792762,21.5401263 L64.4790632,21.5410323 L64.2466455,21.5420139 L64.008063,21.5367071 L63.8514675,18.1223189 C63.9294513,18.1255683 64.0097507,18.126597 64.0900501,18.1276256 C64.166938,18.1285187 64.2447029,18.1275813 64.3224678,18.126644 L64.5570042,18.1196736 L64.5570042,18.1196736 L64.5827432,18.684169 L64.5577099,18.1192167 L64.6790021,18.1136308 L64.7994684,18.1061991 C64.8891396,18.100438 64.976331,18.0937576 65.063413,18.0849838 C65.1652549,18.0748048 65.2692027,18.0630457 65.3682457,18.0504948 C65.472727,18.0365386 65.5750901,18.0213409 65.6752289,18.0042543 L65.8233932,17.9775076 L65.965448,17.9483626 C66.1056467,17.9177746 66.2388096,17.8834237 66.3608445,17.8455249 Z M63.597352,18.1082773 C63.6803499,18.114412 63.7657182,18.1193725 63.8509771,18.1222397 L64.0075725,21.536628 C63.9198339,21.5328415 63.8369454,21.5288002 63.7539474,21.5226656 L63.597352,18.1082773 Z M0.745832596,5.95285474 L62.9350179,18.0256324 C63.0101222,18.0404734 63.0896884,18.053319 63.1720638,18.064773 L63.2975505,18.0812901 L63.444871,18.0963737 L63.5968889,18.1087215 L63.7534843,21.5231097 L63.6018794,21.5106706 L63.4541536,21.4953856 C63.3269034,21.4800309 63.204339,21.4612814 63.0913654,21.4399287 L0.902428,9.36724297 L0.745832596,5.95285474 Z M82.0565897,13.0205318 L82.2131851,16.43492 L66.5176714,21.259691 L66.361076,17.8453028 L82.0565897,13.0205318 Z M82.711547,12.5759503 L82.8681424,15.9903385 L82.8641691,16.0194211 L82.8641691,16.0194211 L82.8552614,16.0509452 C82.8465461,16.0702952 82.8354606,16.0908193 82.819525,16.1115983 C82.8035265,16.1322676 82.7830204,16.1530687 82.7577168,16.1731064 L82.7578845,16.1744521 C82.7302981,16.1965783 82.7003587,16.2188281 82.6634311,16.2414451 L82.6634334,16.2422835 C82.635172,16.2598617 82.603653,16.2771445 82.5695948,16.2940944 L82.5164942,16.3201147 C82.4309989,16.3592424 82.3284737,16.3982152 82.2136592,16.4346852 L82.0570638,13.020297 C82.1743033,12.9836996 82.2744035,12.9448541 82.3598988,12.9057265 C82.4147241,12.8799654 82.4644459,12.8542625 82.506838,12.8278952 L82.5587516,13.9656724 L82.507571,12.8279617 L82.5726192,12.7831528 L82.6003355,12.7604288 C82.6259712,12.7391402 82.6467569,12.7181064 82.6626925,12.6973275 C82.6784757,12.6780259 82.6893858,12.6580933 82.6979386,12.638257 C82.7063511,12.6161066 82.7101615,12.5959647 82.711547,12.5759503 Z M0.000159305789,5.55982559 C0.00583187487,5.71486247 0.256486624,5.85807684 0.745358533,5.95308956 L0.901953938,9.36747779 C0.413082029,9.27246507 0.162427279,9.12925069 0.15675471,8.97421382 L0.000159305789,5.55982559 Z" id="Shape" fill="#E3DA49"></path>
                        <path d="M81.9714712,12.1737058 C82.9187092,12.3579595 82.9510225,12.7246174 82.0993436,13.006586 L66.3599018,17.8460992 C65.4193419,18.1348186 63.9061266,18.2143272 62.9357673,18.0260129 L0.744156964,5.95336261 C-0.175182645,5.77396797 -0.245649057,5.42562875 0.549163177,5.14307905 L0.689646535,5.09663684 L0.689646535,5.09663684 L16.3557264,0.280969206 C17.2819003,-0.00384566563 18.8095015,-0.0872588415 19.7822859,0.100928067 L81.9714712,12.1737058 Z" id="Fill-33" fill="#FEF566"></path>
                    </g>
                    <g id="stair-copy" transform="translate(62.471840, 19.387812)">
                        <path d="M66.3608445,17.8455249 L66.5174399,21.2599131 C66.3936342,21.2970958 66.2614715,21.3311804 66.1219495,21.3616727 L65.9803512,21.3915149 C65.8334643,21.4191744 65.6815631,21.4439487 65.5245931,21.4647911 C65.423373,21.4775614 65.3218503,21.489193 65.2202181,21.4987313 L65.0884888,21.5107309 L64.9568077,21.5208632 L64.7135996,21.5340618 C64.6339421,21.5372032 64.5566299,21.5391829 64.4792762,21.5401263 L64.4790632,21.5410323 L64.2466455,21.5420139 L64.008063,21.5367071 L63.8514675,18.1223189 C63.9294513,18.1255683 64.0097507,18.126597 64.0900501,18.1276256 C64.166938,18.1285187 64.2447029,18.1275813 64.3224678,18.126644 L64.5570042,18.1196736 L64.5570042,18.1196736 L64.5827432,18.684169 L64.5577099,18.1192167 L64.6790021,18.1136308 L64.7994684,18.1061991 C64.8891396,18.100438 64.976331,18.0937576 65.063413,18.0849838 C65.1652549,18.0748048 65.2692027,18.0630457 65.3682457,18.0504948 C65.472727,18.0365386 65.5750901,18.0213409 65.6752289,18.0042543 L65.8233932,17.9775076 L65.965448,17.9483626 C66.1056467,17.9177746 66.2388096,17.8834237 66.3608445,17.8455249 Z M63.597352,18.1082773 C63.6803499,18.114412 63.7657182,18.1193725 63.8509771,18.1222397 L64.0075725,21.536628 C63.9198339,21.5328415 63.8369454,21.5288002 63.7539474,21.5226656 L63.597352,18.1082773 Z M0.745832596,5.95285474 L62.9350179,18.0256324 C63.0101222,18.0404734 63.0896884,18.053319 63.1720638,18.064773 L63.2975505,18.0812901 L63.444871,18.0963737 L63.5968889,18.1087215 L63.7534843,21.5231097 L63.6018794,21.5106706 L63.4541536,21.4953856 C63.3269034,21.4800309 63.204339,21.4612814 63.0913654,21.4399287 L0.902428,9.36724297 L0.745832596,5.95285474 Z M82.0565897,13.0205318 L82.2131851,16.43492 L66.5176714,21.259691 L66.361076,17.8453028 L82.0565897,13.0205318 Z M82.711547,12.5759503 L82.8681424,15.9903385 L82.8641691,16.0194211 L82.8641691,16.0194211 L82.8552614,16.0509452 C82.8465461,16.0702952 82.8354606,16.0908193 82.819525,16.1115983 C82.8035265,16.1322676 82.7830204,16.1530687 82.7577168,16.1731064 L82.7578845,16.1744521 C82.7302981,16.1965783 82.7003587,16.2188281 82.6634311,16.2414451 L82.6634334,16.2422835 C82.635172,16.2598617 82.603653,16.2771445 82.5695948,16.2940944 L82.5164942,16.3201147 C82.4309989,16.3592424 82.3284737,16.3982152 82.2136592,16.4346852 L82.0570638,13.020297 C82.1743033,12.9836996 82.2744035,12.9448541 82.3598988,12.9057265 C82.4147241,12.8799654 82.4644459,12.8542625 82.506838,12.8278952 L82.5587516,13.9656724 L82.507571,12.8279617 L82.5726192,12.7831528 L82.6003355,12.7604288 C82.6259712,12.7391402 82.6467569,12.7181064 82.6626925,12.6973275 C82.6784757,12.6780259 82.6893858,12.6580933 82.6979386,12.638257 C82.7063511,12.6161066 82.7101615,12.5959647 82.711547,12.5759503 Z M0.000159305789,5.55982559 C0.00583187487,5.71486247 0.256486624,5.85807684 0.745358533,5.95308956 L0.901953938,9.36747779 C0.413082029,9.27246507 0.162427279,9.12925069 0.15675471,8.97421382 L0.000159305789,5.55982559 Z" id="Shape" fill="#E3DA49"></path>
                        <path d="M81.9714712,12.1737058 C82.9187092,12.3579595 82.9510225,12.7246174 82.0993436,13.006586 L66.3599018,17.8460992 C65.4193419,18.1348186 63.9061266,18.2143272 62.9357673,18.0260129 L0.744156964,5.95336261 C-0.175182645,5.77396797 -0.245649057,5.42562875 0.549163177,5.14307905 L0.689646535,5.09663684 L0.689646535,5.09663684 L16.3557264,0.280969206 C17.2819003,-0.00384566563 18.8095015,-0.0872588415 19.7822859,0.100928067 L81.9714712,12.1737058 Z" id="Fill-33" fill="#FEF566"></path>
                    </g>
                    <g id="stair-copy-2" transform="translate(41.647893, 38.775625)">
                        <path d="M66.3608445,17.8455249 L66.5174399,21.2599131 C66.3936342,21.2970958 66.2614715,21.3311804 66.1219495,21.3616727 L65.9803512,21.3915149 C65.8334643,21.4191744 65.6815631,21.4439487 65.5245931,21.4647911 C65.423373,21.4775614 65.3218503,21.489193 65.2202181,21.4987313 L65.0884888,21.5107309 L64.9568077,21.5208632 L64.7135996,21.5340618 C64.6339421,21.5372032 64.5566299,21.5391829 64.4792762,21.5401263 L64.4790632,21.5410323 L64.2466455,21.5420139 L64.008063,21.5367071 L63.8514675,18.1223189 C63.9294513,18.1255683 64.0097507,18.126597 64.0900501,18.1276256 C64.166938,18.1285187 64.2447029,18.1275813 64.3224678,18.126644 L64.5570042,18.1196736 L64.5570042,18.1196736 L64.5827432,18.684169 L64.5577099,18.1192167 L64.6790021,18.1136308 L64.7994684,18.1061991 C64.8891396,18.100438 64.976331,18.0937576 65.063413,18.0849838 C65.1652549,18.0748048 65.2692027,18.0630457 65.3682457,18.0504948 C65.472727,18.0365386 65.5750901,18.0213409 65.6752289,18.0042543 L65.8233932,17.9775076 L65.965448,17.9483626 C66.1056467,17.9177746 66.2388096,17.8834237 66.3608445,17.8455249 Z M63.597352,18.1082773 C63.6803499,18.114412 63.7657182,18.1193725 63.8509771,18.1222397 L64.0075725,21.536628 C63.9198339,21.5328415 63.8369454,21.5288002 63.7539474,21.5226656 L63.597352,18.1082773 Z M0.745832596,5.95285474 L62.9350179,18.0256324 C63.0101222,18.0404734 63.0896884,18.053319 63.1720638,18.064773 L63.2975505,18.0812901 L63.444871,18.0963737 L63.5968889,18.1087215 L63.7534843,21.5231097 L63.6018794,21.5106706 L63.4541536,21.4953856 C63.3269034,21.4800309 63.204339,21.4612814 63.0913654,21.4399287 L0.902428,9.36724297 L0.745832596,5.95285474 Z M82.0565897,13.0205318 L82.2131851,16.43492 L66.5176714,21.259691 L66.361076,17.8453028 L82.0565897,13.0205318 Z M82.711547,12.5759503 L82.8681424,15.9903385 L82.8641691,16.0194211 L82.8641691,16.0194211 L82.8552614,16.0509452 C82.8465461,16.0702952 82.8354606,16.0908193 82.819525,16.1115983 C82.8035265,16.1322676 82.7830204,16.1530687 82.7577168,16.1731064 L82.7578845,16.1744521 C82.7302981,16.1965783 82.7003587,16.2188281 82.6634311,16.2414451 L82.6634334,16.2422835 C82.635172,16.2598617 82.603653,16.2771445 82.5695948,16.2940944 L82.5164942,16.3201147 C82.4309989,16.3592424 82.3284737,16.3982152 82.2136592,16.4346852 L82.0570638,13.020297 C82.1743033,12.9836996 82.2744035,12.9448541 82.3598988,12.9057265 C82.4147241,12.8799654 82.4644459,12.8542625 82.506838,12.8278952 L82.5587516,13.9656724 L82.507571,12.8279617 L82.5726192,12.7831528 L82.6003355,12.7604288 C82.6259712,12.7391402 82.6467569,12.7181064 82.6626925,12.6973275 C82.6784757,12.6780259 82.6893858,12.6580933 82.6979386,12.638257 C82.7063511,12.6161066 82.7101615,12.5959647 82.711547,12.5759503 Z M0.000159305789,5.55982559 C0.00583187487,5.71486247 0.256486624,5.85807684 0.745358533,5.95308956 L0.901953938,9.36747779 C0.413082029,9.27246507 0.162427279,9.12925069 0.15675471,8.97421382 L0.000159305789,5.55982559 Z" id="Shape" fill="#E3DA49"></path>
                        <path d="M81.9714712,12.1737058 C82.9187092,12.3579595 82.9510225,12.7246174 82.0993436,13.006586 L66.3599018,17.8460992 C65.4193419,18.1348186 63.9061266,18.2143272 62.9357673,18.0260129 L0.744156964,5.95336261 C-0.175182645,5.77396797 -0.245649057,5.42562875 0.549163177,5.14307905 L0.689646535,5.09663684 L0.689646535,5.09663684 L16.3557264,0.280969206 C17.2819003,-0.00384566563 18.8095015,-0.0872588415 19.7822859,0.100928067 L81.9714712,12.1737058 Z" id="Fill-33" fill="#FEF566"></path>
                    </g>
                    <g id="stair-copy-3" transform="translate(20.823947, 58.163437)">
                        <path d="M66.3608445,17.8455249 L66.5174399,21.2599131 C66.3936342,21.2970958 66.2614715,21.3311804 66.1219495,21.3616727 L65.9803512,21.3915149 C65.8334643,21.4191744 65.6815631,21.4439487 65.5245931,21.4647911 C65.423373,21.4775614 65.3218503,21.489193 65.2202181,21.4987313 L65.0884888,21.5107309 L64.9568077,21.5208632 L64.7135996,21.5340618 C64.6339421,21.5372032 64.5566299,21.5391829 64.4792762,21.5401263 L64.4790632,21.5410323 L64.2466455,21.5420139 L64.008063,21.5367071 L63.8514675,18.1223189 C63.9294513,18.1255683 64.0097507,18.126597 64.0900501,18.1276256 C64.166938,18.1285187 64.2447029,18.1275813 64.3224678,18.126644 L64.5570042,18.1196736 L64.5570042,18.1196736 L64.5827432,18.684169 L64.5577099,18.1192167 L64.6790021,18.1136308 L64.7994684,18.1061991 C64.8891396,18.100438 64.976331,18.0937576 65.063413,18.0849838 C65.1652549,18.0748048 65.2692027,18.0630457 65.3682457,18.0504948 C65.472727,18.0365386 65.5750901,18.0213409 65.6752289,18.0042543 L65.8233932,17.9775076 L65.965448,17.9483626 C66.1056467,17.9177746 66.2388096,17.8834237 66.3608445,17.8455249 Z M63.597352,18.1082773 C63.6803499,18.114412 63.7657182,18.1193725 63.8509771,18.1222397 L64.0075725,21.536628 C63.9198339,21.5328415 63.8369454,21.5288002 63.7539474,21.5226656 L63.597352,18.1082773 Z M0.745832596,5.95285474 L62.9350179,18.0256324 C63.0101222,18.0404734 63.0896884,18.053319 63.1720638,18.064773 L63.2975505,18.0812901 L63.444871,18.0963737 L63.5968889,18.1087215 L63.7534843,21.5231097 L63.6018794,21.5106706 L63.4541536,21.4953856 C63.3269034,21.4800309 63.204339,21.4612814 63.0913654,21.4399287 L0.902428,9.36724297 L0.745832596,5.95285474 Z M82.0565897,13.0205318 L82.2131851,16.43492 L66.5176714,21.259691 L66.361076,17.8453028 L82.0565897,13.0205318 Z M82.711547,12.5759503 L82.8681424,15.9903385 L82.8641691,16.0194211 L82.8641691,16.0194211 L82.8552614,16.0509452 C82.8465461,16.0702952 82.8354606,16.0908193 82.819525,16.1115983 C82.8035265,16.1322676 82.7830204,16.1530687 82.7577168,16.1731064 L82.7578845,16.1744521 C82.7302981,16.1965783 82.7003587,16.2188281 82.6634311,16.2414451 L82.6634334,16.2422835 C82.635172,16.2598617 82.603653,16.2771445 82.5695948,16.2940944 L82.5164942,16.3201147 C82.4309989,16.3592424 82.3284737,16.3982152 82.2136592,16.4346852 L82.0570638,13.020297 C82.1743033,12.9836996 82.2744035,12.9448541 82.3598988,12.9057265 C82.4147241,12.8799654 82.4644459,12.8542625 82.506838,12.8278952 L82.5587516,13.9656724 L82.507571,12.8279617 L82.5726192,12.7831528 L82.6003355,12.7604288 C82.6259712,12.7391402 82.6467569,12.7181064 82.6626925,12.6973275 C82.6784757,12.6780259 82.6893858,12.6580933 82.6979386,12.638257 C82.7063511,12.6161066 82.7101615,12.5959647 82.711547,12.5759503 Z M0.000159305789,5.55982559 C0.00583187487,5.71486247 0.256486624,5.85807684 0.745358533,5.95308956 L0.901953938,9.36747779 C0.413082029,9.27246507 0.162427279,9.12925069 0.15675471,8.97421382 L0.000159305789,5.55982559 Z" id="Shape" fill="#E3DA49"></path>
                        <path d="M81.9714712,12.1737058 C82.9187092,12.3579595 82.9510225,12.7246174 82.0993436,13.006586 L66.3599018,17.8460992 C65.4193419,18.1348186 63.9061266,18.2143272 62.9357673,18.0260129 L0.744156964,5.95336261 C-0.175182645,5.77396797 -0.245649057,5.42562875 0.549163177,5.14307905 L0.689646535,5.09663684 L0.689646535,5.09663684 L16.3557264,0.280969206 C17.2819003,-0.00384566563 18.8095015,-0.0872588415 19.7822859,0.100928067 L81.9714712,12.1737058 Z" id="Fill-33" fill="#FEF566"></path>
                    </g>
                    <g id="stair-copy-4" transform="translate(0.000000, 77.551250)">
                        <path d="M66.3608445,17.8455249 L66.5174399,21.2599131 C66.3936342,21.2970958 66.2614715,21.3311804 66.1219495,21.3616727 L65.9803512,21.3915149 C65.8334643,21.4191744 65.6815631,21.4439487 65.5245931,21.4647911 C65.423373,21.4775614 65.3218503,21.489193 65.2202181,21.4987313 L65.0884888,21.5107309 L64.9568077,21.5208632 L64.7135996,21.5340618 C64.6339421,21.5372032 64.5566299,21.5391829 64.4792762,21.5401263 L64.4790632,21.5410323 L64.2466455,21.5420139 L64.008063,21.5367071 L63.8514675,18.1223189 C63.9294513,18.1255683 64.0097507,18.126597 64.0900501,18.1276256 C64.166938,18.1285187 64.2447029,18.1275813 64.3224678,18.126644 L64.5570042,18.1196736 L64.5570042,18.1196736 L64.5827432,18.684169 L64.5577099,18.1192167 L64.6790021,18.1136308 L64.7994684,18.1061991 C64.8891396,18.100438 64.976331,18.0937576 65.063413,18.0849838 C65.1652549,18.0748048 65.2692027,18.0630457 65.3682457,18.0504948 C65.472727,18.0365386 65.5750901,18.0213409 65.6752289,18.0042543 L65.8233932,17.9775076 L65.965448,17.9483626 C66.1056467,17.9177746 66.2388096,17.8834237 66.3608445,17.8455249 Z M63.597352,18.1082773 C63.6803499,18.114412 63.7657182,18.1193725 63.8509771,18.1222397 L64.0075725,21.536628 C63.9198339,21.5328415 63.8369454,21.5288002 63.7539474,21.5226656 L63.597352,18.1082773 Z M0.745832596,5.95285474 L62.9350179,18.0256324 C63.0101222,18.0404734 63.0896884,18.053319 63.1720638,18.064773 L63.2975505,18.0812901 L63.444871,18.0963737 L63.5968889,18.1087215 L63.7534843,21.5231097 L63.6018794,21.5106706 L63.4541536,21.4953856 C63.3269034,21.4800309 63.204339,21.4612814 63.0913654,21.4399287 L0.902428,9.36724297 L0.745832596,5.95285474 Z M82.0565897,13.0205318 L82.2131851,16.43492 L66.5176714,21.259691 L66.361076,17.8453028 L82.0565897,13.0205318 Z M82.711547,12.5759503 L82.8681424,15.9903385 L82.8641691,16.0194211 L82.8641691,16.0194211 L82.8552614,16.0509452 C82.8465461,16.0702952 82.8354606,16.0908193 82.819525,16.1115983 C82.8035265,16.1322676 82.7830204,16.1530687 82.7577168,16.1731064 L82.7578845,16.1744521 C82.7302981,16.1965783 82.7003587,16.2188281 82.6634311,16.2414451 L82.6634334,16.2422835 C82.635172,16.2598617 82.603653,16.2771445 82.5695948,16.2940944 L82.5164942,16.3201147 C82.4309989,16.3592424 82.3284737,16.3982152 82.2136592,16.4346852 L82.0570638,13.020297 C82.1743033,12.9836996 82.2744035,12.9448541 82.3598988,12.9057265 C82.4147241,12.8799654 82.4644459,12.8542625 82.506838,12.8278952 L82.5587516,13.9656724 L82.507571,12.8279617 L82.5726192,12.7831528 L82.6003355,12.7604288 C82.6259712,12.7391402 82.6467569,12.7181064 82.6626925,12.6973275 C82.6784757,12.6780259 82.6893858,12.6580933 82.6979386,12.638257 C82.7063511,12.6161066 82.7101615,12.5959647 82.711547,12.5759503 Z M0.000159305789,5.55982559 C0.00583187487,5.71486247 0.256486624,5.85807684 0.745358533,5.95308956 L0.901953938,9.36747779 C0.413082029,9.27246507 0.162427279,9.12925069 0.15675471,8.97421382 L0.000159305789,5.55982559 Z" id="Shape" fill="#E3DA49"></path>
                        <path d="M81.9714712,12.1737058 C82.9187092,12.3579595 82.9510225,12.7246174 82.0993436,13.006586 L66.3599018,17.8460992 C65.4193419,18.1348186 63.9061266,18.2143272 62.9357673,18.0260129 L0.744156964,5.95336261 C-0.175182645,5.77396797 -0.245649057,5.42562875 0.549163177,5.14307905 L0.689646535,5.09663684 L0.689646535,5.09663684 L16.3557264,0.280969206 C17.2819003,-0.00384566563 18.8095015,-0.0872588415 19.7822859,0.100928067 L81.9714712,12.1737058 Z" id="Fill-33" fill="#FEF566"></path>
                    </g>
                </g>
            </g>
        </g>
    </g>
</svg>