<?xml version="1.0" encoding="UTF-8"?><svg version="1.1" width="1326px" height="304px" viewBox="0 0 1326.0 304.0" xmlns="http://www.w3.org/2000/svg" xmlns:xlink="http://www.w3.org/1999/xlink"><defs><clipPath id="i0"><path d="M1920,0 L1920,3806 L0,3806 L0,0 L1920,0 Z"></path></clipPath><clipPath id="i1"><path d="M86.850921,0 L1325.85267,139.170898 L1325.85267,302.913086 L0,17.1708984 L86.850921,0 Z M840.149079,143.66789 C840.149079,156.293894 855.427106,167.649928 874.273507,169.032301 C893.119908,170.414675 908.397935,161.299911 908.397935,148.673907 C908.397935,136.047903 893.119908,124.691869 874.273507,123.309495 C855.427106,121.927122 840.149079,131.041886 840.149079,143.66789 Z"></path></clipPath><linearGradient id="i2" x1="1272.03372px" y1="231.651329px" x2="194.745203px" y2="14.4731437px" gradientUnits="userSpaceOnUse"><stop stop-color="#AEDBDC" offset="0%"></stop><stop stop-color="#FAF36A" offset="100%"></stop><stop stop-color="#FEF566" offset="100%"></stop></linearGradient></defs><g transform="translate(0.0 -1534.0)"><g clip-path="url(#i0)"><g transform="translate(0.0 1324.449218749999)"><g transform="translate(1412.703592978899 128.55078125000094) scale(-1.0 1.0)"><g transform="translate(86.85092103834768 81.82910156249989)"><g clip-path="url(#i1)"><polygon points="0,0 1325.85267,0 1325.85267,302.913086 0,302.913086 0,0" stroke="none" fill="url(#i2)"></polygon></g></g></g></g></g></g></svg>