<?xml version="1.0" encoding="UTF-8"?>
<svg width="6px" height="12px" viewBox="0 0 6 12" version="1.1" xmlns="http://www.w3.org/2000/svg" xmlns:xlink="http://www.w3.org/1999/xlink">
    <title>icon</title>
    <defs>
        <path d="M5.775,9.225 C6.075,9.525 6.075,9.975 5.775,10.275 C5.625,10.425 5.475,10.5 5.25,10.5 C5.025,10.5 4.875,10.425 4.725,10.275 L0.225,5.775 C-0.075,5.475 -0.075,5.025 0.225,4.725 L4.725,0.225 C5.025,-0.075 5.475,-0.075 5.775,0.225 C6.075,0.525 6.075,0.975 5.775,1.275 L1.8,5.25 L5.775,9.225 Z" id="path-1"></path>
    </defs>
    <g id="REX-desktop" stroke="none" stroke-width="1" fill="none" fill-rule="evenodd">
        <g id="06.1b.New" transform="translate(-136.000000, -2783.000000)">
            <g id="button/small/outline-with-icon-" transform="translate(118.000000, 2770.500000)">
                <g id="icon" transform="translate(18.000000, 13.250000)">
                    <mask id="mask-2" fill="white">
                        <use xlink:href="#path-1"></use>
                    </mask>
                    <use id="Mask" fill="#000000" fill-rule="nonzero" xlink:href="#path-1"></use>
                    <g id="Icon-Color" mask="url(#mask-2)" fill="#cacaca">
                        <g transform="translate(-6.000000, -3.750000)" id="Shape">
                            <rect x="0" y="0" width="18" height="18"></rect>
                        </g>
                    </g>
                </g>
            </g>
        </g>
    </g>
</svg>
