<?xml version="1.0" encoding="UTF-8"?>
<svg width="22px" height="22px" viewBox="0 0 22 22" version="1.1" xmlns="http://www.w3.org/2000/svg" xmlns:xlink="http://www.w3.org/1999/xlink">
    <title>icon / bell</title>
    <defs>
        <path d="M13.6,20.5 C13,21.5 12,22 11,22 C10.5,22 10,21.9 9.5,21.6 C9,21.3 8.7,21 8.4,20.5 C8.1,20 8.3,19.4 8.8,19.1 C9.3,18.8 9.9,19 10.2,19.5 C10.3,19.6 10.4,19.8 10.6,19.9 C11.1,20.2 11.7,20 12,19.5 C12.3,19 12.9,18.9 13.4,19.1 C13.9,19.3 13.9,20 13.6,20.5 Z M22,16 C22,16.6 21.6,17 21,17 L1,17 C0.4,17 0,16.6 0,16 C0,15.4 0.4,15 1,15 C2.1,15 3,14.1 3,13 L3,8 C3,3.6 6.6,0 11,0 C15.4,0 19,3.6 19,8 L19,13 C19,14.1 19.9,15 21,15 C21.6,15 22,15.4 22,16 Z M17.5,15 C17.2,14.4 17,13.7 17,13 L17,8 C17,4.7 14.3,2 11,2 C7.7,2 5,4.7 5,8 L5,13 C5,13.7 4.8,14.4 4.5,15 L17.5,15 Z" id="path-1"></path>
    </defs>
    <g id="Symbols" stroke="none" stroke-width="1" fill="none" fill-rule="evenodd">
        <g id="Left-Nav" transform="translate(-29.000000, -255.000000)">
            <g id="menu-left" transform="translate(20.000000, 130.000000)">
                <g id="icon-/-bell" transform="translate(9.000000, 125.000000)">
                    <mask id="mask-2" fill="white">
                        <use xlink:href="#path-1"></use>
                    </mask>
                    <use id="Mask" fill="#000000" fill-rule="nonzero" xlink:href="#path-1"></use>
                    <g id="Icon-Color" mask="url(#mask-2)" fill="#fffe71">
                        <g transform="translate(-1.000000, -1.000000)" id="Shape">
                            <rect x="0" y="0" width="24" height="24"></rect>
                        </g>
                    </g>
                </g>
            </g>
        </g>
    </g>
</svg>
