<?xml version="1.0" encoding="UTF-8"?>
<svg width="18px" height="16px" viewBox="0 0 18 16" version="1.1" xmlns="http://www.w3.org/2000/svg" xmlns:xlink="http://www.w3.org/1999/xlink">
    <title>icon</title>
    <defs>
        <path d="M14.25,2.25 L7.875,2.25 L6.6,0.3 C6.45,0.15 6.225,0 6,0 L2.25,0 C0.975,0 0,0.975 0,2.25 L0,12.75 C0,14.025 0.975,15 2.25,15 L14.25,15 C15.525,15 16.5,14.025 16.5,12.75 L16.5,4.5 C16.5,3.225 15.525,2.25 14.25,2.25 Z M15,12.75 C15,13.2 14.7,13.5 14.25,13.5 L2.25,13.5 C1.8,13.5 1.5,13.2 1.5,12.75 L1.5,2.25 C1.5,1.8 1.8,1.5 2.25,1.5 L5.625,1.5 L6.9,3.45 C7.05,3.6 7.275,3.75 7.5,3.75 L14.25,3.75 C14.7,3.75 15,4.05 15,4.5 L15,12.75 Z" id="path-1"></path>
    </defs>
    <g id="REX-desktop" stroke="none" stroke-width="1" fill="none" fill-rule="evenodd">
        <g id="06.1a.New" transform="translate(-476.000000, -625.000000)">
            <g id="Group-6" transform="translate(120.000000, 341.000000)">
                <g id="Group" transform="translate(0.000000, 164.000000)">
                    <g id="button/with-icon-outline-small" transform="translate(344.000000, 109.500000)">
                        <g id="icon" transform="translate(12.750000, 11.000000)">
                            <mask id="mask-2" fill="white">
                                <use xlink:href="#path-1"></use>
                            </mask>
                            <use id="Mask" fill="#000000" fill-rule="nonzero" xlink:href="#path-1"></use>
                            <g id="Icon-Color" mask="url(#mask-2)" fill="#00B3B0">
                                <g transform="translate(-0.750000, -1.500000)" id="Shape">
                                    <rect x="0" y="0" width="18" height="18"></rect>
                                </g>
                            </g>
                        </g>
                    </g>
                </g>
            </g>
        </g>
    </g>
</svg>