<?xml version="1.0" encoding="UTF-8"?>
<svg width="18px" height="16px" viewBox="0 0 18 16" version="1.1" xmlns="http://www.w3.org/2000/svg" xmlns:xlink="http://www.w3.org/1999/xlink">
    <title>icon</title>
    <defs>
        <path d="M17.9246862,6.29942659 C17.9246862,6.37443153 17.8493724,6.37443153 17.8493724,6.44943647 C17.8493724,6.44943647 17.8493724,6.52444142 17.7740586,6.52444142 C17.7740586,6.52444142 17.7740586,6.52444142 17.7740586,6.52444142 C17.6987448,6.59944636 17.623431,6.6744513 17.5481172,6.6744513 C17.5481172,6.6744513 17.5481172,6.6744513 17.5481172,6.6744513 C17.4728033,6.74945625 17.3221757,6.74945625 17.2468619,6.74945625 L12.7280335,6.74945625 C12.2761506,6.74945625 11.9748954,6.44943647 11.9748954,5.99940681 C11.9748954,5.54937715 12.2761506,5.24935738 12.7280335,5.24935738 L15.3640167,5.24935738 L13.2552301,3.29922886 C12.5774059,2.62418437 11.8242678,2.17415471 10.9958159,1.87413494 C9.48953975,1.34910033 7.83263598,1.42410528 6.40167364,2.09914977 C4.89539749,2.77419425 3.84100418,3.97427335 3.31380753,5.47437221 C3.16317992,5.84939693 2.71129707,6.07441176 2.33472803,5.92440187 C1.958159,5.84939693 1.73221757,5.39936727 1.88284519,5.02434255 C2.56066946,3.07421403 3.91631799,1.57411516 5.72384937,0.749060788 C7.53138075,-0.150998531 9.56485356,-0.226003474 11.4476987,0.449041015 C12.5020921,0.824065731 13.4811715,1.42410528 14.2343096,2.24915965 L16.4937238,4.27429312 L16.4937238,1.49911022 C16.4937238,1.04908056 16.7949791,0.749060788 17.2468619,0.749060788 C17.6987448,0.749060788 18,1.04908056 18,1.49911022 L18,5.99940681 C18,5.99940681 18,6.07441176 18,6.07441176 C18,6.1494167 18,6.22442164 17.9246862,6.29942659 Z M15.5899582,9.07460949 C15.2133891,8.9245996 14.7615063,9.14961443 14.6108787,9.52463914 C14.3096234,10.3496935 13.8577406,11.1747479 13.1799163,11.7747874 C12.125523,12.8998616 10.5439331,13.4999011 8.9623431,13.4999011 L8.9623431,13.4999011 C7.38075314,13.4999011 5.87447699,12.8998616 4.66945607,11.6997825 L2.56066946,9.74965397 L5.19665272,9.74965397 C5.64853556,9.74965397 5.94979079,9.4496342 5.94979079,8.99960454 C5.94979079,8.54957488 5.64853556,8.24955511 5.19665272,8.24955511 L0.677824268,8.24955511 C0.677824268,8.24955511 0.677824268,8.24955511 0.677824268,8.24955511 C0.60251046,8.24955511 0.60251046,8.24955511 0.527196653,8.24955511 C0.451882845,8.24955511 0.451882845,8.24955511 0.376569038,8.24955511 C0.376569038,8.24955511 0.30125523,8.24955511 0.30125523,8.32456005 C0.225941423,8.32456005 0.150627615,8.399565 0.150627615,8.47456994 C0.150627615,8.47456994 0.150627615,8.47456994 0.150627615,8.47456994 C0.150627615,8.47456994 0.150627615,8.54957488 0.0753138075,8.54957488 C0.0753138075,8.62457983 0,8.62457983 0,8.69958477 C0,8.77458971 0,8.77458971 0,8.84959466 C0,8.84959466 0,8.9245996 0,8.9245996 L0,13.4248962 C0,13.8749259 0.30125523,14.1749456 0.753138075,14.1749456 C1.20502092,14.1749456 1.50627615,13.8749259 1.50627615,13.4248962 L1.50627615,10.6497133 L3.69037657,12.7498517 C5.0460251,14.2499506 6.92887029,15 8.9623431,15 C8.9623431,15 8.9623431,15 8.9623431,15 C10.9958159,15 12.8786611,14.2499506 14.3096234,12.8248566 C15.0627615,12.0748072 15.7405858,11.099743 16.1171548,10.0496737 C16.1924686,9.59964409 15.9665272,9.14961443 15.5899582,9.07460949 Z" id="path-1"></path>
    </defs>
    <g id="REX-desktop" stroke="none" stroke-width="1" fill="none" fill-rule="evenodd">
        <g id="04.1-Account-Management---Personal" transform="translate(-177.000000, -339.000000)">
            <g id="profile-pic" transform="translate(120.000000, 130.000000)">
                <g id="button/small/outline-with-icon-" transform="translate(45.000000, 198.500000)">
                    <g id="icon" transform="translate(12.000000, 11.000000)">
                        <mask id="mask-2" fill="white">
                            <use xlink:href="#path-1"></use>
                        </mask>
                        <use id="Mask" fill="#00B3B0" fill-rule="nonzero" xlink:href="#path-1"></use>
                        <g id="Icon-Color" mask="url(#mask-2)" fill="#00B3B0">
                            <g transform="translate(0.000000, -1.500000)" id="Shape">
                                <rect x="0" y="0" width="18" height="18"></rect>
                            </g>
                        </g>
                    </g>
                </g>
            </g>
        </g>
    </g>
</svg>