<?xml version="1.0" encoding="UTF-8"?>
<svg width="12px" height="10px" viewBox="0 0 12 10" version="1.1"
  xmlns="http://www.w3.org/2000/svg"
  xmlns:xlink="http://www.w3.org/1999/xlink">
  <title>icon / grid</title>
  <defs>
    <path d="M9.33333333,4.66666667 L9.33333333,11.3333333 C9.33333333,11.7333333 9.06666667,12 8.66666667,12 C8.26666667,12 8,11.7333333 8,11.3333333 L8,4.66666667 C8,4.26666667 8.26666667,4 8.66666667,4 C9.06666667,4 9.33333333,4.26666667 9.33333333,4.66666667 Z M4.66666667,0 C4.26666667,0 4,0.266666667 4,0.666666667 L4,11.3333333 C4,11.7333333 4.26666667,12 4.66666667,12 C5.06666667,12 5.33333333,11.7333333 5.33333333,11.3333333 L5.33333333,0.666666667 C5.33333333,0.266666667 5.06666667,0 4.66666667,0 Z M0.666666667,6.66666667 C0.266666667,6.66666667 0,6.93333333 0,7.33333333 L0,11.3333333 C0,11.7333333 0.266666667,12 0.666666667,12 C1.06666667,12 1.33333333,11.7333333 1.33333333,11.3333333 L1.33333333,7.33333333 C1.33333333,6.93333333 1.06666667,6.66666667 0.666666667,6.66666667 Z" id="path-1"></path>
  </defs>
  <g id="REX-Admin-desktop" stroke="none" stroke-width="1" fill="none" fill-rule="evenodd">
    <g id="05.2.-Evaluation-Results-Admin-10-pp" transform="translate(-216.000000, -717.000000)">
      <g id="view-as" transform="translate(120.000000, 707.000000)">
        <g id="icon-/-grid" transform="translate(102.000000, 15.000000) rotate(90.000000) translate(-102.000000, -15.000000) translate(97.333333, 9.000000)">
          <mask id="mask-2" fill="white">
            <use xlink:href="#path-1"></use>
          </mask>
          <use id="Shape" fill="#000000" fill-rule="nonzero" xlink:href="#path-1"></use>
          <g id="Icon-Color" mask="url(#mask-2)" fill="#FFFFFF">
            <g transform="translate(-3.333333, -2.000000)" id="Shape">
              <rect x="0" y="0" width="16" height="16"></rect>
            </g>
          </g>
        </g>
      </g>
    </g>
  </g>
</svg>
