<?xml version="1.0" encoding="UTF-8"?>
<svg width="12px" height="9px" viewBox="0 0 12 9" version="1.1" xmlns="http://www.w3.org/2000/svg" xmlns:xlink="http://www.w3.org/1999/xlink">
    <title>icon / check</title>
    <defs>
        <path d="M11.8,1.13333333 L4.46666667,8.46666667 C4.33333333,8.6 4.2,8.66666667 4,8.66666667 C3.8,8.66666667 3.66666667,8.6 3.53333333,8.46666667 L0.2,5.13333333 C-0.0666666667,4.86666667 -0.0666666667,4.46666667 0.2,4.2 C0.466666667,3.93333333 0.866666667,3.93333333 1.13333333,4.2 L4,7.06666667 L10.8666667,0.2 C11.1333333,-0.0666666667 11.5333333,-0.0666666667 11.8,0.2 C12.0666667,0.466666667 12.0666667,0.866666667 11.8,1.13333333 Z" id="path-1"></path>
    </defs>
    <g id="REX-desktop" stroke="none" stroke-width="1" fill="none" fill-rule="evenodd">
        <g id="06.1b.New" transform="translate(-1059.000000, -254.000000)">
            <g id="Group-2" transform="translate(985.000000, 130.000000)">
                <g id="icon-/-check" transform="translate(74.000000, 124.000000)">
                    <mask id="mask-2" fill="white">
                        <use xlink:href="#path-1"></use>
                    </mask>
                    <use id="Mask" fill="#000000" fill-rule="nonzero" xlink:href="#path-1"></use>
                    <g id="Icon-Color" mask="url(#mask-2)" fill="#00b3b0">
                        <g transform="translate(-2.000000, -4.000000)" id="Shape">
                            <rect x="0" y="0" width="16" height="16"></rect>
                        </g>
                    </g>
                </g>
            </g>
        </g>
    </g>
</svg>
