<?xml version="1.0" encoding="UTF-8"?>
<svg width="12px" height="10px" viewBox="0 0 12 10" version="1.1" xmlns="http://www.w3.org/2000/svg" xmlns:xlink="http://www.w3.org/1999/xlink">
    <title>icon</title>
    <defs>
        <path d="M5.025,7.725 C5.325,8.025 5.325,8.475 5.025,8.775 C4.875,8.925 4.725,9 4.5,9 C4.275,9 4.125,8.925 3.975,8.775 L0.225,5.025 C-0.075,4.725 -0.075,4.275 0.225,3.975 L3.975,0.225 C4.275,-0.075 4.725,-0.075 5.025,0.225 C5.325,0.525 5.325,0.975 5.025,1.275 L1.8,4.5 L5.025,7.725 Z M7.05,4.5 L10.275,1.275 C10.575,0.975 10.575,0.525 10.275,0.225 C9.975,-0.075 9.525,-0.075 9.225,0.225 L5.475,3.975 C5.175,4.275 5.175,4.725 5.475,5.025 L9.225,8.775 C9.375,8.925 9.6,9 9.75,9 C9.9,9 10.125,8.925 10.275,8.775 C10.575,8.475 10.575,8.025 10.275,7.725 L7.05,4.5 Z" id="path-1"></path>
    </defs>
    <g id="REX-admin" stroke="none" stroke-width="1" fill="none" fill-rule="evenodd">
        <g id="t05.3a.-Evaluation-Results-Admin-10-pp-graph" transform="translate(-616.000000, -143.000000)">
            <g id="button/with-icon-outline-small" transform="translate(601.000000, 129.500000)">
                <g id="icon" transform="translate(15.750000, 14.000000)">
                    <mask id="mask-2" fill="white">
                        <use xlink:href="#path-1"></use>
                    </mask>
                    <use id="Mask" fill="#00B3B0" fill-rule="nonzero" xlink:href="#path-1"></use>
                    <g id="Icon-Color" mask="url(#mask-2)" fill="#00B3B0">
                        <g transform="translate(-3.750000, -4.500000)" id="Shape">
                            <rect x="0" y="0" width="18" height="18"></rect>
                        </g>
                    </g>
                </g>
            </g>
        </g>
    </g>
</svg>