<?xml version="1.0" encoding="UTF-8"?>
<svg width="18px" height="16px" viewBox="0 0 18 16" version="1.1" xmlns="http://www.w3.org/2000/svg" xmlns:xlink="http://www.w3.org/1999/xlink">
    <title>icon</title>
    <defs>
        <path d="M11.3783505,14.5492516 C10.549464,14.8497505 9.72057756,15 8.8916911,15 C5.80220521,15 2.86342595,13.0467568 1.80847955,9.9666425 C1.65777292,9.59101881 1.88383286,9.14027038 2.26059943,8.9900209 C2.637366,8.83977142 3.08948589,9.06514564 3.24019252,9.44076933 C4.37049224,12.5960084 7.76139139,14.2487526 10.9262306,13.1218815 C14.0910698,11.9950104 15.7488427,8.6143972 14.618543,5.45915818 C14.0910698,3.9566634 12.9607701,2.75466758 11.5290571,2.00342019 C10.0973441,1.32729754 8.43957121,1.25217281 6.93250493,1.77804598 C6.10361847,2.07854493 5.27473201,2.52929336 4.67190549,3.20541601 L2.48665938,5.23378396 L5.12402538,5.23378396 C5.57614527,5.23378396 5.87755852,5.53428292 5.87755852,5.98503135 C5.87755852,6.43577978 5.57614527,6.73627874 5.12402538,6.73627874 L0.602826515,6.73627874 C0.602826515,6.73627874 0.602826515,6.73627874 0.602826515,6.73627874 C0.527473201,6.73627874 0.452119887,6.73627874 0.452119887,6.73627874 C0.452119887,6.73627874 0.376766572,6.73627874 0.376766572,6.73627874 C0.376766572,6.73627874 0.301413258,6.661154 0.301413258,6.661154 C0.226059943,6.661154 0.226059943,6.58602926 0.150706629,6.58602926 C0.150706629,6.58602926 0.150706629,6.58602926 0.150706629,6.58602926 C0.150706629,6.58602926 0.150706629,6.51090452 0.0753533144,6.51090452 C0.0753533144,6.43577978 0,6.43577978 0,6.36065504 C0,6.2855303 0,6.21040556 0,6.21040556 C0,6.21040556 0,6.13528083 0,6.13528083 L0,1.47754702 C0,1.02679859 0.301413258,0.726299634 0.753533144,0.726299634 C1.20565303,0.726299634 1.50706629,1.02679859 1.50706629,1.47754702 L1.50706629,4.25716236 L3.76766572,2.15366967 C4.52119887,1.40242228 5.50079195,0.801424373 6.55573835,0.425800679 C8.43957121,-0.25032197 10.4741107,-0.100072492 12.2825903,0.726299634 C14.0910698,1.6277965 15.4474295,3.13029127 16.1256093,5.00840974 C17.4066156,8.91489616 15.2967228,13.1970063 11.3783505,14.5492516 Z" id="path-1"></path>
    </defs>
    <g id="REX-Admin-desktop" stroke="none" stroke-width="1" fill="none" fill-rule="evenodd">
        <g id="08.2.-Plans-Settings---add-plan" transform="translate(-1031.000000, -267.000000)">
            <g id="button/with-icon-outline-small" transform="translate(1019.000000, 256.500000)">
                <g id="icon" transform="translate(12.750000, 11.000000)">
                    <mask id="mask-2" fill="white">
                        <use xlink:href="#path-1"></use>
                    </mask>
                    <use id="Mask" fill="#00B3B0" fill-rule="nonzero" xlink:href="#path-1"></use>
                    <g id="Icon-Color" mask="url(#mask-2)" fill="#00B3B0">
                        <g transform="translate(-0.750000, -1.500000)" id="Shape">
                            <rect x="0" y="0" width="18" height="18"></rect>
                        </g>
                    </g>
                </g>
            </g>
        </g>
    </g>
</svg>