<?xml version="1.0" encoding="UTF-8"?>
<svg width="16px" height="18px" viewBox="0 0 16 18" version="1.1" xmlns="http://www.w3.org/2000/svg" xmlns:xlink="http://www.w3.org/1999/xlink">
    <title>icon</title>
    <defs>
        <path d="M15,12 L15,14.25 C15,15.525 14.025,16.5 12.75,16.5 L2.25,16.5 C0.975,16.5 0,15.525 0,14.25 L0,12 C0,11.55 0.3,11.25 0.75,11.25 C1.2,11.25 1.5,11.55 1.5,12 L1.5,14.25 C1.5,14.7 1.8,15 2.25,15 L12.75,15 C13.2,15 13.5,14.7 13.5,14.25 L13.5,12 C13.5,11.55 13.8,11.25 14.25,11.25 C14.7,11.25 15,11.55 15,12 Z M6.975,11.775 C7.05,11.85 7.125,11.925 7.2,11.925 C7.275,12 7.425,12 7.5,12 C7.575,12 7.725,12 7.8,11.925 C7.875,11.85 7.95,11.85 8.025,11.775 L11.025,8.775 C11.325,8.475 11.325,8.025 11.025,7.725 C10.725,7.425 10.275,7.425 9.975,7.725 L8.25,9.45 L8.25,0.75 C8.25,0.3 7.95,0 7.5,0 C7.05,0 6.75,0.3 6.75,0.75 L6.75,9.45 L5.025,7.725 C4.725,7.425 4.275,7.425 3.975,7.725 C3.675,8.025 3.675,8.475 3.975,8.775 L6.975,11.775 Z" id="path-1"></path>
    </defs>
    <g id="REX-desktop" stroke="none" stroke-width="1" fill="none" fill-rule="evenodd">
        <g id="07.3-View-Property---evaluation-completed" transform="translate(-621.000000, -542.000000)">
            <g id="button/with-icon-outline-small" transform="translate(608.000000, 532.500000)">
                <g id="icon" transform="translate(13.500000, 10.250000)">
                    <mask id="mask-2" fill="white">
                        <use xlink:href="#path-1"></use>
                    </mask>
                    <use id="Mask" fill="#000000" fill-rule="nonzero" xlink:href="#path-1"></use>
                    <g id="Icon-Color" mask="url(#mask-2)" fill="#00B3B0">
                        <g transform="translate(-1.500000, -0.750000)" id="Shape">
                            <rect x="0" y="0" width="18" height="18"></rect>
                        </g>
                    </g>
                </g>
            </g>
        </g>
    </g>
</svg>