<?xml version="1.0" encoding="UTF-8"?>
<svg width="16px" height="12px" viewBox="0 0 16 12" version="1.1" xmlns="http://www.w3.org/2000/svg" xmlns:xlink="http://www.w3.org/1999/xlink">
    <title>icon / eye</title>
    <defs>
        <path d="M15.9498956,5.73333333 C15.8162839,5.46666667 13.0104384,0 8,0 C2.98956159,0 0.183716075,5.46666667 0.0501043841,5.73333333 C-0.0167014614,5.93333333 -0.0167014614,6.13333333 0.0501043841,6.33333333 C0.183716075,6.53333333 2.98956159,12 8,12 C13.0104384,12 15.8162839,6.53333333 15.9498956,6.26666667 C16.0167015,6.13333333 16.0167015,5.86666667 15.9498956,5.73333333 Z M8,10.6666667 C4.39248434,10.6666667 2.05427975,7.06666667 1.38622129,6 C1.9874739,4.93333333 4.39248434,1.33333333 8,1.33333333 C11.6075157,1.33333333 13.9457203,4.93333333 14.6137787,6 C13.9457203,7.06666667 11.6075157,10.6666667 8,10.6666667 Z M8,3.33333333 C6.5302714,3.33333333 5.32776618,4.53333333 5.32776618,6 C5.32776618,7.46666667 6.5302714,8.66666667 8,8.66666667 C9.4697286,8.66666667 10.6722338,7.46666667 10.6722338,6 C10.6722338,4.53333333 9.4697286,3.33333333 8,3.33333333 Z M8,7.33333333 C7.2651357,7.33333333 6.66388309,6.73333333 6.66388309,6 C6.66388309,5.26666667 7.2651357,4.66666667 8,4.66666667 C8.7348643,4.66666667 9.33611691,5.26666667 9.33611691,6 C9.33611691,6.73333333 8.7348643,7.33333333 8,7.33333333 Z" id="path-1"></path>
    </defs>
    <g id="REX-desktop" stroke="none" stroke-width="1" fill="none" fill-rule="evenodd">
        <g id="05.2-Dashboard---Canary" transform="translate(-529.000000, -578.000000)">
            <g id="Group-15" transform="translate(529.000000, 576.000000)">
                <g id="icon-/-eye" transform="translate(0.000000, 2.000000)">
                    <mask id="mask-2" fill="white">
                        <use xlink:href="#path-1"></use>
                    </mask>
                    <use id="Mask" fill="#FFFFFF" fill-rule="nonzero" xlink:href="#path-1"></use>
                    <g id="Icon-Color" mask="url(#mask-2)" fill="#FFFFFF">
                        <g transform="translate(0.000000, -2.000000)" id="Shape">
                            <rect x="0" y="0" width="16" height="16"></rect>
                        </g>
                    </g>
                </g>
            </g>
        </g>
    </g>
</svg>
