<?xml version="1.0" encoding="UTF-8"?>
<svg width="20px" height="20px" viewBox="0 0 20 20" version="1.1" xmlns="http://www.w3.org/2000/svg" xmlns:xlink="http://www.w3.org/1999/xlink">
    <title>icon / grid</title>
    <defs>
        <path d="M8,0 L1,0 C0.4,0 0,0.4 0,1 L0,8 C0,8.6 0.4,9 1,9 L8,9 C8.6,9 9,8.6 9,8 L9,1 C9,0.4 8.6,0 8,0 Z M7,7 L2,7 L2,2 L7,2 L7,7 Z M19,0 L12,0 C11.4,0 11,0.4 11,1 L11,8 C11,8.6 11.4,9 12,9 L19,9 C19.6,9 20,8.6 20,8 L20,1 C20,0.4 19.6,0 19,0 Z M18,7 L13,7 L13,2 L18,2 L18,7 Z M19,11 L12,11 C11.4,11 11,11.4 11,12 L11,19 C11,19.6 11.4,20 12,20 L19,20 C19.6,20 20,19.6 20,19 L20,12 C20,11.4 19.6,11 19,11 Z M18,18 L13,18 L13,13 L18,13 L18,18 Z M8,11 L1,11 C0.4,11 0,11.4 0,12 L0,19 C0,19.6 0.4,20 1,20 L8,20 C8.6,20 9,19.6 9,19 L9,12 C9,11.4 8.6,11 8,11 Z M7,18 L2,18 L2,13 L7,13 L7,18 Z" id="path-1"></path>
    </defs>
    <g id="Symbols" stroke="none" stroke-width="1" fill="none" fill-rule="evenodd">
        <g id="Left-Nav" transform="translate(-30.000000, -202.000000)">
            <g id="menu-left" transform="translate(20.000000, 130.000000)">
                <g id="icon-/-grid" transform="translate(10.000000, 72.000000)">
                    <mask id="mask-2" fill="white">
                        <use xlink:href="#path-1"></use>
                    </mask>
                    <use id="Mask" fill="#000000" fill-rule="nonzero" xlink:href="#path-1"></use>
                    <g id="Icon-Color" mask="url(#mask-2)" fill="#00b3b0">
                        <g transform="translate(-2.000000, -2.000000)" id="Shape">
                            <rect x="0" y="0" width="24" height="24"></rect>
                        </g>
                    </g>
                </g>
            </g>
        </g>
    </g>
</svg>
