<?xml version="1.0" encoding="UTF-8"?>
<svg width="14px" height="14px" viewBox="0 0 14 14" version="1.1" xmlns="http://www.w3.org/2000/svg" xmlns:xlink="http://www.w3.org/1999/xlink">
    <title>34FDE0F3-2557-4C0E-A1D8-4609E416DF8B</title>
    <defs>
        <path d="M5.33333333,0 L0.666666667,0 C0.266666667,0 0,0.266666667 0,0.666666667 L0,5.33333333 C0,5.73333333 0.266666667,6 0.666666667,6 L5.33333333,6 C5.73333333,6 6,5.73333333 6,5.33333333 L6,0.666666667 C6,0.266666667 5.73333333,0 5.33333333,0 Z M4.66666667,4.66666667 L1.33333333,4.66666667 L1.33333333,1.33333333 L4.66666667,1.33333333 L4.66666667,4.66666667 Z M12.6666667,0 L8,0 C7.6,0 7.33333333,0.266666667 7.33333333,0.666666667 L7.33333333,5.33333333 C7.33333333,5.73333333 7.6,6 8,6 L12.6666667,6 C13.0666667,6 13.3333333,5.73333333 13.3333333,5.33333333 L13.3333333,0.666666667 C13.3333333,0.266666667 13.0666667,0 12.6666667,0 Z M12,4.66666667 L8.66666667,4.66666667 L8.66666667,1.33333333 L12,1.33333333 L12,4.66666667 Z M12.6666667,7.33333333 L8,7.33333333 C7.6,7.33333333 7.33333333,7.6 7.33333333,8 L7.33333333,12.6666667 C7.33333333,13.0666667 7.6,13.3333333 8,13.3333333 L12.6666667,13.3333333 C13.0666667,13.3333333 13.3333333,13.0666667 13.3333333,12.6666667 L13.3333333,8 C13.3333333,7.6 13.0666667,7.33333333 12.6666667,7.33333333 Z M12,12 L8.66666667,12 L8.66666667,8.66666667 L12,8.66666667 L12,12 Z M5.33333333,7.33333333 L0.666666667,7.33333333 C0.266666667,7.33333333 0,7.6 0,8 L0,12.6666667 C0,13.0666667 0.266666667,13.3333333 0.666666667,13.3333333 L5.33333333,13.3333333 C5.73333333,13.3333333 6,13.0666667 6,12.6666667 L6,8 C6,7.6 5.73333333,7.33333333 5.33333333,7.33333333 Z M4.66666667,12 L1.33333333,12 L1.33333333,8.66666667 L4.66666667,8.66666667 L4.66666667,12 Z" id="path-1"></path>
    </defs>
    <g id="REX-desktop" stroke="none" stroke-width="1" fill="none" fill-rule="evenodd">
        <g id="05.1-Dashboard---empty" transform="translate(-1282.000000, -303.000000)">
            <g id="Group-3" transform="translate(1187.000000, 295.000000)">
                <g id="icon-/-grid" transform="translate(95.333333, 8.333333)">
                    <mask id="mask-2" fill="white">
                        <use xlink:href="#path-1"></use>
                    </mask>
                    <use id="Mask" fill="#000000" fill-rule="nonzero" xlink:href="#path-1"></use>
                    <g id="Icon-Color" mask="url(#mask-2)" fill="#FFFFFF">
                        <g transform="translate(-1.333333, -1.333333)" id="Shape">
                            <rect x="0" y="0" width="16" height="16"></rect>
                        </g>
                    </g>
                </g>
            </g>
        </g>
    </g>
</svg>
