<?xml version="1.0" encoding="UTF-8"?>
<svg width="16px" height="16px" viewBox="0 0 16 16" version="1.1" xmlns="http://www.w3.org/2000/svg" xmlns:xlink="http://www.w3.org/1999/xlink">
    <title>1E52F126-C82C-44F1-8E87-0D72BC676ECE</title>
    <defs>
        <path d="M9.93333333,6 C9.93333333,7.73333333 7.73333333,8.53333333 7.46666667,8.6 C7.4,8.66666667 7.33333333,8.66666667 7.26666667,8.66666667 C7,8.66666667 6.73333333,8.46666667 6.66666667,8.2 C6.53333333,7.86666667 6.73333333,7.46666667 7.06666667,7.33333333 C7.46666667,7.2 8.6,6.66666667 8.6,5.93333333 C8.6,5.33333333 8.26666667,4.86666667 7.73333333,4.66666667 C7.06666667,4.4 6.26666667,4.8 6,5.46666667 C5.86666667,5.8 5.46666667,6 5.13333333,5.86666667 C4.8,5.86666667 4.66666667,5.46666667 4.73333333,5.13333333 C5.2,3.73333333 6.73333333,3 8.13333333,3.53333333 C9.2,3.86666667 9.93333333,4.86666667 9.93333333,6 Z M14.6666667,7.33333333 C14.6666667,11.4 11.4,14.6666667 7.33333333,14.6666667 C3.26666667,14.6666667 0,11.4 0,7.33333333 C0,3.26666667 3.26666667,0 7.33333333,0 C11.4,0 14.6666667,3.26666667 14.6666667,7.33333333 Z M13.3333333,7.33333333 C13.3333333,4 10.6666667,1.33333333 7.33333333,1.33333333 C4,1.33333333 1.33333333,4 1.33333333,7.33333333 C1.33333333,10.6666667 4,13.3333333 7.33333333,13.3333333 C10.6666667,13.3333333 13.3333333,10.6666667 13.3333333,7.33333333 Z M7.8,10.2 C7.8,10.2 7.73333333,10.1333333 7.66666667,10.1333333 C7.6,10.1333333 7.6,10.0666667 7.53333333,10.0666667 C7.46666667,10.0666667 7.46666667,10.0666667 7.4,10 C7.26666667,10 7.13333333,10 7,10.0666667 C6.93333333,10.0666667 6.86666667,10.1333333 6.8,10.2 C6.73333333,10.2666667 6.66666667,10.3333333 6.66666667,10.4 C6.66666667,10.4666667 6.6,10.5333333 6.6,10.6666667 C6.6,10.8666667 6.66666667,11 6.8,11.1333333 C6.93333333,11.2666667 7.06666667,11.3333333 7.26666667,11.3333333 C7.46666667,11.3333333 7.6,11.2666667 7.73333333,11.1333333 C7.86666667,11 7.93333333,10.8666667 7.93333333,10.6666667 C7.93333333,10.6 7.93333333,10.4666667 7.86666667,10.4 C7.93333333,10.3333333 7.86666667,10.2666667 7.8,10.2 Z" id="path-1"></path>
    </defs>
    <g id="REX-desktop" stroke="none" stroke-width="1" fill="none" fill-rule="evenodd">
        <g id="06.3.payment" transform="translate(-464.000000, -510.000000)">
            <g id="form-/-text-field-copy-12" transform="translate(336.000000, 476.000000)">
                <g id="icon-/-help-circle" transform="translate(128.666667, 34.666667)">
                    <mask id="mask-2" fill="white">
                        <use xlink:href="#path-1"></use>
                    </mask>
                    <use id="Mask" fill="#000000" fill-rule="nonzero" xlink:href="#path-1"></use>
                    <g id="Icon-Color" mask="url(#mask-2)" fill="#00B3B0">
                        <g transform="translate(-0.666667, -0.666667)" id="Shape">
                            <rect x="0" y="0" width="16" height="16"></rect>
                        </g>
                    </g>
                </g>
            </g>
        </g>
    </g>
</svg>