<?xml version="1.0" encoding="UTF-8"?>
<svg width="14px" height="10px" viewBox="0 0 14 10" version="1.1" xmlns="http://www.w3.org/2000/svg" xmlns:xlink="http://www.w3.org/1999/xlink">
    <title>EFEDCAB5-9647-4595-B7E5-528257B45667</title>
    <defs>
        <path d="M3.33333333,0.66936789 C3.33333333,0.26936789 3.6,0.00270122366 4,0.00270122366 L12.6666667,0.00270122366 C13.0666667,0.00270122366 13.3333333,0.26936789 13.3333333,0.66936789 C13.3333333,1.06936789 13.0666667,1.33603456 12.6666667,1.33603456 L4,1.33603456 C3.6,1.33603456 3.33333333,1.06936789 3.33333333,0.66936789 Z M12.6666667,4.00270122 L4,4.00270122 C3.6,4.00270122 3.33333333,4.26936789 3.33333333,4.66936789 C3.33333333,5.06936789 3.6,5.33603456 4,5.33603456 L12.6666667,5.33603456 C13.0666667,5.33603456 13.3333333,5.06936789 13.3333333,4.66936789 C13.3333333,4.26936789 13.0666667,4.00270122 12.6666667,4.00270122 Z M12.6666667,8.00270122 L4,8.00270122 C3.6,8.00270122 3.33333333,8.26936789 3.33333333,8.66936789 C3.33333333,9.06936789 3.6,9.33603456 4,9.33603456 L12.6666667,9.33603456 C13.0666667,9.33603456 13.3333333,9.06936789 13.3333333,8.66936789 C13.3333333,8.26936789 13.0666667,8.00270122 12.6666667,8.00270122 Z M0.933333333,0.0693678903 C0.666666667,-0.063965443 0.4,0.00270122366 0.2,0.202701224 C0.133333333,0.26936789 0.0666666667,0.336034557 0.0666666667,0.402701224 C0,0.46936789 0,0.602701224 0,0.66936789 C0,0.736034557 0,0.86936789 0.0666666667,0.936034557 C0.133333333,1.00270122 0.133333333,1.06936789 0.2,1.13603456 C0.2,1.13603456 0.266666667,1.20270122 0.266666667,1.20270122 C0.333333333,1.20270122 0.333333333,1.26936789 0.4,1.26936789 C0.466666667,1.26936789 0.466666667,1.26936789 0.533333333,1.33603456 C0.6,1.33603456 0.6,1.33603456 0.666666667,1.33603456 C0.866666667,1.33603456 1,1.26936789 1.13333333,1.13603456 C1.26666667,1.00270122 1.33333333,0.86936789 1.33333333,0.66936789 C1.33333333,0.46936789 1.26666667,0.336034557 1.13333333,0.202701224 C1.06666667,0.136034557 1,0.0693678903 0.933333333,0.0693678903 Z M1.26666667,4.40270122 C1.26666667,4.33603456 1.2,4.33603456 1.2,4.26936789 C1.2,4.20270122 1.13333333,4.20270122 1.13333333,4.20270122 C0.933333333,4.00270122 0.666666667,3.93603456 0.4,4.06936789 C0.333333333,4.13603456 0.266666667,4.13603456 0.2,4.20270122 C0.2,4.20270122 0.133333333,4.26936789 0.133333333,4.26936789 C0.133333333,4.33603456 0.0666666667,4.33603456 0.0666666667,4.40270122 C0.0666666667,4.46936789 0.0666666667,4.46936789 0,4.53603456 C0,4.60270122 0,4.60270122 0,4.66936789 C0,4.86936789 0.0666666667,5.00270122 0.2,5.13603456 C0.333333333,5.26936789 0.466666667,5.33603456 0.666666667,5.33603456 C0.866666667,5.33603456 1,5.26936789 1.13333333,5.13603456 C1.26666667,5.00270122 1.33333333,4.86936789 1.33333333,4.66936789 C1.33333333,4.60270122 1.33333333,4.60270122 1.33333333,4.53603456 C1.33333333,4.46936789 1.26666667,4.46936789 1.26666667,4.40270122 Z M0.2,8.20270122 C0.133333333,8.26936789 0.0666666667,8.33603456 0.0666666667,8.40270122 C0,8.46936789 0,8.60270122 0,8.66936789 C0,8.86936789 0.0666666667,9.00270122 0.2,9.13603456 C0.333333333,9.26936789 0.466666667,9.33603456 0.666666667,9.33603456 C0.866666667,9.33603456 1,9.26936789 1.13333333,9.13603456 C1.26666667,9.00270122 1.33333333,8.86936789 1.33333333,8.66936789 C1.33333333,8.46936789 1.26666667,8.33603456 1.13333333,8.20270122 C0.866666667,7.93603456 0.466666667,7.93603456 0.2,8.20270122 Z" id="path-1"></path>
    </defs>
    <g id="REX-desktop" stroke="none" stroke-width="1" fill="none" fill-rule="evenodd">
        <g id="05.1-Dashboard---empty" transform="translate(-1252.000000, -305.000000)">
            <g id="Group-3" transform="translate(1187.000000, 295.000000)">
                <g id="icon-/-list" transform="translate(65.333333, 10.333333)">
                    <mask id="mask-2" fill="white">
                        <use xlink:href="#path-1"></use>
                    </mask>
                    <use id="Mask" fill="#000000" fill-rule="nonzero" xlink:href="#path-1"></use>
                    <g id="Icon-Color" mask="url(#mask-2)" fill="#00b3b0">
                        <g transform="translate(-1.333333, -3.333333)" id="Shape">
                            <rect x="0" y="0" width="16" height="16"></rect>
                        </g>
                    </g>
                </g>
            </g>
        </g>
    </g>
</svg>
