<?xml version="1.0" encoding="UTF-8"?>
<svg width="22px" height="22px" viewBox="0 0 22 22" version="1.1" xmlns="http://www.w3.org/2000/svg" xmlns:xlink="http://www.w3.org/1999/xlink">
    <title>icon / loader</title>
    <defs>
        <path d="M12,1 L12,5 C12,5.6 11.6,6 11,6 C10.4,6 10,5.6 10,5 L10,1 C10,0.4 10.4,0 11,0 C11.6,0 12,0.4 12,1 Z M11,16 C10.4,16 10,16.4 10,17 L10,21 C10,21.6 10.4,22 11,22 C11.6,22 12,21.6 12,21 L12,17 C12,16.4 11.6,16 11,16 Z M4.6,3.2 C4.2,2.8 3.6,2.8 3.2,3.2 C2.8,3.6 2.8,4.2 3.2,4.6 L6,7.4 C6.2,7.6 6.5,7.7 6.7,7.7 C6.9,7.7 7.2,7.6 7.4,7.4 C7.8,7 7.8,6.4 7.4,6 L4.6,3.2 Z M15.9,14.5 C15.5,14.1 14.9,14.1 14.5,14.5 C14.1,14.9 14.1,15.5 14.5,15.9 L17.3,18.7 C17.5,18.9 17.8,19 18,19 C18.2,19 18.5,18.9 18.7,18.7 C19.1,18.3 19.1,17.7 18.7,17.3 L15.9,14.5 Z M6,11 C6,10.4 5.6,10 5,10 L1,10 C0.4,10 0,10.4 0,11 C0,11.6 0.4,12 1,12 L5,12 C5.6,12 6,11.6 6,11 Z M21,10 L17,10 C16.4,10 16,10.4 16,11 C16,11.6 16.4,12 17,12 L21,12 C21.6,12 22,11.6 22,11 C22,10.4 21.6,10 21,10 Z M6.1,14.5 L3.3,17.3 C2.9,17.7 2.9,18.3 3.3,18.7 C3.5,18.9 3.8,19 4,19 C4.2,19 4.5,18.9 4.7,18.7 L7.5,15.9 C7.9,15.5 7.9,14.9 7.5,14.5 C7.1,14.1 6.4,14.1 6.1,14.5 Z M15.2,7.8 C15.5,7.8 15.7,7.7 15.9,7.5 L18.7,4.7 C19.1,4.3 19.1,3.7 18.7,3.3 C18.3,2.9 17.7,2.9 17.3,3.3 L14.5,6.1 C14.1,6.5 14.1,7.1 14.5,7.5 C14.7,7.7 15,7.8 15.2,7.8 Z" id="path-1"></path>
    </defs>
    <g id="REX-Admin-desktop" stroke="none" stroke-width="1" fill="none" fill-rule="evenodd">
        <g id="01.4.-Manage-Users--Infinite-Scroll" transform="translate(-660.000000, -1137.000000)">
            <g id="Loading-more" transform="translate(659.000000, 1136.000000)">
                <g id="icon-/-loader" transform="translate(1.000000, 1.000000)">
                    <mask id="mask-2" fill="white">
                        <use xlink:href="#path-1"></use>
                    </mask>
                    <use id="Mask" fill="#6DC8C9" fill-rule="nonzero" xlink:href="#path-1"></use>
                    <g id="Icon-Color" mask="url(#mask-2)" fill="#6DC8C9">
                        <g transform="translate(-1.000000, -1.000000)" id="Shape">
                            <rect x="0" y="0" width="24" height="24"></rect>
                        </g>
                    </g>
                </g>
            </g>
        </g>
    </g>
</svg>