<?xml version="1.0" encoding="UTF-8"?>
<svg width="14px" height="16px" viewBox="0 0 14 16" version="1.1" xmlns="http://www.w3.org/2000/svg" xmlns:xlink="http://www.w3.org/1999/xlink">
    <title>icon / log-in</title>
    <defs>
        <path d="M13.3333333,2 L13.3333333,12.6666667 C13.3333333,13.8 12.4666667,14.6666667 11.3333333,14.6666667 L8,14.6666667 C7.6,14.6666667 7.33333333,14.4 7.33333333,14 C7.33333333,13.6 7.6,13.3333333 8,13.3333333 L11.3333333,13.3333333 C11.7333333,13.3333333 12,13.0666667 12,12.6666667 L12,2 C12,1.6 11.7333333,1.33333333 11.3333333,1.33333333 L8,1.33333333 C7.6,1.33333333 7.33333333,1.06666667 7.33333333,0.666666667 C7.33333333,0.266666667 7.6,0 8,0 L11.3333333,0 C12.4666667,0 13.3333333,0.866666667 13.3333333,2 Z M9.26666667,7.6 C9.33333333,7.46666667 9.33333333,7.26666667 9.26666667,7.06666667 C9.2,7 9.2,6.93333333 9.13333333,6.86666667 L6.46666667,4.2 C6.2,3.93333333 5.8,3.93333333 5.53333333,4.2 C5.26666667,4.46666667 5.26666667,4.86666667 5.53333333,5.13333333 L7.06666667,6.66666667 L0.666666667,6.66666667 C0.266666667,6.66666667 -3.55271368e-15,6.93333333 -3.55271368e-15,7.33333333 C-3.55271368e-15,7.73333333 0.266666667,8 0.666666667,8 L7.06666667,8 L5.53333333,9.53333333 C5.26666667,9.8 5.26666667,10.2 5.53333333,10.4666667 C5.66666667,10.6 5.86666667,10.6666667 6,10.6666667 C6.13333333,10.6666667 6.33333333,10.6 6.46666667,10.4666667 L9.13333333,7.8 C9.2,7.73333333 9.26666667,7.66666667 9.26666667,7.6 Z" id="path-1"></path>
    </defs>
    <g id="Symbols" stroke="none" stroke-width="1" fill="none" fill-rule="evenodd">
        <g id="last-login" transform="translate(-17.000000, -16.000000)">
            <g id="icon-/-log-in" transform="translate(17.333333, 16.666667)">
                <mask id="mask-2" fill="white">
                    <use xlink:href="#path-1"></use>
                </mask>
                <use id="Mask" fill="#00B3B0" fill-rule="nonzero" xlink:href="#path-1"></use>
                <g id="Icon-Color" mask="url(#mask-2)" fill="#00B3B0">
                    <g transform="translate(-1.333333, -0.666667)" id="Shape">
                        <rect x="0" y="0" width="16" height="16"></rect>
                    </g>
                </g>
            </g>
        </g>
    </g>
</svg>