<?xml version="1.0" encoding="UTF-8"?>
<svg width="20px" height="22px" viewBox="0 0 20 22" version="1.1" xmlns="http://www.w3.org/2000/svg" xmlns:xlink="http://www.w3.org/1999/xlink">
    <title>icon / log-out</title>
    <defs>
        <path d="M9.01126408,21 C9.01126408,21.6 8.61076345,22 8.01001252,22 L3.00375469,22 C1.30162703,22 0,20.7 0,19 L0,3 C0,1.3 1.30162703,0 3.00375469,0 L8.01001252,0 C8.61076345,0 9.01126408,0.4 9.01126408,1 C9.01126408,1.6 8.61076345,2 8.01001252,2 L3.00375469,2 C2.40300375,2 2.00250313,2.4 2.00250313,3 L2.00250313,19 C2.00250313,19.6 2.40300375,20 3.00375469,20 L8.01001252,20 C8.61076345,20 9.01126408,20.4 9.01126408,21 Z M19.9249061,11.4 C20.0250313,11.2 20.0250313,10.9 19.9249061,10.6 C19.824781,10.5 19.824781,10.4 19.7246558,10.3 L15.7196496,6.3 C15.3191489,5.9 14.718398,5.9 14.3178974,6.3 C13.9173967,6.7 13.9173967,7.3 14.3178974,7.7 L16.620776,10 L7.00876095,10 C6.40801001,10 6.00750939,10.4 6.00750939,11 C6.00750939,11.6 6.40801001,12 7.00876095,12 L16.620776,12 L14.3178974,14.3 C13.9173967,14.7 13.9173967,15.3 14.3178974,15.7 C14.5181477,15.9 14.8185232,16 15.0187735,16 C15.2190238,16 15.5193992,15.9 15.7196496,15.7 L19.7246558,11.7 C19.824781,11.6 19.9249061,11.5 19.9249061,11.4 Z" id="path-1"></path>
    </defs>
    <g id="Symbols" stroke="none" stroke-width="1" fill="none" fill-rule="evenodd">
        <g id="Left-Nav" transform="translate(-30.000000, -363.000000)">
            <g id="menu-left" transform="translate(20.000000, 130.000000)">
                <g id="icon-/-log-out" transform="translate(10.000000, 233.000000)">
                    <mask id="mask-2" fill="white">
                        <use xlink:href="#path-1"></use>
                    </mask>
                    <use id="Mask" fill="#000000" fill-rule="nonzero" xlink:href="#path-1"></use>
                    <g id="Icon-Color" mask="url(#mask-2)" fill="#00b3b0">
                        <g transform="translate(-2.000000, -1.000000)" id="Shape">
                            <rect x="0" y="0" width="24" height="24"></rect>
                        </g>
                    </g>
                </g>
            </g>
        </g>
    </g>
</svg>
