<?xml version="1.0" encoding="UTF-8"?>
<svg width="4px" height="18px" viewBox="0 0 4 18" version="1.1" xmlns="http://www.w3.org/2000/svg" xmlns:xlink="http://www.w3.org/1999/xlink">
    <title>icon / more-vertical</title>
    <defs>
        <path d="M4,9 C4,10.1 3.1,11 2,11 C0.9,11 0,10.1 0,9 C0,7.9 0.9,7 2,7 C3.1,7 4,7.9 4,9 Z M2,4 C3.1,4 4,3.1 4,2 C4,0.9 3.1,0 2,0 C0.9,0 0,0.9 0,2 C0,3.1 0.9,4 2,4 Z M2,14 C0.9,14 0,14.9 0,16 C0,17.1 0.9,18 2,18 C3.1,18 4,17.1 4,16 C4,14.9 3.1,14 2,14 Z" id="path-1"></path>
    </defs>
    <g id="REX-mobile" stroke="none" stroke-width="1" fill="none" fill-rule="evenodd">
        <g id="m05.2a-Dashboard---Canary" transform="translate(-343.000000, -366.000000)">
            <g id="property-card" transform="translate(10.000000, 351.000000)">
                <g id="icon-/-more-vertical" transform="translate(333.000000, 15.000000)">
                    <mask id="mask-2" fill="white">
                        <use xlink:href="#path-1"></use>
                    </mask>
                    <use id="Shape" fill="#000000" fill-rule="nonzero" xlink:href="#path-1"></use>
                    <g id="Icon-Color" mask="url(#mask-2)" fill="#607D8B">
                        <g transform="translate(-10.000000, -3.000000)" id="Shape">
                            <rect x="0" y="0" width="24" height="24"></rect>
                        </g>
                    </g>
                </g>
            </g>
        </g>
    </g>
</svg>