<?xml version="1.0" encoding="UTF-8"?>
<svg width="26px" height="28px" viewBox="0 0 26 28" version="1.1"
  xmlns="http://www.w3.org/2000/svg"
  xmlns:xlink="http://www.w3.org/1999/xlink">
  <title>icon</title>
  <defs>
    <path d="M12,6 C12,6.45 11.7,6.75 11.25,6.75 L6.75,6.75 L6.75,11.25 C6.75,11.7 6.45,12 6,12 C5.55,12 5.25,11.7 5.25,11.25 L5.25,6.75 L0.75,6.75 C0.3,6.75 0,6.45 0,6 C0,5.55 0.3,5.25 0.75,5.25 L5.25,5.25 L5.25,0.75 C5.25,0.3 5.55,0 6,0 C6.45,0 6.75,0.3 6.75,0.75 L6.75,5.25 L11.25,5.25 C11.7,5.25 12,5.55 12,6 Z" id="path-1"></path>
  </defs>
  <g id="Symbols" stroke="none" stroke-width="1" fill="none" fill-rule="evenodd">
    <g id="button/bt-new-evaluation" transform="translate(-19.000000, -10.000000)">
      <g id="icon" transform="translate(20.000000, 12.000000)">
        <path d="M0,21.7026367 L0,9.48575587 C-5.67947577e-16,8.47437555 0.509598402,7.53107174 1.35548161,6.97666056 L12,0 L12,0 L22.6445184,6.97666056 C23.4904016,7.53107174 24,8.47437555 24,9.48575587 L24,21.7026367 C24,23.359491 22.6568542,24.7026367 21,24.7026367 L3,24.7026367 C1.34314575,24.7026367 6.46995335e-16,23.359491 0,21.7026367 Z" id="Path-2" stroke="#00B3B0" stroke-width="2"></path>
        <g id="icon-/-plus" transform="translate(6.000000, 8.000000)">
          <mask id="mask-2" fill="white">
            <use xlink:href="#path-1"></use>
          </mask>
          <use id="Mask" fill="#00B3B0" fill-rule="nonzero" xlink:href="#path-1"></use>
          <g id="Icon-Color" mask="url(#mask-2)" fill="#00B3B0">
            <g transform="translate(-3.000000, -3.000000)" id="Shape">
              <rect x="0" y="0" width="18" height="18"></rect>
            </g>
          </g>
        </g>
      </g>
    </g>
  </g>
</svg>
