<?xml version="1.0" encoding="UTF-8"?>
<svg width="16px" height="16px" viewBox="0 0 16 16" version="1.1" xmlns="http://www.w3.org/2000/svg" xmlns:xlink="http://www.w3.org/1999/xlink">
    <title>icon / plus</title>
    <defs>
        <path d="M16,8 C16,8.6 15.6,9 15,9 L9,9 L9,15 C9,15.6 8.6,16 8,16 C7.4,16 7,15.6 7,15 L7,9 L1,9 C0.4,9 0,8.6 0,8 C0,7.4 0.4,7 1,7 L7,7 L7,1 C7,0.4 7.4,0 8,0 C8.6,0 9,0.4 9,1 L9,7 L15,7 C15.6,7 16,7.4 16,8 Z" id="path-1"></path>
    </defs>
    <g id="REX-desktop" stroke="none" stroke-width="1" fill="none" fill-rule="evenodd">
        <g id="06.1a.New" transform="translate(-261.000000, -2627.000000)">
            <g id="Group-15" transform="translate(120.000000, 1349.000000)">
                <g id="Group-14" transform="translate(0.000000, 1175.000000)">
                    <g id="Group-4-Copy" transform="translate(0.000000, 34.000000)">
                        <g id="form-/-text-field-copy" transform="translate(0.000000, 35.000000)">
                            <g id="select-copy" transform="translate(129.000000, 22.000000)">
                                <g id="icon-/-plus" transform="translate(12.000000, 12.000000)">
                                    <mask id="mask-2" fill="white">
                                        <use xlink:href="#path-1"></use>
                                    </mask>
                                    <use id="Mask" fill="#000000" fill-rule="nonzero" xlink:href="#path-1"></use>
                                    <g id="Icon-Color" mask="url(#mask-2)" fill="#00B3B0">
                                        <g transform="translate(-4.000000, -4.000000)" id="Shape">
                                            <rect x="0" y="0" width="24" height="24"></rect>
                                        </g>
                                    </g>
                                </g>
                            </g>
                        </g>
                    </g>
                </g>
            </g>
        </g>
    </g>
</svg>