<?xml version="1.0" encoding="UTF-8"?>
<svg width="23px" height="22px" viewBox="0 0 23 22" version="1.1" xmlns="http://www.w3.org/2000/svg" xmlns:xlink="http://www.w3.org/1999/xlink">
    <title>icon</title>
    <defs>
        <path d="M22,10.1 L22,11 C22,17.1 17.1,22 11,22 C11,22 11,22 11,22 C4.9,22 0,17.1 0,11 C0,4.9 4.9,0 11,0 C11,0 11,0 11,0 C12.5,0 14.1,0.3 15.5,1 C16,1.2 16.2,1.8 16,2.3 C15.8,2.8 15.2,3 14.7,2.8 C13.5,2.3 12.3,2 11,2 C11,2 11,2 11,2 C6,2 2,6 2,11 C2,16 6,20 11,20 C11,20 11,20 11,20 C16,20 20,16 20,11 L20,10.1 C20,9.5 20.4,9.1 21,9.1 C21.6,9.1 22,9.5 22,10.1 Z M22.7,1.3 C22.3,0.9 21.7,0.9 21.3,1.3 L11,11.6 L8.7,9.3 C8.3,8.9 7.7,8.9 7.3,9.3 C6.9,9.7 6.9,10.3 7.3,10.7 L10.3,13.7 C10.5,13.9 10.8,14 11,14 C11.2,14 11.5,13.9 11.7,13.7 L22.7,2.7 C23.1,2.3 23.1,1.7 22.7,1.3 Z" id="path-1"></path>
    </defs>
    <g id="Symbols" stroke="none" stroke-width="1" fill="none" fill-rule="evenodd">
        <g id="button/with-icon-outline" transform="translate(-15.000000, -13.000000)">
            <g id="icon" transform="translate(15.000000, 13.000000)">
                <mask id="mask-2" fill="white">
                    <use xlink:href="#path-1"></use>
                </mask>
                <use id="Mask" fill="#000000" fill-rule="nonzero" xlink:href="#path-1"></use>
                <g id="Icon-Color" mask="url(#mask-2)" fill="#00B3B0">
                    <g transform="translate(-1.000000, -1.000000)" id="Shape">
                        <rect x="0" y="0" width="24" height="24"></rect>
                    </g>
                </g>
            </g>
        </g>
    </g>
</svg>