<?xml version="1.0" encoding="UTF-8"?>
<svg width="16px" height="16px" viewBox="0 0 16 16" version="1.1" xmlns="http://www.w3.org/2000/svg" xmlns:xlink="http://www.w3.org/1999/xlink">
    <title>icon</title>
    <defs>
        <path d="M14.775,13.725 L11.4,10.35 C12.225,9.3 12.75,7.875 12.75,6.375 C12.75,2.85 9.9,0 6.375,0 C2.85,0 0,2.85 0,6.375 C0,9.9 2.85,12.75 6.375,12.75 C7.875,12.75 9.225,12.225 10.35,11.4 L13.725,14.775 C13.875,14.925 14.1,15 14.25,15 C14.4,15 14.625,14.925 14.775,14.775 C15.075,14.475 15.075,14.025 14.775,13.725 Z M1.5,6.375 C1.5,3.675 3.675,1.5 6.375,1.5 C9.075,1.5 11.25,3.675 11.25,6.375 C11.25,7.725 10.725,8.925 9.825,9.825 C9.825,9.825 9.825,9.825 9.825,9.825 C9.825,9.825 9.825,9.825 9.825,9.825 C8.925,10.725 7.725,11.25 6.375,11.25 C3.675,11.25 1.5,9.075 1.5,6.375 Z" id="path-1"></path>
    </defs>
    <g id="REX-desktop" stroke="none" stroke-width="1" fill="none" fill-rule="evenodd">
        <g id="07.-View-Property" transform="translate(-133.000000, -4128.000000)">
            <g id="schools" transform="translate(120.000000, 3774.000000)">
                <g id="button/small/outline-with-icon-" transform="translate(0.000000, 343.500000)">
                    <g id="icon" transform="translate(13.500000, 11.000000)">
                        <mask id="mask-2" fill="white">
                            <use xlink:href="#path-1"></use>
                        </mask>
                        <use id="Mask" fill="#00B3B0" fill-rule="nonzero" xlink:href="#path-1"></use>
                        <g id="Icon-Color" mask="url(#mask-2)" fill="#00B3B0">
                            <g transform="translate(-1.500000, -1.500000)" id="Shape">
                                <rect x="0" y="0" width="18" height="18"></rect>
                            </g>
                        </g>
                    </g>
                </g>
            </g>
        </g>
    </g>
</svg>