<?xml version="1.0" encoding="UTF-8"?>
<svg width="22px" height="22px" viewBox="0 0 22 22" version="1.1" xmlns="http://www.w3.org/2000/svg" xmlns:xlink="http://www.w3.org/1999/xlink">
    <title>icon / grid</title>
    <defs>
        <path d="M0.6,6.88282139 L10.6,11.8885097 C10.7,11.9886234 10.8,11.9886234 11,11.9886234 C11.2,11.9886234 11.3,11.9886234 11.4,11.8885097 L21.4,6.88282139 C21.8,6.68259386 22,6.38225256 22,5.9817975 C22,5.58134243 21.8,5.28100114 21.4,5.08077361 L11.4,0.0750853242 C11.1,-0.0250284414 10.8,-0.0250284414 10.5,0.0750853242 L0.5,5.08077361 C0.2,5.28100114 0,5.58134243 0,5.9817975 C0,6.38225256 0.2,6.68259386 0.6,6.88282139 Z M11,2.07736064 L18.8,5.9817975 L11,9.88623436 L3.2,5.9817975 L11,2.07736064 Z M21.9,15.592719 C22.1,16.0932878 21.9,16.6939704 21.5,16.894198 L11.5,21.8998862 C11.3,22 11.2,22 11,22 C10.8,22 10.7,22 10.6,21.8998862 L0.6,16.894198 C0.1,16.6939704 -0.1,16.0932878 0.2,15.592719 C0.4,15.0921502 1,14.8919226 1.5,15.1922639 L11.1,19.9977247 L20.7,15.1922639 C21,14.8919226 21.6,15.0921502 21.9,15.592719 Z M21.9,10.5870307 C22.1,11.0875995 21.9,11.6882821 21.5,11.8885097 L11.5,16.894198 C11.3,16.9943117 11.2,16.9943117 11,16.9943117 C10.8,16.9943117 10.7,16.9943117 10.6,16.894198 L0.6,11.8885097 C0.1,11.6882821 -0.1,11.0875995 0.2,10.5870307 C0.4,10.0864619 1,9.88623436 1.5,10.1865757 L11.1,14.9920364 L20.7,10.1865757 C21,9.88623436 21.6,10.0864619 21.9,10.5870307 Z" id="path-1"></path>
    </defs>
    <g id="REX-Admin-desktop" stroke="none" stroke-width="1" fill="none" fill-rule="evenodd">
        <g id="01.1.-Manage-Users" transform="translate(-29.000000, -201.000000)">
            <g id="active" transform="translate(0.000000, 190.000000)">
                <g id="icon-/-grid" transform="translate(29.000000, 11.000000)">
                    <mask id="mask-2" fill="white">
                        <use xlink:href="#path-1"></use>
                    </mask>
                    <use id="Mask" fill="#FFFE71" fill-rule="nonzero" xlink:href="#path-1"></use>
                    <g id="Icon-Color" mask="url(#mask-2)" fill="#FFFE71">
                        <g transform="translate(-1.000000, -1.000000)" id="Shape">
                            <rect x="0" y="0" width="24" height="24"></rect>
                        </g>
                    </g>
                </g>
            </g>
        </g>
    </g>
</svg>