<?xml version="1.0" encoding="UTF-8"?>
<svg width="22px" height="21px" viewBox="0 0 22 21" version="1.1" xmlns="http://www.w3.org/2000/svg" xmlns:xlink="http://www.w3.org/1999/xlink">
    <title>icon</title>
    <defs>
        <path d="M21.9626274,7.9121834 C21.8629672,7.51283029 21.5639864,7.31315374 21.1653454,7.21331546 L14.7870895,6.31477097 L11.8969422,0.52415095 C11.5979615,-0.174716983 10.4020385,-0.174716983 10.1030578,0.52415095 L7.21291053,6.2149327 L0.934314836,7.21331546 C0.535673839,7.21331546 0.236693092,7.51283029 0.0373725934,7.9121834 C-0.0622876557,8.3115365 0.0373725934,8.71088961 0.336353341,8.91056616 L4.9207248,13.4032886 L3.82446206,19.7929383 C3.72480181,20.1922914 3.92412231,20.5916445 4.22310306,20.791321 C4.52208381,20.9909976 4.9207248,21.0908359 5.3193658,20.8911593 L11,17.896011 L16.6806342,20.8911593 C16.8799547,20.8911593 16.9796149,20.8911593 17.1789354,20.8911593 C17.3782559,20.8911593 17.5775764,20.791321 17.7768969,20.6914828 C18.0758777,20.4918062 18.2751982,20.0924531 18.1755379,19.6931 L17.0792752,13.3034503 L21.6636467,8.81072788 C21.9626274,8.61105133 22.0622877,8.21169822 21.9626274,7.9121834 Z M15.2853907,12.3050676 C15.0860702,12.6045824 14.98641,12.9040972 14.98641,13.203612 L15.783692,18.0956876 L11.398641,15.7994072 C11.0996602,15.5997307 10.8006795,15.5997307 10.5016988,15.7994072 L6.11664779,18.0956876 L7.01359003,13.203612 C7.01359003,12.9040972 6.91392978,12.6045824 6.71460929,12.3050676 L3.12684032,8.91056616 L8.01019253,8.21169822 C8.30917327,8.21169822 8.60815402,7.9121834 8.80747452,7.71250684 L11,3.21978441 L13.1925255,7.61266857 C13.2921857,7.9121834 13.5911665,8.11185995 13.9898075,8.11185995 L18.8731597,8.81072788 L15.2853907,12.3050676 Z" id="path-1"></path>
    </defs>
    <g id="REX-desktop" stroke="none" stroke-width="1" fill="none" fill-rule="evenodd">
        <g id="07.3-View-Property---evaluation-completed" transform="translate(-196.000000, -659.000000)">
            <g id="button/default" transform="translate(175.000000, 646.000000)">
                <g id="icon" transform="translate(21.000000, 13.000000)">
                    <mask id="mask-2" fill="white">
                        <use xlink:href="#path-1"></use>
                    </mask>
                    <use id="Mask" fill="#00B3B0" fill-rule="nonzero" xlink:href="#path-1"></use>
                    <g id="Icon-Color" mask="url(#mask-2)" fill="#00B3B0">
                        <g transform="translate(-1.000000, -1.000000)" id="Shape">
                            <rect x="0" y="0" width="24" height="24"></rect>
                        </g>
                    </g>
                </g>
            </g>
        </g>
    </g>
</svg>
