<?xml version="1.0" encoding="UTF-8"?>
<svg width="21px" height="21px" viewBox="0 0 21 21" version="1.1" xmlns="http://www.w3.org/2000/svg" xmlns:xlink="http://www.w3.org/1999/xlink">
    <title>icon / tag</title>
    <defs>
        <path d="M20.1084906,8.81603774 L11.5896226,0.297169811 C11.3915094,0.0990566038 11.1933962,0 10.8962264,0 L0.990566038,0 C0.396226415,0 0,0.396226415 0,0.990566038 L0,10.8962264 C0,11.1933962 0.0990566038,11.3915094 0.297169811,11.5896226 L8.81603774,20.1084906 C9.41037736,20.7028302 10.1037736,21 10.8962264,21 C10.8962264,21 10.8962264,21 10.8962264,21 C11.6886792,21 12.4811321,20.7028302 12.9764151,20.1084906 L20.1084906,12.9764151 C20.1084906,12.9764151 20.1084906,12.9764151 20.1084906,12.9764151 C21.2971698,11.7877358 21.2971698,10.004717 20.1084906,8.81603774 Z M18.7216981,11.5896226 L11.5896226,18.7216981 C11.1933962,19.1179245 10.5990566,19.1179245 10.2028302,18.7216981 L1.98113208,10.5 L1.98113208,1.98113208 L10.5,1.98113208 L18.7216981,10.2028302 C19.1179245,10.5990566 19.1179245,11.1933962 18.7216981,11.5896226 Z M6.63679245,5.25 C6.83490566,5.44811321 6.93396226,5.64622642 6.93396226,5.94339623 C6.93396226,6.24056604 6.83490566,6.43867925 6.63679245,6.63679245 C6.43867925,6.83490566 6.24056604,6.93396226 5.94339623,6.93396226 C5.64622642,6.93396226 5.44811321,6.83490566 5.25,6.63679245 C5.1509434,6.53773585 5.05188679,6.43867925 5.05188679,6.33962264 C4.95283019,6.24056604 4.95283019,6.04245283 4.95283019,5.94339623 C4.95283019,5.64622642 5.05188679,5.44811321 5.25,5.25 C5.54716981,4.95283019 5.94339623,4.85377358 6.33962264,5.05188679 C6.43867925,5.05188679 6.53773585,5.1509434 6.63679245,5.25 Z" id="path-1"></path>
    </defs>
    <g id="REX-Admin-desktop" stroke="none" stroke-width="1" fill="none" fill-rule="evenodd">
        <g id="01.1.-Manage-Users" transform="translate(-30.000000, -256.000000)">
            <g id="menu-left" transform="translate(20.000000, 130.000000)">
                <g id="icon-/-tag" transform="translate(10.000000, 126.000000)">
                    <mask id="mask-2" fill="white">
                        <use xlink:href="#path-1"></use>
                    </mask>
                    <use id="Mask" fill="#000000" fill-rule="nonzero" xlink:href="#path-1"></use>
                    <g id="Icon-Color" mask="url(#mask-2)" fill="#00b3b0">
                        <g transform="translate(-2.000000, -2.000000)" id="Shape">
                            <rect x="0" y="0" width="24" height="24"></rect>
                        </g>
                    </g>
                </g>
            </g>
        </g>
    </g>
</svg>
