<?xml version="1.0" encoding="UTF-8"?>
<svg width="14px" height="16px" viewBox="0 0 14 16" version="1.1" xmlns="http://www.w3.org/2000/svg" xmlns:xlink="http://www.w3.org/1999/xlink">
    <title>icon / trash</title>
    <defs>
        <path d="M12.6666667,2.66666667 L10,2.66666667 L10,2 C10,0.866666667 9.13333333,-3.33066907e-16 8,-3.33066907e-16 L5.33333333,-3.33066907e-16 C4.2,-3.33066907e-16 3.33333333,0.866666667 3.33333333,2 L3.33333333,2.66666667 L0.666666667,2.66666667 C0.266666667,2.66666667 2.22044605e-16,2.93333333 2.22044605e-16,3.33333333 C2.22044605e-16,3.73333333 0.266666667,4 0.666666667,4 L1.33333333,4 L1.33333333,12.6666667 C1.33333333,13.8 2.2,14.6666667 3.33333333,14.6666667 L10,14.6666667 C11.1333333,14.6666667 12,13.8 12,12.6666667 L12,4 L12.6666667,4 C13.0666667,4 13.3333333,3.73333333 13.3333333,3.33333333 C13.3333333,2.93333333 13.0666667,2.66666667 12.6666667,2.66666667 Z M4.66666667,2 C4.66666667,1.6 4.93333333,1.33333333 5.33333333,1.33333333 L8,1.33333333 C8.4,1.33333333 8.66666667,1.6 8.66666667,2 L8.66666667,2.66666667 L4.66666667,2.66666667 L4.66666667,2 Z M10.6666667,12.6666667 C10.6666667,13.0666667 10.4,13.3333333 10,13.3333333 L3.33333333,13.3333333 C2.93333333,13.3333333 2.66666667,13.0666667 2.66666667,12.6666667 L2.66666667,4 L10.6666667,4 L10.6666667,12.6666667 Z" id="path-1"></path>
    </defs>
    <g id="REX-desktop" stroke="none" stroke-width="1" fill="none" fill-rule="evenodd">
        <g id="05.2-Dashboard---Canary" transform="translate(-766.000000, -576.000000)">
            <g id="Group-13" transform="translate(765.000000, 576.000000)">
                <g id="icon-/-trash" transform="translate(1.333333, 0.666667)">
                    <mask id="mask-2" fill="white">
                        <use xlink:href="#path-1"></use>
                    </mask>
                    <use id="Mask" fill="#FFFFFF" fill-rule="nonzero" xlink:href="#path-1"></use>
                    <g id="Icon-Color" mask="url(#mask-2)" fill="#FFFFFF">
                        <g transform="translate(-1.333333, -0.666667)" id="Shape">
                            <rect x="0" y="0" width="16" height="16"></rect>
                        </g>
                    </g>
                </g>
            </g>
        </g>
    </g>
</svg>
