<?xml version="1.0" encoding="UTF-8"?>
<svg width="26px" height="26px" viewBox="0 0 26 26" version="1.1" xmlns="http://www.w3.org/2000/svg" xmlns:xlink="http://www.w3.org/1999/xlink">
    <title>trash</title>
    <defs>
        <path d="M9.5,2 L7.5,2 L7.5,1.5 C7.5,0.65 6.85,0 6,0 L4,0 C3.15,0 2.5,0.65 2.5,1.5 L2.5,2 L0.5,2 C0.2,2 8.8817842e-16,2.2 8.8817842e-16,2.5 C8.8817842e-16,2.8 0.2,3 0.5,3 L1,3 L1,9.5 C1,10.35 1.65,11 2.5,11 L7.5,11 C8.35,11 9,10.35 9,9.5 L9,3 L9.5,3 C9.8,3 10,2.8 10,2.5 C10,2.2 9.8,2 9.5,2 Z M3.5,1.5 C3.5,1.2 3.7,1 4,1 L6,1 C6.3,1 6.5,1.2 6.5,1.5 L6.5,2 L3.5,2 L3.5,1.5 Z M8,9.5 C8,9.8 7.8,10 7.5,10 L2.5,10 C2.2,10 2,9.8 2,9.5 L2,3 L8,3 L8,9.5 Z" id="path-1"></path>
    </defs>
    <g id="REX-desktop" stroke="none" stroke-width="1" fill="none" fill-rule="evenodd">
        <g id="06.1b.New" transform="translate(-822.000000, -809.000000)">
            <g id="Group-11" transform="translate(120.000000, 720.000000)">
                <g id="Group-4-Copy-2" transform="translate(0.000000, 90.000000)">
                    <g id="trash" transform="translate(703.000000, 0.000000)">
                        <rect id="Rectangle" stroke="#FF5E57" fill="#FFFFFF" x="0" y="0" width="24" height="24"></rect>
                        <g id="icon-/-folder" transform="translate(7.000000, 6.500000)">
                            <mask id="mask-2" fill="white">
                                <use xlink:href="#path-1"></use>
                            </mask>
                            <use id="Mask" fill="#FF5E57" fill-rule="nonzero" xlink:href="#path-1"></use>
                            <g id="Icon-Color" mask="url(#mask-2)" fill="#FF5E57">
                                <g transform="translate(-1.000000, -0.500000)" id="Shape">
                                    <rect x="0" y="0" width="12" height="12"></rect>
                                </g>
                            </g>
                        </g>
                    </g>
                </g>
            </g>
        </g>
    </g>
</svg>